<?xml version="1.0" standalone="no"?><!DOCTYPE svg PUBLIC "-//W3C//DTD SVG 1.1//EN" "http://www.w3.org/Graphics/SVG/1.1/DTD/svg11.dtd" ><svg xmlns="http://www.w3.org/2000/svg"><metadata></metadata><defs><font id="PabloImpallari: Lobster: 2014" horiz-adv-x="3086"><font-face font-family="Lobster" font-weight="400" font-stretch="normal" units-per-em="2048" panose-1="2 0 5 6 0 0 0 2 0 3" ascent="2048" descent="-512" x-height="3" bbox="-514 -512 3172 2048" underline-thickness="102" underline-position="-154" unicode-range="U+0000-fb04" /><missing-glyph horiz-adv-x="1659" d="M547 2048 l1112 0 l-549 -2560 l-1110 0 l547 2560 ZM96 -430 l948 0 l517 2396 l-949 0 l-516 -2396 ZM961 1094 q0 57 -23.5 87.5 q-23.5 30.5 -65.5 30.5 q-43 0 -71.5 -30 q-28.5 -30 -28.5 -78 q0 -32 17 -60.5 q17 -28.5 45 -42.5 l0 -8 q-23 -23 -49.5 -32 q-26.5 -9 -49.5 -9 q-43 0 -68.5 30.5 q-25.5 30.5 -25.5 80.5 q0 46 20.5 86 q20.5 40 57 69.5 q36.5 29.5 86 46.5 q49.5 17 106.5 17 q109 0 168.5 -48.5 q59.5 -48.5 59.5 -133.5 q0 -56 -25 -99.5 q-25 -43.5 -63 -80.5 q-38 -37 -82 -71 q-44 -34 -82 -72 q-38 -38 -63 -84 q-25 -46 -25 -107 l-86 0 q0 64 18.5 112.5 q18.5 48.5 46 87.5 q27.5 39 59.5 73 q32 34 59.5 69 q27.5 35 46 75 q18.5 40 18.5 91 ZM809 389 q0 -38 -22.5 -60 q-22.5 -22 -59.5 -22 q-38 0 -60 22 q-22 22 -22 60 q0 37 22 59.5 q22 22.5 60 22.5 q37 0 59.5 -22.5 q22.5 -22.5 22.5 -59.5 Z" /><glyph glyph-name="space" unicode=" " d="" /><glyph glyph-name="exclam" unicode="!" d="M201 473 l156 1024 l315 43 l-297 -1067 l-174 0 ZM392 152 q0 -34 -12.5 -64 q-12.5 -30 -34.5 -52 q-22 -22 -51.5 -35 q-29.5 -13 -63.5 -13 q-34 0 -63.5 13 q-29.5 13 -52 35 q-22.5 22 -35.5 52 q-13 30 -13 64 q0 34 13 63 q13 29 35.5 51 q22.5 22 52 34.5 q29.5 12.5 63.5 12.5 q34 0 63.5 -12.5 q29.5 -12.5 51.5 -34.5 q22 -22 34.5 -51 q12.5 -29 12.5 -63 Z" /><glyph glyph-name="numbersign" unicode="#" d="M241 1008 l211 0 l75 371 l150 0 l-76 -371 l265 0 l75 371 l150 0 l-76 -371 l199 0 l-31 -158 l-200 0 l-51 -252 l194 0 l-31 -158 l-195 0 l-77 -382 l-149 0 l77 382 l-265 0 l-77 -382 l-149 0 l77 382 l-215 0 l31 158 l216 0 l51 252 l-210 0 l31 158 ZM518 598 l265 0 l51 252 l-265 0 l-51 -252 Z" /><glyph glyph-name="ampersand" unicode="&amp;" d="M1162 558 q-23 -6 -43 -8.5 q-20 -2.5 -40 -3.5 q-15 -132 -67.5 -239.5 q-52.5 -107.5 -135 -184 q-82.5 -76.5 -192 -118 q-109.5 -41.5 -238.5 -41.5 q-97 0 -174 25 q-77 25 -131 72.5 q-54 47.5 -83 115 q-29 67.5 -29 152.5 q0 86 29.5 169.5 q29.5 83.5 81 154 q51.5 70.5 120.5 123 q69 52.5 148 75.5 l0 8 q-33 27 -55 54.5 q-22 27.5 -36 58.5 q-14 31 -20 67 q-6 36 -6 80 q0 84 35.5 160.5 q35.5 76.5 96.5 134.5 q61 58 142.5 92.5 q81.5 34.5 173.5 34.5 q70 0 129 -21 q59 -21 101.5 -59 q42.5 -38 66 -90 q23.5 -52 23.5 -113 q0 -42 -11.5 -77 q-11.5 -35 -32 -60 q-20.5 -25 -49.5 -39 q-29 -14 -63 -14 q-38 0 -70 16.5 q-32 16.5 -55 46.5 q37 23 60.5 70 q23.5 47 23.5 100 q0 57 -28.5 90 q-28.5 33 -77.5 33 q-42 0 -80 -24 q-38 -24 -67 -65 q-29 -41 -46.5 -94.5 q-17.5 -53.5 -17.5 -111.5 q0 -103 55 -173 q55 -70 152 -95 l0 -8 q-74 -14 -140.5 -58.5 q-66.5 -44.5 -117 -109 q-50.5 -64.5 -80 -142 q-29.5 -77.5 -29.5 -157.5 q0 -106 53.5 -165.5 q53.5 -59.5 147.5 -59.5 q67 0 132.5 28 q65.5 28 120 79 q54.5 51 94.5 122 q40 71 55 157 q-23 -1 -45.5 -3.5 q-22.5 -2.5 -48.5 -9.5 q-54 -19 -96 -47.5 q-42 -28.5 -65 -62.5 l-5 -1 q-14 17 -23 35.5 q-9 18.5 -15 37.5 q-13 45 -5 85.5 q8 40.5 31.5 74 q23.5 33.5 59.5 58.5 q36 25 78 39 q33 10 68.5 14.5 q35.5 4.5 70.5 7.5 q35 3 69.5 6 q34.5 3 65.5 10 q24 8 49.5 21 q25.5 13 48 29 q22.5 16 41 32.5 q18.5 16.5 29.5 32.5 l5 0 q17 -17 27.5 -36 q10.5 -19 16.5 -39 q13 -43 3 -85.5 q-10 -42.5 -36 -79 q-26 -36.5 -65 -64.5 q-39 -28 -85 -43 Z" /><glyph glyph-name="parenleft" unicode="(" d="M1089 1481 q-81 -48 -152.5 -121 q-71.5 -73 -132.5 -166.5 q-61 -93.5 -110 -203.5 q-49 -110 -83 -232 q-34 -122 -52.5 -252.5 q-18.5 -130.5 -18.5 -263.5 q0 -196 39 -366.5 q39 -170.5 115 -301.5 l-68 -59 q-77 77 -136.5 170 q-59.5 93 -100 197 q-40.5 104 -61.5 218.5 q-21 114.5 -21 235.5 q0 195 54 380 q54 185 152.5 345.5 q98.5 160.5 238 289.5 q139.5 129 310.5 212 l27 -82 Z" /><glyph glyph-name="parenright" unicode=")" d="M-140 -403 q80 47 152 120.5 q72 73.5 133 166.5 q61 93 110 203 q49 110 83 232 q34 122 52.5 252.5 q18.5 130.5 18.5 264.5 q0 196 -39 366 q-39 170 -115 301 l68 60 q77 -78 136.5 -170.5 q59.5 -92.5 100 -197 q40.5 -104.5 61.5 -219 q21 -114.5 21 -235.5 q0 -195 -54 -380 q-54 -185 -152.5 -345.5 q-98.5 -160.5 -238 -289 q-139.5 -128.5 -310.5 -211.5 l-27 82 Z" /><glyph glyph-name="asterisk" unicode="*" d="M583 1253 q60 74 108.5 105.5 q48.5 31.5 91.5 31.5 q47 0 75 -32.5 q28 -32.5 28 -83.5 q0 -7 -1 -14 q-1 -7 -3 -13 l-265 -86 q75 -14 123 -30 q48 -16 75.5 -35 q27.5 -19 37.5 -40.5 q10 -21.5 10 -46.5 q0 -17 -3 -31.5 q-3 -14.5 -11.5 -29 q-8.5 -14.5 -23 -30 q-14.5 -15.5 -36.5 -34.5 l-206 183 q15 -56 24.5 -101.5 q9.5 -45.5 9.5 -83.5 q0 -129 -110 -129 q-17 0 -38.5 4.5 q-21.5 4.5 -47.5 12.5 l51 297 q-60 -74 -106.5 -103.5 q-46.5 -29.5 -88.5 -29.5 q-46 0 -74 32.5 q-28 32.5 -28 83.5 q0 7 0 14 q0 7 2 13 l260 84 q-76 13 -124.5 29 q-48.5 16 -76 34.5 q-27.5 18.5 -37.5 40 q-10 21.5 -10 45.5 q0 17 3.5 32 q3.5 15 12.5 29.5 q9 14.5 23.5 30 q14.5 15.5 36.5 33.5 l207 -182 q-17 56 -26 101.5 q-9 45.5 -9 82.5 q0 129 109 129 q18 0 40 -4 q22 -4 48 -12 l-51 -297 Z" /><glyph glyph-name="comma" unicode="," d="M84 -258 q-18 12 -18 35 q0 27 16.5 49 q16.5 22 36.5 43 q20 21 36.5 43 q16.5 22 16.5 51 q0 11 -6.5 21.5 q-6.5 10.5 -20.5 19.5 q-42 26 -69 62.5 q-27 36.5 -27 87.5 q0 34 12.5 63.5 q12.5 29.5 34.5 51.5 q22 22 51.5 35 q29.5 13 63.5 13 q68 0 103.5 -43.5 q35.5 -43.5 35.5 -111.5 q0 -45 -18 -100.5 q-18 -55.5 -52 -112 q-34 -56.5 -83.5 -110.5 q-49.5 -54 -112.5 -97 Z" /><glyph glyph-name="hyphen" unicode="-" d="M39 455 l37 161 l409 0 l-34 -161 l-412 0 Z" /><glyph glyph-name="period" unicode="." d="M389 154 q0 -34 -13 -63.5 q-13 -29.5 -35.5 -51.5 q-22.5 -22 -52 -34.5 q-29.5 -12.5 -63.5 -12.5 q-34 0 -63.5 12.5 q-29.5 12.5 -51.5 34.5 q-22 22 -34.5 51.5 q-12.5 29.5 -12.5 63.5 q0 34 12.5 63.5 q12.5 29.5 34.5 51.5 q22 22 51.5 35 q29.5 13 63.5 13 q34 0 63.5 -13 q29.5 -13 52 -35 q22.5 -22 35.5 -51.5 q13 -29.5 13 -63.5 Z" /><glyph glyph-name="slash" unicode="/" d="M23 -512 l434 2048 l147 0 l-434 -2048 l-147 0 Z" /><glyph glyph-name="zero" unicode="0" d="M456 -21 q-120 0 -200 40 q-80 40 -127 109 q-47 69 -66.5 162.5 q-19.5 93.5 -19.5 200.5 q0 141 22.5 274.5 q22.5 133.5 65.5 251 q43 117.5 104.5 215 q61.5 97.5 139 167.5 q77.5 70 169.5 109 q92 39 196 39 q101 0 175.5 -35.5 q74.5 -35.5 123 -100 q48.5 -64.5 72 -155.5 q23.5 -91 23.5 -202 q0 -75 -8.5 -160.5 q-8.5 -85.5 -26.5 -175 q-18 -89.5 -46.5 -179.5 q-28.5 -90 -68.5 -172 q-40 -82 -92 -153 q-52 -71 -117.5 -123 q-65.5 -52 -145 -82 q-79.5 -30 -173.5 -30 ZM737 1425 q-49 0 -96.5 -41.5 q-47.5 -41.5 -90.5 -113 q-43 -71.5 -80 -167.5 q-37 -96 -63.5 -205.5 q-26.5 -109.5 -42 -226.5 q-15.5 -117 -15.5 -231 q0 -58 5.5 -113 q5.5 -55 20 -98 q14.5 -43 40.5 -69 q26 -26 68 -26 q50 0 97.5 40.5 q47.5 40.5 89 111 q41.5 70.5 76 166 q34.5 95.5 59 206 q24.5 110.5 38 230 q13.5 119.5 13.5 238.5 q0 60 -7 114 q-7 54 -21.5 95.5 q-14.5 41.5 -37 65.5 q-22.5 24 -53.5 24 Z" /><glyph glyph-name="one" unicode="1" d="M43 0 l270 1278 l-194 0 l24 94 q42 0 94 4 q52 4 116 20.5 q64 16.5 141 48 q77 31.5 170 87.5 l-326 -1532 l-295 0 Z" /><glyph glyph-name="two" unicode="2" d="M889 350 q26 -72 26 -127 q0 -56 -22.5 -101.5 q-22.5 -45.5 -60.5 -78 q-38 -32.5 -87.5 -50.5 q-49.5 -18 -103.5 -18 q-49 0 -99 13 q-50 13 -102 28 q-52 15 -106.5 28 q-54.5 13 -111.5 13 q-53 0 -108.5 -13 q-55.5 -13 -118.5 -46 l-8 0 q-12 49 -12 96 q1 72 30.5 139 q29.5 67 78 130 q48.5 63 110 124.5 q61.5 61.5 125 123.5 q63.5 62 125 126 q61.5 64 109.5 132.5 q48 68.5 77 142.5 q29 74 29 157 q0 55 -8.5 101.5 q-8.5 46.5 -27.5 80 q-19 33.5 -48 52.5 q-29 19 -69 19 q-36 0 -66 -13 q-30 -13 -51 -35.5 q-21 -22.5 -33 -53 q-12 -30.5 -12 -64.5 q0 -75 29 -127.5 q29 -52.5 69 -76.5 l0 -8 q-35 -32 -76 -50.5 q-41 -18.5 -79 -18.5 q-30 0 -57 14 q-27 14 -47 41 q-20 27 -32 66.5 q-12 39.5 -12 90.5 q0 61 28 123.5 q28 62.5 82 113 q54 50.5 134.5 82 q80.5 31.5 185.5 31.5 q87 0 160 -25.5 q73 -25.5 126 -73.5 q53 -48 82.5 -117.5 q29.5 -69.5 29.5 -157.5 q0 -74 -25.5 -138 q-25.5 -64 -69 -122 q-43.5 -58 -100.5 -111 q-57 -53 -119.5 -103 q-62.5 -50 -127 -98.5 q-64.5 -48.5 -123 -98.5 q-58.5 -50 -107 -102 q-48.5 -52 -79.5 -109 q34 9 64 12 q30 3 61 3 q51 0 97.5 -7 q46.5 -7 89.5 -16 q43 -9 81.5 -16 q38.5 -7 73.5 -7 q52 0 99.5 22.5 q47.5 22.5 100.5 81.5 l6 -4 Z" /><glyph glyph-name="three" unicode="3" d="M739 854 q68 -22 116.5 -57 q48.5 -35 80 -79 q31.5 -44 46.5 -95.5 q15 -51.5 15 -106.5 q0 -62 -18.5 -125 q-18.5 -63 -53.5 -121.5 q-35 -58.5 -85.5 -109.5 q-50.5 -51 -114.5 -89 q-64 -38 -141 -59.5 q-77 -21.5 -164 -21.5 q-30 0 -71.5 4 q-41.5 4 -87 16.5 q-45.5 12.5 -90 35.5 q-44.5 23 -80 61.5 q-35.5 38.5 -57.5 95 q-22 56.5 -22 135.5 q0 64 15.5 118 q15.5 54 47 93 q31.5 39 77.5 60.5 q46 21.5 108 21.5 q28 0 54.5 -5 q26.5 -5 47.5 -17.5 q21 -12.5 36.5 -32.5 q15.5 -20 21.5 -50 q-59 -4 -94.5 -27.5 q-35.5 -23.5 -54.5 -56 q-19 -32.5 -25 -69.5 q-6 -37 -6 -68 q0 -46 14.5 -80.5 q14.5 -34.5 38.5 -58 q24 -23.5 55.5 -35.5 q31.5 -12 66.5 -12 q46 0 93 21 q47 21 85.5 64.5 q38.5 43.5 62.5 109 q24 65.5 24 155.5 q0 58 -16 116.5 q-16 58.5 -49 110.5 q-33 52 -84.5 94 q-51.5 42 -122.5 66 q86 25 151.5 70 q65.5 45 109.5 100.5 q44 55.5 66.5 115 q22.5 59.5 22.5 113.5 q0 36 -9.5 67 q-9.5 31 -29 53.5 q-19.5 22.5 -49 35 q-29.5 12.5 -68.5 12.5 q-37 0 -67 -11.5 q-30 -11.5 -51 -32 q-21 -20.5 -32.5 -50 q-11.5 -29.5 -11.5 -65.5 q0 -21 4 -44 q4 -23 13.5 -43.5 q9.5 -20.5 24.5 -36.5 q15 -16 36 -22 q-38 -35 -78 -52 q-40 -17 -78 -17 q-30 0 -57 11.5 q-27 11.5 -47 33.5 q-20 22 -31.5 54.5 q-11.5 32.5 -11.5 74.5 q0 70 33 127 q33 57 90 98 q57 41 134.5 63.5 q77.5 22.5 166.5 22.5 q94 0 165.5 -24.5 q71.5 -24.5 119.5 -66 q48 -41.5 72 -95.5 q24 -54 24 -113 q0 -51 -17.5 -103.5 q-17.5 -52.5 -52.5 -102 q-35 -49.5 -87.5 -94.5 q-52.5 -45 -123.5 -81 Z" /><glyph glyph-name="four" unicode="4" d="M536 441 q-64 18 -130 36.5 q-66 18.5 -138 18.5 q-52 0 -108.5 -7.5 q-56.5 -7.5 -112.5 -35.5 l-8 0 l-43 80 l0 10 q86 103 166.5 208.5 q80.5 105.5 143 211.5 q62.5 106 100.5 210.5 q38 104.5 38 205.5 q0 32 -4 64 q-4 32 -12 63 q23 7 50.5 10 q27.5 3 51.5 3 q48 0 84 -13.5 q36 -13.5 61 -37.5 q25 -24 37.5 -56.5 q12.5 -32.5 12.5 -69.5 q0 -50 -23.5 -108.5 q-23.5 -58.5 -63.5 -120.5 q-40 -62 -92 -125.5 q-52 -63.5 -108.5 -122.5 q-56.5 -59 -114 -112 q-57.5 -53 -108.5 -93 l2 -6 q34 14 83.5 25.5 q49.5 11.5 98.5 11.5 q48 0 103.5 -10 q55.5 -10 109.5 -20 l166 478 l131 0 l-101 -476 q33 13 65.5 36.5 q32.5 23.5 64.5 60.5 l6 -4 q17 -29 25 -57 q8 -28 8 -55 q0 -41 -16.5 -77.5 q-16.5 -36.5 -46 -65.5 q-29.5 -29 -70 -49.5 q-40.5 -20.5 -87.5 -29.5 l-89 -422 l-285 0 l153 441 Z" /><glyph glyph-name="five" unicode="5" d="M404 -10 q-182 0 -277.5 77.5 q-95.5 77.5 -95.5 220.5 q0 64 19.5 117 q19.5 53 54.5 91 q35 38 83.5 58.5 q48.5 20.5 107.5 20.5 q125 0 146 -104 q-84 -10 -134 -60 q-50 -50 -50 -130 q0 -73 42.5 -113.5 q42.5 -40.5 114.5 -40.5 q60 0 110 28 q50 28 85.5 78.5 q35.5 50.5 55.5 119.5 q20 69 20 152 q0 144 -59 220 q-59 76 -166 76 q-57 0 -122 -22.5 q-65 -22.5 -146 -70.5 l-28 20 l159 775 q90 -11 176 -19 q86 -8 167 -8 q88 0 175 13 q87 13 182 45 q2 -17 3 -34 q1 -17 1 -34 q0 -49 -12.5 -92 q-12.5 -43 -40 -75.5 q-27.5 -32.5 -72.5 -51 q-45 -18.5 -110 -18.5 q-41 0 -88 6.5 q-47 6.5 -93.5 15 q-46.5 8.5 -88.5 17 q-42 8.5 -72 12.5 l-82 -371 q131 64 254 64 q83 0 150 -29.5 q67 -29.5 114 -84 q47 -54.5 72.5 -133 q25.5 -78.5 25.5 -175.5 q0 -126 -42 -229 q-42 -103 -118 -177 q-76 -74 -183.5 -114.5 q-107.5 -40.5 -237.5 -40.5 Z" /><glyph glyph-name="six" unicode="6" d="M676 931 q70 0 128 -24 q58 -24 99 -70 q41 -46 64 -111.5 q23 -65.5 23 -148.5 q0 -76 -19.5 -149 q-19.5 -73 -55 -138.5 q-35.5 -65.5 -85 -120 q-49.5 -54.5 -109.5 -94.5 q-60 -40 -128.5 -62.5 q-68.5 -22.5 -141.5 -22.5 q-107 0 -186 30.5 q-79 30.5 -130.5 95.5 q-51.5 65 -76.5 167.5 q-25 102.5 -25 246.5 q0 140 25.5 268.5 q25.5 128.5 71.5 240 q46 111.5 111 203 q65 91.5 144.5 156.5 q79.5 65 171 100.5 q91.5 35.5 191.5 35.5 q67 0 122 -16.5 q55 -16.5 94 -47 q39 -30.5 60 -73.5 q21 -43 21 -95 q0 -39 -11.5 -73.5 q-11.5 -34.5 -31.5 -60 q-20 -25.5 -47.5 -40 q-27.5 -14.5 -59.5 -14.5 q-34 0 -63 18 q-29 18 -41 47 q33 17 50 50.5 q17 33.5 17 68.5 q0 22 -6.5 43 q-6.5 21 -20 37 q-13.5 16 -33.5 25.5 q-20 9.5 -47 9.5 q-63 0 -125 -51 q-62 -51 -116 -141 q-54 -90 -96 -214 q-42 -124 -64 -270 l7 2 q37 96 121 144 q84 48 198 48 ZM332 448 q0 -81 11.5 -137.5 q11.5 -56.5 32.5 -92.5 q21 -36 51 -52 q30 -16 67 -16 q43 0 85 32 q42 32 75.5 88.5 q33.5 56.5 54 133.5 q20.5 77 20.5 167 q0 59 -12.5 100 q-12.5 41 -34 66.5 q-21.5 25.5 -51.5 37 q-30 11.5 -66 11.5 q-63 0 -107 -24 q-44 -24 -72 -68 q-28 -44 -41 -106.5 q-13 -62.5 -13 -139.5 Z" /><glyph glyph-name="seven" unicode="7" d="M1068 1518 q0 -34 -26 -88 q-26 -54 -68.5 -123.5 q-42.5 -69.5 -96.5 -151.5 q-54 -82 -110.5 -171.5 q-56.5 -89.5 -110.5 -184.5 q-54 -95 -96.5 -190 q-42.5 -95 -68.5 -188 q-26 -93 -26 -179 q0 -54 10 -109 q10 -55 27 -103 q-37 -20 -73.5 -29 q-36.5 -9 -70.5 -9 q-47 0 -85 17 q-38 17 -64.5 49 q-26.5 32 -41 78 q-14.5 46 -14.5 104 q0 79 26 159.5 q26 80.5 68 159 q42 78.5 96.5 153.5 q54.5 75 110.5 145 q56 70 110.5 133 q54.5 63 96.5 116 q42 53 68 95 q26 42 26 71 q-38 -11 -70 -19 q-32 -8 -67 -8 q-34 0 -66.5 7 q-32.5 7 -64.5 15.5 q-32 8.5 -65.5 15.5 q-33.5 7 -70.5 7 q-61 0 -107.5 -24.5 q-46.5 -24.5 -94.5 -81.5 l-6 2 q-14 31 -20.5 63 q-6.5 32 -6.5 62 q0 54 20.5 98 q20.5 44 58 75 q37.5 31 89.5 48 q52 17 114 17 q52 0 97 -10.5 q45 -10.5 90.5 -22.5 q45.5 -12 94 -22.5 q48.5 -10.5 108.5 -10.5 q55 0 125 10.5 q70 10.5 151 32.5 l4 -8 Z" /><glyph glyph-name="eight" unicode="8" d="M-4 378 q0 72 22.5 135.5 q22.5 63.5 70 119 q47.5 55.5 121 104.5 q73.5 49 175.5 94 q-37 38 -70 78 q-33 40 -58.5 82 q-25.5 42 -40.5 88 q-15 46 -15 96 q0 78 33.5 146 q33.5 68 92.5 119 q59 51 139.5 80.5 q80.5 29.5 175.5 29.5 q82 0 152.5 -20.5 q70.5 -20.5 122 -58 q51.5 -37.5 81 -89.5 q29.5 -52 31.5 -116 q0 -103 -74 -194.5 q-74 -91.5 -227 -175.5 q48 -44 94.5 -90.5 q46.5 -46.5 83.5 -99 q37 -52.5 60 -112.5 q23 -60 25 -131 q0 -96 -40.5 -182 q-40.5 -86 -111.5 -150.5 q-71 -64.5 -168 -102.5 q-97 -38 -210 -40 q-101 0 -185.5 27.5 q-84.5 27.5 -146 78.5 q-61.5 51 -97 123 q-35.5 72 -36.5 161 ZM687 385 q-1 52 -19.5 99.5 q-18.5 47.5 -48.5 92 q-30 44.5 -69 87 q-39 42.5 -81 84.5 q-98 -67 -150.5 -162 q-52.5 -95 -52.5 -206 q0 -57 14.5 -103.5 q14.5 -46.5 40.5 -79.5 q26 -33 61.5 -50.5 q35.5 -17.5 78.5 -17.5 q49 0 90.5 20.5 q41.5 20.5 71.5 55.5 q30 35 47 81.5 q17 46.5 17 98.5 ZM491 1248 q0 -39 12 -75 q12 -36 32.5 -69 q20.5 -33 47.5 -64.5 q27 -31.5 59 -62.5 q39 34 69.5 73 q30.5 39 52.5 81 q22 42 33.5 84.5 q11.5 42.5 11.5 82.5 q0 72 -36.5 113 q-36.5 41 -99.5 41 q-40 0 -73.5 -15.5 q-33.5 -15.5 -57.5 -42.5 q-24 -27 -37.5 -64.5 q-13.5 -37.5 -13.5 -81.5 Z" /><glyph glyph-name="nine" unicode="9" d="M370 617 q-71 0 -129 24 q-58 24 -99 70 q-41 46 -64 111.5 q-23 65.5 -23 148.5 q0 76 21 147.5 q21 71.5 59 134.5 q38 63 91 115.5 q53 52.5 116.5 90 q63.5 37.5 135.5 58 q72 20.5 149 20.5 q190 0 285.5 -135 q95.5 -135 95.5 -404 q0 -140 -24 -269 q-24 -129 -68 -240.5 q-44 -111.5 -106 -202.5 q-62 -91 -138 -156 q-76 -65 -164 -100.5 q-88 -35.5 -184 -35.5 q-68 0 -123 16.5 q-55 16.5 -93.5 47 q-38.5 30.5 -59.5 73 q-21 42.5 -21 95.5 q0 39 11 73.5 q11 34.5 31 60.5 q20 26 46.5 41 q26.5 15 58.5 15 q37 0 66 -18.5 q29 -18.5 39 -47.5 q-32 -18 -49.5 -50.5 q-17.5 -32.5 -17.5 -66.5 q0 -39 25 -69.5 q25 -30.5 78 -30.5 q64 0 124.5 51.5 q60.5 51.5 111 142.5 q50.5 91 88 215 q37.5 124 56.5 269 l-7 -2 q-37 -96 -121 -144 q-84 -48 -197 -48 ZM715 1143 q0 36 -4.5 80.5 q-4.5 44.5 -19.5 84.5 q-15 40 -45 67 q-30 27 -81 27 q-53 0 -99 -37.5 q-46 -37.5 -79.5 -98 q-33.5 -60.5 -52.5 -136.5 q-19 -76 -19 -153 q0 -56 10.5 -96 q10.5 -40 30 -65.5 q19.5 -25.5 45.5 -37.5 q26 -12 58 -12 q70 0 119 28 q49 28 79.5 78 q30.5 50 44 119 q13.5 69 13.5 152 Z" /><glyph glyph-name="colon" unicode=":" d="M410 276 q0 -34 -13 -63.5 q-13 -29.5 -35.5 -51 q-22.5 -21.5 -52 -34 q-29.5 -12.5 -63.5 -12.5 q-34 0 -63.5 12.5 q-29.5 12.5 -51.5 34 q-22 21.5 -34.5 51 q-12.5 29.5 -12.5 63.5 q0 34 12.5 64 q12.5 30 34.5 52 q22 22 51.5 35 q29.5 13 63.5 13 q34 0 63.5 -13 q29.5 -13 52 -35 q22.5 -22 35.5 -52 q13 -30 13 -64 ZM512 768 q0 -34 -13 -63.5 q-13 -29.5 -35.5 -51.5 q-22.5 -22 -52 -34.5 q-29.5 -12.5 -63.5 -12.5 q-34 0 -63.5 12.5 q-29.5 12.5 -51.5 34.5 q-22 22 -34.5 51.5 q-12.5 29.5 -12.5 63.5 q0 34 12.5 63.5 q12.5 29.5 34.5 52 q22 22.5 51.5 35.5 q29.5 13 63.5 13 q34 0 63.5 -13 q29.5 -13 52 -35.5 q22.5 -22.5 35.5 -52 q13 -29.5 13 -63.5 Z" /><glyph glyph-name="semicolon" unicode=";" d="M518 678 q0 -34 -13 -63.5 q-13 -29.5 -35.5 -51.5 q-22.5 -22 -52 -34.5 q-29.5 -12.5 -63.5 -12.5 q-34 0 -63.5 12.5 q-29.5 12.5 -51 34.5 q-21.5 22 -34 51.5 q-12.5 29.5 -12.5 63.5 q0 34 12.5 63.5 q12.5 29.5 34 52 q21.5 22.5 51 35.5 q29.5 13 63.5 13 q34 0 63.5 -13 q29.5 -13 52 -35.5 q22.5 -22.5 35.5 -52 q13 -29.5 13 -63.5 ZM129 -225 q-18 12 -18 35 q0 27 16.5 49 q16.5 22 36.5 43 q20 21 36.5 43 q16.5 22 16.5 51 q0 11 -6.5 21.5 q-6.5 10.5 -20.5 19.5 q-42 26 -69 62 q-27 36 -27 87 q0 34 12.5 63.5 q12.5 29.5 34.5 52 q22 22.5 51.5 35.5 q29.5 13 63.5 13 q68 0 103.5 -43.5 q35.5 -43.5 35.5 -111.5 q0 -45 -18 -100.5 q-18 -55.5 -52 -112 q-34 -56.5 -83.5 -110.5 q-49.5 -54 -112.5 -97 Z" /><glyph glyph-name="equal" unicode="=" d="M156 647 l49 230 l753 0 l-47 -230 l-755 0 ZM66 207 l49 229 l753 0 l-47 -229 l-755 0 Z" /><glyph glyph-name="question" unicode="?" d="M603 1270 q0 90 -36 138 q-36 48 -101 48 q-34 0 -63 -13 q-29 -13 -50 -35.5 q-21 -22.5 -33 -53 q-12 -30.5 -12 -66.5 q0 -52 26.5 -97 q26.5 -45 71.5 -65 l0 -8 q-37 -34 -77.5 -51.5 q-40.5 -17.5 -77.5 -17.5 q-33 0 -60.5 12.5 q-27.5 12.5 -47 35 q-19.5 22.5 -30 54 q-10.5 31.5 -10.5 70.5 q0 73 32.5 135.5 q32.5 62.5 89.5 108.5 q57 46 134.5 72 q77.5 26 167.5 26 q83 0 149 -19.5 q66 -19.5 112.5 -56 q46.5 -36.5 71 -89 q24.5 -52.5 24.5 -118.5 q0 -66 -23 -120 q-23 -54 -60.5 -100.5 q-37.5 -46.5 -85.5 -88.5 q-48 -42 -97.5 -83 q-49.5 -41 -97.5 -84 q-48 -43 -85.5 -92 q-37.5 -49 -60.5 -107.5 q-23 -58.5 -23 -129.5 l-135 0 q0 76 16.5 137 q16.5 61 44 112.5 q27.5 51.5 62 95 q34.5 43.5 71 84 q36.5 40.5 71 80 q34.5 39.5 62 83 q27.5 43.5 44 93.5 q16.5 50 16.5 110 ZM421 164 q0 -34 -12.5 -63.5 q-12.5 -29.5 -34.5 -52 q-22 -22.5 -51.5 -35.5 q-29.5 -13 -63.5 -13 q-34 0 -63.5 13 q-29.5 13 -52 35.5 q-22.5 22.5 -35.5 52 q-13 29.5 -13 63.5 q0 34 13 63.5 q13 29.5 35.5 51.5 q22.5 22 52 34.5 q29.5 12.5 63.5 12.5 q34 0 63.5 -12.5 q29.5 -12.5 51.5 -34.5 q22 -22 34.5 -51.5 q12.5 -29.5 12.5 -63.5 Z" /><glyph glyph-name="at" unicode="@" d="M962 33 q0 -43 -22.5 -77.5 q-22.5 -34.5 -60 -61.5 q-37.5 -27 -86.5 -46 q-49 -19 -101.5 -31.5 q-52.5 -12.5 -105.5 -18.5 q-53 -6 -98 -6 q-104 0 -196 25.5 q-92 25.5 -161 85.5 q-69 60 -109.5 160 q-40.5 100 -40.5 249 q0 127 30 246 q30 119 85 224 q55 105 132.5 191.5 q77.5 86.5 172 149 q94.5 62.5 203.5 97 q109 34.5 228 34.5 q108 0 199 -29.5 q91 -29.5 158 -88.5 q67 -59 104.5 -147 q37.5 -88 37.5 -205 q0 -78 -17 -152 q-17 -74 -46.5 -139.5 q-29.5 -65.5 -71 -120.5 q-41.5 -55 -90 -95 q-48.5 -40 -103.5 -62 q-55 -22 -112 -22 q-68 0 -109.5 32.5 q-41.5 32.5 -45.5 95.5 q-55 -72 -112.5 -110 q-57.5 -38 -123.5 -38 q-78 0 -121.5 53 q-43.5 53 -43.5 157 q0 60 15 122 q15 62 41 119 q26 57 62 107 q36 50 77 86.5 q41 36.5 86.5 58 q45.5 21.5 91.5 21.5 q32 0 55.5 -12.5 q23.5 -12.5 52.5 -43.5 l33 51 l155 -15 l-95 -361 q-11 -42 -19.5 -78 q-8.5 -36 -8.5 -63 q0 -11 1.5 -22.5 q1.5 -11.5 6 -20.5 q4.5 -9 12.5 -15 q8 -6 20 -6 q30 0 69.5 38 q39.5 38 75 102.5 q35.5 64.5 60 149.5 q24.5 85 24.5 178 q0 160 -78 243 q-78 83 -225 83 q-89 0 -174.5 -30 q-85.5 -30 -161 -83.5 q-75.5 -53.5 -139 -127 q-63.5 -73.5 -109 -160.5 q-45.5 -87 -71 -183.5 q-25.5 -96.5 -25.5 -196.5 q0 -97 21 -166.5 q21 -69.5 63 -114 q42 -44.5 104.5 -65.5 q62.5 -21 144.5 -21 q62 0 121.5 12.5 q59.5 12.5 112 36 q52.5 23.5 96.5 57.5 q44 34 77 77 q23 -11 39 -37 q16 -26 16 -70 ZM799 764 q-12 11 -22.5 15.5 q-10.5 4.5 -21.5 4.5 q-38 0 -77 -37.5 q-39 -37.5 -71.5 -94.5 q-32.5 -57 -53 -124.5 q-20.5 -67.5 -20.5 -128.5 q0 -45 13 -65.5 q13 -20.5 42 -20.5 q15 0 30.5 5 q15.5 5 30.5 13.5 q15 8.5 27 20 q12 11.5 20 25.5 l103 387 Z" /><glyph glyph-name="A" unicode="a" d="M801 0 l157 743 q-78 36 -142.5 52 q-64.5 16 -131.5 22 q-58 -125 -106.5 -257 q-48.5 -132 -84 -256.5 q-35.5 -124.5 -55.5 -233.5 q-20 -109 -20 -189 q0 -49 8.5 -74.5 q8.5 -25.5 19.5 -39.5 q-41 0 -88.5 4 q-47.5 4 -89 24.5 q-41.5 20.5 -69 64.5 q-27.5 44 -27.5 124 q0 68 21.5 163 q21.5 95 61.5 204.5 q40 109.5 95 229 q55 119.5 123 236.5 q-97 -6 -158.5 -29.5 q-61.5 -23.5 -81.5 -76.5 q8 0 17.5 -20.5 q9.5 -20.5 9.5 -43.5 q0 -37 -33.5 -58.5 q-33.5 -21.5 -81.5 -21.5 q-27 0 -50 7.5 q-23 7.5 -40 22 q-17 14.5 -27 37 q-10 22.5 -10 52.5 q0 52 31.5 98 q31.5 46 87.5 80 q56 34 132.5 54 q76.5 20 166.5 20 q42 0 107 -6 q78 123 165 232.5 q87 109.5 179 192 q92 82.5 185 131 q93 48.5 183 48.5 q36 0 80.5 -6 q44.5 -6 81.5 -23 l-321 -1507 l-295 0 ZM1096 1391 q-46 -25 -93.5 -71.5 q-47.5 -46.5 -94 -110 q-46.5 -63.5 -92.5 -141 q-46 -77.5 -89 -163.5 q62 -12 126 -29.5 q64 -17.5 124 -41.5 l119 557 Z" /><glyph glyph-name="B" unicode="b" d="M205 0 l278 1303 l303 40 l-96 -454 l12 0 q61 0 114.5 30 q53.5 30 93.5 78 q40 48 63.5 107 q23.5 59 23.5 117 q0 43 -15 82.5 q-15 39.5 -47 70.5 q-32 31 -83.5 49.5 q-51.5 18.5 -124.5 18.5 q-60 0 -121.5 -13.5 q-61.5 -13.5 -118 -41 q-56.5 -27.5 -106.5 -68.5 q-50 -41 -86.5 -96.5 q-36.5 -55.5 -58 -125 q-21.5 -69.5 -21.5 -153.5 q0 -39 4.5 -63.5 q4.5 -24.5 10 -39 q5.5 -14.5 10 -22.5 q4.5 -8 4.5 -14 q-104 0 -161.5 42 q-57.5 42 -57.5 146 q0 71 28 138.5 q28 67.5 78.5 128 q50.5 60.5 120 111 q69.5 50.5 152 87.5 q82.5 37 175 57.5 q92.5 20.5 189.5 20.5 q113 0 195 -27.5 q82 -27.5 135.5 -72.5 q53.5 -45 79.5 -104 q26 -59 26 -122 q0 -46 -13 -92 q-13 -46 -39 -88 q-26 -42 -64.5 -79.5 q-38.5 -37.5 -88.5 -65.5 q66 -12 112 -43.5 q46 -31.5 75 -76 q29 -44.5 42 -98.5 q13 -54 13 -112 q0 -49 -9.5 -112 q-9.5 -63 -30.5 -128.5 q-21 -65.5 -55 -128.5 q-34 -63 -84 -112 q-50 -49 -116.5 -79 q-66.5 -30 -152.5 -30 q-33 0 -69 6 q-36 6 -65.5 23 q-29.5 17 -49 46.5 q-19.5 29.5 -19.5 76.5 q0 26 6 55 q6 29 20 64 q39 -42 71 -58 q32 -16 67 -16 q56 0 94.5 35.5 q38.5 35.5 62.5 90 q24 54.5 34.5 119.5 q10.5 65 10.5 123 q0 53 -9.5 100.5 q-9.5 47.5 -32 83 q-22.5 35.5 -59.5 56.5 q-37 21 -93 21 q-13 0 -39 -1 q-26 -1 -55 -6 l-168 -784 l-295 0 Z" /><glyph glyph-name="C" unicode="c" d="M1071 348 q-41 -103 -111 -175.5 q-70 -72.5 -151.5 -118 q-81.5 -45.5 -166 -66.5 q-84.5 -21 -155.5 -21 q-114 0 -198 27 q-84 27 -139.5 87 q-55.5 60 -83 156 q-27.5 96 -27.5 234 q0 70 8.5 152.5 q8.5 82.5 27.5 170.5 q19 88 48.5 177 q29.5 89 71.5 171.5 q42 82.5 97 154.5 q55 72 124 125 q69 53 153 83.5 q84 30.5 185 30.5 q71 0 133.5 -15.5 q62.5 -15.5 109 -48.5 q46.5 -33 73 -85 q26.5 -52 26.5 -125 q0 -41 -7.5 -75.5 q-7.5 -34.5 -25 -60 q-17.5 -25.5 -45 -39.5 q-27.5 -14 -66.5 -14 q-24 0 -55.5 9 q-31.5 9 -60.5 44 q18 9 35 28.5 q17 19.5 30 45 q13 25.5 21 55.5 q8 30 8 60 q0 24 -6.5 47 q-6.5 23 -21.5 40 q-15 17 -39 27.5 q-24 10.5 -58 10.5 q-57 0 -110.5 -42 q-53.5 -42 -101 -113.5 q-47.5 -71.5 -87 -166.5 q-39.5 -95 -67.5 -201 q-28 -106 -44 -218 q-16 -112 -16 -216 q0 -71 10.5 -129.5 q10.5 -58.5 38 -100.5 q27.5 -42 75 -65.5 q47.5 -23.5 122.5 -23.5 q121 0 224 54 q103 54 175 151 l47 -21 Z" /><glyph glyph-name="D" unicode="d" d="M193 0 l278 1303 l303 40 l-246 -1148 q56 -41 117 -41 q61 0 114 38 q53 38 96.5 103.5 q43.5 65.5 77.5 153.5 q34 88 57.5 188.5 q23.5 100.5 35.5 207 q12 106.5 12 210.5 q0 104 -21.5 177.5 q-21.5 73.5 -61 120 q-39.5 46.5 -94.5 68 q-55 21.5 -122 21.5 q-114 0 -212 -34 q-98 -34 -170 -98.5 q-72 -64.5 -113 -156.5 q-41 -92 -41 -209 q0 -39 4.5 -63.5 q4.5 -24.5 9.5 -39 q5 -14.5 9.5 -22.5 q4.5 -8 4.5 -14 q-103 0 -161 43 q-58 43 -58 147 q0 70 27.5 137.5 q27.5 67.5 77.5 127.5 q50 60 120 110.5 q70 50.5 154.5 87.5 q84.5 37 181.5 57.5 q97 20.5 201 20.5 q99 0 178 -22 q79 -22 140 -61.5 q61 -39.5 104.5 -94 q43.5 -54.5 71 -120 q27.5 -65.5 40.5 -140 q13 -74.5 13 -152.5 q0 -117 -21 -235 q-21 -118 -58.5 -226 q-37.5 -108 -90 -201.5 q-52.5 -93.5 -115.5 -162.5 q-63 -69 -134.5 -108.5 q-71.5 -39.5 -147.5 -39.5 q-60 0 -122 26 q-62 26 -128 83 l-17 -82 l-294 0 Z" /><glyph glyph-name="E" unicode="e" d="M991 348 q-41 -90 -104.5 -161 q-63.5 -71 -143 -121 q-79.5 -50 -169.5 -76.5 q-90 -26.5 -183 -26.5 q-99 0 -170.5 29.5 q-71.5 29.5 -117 79.5 q-45.5 50 -67.5 115 q-22 65 -22 137 q0 81 26 165 q26 84 74.5 157.5 q48.5 73.5 119 129 q70.5 55.5 159.5 78.5 q-66 48 -95.5 112.5 q-29.5 64.5 -29.5 133.5 q0 79 33.5 157.5 q33.5 78.5 93 141.5 q59.5 63 142 102 q82.5 39 180.5 39 q61 0 114.5 -16.5 q53.5 -16.5 93.5 -48.5 q40 -32 62.5 -80 q22.5 -48 22.5 -111 q0 -46 -12 -85 q-12 -39 -33 -67.5 q-21 -28.5 -48.5 -44.5 q-27.5 -16 -58.5 -16 q-56 0 -96 55 q18 6 34.5 25 q16.5 19 29 44 q12.5 25 19.5 54 q7 29 7 56 q0 31 -10 53 q-10 22 -25.5 35.5 q-15.5 13.5 -36 19.5 q-20.5 6 -41.5 6 q-46 0 -84.5 -25 q-38.5 -25 -66 -65.5 q-27.5 -40.5 -43 -92.5 q-15.5 -52 -15.5 -106 q0 -45 11.5 -88 q11.5 -43 36.5 -79.5 q25 -36.5 64.5 -64 q39.5 -27.5 94.5 -42.5 q-55 -12 -103.5 -40 q-48.5 -28 -89 -66.5 q-40.5 -38.5 -72.5 -85.5 q-32 -47 -54.5 -97.5 q-22.5 -50.5 -34.5 -101.5 q-12 -51 -12 -98 q0 -43 11 -81 q11 -38 34 -66 q23 -28 60 -44 q37 -16 89 -16 q47 0 101.5 13 q54.5 13 106.5 39.5 q52 26.5 97 65.5 q45 39 74 91 l47 -21 Z" /><glyph glyph-name="F" unicode="f" d="M180 0 l295 1368 q-59 -2 -108 -22.5 q-49 -20.5 -84 -68.5 q-35 -48 -54.5 -129 q-19.5 -81 -19.5 -204 q0 -39 4.5 -63.5 q4.5 -24.5 10 -39 q5.5 -14.5 10 -22.5 q4.5 -8 4.5 -14 q-53 0 -94 10.5 q-41 10.5 -69 33.5 q-28 23 -42.5 61 q-14.5 38 -14.5 94 q0 102 38 198 q38 96 121.5 170 q83.5 74 216.5 119 q133 45 323 45 q31 0 69.5 -4 q38.5 -4 82 -8.5 q43.5 -4.5 91.5 -8.5 q48 -4 97 -4 q48 0 94.5 5.5 q46.5 5.5 89.5 19.5 q-10 -32 -19.5 -69.5 q-9.5 -37.5 -28.5 -72.5 q-19 -35 -53 -63.5 q-34 -28.5 -93 -40.5 q-73 0 -144 11 q-71 11 -143 28 l-86 -407 l299 0 l-33 -152 l-299 0 l-166 -770 l-295 0 Z" /><glyph glyph-name="G" unicode="g" d="M1118 856 l-150 -688 q-33 -153 -79 -264.5 q-46 -111.5 -106.5 -184.5 q-60.5 -73 -137.5 -108 q-77 -35 -172 -35 q-75 0 -136 20 q-61 20 -104.5 57 q-43.5 37 -67.5 88.5 q-24 51.5 -24 113.5 q0 60 21.5 111.5 q21.5 51.5 58.5 90 q37 38.5 87.5 60.5 q50.5 22 108.5 22 q79 0 126.5 -38 q47.5 -38 47.5 -103 q0 -48 -22 -78 q-19 25 -50.5 39 q-31.5 14 -66.5 14 q-31 0 -56.5 -10.5 q-25.5 -10.5 -44 -30 q-18.5 -19.5 -28.5 -46.5 q-10 -27 -10 -60 q0 -32 10 -59.5 q10 -27.5 27.5 -47 q17.5 -19.5 42 -30.5 q24.5 -11 53.5 -11 q71 0 122 63.5 q51 63.5 79 188.5 l102 453 l-8 0 q-56 -77 -134.5 -118.5 q-78.5 -41.5 -172.5 -41.5 q-91 0 -164 36.5 q-73 36.5 -124.5 104 q-51.5 67.5 -79.5 163.5 q-28 96 -28 214 q0 114 26 218.5 q26 104.5 74 194.5 q48 90 115.5 163 q67.5 73 151 125 q83.5 52 179.5 80 q96 28 202 28 q87 0 157 -19.5 q70 -19.5 119 -56 q49 -36.5 75 -89 q26 -52.5 26 -117.5 q0 -44 -11.5 -80 q-11.5 -36 -32 -61.5 q-20.5 -25.5 -49.5 -39.5 q-29 -14 -63 -14 q-38 0 -72 16.5 q-34 16.5 -57 47.5 q18 12 34 32.5 q16 20.5 28 46 q12 25.5 19 53.5 q7 28 7 56 q0 62 -35.5 95.5 q-35.5 33.5 -101.5 33.5 q-61 0 -120 -28.5 q-59 -28.5 -111.5 -78.5 q-52.5 -50 -97.5 -119.5 q-45 -69.5 -77.5 -151 q-32.5 -81.5 -50.5 -173 q-18 -91.5 -18 -186.5 q0 -155 48.5 -235.5 q48.5 -80.5 141.5 -80.5 q112 0 195.5 115.5 q83.5 115.5 136.5 341.5 l242 -2 Z" /><glyph glyph-name="H" unicode="h" d="M801 0 l164 770 l-301 0 l-164 -770 l-295 0 l297 1393 q-136 -57 -211.5 -170.5 q-75.5 -113.5 -75.5 -278.5 q0 -39 4.5 -63.5 q4.5 -24.5 10 -39 q5.5 -14.5 10 -22.5 q4.5 -8 4.5 -14 q-53 0 -94 10.5 q-41 10.5 -69 33.5 q-28 23 -42 61 q-14 38 -14 94 q0 68 29.5 134 q29.5 66 80.5 125 q51 59 120.5 109 q69.5 50 149.5 86.5 q80 36.5 166 57 q86 20.5 172 20.5 q23 0 42.5 -1 q19.5 -1 39.5 -3 l-131 -610 l301 0 l131 610 l295 0 l-325 -1532 l-295 0 Z" /><glyph glyph-name="I" unicode="i" d="M193 0 l296 1391 q-136 -56 -211 -168 q-75 -112 -75 -279 q0 -39 4.5 -63.5 q4.5 -24.5 9.5 -39 q5 -14.5 9.5 -22.5 q4.5 -8 4.5 -14 q-53 0 -94 10.5 q-41 10.5 -68.5 33.5 q-27.5 23 -42 61 q-14.5 38 -14.5 94 q0 68 29.5 134 q29.5 66 81 125 q51.5 59 121 109 q69.5 50 149 86.5 q79.5 36.5 166 57 q86.5 20.5 172.5 20.5 q23 0 42.5 -1 q19.5 -1 39.5 -3 l-326 -1532 l-294 0 Z" /><glyph glyph-name="J" unicode="j" d="M862 1393 q-135 -56 -212 -169.5 q-77 -113.5 -77 -279.5 q0 -39 4.5 -63.5 q4.5 -24.5 10 -39 q5.5 -14.5 10 -22.5 q4.5 -8 4.5 -14 q-53 0 -94 10.5 q-41 10.5 -68.5 33.5 q-27.5 23 -42 61 q-14.5 38 -14.5 94 q0 68 29.5 134 q29.5 66 81 125 q51.5 59 121 109 q69.5 50 149 86.5 q79.5 36.5 166 57 q86.5 20.5 172.5 20.5 l82 0 l-307 -1454 q-25 -117 -65 -211 q-40 -94 -103.5 -159.5 q-63.5 -65.5 -154 -100.5 q-90.5 -35 -216.5 -35 q-74 0 -130.5 21 q-56.5 21 -95 59 q-38.5 38 -58 91 q-19.5 53 -19.5 118 q0 52 16.5 101.5 q16.5 49.5 48 87.5 q31.5 38 78 61.5 q46.5 23.5 107.5 23.5 q31 0 66 -3 q35 -3 65 -16.5 q30 -13.5 49.5 -41 q19.5 -27.5 19.5 -76.5 q0 -36 -12 -82 q-19 16 -35 26.5 q-16 10.5 -30.5 16.5 q-14.5 6 -28.5 8 q-14 2 -29 2 q-36 0 -63 -13 q-27 -13 -44.5 -34 q-17.5 -21 -26.5 -48.5 q-9 -27.5 -9 -55.5 q0 -40 13.5 -67.5 q13.5 -27.5 34 -44.5 q20.5 -17 45 -24.5 q24.5 -7.5 46.5 -7.5 q34 0 62 9.5 q28 9.5 51.5 36.5 q23.5 27 43.5 76.5 q20 49.5 38 129.5 l321 1463 Z" /><glyph glyph-name="K" unicode="k" d="M193 0 l296 1393 q-136 -57 -211 -170.5 q-75 -113.5 -75 -278.5 q0 -39 4.5 -63.5 q4.5 -24.5 9.5 -39 q5 -14.5 9.5 -22.5 q4.5 -8 4.5 -14 q-53 0 -94 10.5 q-41 10.5 -68.5 33.5 q-27.5 23 -42 61 q-14.5 38 -14.5 94 q0 68 29.5 134 q29.5 66 81 125 q51.5 59 121 109 q69.5 50 149 86.5 q79.5 36.5 166 57 q86.5 20.5 172.5 20.5 q23 0 42.5 -1 q19.5 -1 39.5 -3 l-133 -627 q25 33 57.5 77 q32.5 44 70 94 q37.5 50 77 102.5 q39.5 52.5 76.5 103 q37 50.5 70.5 95 q33.5 44.5 58.5 78 q25 33.5 40 52.5 q15 19 15 19 l215 0 l-569 -656 q20 0 37 1 q17 1 34 1 q75 0 124 -16.5 q49 -16.5 78 -46 q29 -29.5 40.5 -69.5 q11.5 -40 11.5 -87 q0 -64 -15.5 -134.5 q-15.5 -70.5 -34.5 -139.5 q-19 -69 -34.5 -132 q-15.5 -63 -15.5 -112 q0 -48 21.5 -84.5 q21.5 -36.5 58.5 -50.5 q-66 -19 -116 -27 q-50 -8 -87 -8 q-50 0 -81 12.5 q-31 12.5 -48.5 32 q-17.5 19.5 -24 44 q-6.5 24.5 -6.5 48.5 q0 52 17 120.5 q17 68.5 37.5 142 q20.5 73.5 37.5 145.5 q17 72 17 131 q0 31 -6.5 56.5 q-6.5 25.5 -20.5 44 q-14 18.5 -38 28.5 q-24 10 -58 10 q-14 0 -31.5 -1.5 q-17.5 -1.5 -36.5 -6.5 l-164 -772 l-294 0 Z" /><glyph glyph-name="L" unicode="l" d="M489 1370 q-136 -56 -211 -167.5 q-75 -111.5 -75 -278.5 q0 -39 4.5 -63.5 q4.5 -24.5 9.5 -39.5 q5 -15 9.5 -23 q4.5 -8 4.5 -14 q-53 0 -94 10.5 q-41 10.5 -68.5 34 q-27.5 23.5 -42 61.5 q-14.5 38 -14.5 93 q0 68 29.5 134 q29.5 66 81 125 q51.5 59 121 109.5 q69.5 50.5 149 87 q79.5 36.5 166 57 q86.5 20.5 172.5 20.5 q23 0 42.5 -1.5 q19.5 -1.5 39.5 -3.5 l-315 -1470 q53 -12 106.5 -36.5 q53.5 -24.5 108.5 -54 q55 -29.5 111.5 -60 q56.5 -30.5 115 -56 q58.5 -25.5 120 -41.5 q61.5 -16 126.5 -16 q42 0 84.5 7 q42.5 7 87.5 26 q-9 -74 -27.5 -133.5 q-18.5 -59.5 -45.5 -101.5 q-27 -42 -62.5 -64.5 q-35.5 -22.5 -77.5 -22.5 q-73 0 -144 34.5 q-71 34.5 -142.5 86 q-71.5 51.5 -144.5 112 q-73 60.5 -150 112 q-77 51.5 -159.5 86 q-82.5 34.5 -173.5 34.5 q-12 0 -23 0 q-11 0 -24 -2 l305 1419 Z" /><glyph glyph-name="M" unicode="m" d="M1137 0 l131 920 l-385 -920 l-281 0 l41 924 l-342 -924 l-164 0 l520 1407 q-153 -51 -239 -167.5 q-86 -116.5 -86 -293.5 q0 -41 4.5 -65.5 q4.5 -24.5 9.5 -39 q5 -14.5 9.5 -22 q4.5 -7.5 4.5 -14.5 q-50 0 -90.5 10 q-40.5 10 -69 32 q-28.5 22 -44 57.5 q-15.5 35.5 -15.5 86.5 q0 65 26.5 131 q26.5 66 73 126.5 q46.5 60.5 109.5 113 q63 52.5 135.5 91.5 q72.5 39 151 61 q78.5 22 156.5 22 q77 0 155 -29 l-47 -1079 l451 1079 l295 0 l-215 -1507 l-295 0 Z" /><glyph glyph-name="N" unicode="n" d="M1471 1532 l-334 -1532 l-283 0 l-237 1016 l-234 -1016 l-194 0 l308 1403 q-142 -50 -213 -155 q-71 -105 -71 -255 q0 -66 14.5 -120.5 q14.5 -54.5 40.5 -88.5 q-131 0 -193.5 53.5 q-62.5 53.5 -62.5 168.5 q0 73 22.5 141 q22.5 68 63 128 q40.5 60 97.5 109.5 q57 49.5 126 85 q69 35.5 148 55 q79 19.5 165 19.5 q48 0 83.5 -6.5 q35.5 -6.5 78.5 -21.5 l247 -1096 l229 1112 l199 0 Z" /><glyph glyph-name="O" unicode="o" d="M883 1343 q-47 -28 -91.5 -87.5 q-44.5 -59.5 -84.5 -139 q-40 -79.5 -73.5 -173 q-33.5 -93.5 -58 -190 q-24.5 -96.5 -38 -190 q-13.5 -93.5 -13.5 -172.5 q0 -52 7 -95.5 q7 -43.5 21 -75 q14 -31.5 36.5 -49 q22.5 -17.5 54.5 -17.5 q52 0 103.5 40 q51.5 40 99.5 109 q48 69 89 160.5 q41 91.5 71 195 q30 103.5 47.5 212.5 q17.5 109 17.5 212 q0 89 -10.5 156.5 q-10.5 67.5 -39.5 112.5 q-29 45 -80 67.5 q-51 22.5 -132 22.5 q-117 0 -224 -36.5 q-107 -36.5 -188.5 -105 q-81.5 -68.5 -129.5 -166 q-48 -97.5 -48 -219.5 q0 -30 3.5 -48.5 q3.5 -18.5 7 -30 q3.5 -11.5 7 -18.5 q3.5 -7 3.5 -13 q-98 0 -152.5 39 q-54.5 39 -54.5 133 q0 72 31 141 q31 69 87 131.5 q56 62.5 132.5 115 q76.5 52.5 168.5 90.5 q92 38 195 59.5 q103 21.5 211 21.5 q135 0 227.5 -39 q92.5 -39 149.5 -108.5 q57 -69.5 82.5 -166 q25.5 -96.5 25.5 -210.5 q0 -99 -18.5 -213.5 q-18.5 -114.5 -58 -228 q-39.5 -113.5 -100 -219 q-60.5 -105.5 -144.5 -186 q-84 -80.5 -192 -129 q-108 -48.5 -242 -48.5 q-81 0 -148 22 q-67 22 -116 71 q-49 49 -76 127.5 q-27 78.5 -27 190.5 q0 83 15.5 186.5 q15.5 103.5 46.5 210 q31 106.5 77.5 208.5 q46.5 102 108 181 q61.5 79 138.5 127 q77 48 169 48 q26 0 52 -3 q26 -3 55 -14 Z" /><glyph glyph-name="P" unicode="p" d="M193 0 l278 1303 l303 40 l-145 -684 q52 4 98.5 28 q46.5 24 86.5 61.5 q40 37.5 72 86.5 q32 49 54.5 103.5 q22.5 54.5 34.5 112 q12 57.5 12 112.5 q0 57 -14.5 107.5 q-14.5 50.5 -45 89 q-30.5 38.5 -79 60.5 q-48.5 22 -115.5 22 q-125 0 -223.5 -34 q-98.5 -34 -166.5 -98 q-68 -64 -104 -156.5 q-36 -92.5 -36 -209.5 q0 -39 4.5 -63.5 q4.5 -24.5 9.5 -39 q5 -14.5 9.5 -22.5 q4.5 -8 4.5 -14 q-53 0 -94 10.5 q-41 10.5 -68.5 33.5 q-27.5 23 -42 61 q-14.5 38 -14.5 94 q0 68 29.5 134 q29.5 66 81 125 q51.5 59 121 109 q69.5 50 149 86.5 q79.5 36.5 166 57 q86.5 20.5 172.5 20.5 q126 0 217 -33.5 q91 -33.5 150.5 -89.5 q59.5 -56 87.5 -128.5 q28 -72.5 28 -151.5 q0 -98 -40.5 -196 q-40.5 -98 -117 -176.5 q-76.5 -78.5 -186 -127.5 q-109.5 -49 -247.5 -49 l-11 0 l-125 -584 l-294 0 Z" /><glyph glyph-name="Q" unicode="q" d="M1253 -55 q-21 -53 -44 -87.5 q-23 -34.5 -49 -54 q-26 -19.5 -55.5 -27 q-29.5 -7.5 -62.5 -7.5 q-68 0 -112.5 21.5 q-44.5 21.5 -73 57 q-28.5 35.5 -46 79.5 q-17.5 44 -32.5 89 q-45 -14 -92 -21 q-47 -7 -98 -7 q-81 0 -148 22 q-67 22 -116 71 q-49 49 -76 127.5 q-27 78.5 -27 190.5 q0 83 15.5 186.5 q15.5 103.5 46.5 210 q31 106.5 77.5 208.5 q46.5 102 108 181 q61.5 79 138.5 127 q77 48 169 48 q26 0 52 -3 q26 -3 55 -14 q-47 -28 -91.5 -87.5 q-44.5 -59.5 -84.5 -139 q-40 -79.5 -73.5 -173 q-33.5 -93.5 -58 -190 q-24.5 -96.5 -38 -190 q-13.5 -93.5 -13.5 -172.5 q0 -25 -0.5 -46.5 q-0.5 -21.5 4.5 -41.5 q38 9 69.5 14 q31.5 5 57.5 5 q54 0 93 -15.5 q39 -15.5 71 -40.5 q51 66 97 160.5 q46 94.5 80.5 203.5 q34.5 109 54.5 225.5 q20 116.5 20 227.5 q0 89 -10.5 156.5 q-10.5 67.5 -39.5 112.5 q-29 45 -80 67.5 q-51 22.5 -132 22.5 q-117 0 -224 -36.5 q-107 -36.5 -188.5 -105 q-81.5 -68.5 -129.5 -166 q-48 -97.5 -48 -219.5 q0 -30 3.5 -48.5 q3.5 -18.5 7 -30 q3.5 -11.5 7 -18.5 q3.5 -7 3.5 -13 q-98 0 -152.5 39 q-54.5 39 -54.5 133 q0 72 31 141 q31 69 87 131.5 q56 62.5 132.5 115 q76.5 52.5 168.5 90.5 q92 38 195 59.5 q103 21.5 211 21.5 q135 0 227.5 -39 q92.5 -39 149.5 -108.5 q57 -69.5 82.5 -166 q25.5 -96.5 25.5 -210.5 q0 -72 -10 -153 q-10 -81 -30.5 -164.5 q-20.5 -83.5 -52.5 -167 q-32 -83.5 -75.5 -160 q-43.5 -76.5 -99 -143.5 q-55.5 -67 -123.5 -118 q22 -33 47 -63 q25 -30 55 -52.5 q30 -22.5 68 -36 q38 -13.5 86 -13.5 q11 0 22 1 q11 1 23 3 ZM721 176 q-19 31 -46 50.5 q-27 19.5 -71 19.5 q-14 0 -29 -1.5 q-15 -1.5 -30 -6.5 q27 -84 98 -84 q19 0 39 5 q20 5 39 17 Z" /><glyph glyph-name="R" unicode="r" d="M193 0 l278 1303 l303 40 l-100 -473 l16 0 q64 0 117.5 34 q53.5 34 92 86 q38.5 52 60 115 q21.5 63 21.5 122 q0 43 -13 82 q-13 39 -40 68.5 q-27 29.5 -69.5 47 q-42.5 17.5 -102.5 17.5 q-125 0 -226.5 -34 q-101.5 -34 -174.5 -98.5 q-73 -64.5 -112.5 -156.5 q-39.5 -92 -39.5 -209 q0 -39 4.5 -63.5 q4.5 -24.5 9.5 -39 q5 -14.5 9.5 -22.5 q4.5 -8 4.5 -14 q-53 0 -94 10.5 q-41 10.5 -68.5 33.5 q-27.5 23 -42 61 q-14.5 38 -14.5 94 q0 68 29.5 134 q29.5 66 81 125 q51.5 59 121 109 q69.5 50 149 86.5 q79.5 36.5 166 57 q86.5 20.5 172.5 20.5 q121 0 208.5 -27.5 q87.5 -27.5 144.5 -73.5 q57 -46 84.5 -105 q27.5 -59 27.5 -122 q0 -47 -14.5 -95.5 q-14.5 -48.5 -43 -94.5 q-28.5 -46 -69.5 -87.5 q-41 -41.5 -94 -72.5 q40 -12 67.5 -31.5 q27.5 -19.5 43.5 -46 q16 -26.5 23 -59 q7 -32.5 7 -68.5 q0 -64 -15.5 -134.5 q-15.5 -70.5 -34.5 -139.5 q-19 -69 -34.5 -132 q-15.5 -63 -15.5 -112 q0 -48 21.5 -84.5 q21.5 -36.5 58.5 -50.5 q-66 -19 -116 -27 q-50 -8 -87 -8 q-50 0 -81 12.5 q-31 12.5 -48.5 32 q-17.5 19.5 -24 44 q-6.5 24.5 -6.5 48.5 q0 52 17 120.5 q17 68.5 37.5 142 q20.5 73.5 37.5 145.5 q17 72 17 131 q0 31 -6.5 56.5 q-6.5 25.5 -20.5 44 q-14 18.5 -38 28.5 q-24 10 -58 10 q-14 0 -31 -1.5 q-17 -1.5 -37 -6.5 l-164 -772 l-294 0 Z" /><glyph glyph-name="S" unicode="s" d="M1132 1260 q0 -43 -11.5 -78.5 q-11.5 -35.5 -31.5 -61 q-20 -25.5 -49 -39.5 q-29 -14 -63 -14 q-39 0 -70.5 16.5 q-31.5 16.5 -54.5 47.5 q38 28 61 74.5 q23 46.5 23 99.5 q0 66 -39 104.5 q-39 38.5 -107 38.5 q-41 0 -75.5 -15.5 q-34.5 -15.5 -59 -43 q-24.5 -27.5 -38 -65.5 q-13.5 -38 -13.5 -83 q0 -68 33 -128 q33 -60 83 -118 q50 -58 108 -117.5 q58 -59.5 108 -127 q50 -67.5 83 -146 q33 -78.5 33 -173.5 q0 -101 -42 -186.5 q-42 -85.5 -116.5 -148 q-74.5 -62.5 -175 -98 q-100.5 -35.5 -217.5 -35.5 q-98 0 -177.5 25.5 q-79.5 25.5 -136 73 q-56.5 47.5 -87.5 113.5 q-31 66 -31 147 q0 68 22 127 q22 59 60 102.5 q38 43.5 90 68.5 q52 25 111 25 q72 0 121 -36 q49 -36 61 -99 q-54 0 -97 -15 q-43 -15 -73 -42 q-30 -27 -46.5 -65.5 q-16.5 -38.5 -16.5 -86.5 q0 -90 52.5 -142.5 q52.5 -52.5 141.5 -52.5 q54 0 100 19.5 q46 19.5 79 53.5 q33 34 52 81 q19 47 19 102 q0 56 -18.5 107.5 q-18.5 51.5 -49.5 100 q-31 48.5 -70 95.5 q-39 47 -80 94.5 q-41 47.5 -80 95.5 q-39 48 -70 98.5 q-31 50.5 -49.5 104.5 q-18.5 54 -18.5 114 q0 81 34.5 149.5 q34.5 68.5 96 118.5 q61.5 50 145.5 78.5 q84 28.5 183 28.5 q83 0 150 -20.5 q67 -20.5 114.5 -58 q47.5 -37.5 73.5 -90.5 q26 -53 26 -118 Z" /><glyph glyph-name="T" unicode="t" d="M322 0 l290 1356 l-24 0 q-81 0 -151.5 -18.5 q-70.5 -18.5 -122.5 -65 q-52 -46.5 -81.5 -126.5 q-29.5 -80 -29.5 -204 q0 -39 4.5 -63.5 q4.5 -24.5 9.5 -39 q5 -14.5 9.5 -22.5 q4.5 -8 4.5 -14 q-53 0 -94 10.5 q-41 10.5 -68.5 33.5 q-27.5 23 -42 61 q-14.5 38 -14.5 93 q0 102 38 198.5 q38 96.5 121.5 170.5 q83.5 74 216.5 119 q133 45 323 45 q62 0 110.5 -3.5 q48.5 -3.5 90 -8.5 q41.5 -5 78.5 -11.5 q37 -6.5 74.5 -11.5 q37.5 -5 79 -8.5 q41.5 -3.5 91.5 -3.5 q72 0 134 13 q62 13 104 30 q-5 -135 -69.5 -197.5 q-64.5 -62.5 -186.5 -62.5 q-76 0 -154.5 14 q-78.5 14 -163.5 31 l-283 -1315 l-294 0 Z" /><glyph glyph-name="U" unicode="u" d="M728 -14 q-204 0 -307 99 q-103 99 -103 294 q0 99 29 215 l209 831 q-91 -24 -160.5 -68.5 q-69.5 -44.5 -117 -101.5 q-47.5 -57 -71.5 -123.5 q-24 -66.5 -24 -135.5 q0 -50 13 -99.5 q13 -49.5 40 -96.5 q-117 0 -181.5 56.5 q-64.5 56.5 -64.5 162.5 q0 68 29 133.5 q29 65.5 80.5 124 q51.5 58.5 123.5 107.5 q72 49 157.5 84.5 q85.5 35.5 182 55.5 q96.5 20 197.5 20 q35 0 61 -2 q26 -2 54 -8 l-250 -946 q-17 -63 -26 -119.5 q-9 -56.5 -9 -101.5 q0 -195 160 -195 q227 0 318 422 l204 946 l289 0 l-200 -946 q-64 -301 -224.5 -454.5 q-160.5 -153.5 -408.5 -153.5 Z" /><glyph glyph-name="V" unicode="v" d="M541 0 l-33 1399 q-144 -54 -224.5 -169 q-80.5 -115 -80.5 -286 q0 -39 4.5 -63.5 q4.5 -24.5 9.5 -39 q5 -14.5 9.5 -22.5 q4.5 -8 4.5 -14 q-53 0 -94 10.5 q-41 10.5 -68.5 33.5 q-27.5 23 -42 61 q-14.5 38 -14.5 94 q0 68 29.5 134 q29.5 66 81 125 q51.5 59 121 109 q69.5 50 149 86.5 q79.5 36.5 166 57 q86.5 20.5 172.5 20.5 q23 0 42.5 -1 q19.5 -1 39.5 -3 l18 -1260 l431 1254 l143 0 l-569 -1526 l-295 0 Z" /><glyph glyph-name="W" unicode="w" d="M1249 0 l-24 1042 l-389 -1042 l-295 0 l-33 1399 q-144 -54 -224.5 -169 q-80.5 -115 -80.5 -286 q0 -39 4.5 -63.5 q4.5 -24.5 9.5 -39 q5 -14.5 9.5 -22.5 q4.5 -8 4.5 -14 q-53 0 -94 10.5 q-41 10.5 -68.5 33.5 q-27.5 23 -42 61 q-14.5 38 -14.5 94 q0 68 29.5 134 q29.5 66 81 125 q51.5 59 121 109 q69.5 50 149 86.5 q79.5 36.5 166 57 q86.5 20.5 172.5 20.5 q23 0 42.5 -1 q19.5 -1 39.5 -3 l18 -1260 l431 1254 l260 0 l18 -1254 l430 1254 l144 0 l-570 -1526 l-295 0 Z" /><glyph glyph-name="X" unicode="x" d="M805 0 l-109 512 l-297 -512 l-125 0 l385 680 l-151 719 q-144 -54 -224.5 -169 q-80.5 -115 -80.5 -286 q0 -39 4.5 -63.5 q4.5 -24.5 9.5 -39 q5 -14.5 9.5 -22.5 q4.5 -8 4.5 -14 q-53 0 -94 10.5 q-41 10.5 -68.5 33.5 q-27.5 23 -42 61 q-14.5 38 -14.5 94 q0 68 29.5 134 q29.5 66 81 125 q51.5 59 121 109 q69.5 50 149 86.5 q79.5 36.5 166 57 q86.5 20.5 172.5 20.5 q23 0 42.5 -1 q19.5 -1 39.5 -3 l88 -426 l238 420 l143 0 l-344 -596 l192 -930 l-325 0 Z" /><glyph glyph-name="Y" unicode="y" d="M569 0 l136 631 l-197 768 q-144 -54 -224.5 -169 q-80.5 -115 -80.5 -286 q0 -39 4.5 -63.5 q4.5 -24.5 9.5 -39 q5 -14.5 9.5 -22.5 q4.5 -8 4.5 -14 q-53 0 -94 10.5 q-41 10.5 -68.5 33.5 q-27.5 23 -42 61 q-14.5 38 -14.5 94 q0 68 29.5 134 q29.5 66 81 125 q51.5 59 121 109 q69.5 50 149 86.5 q79.5 36.5 166 57 q86.5 20.5 172.5 20.5 q23 0 42.5 -1 q19.5 -1 39.5 -3 l178 -733 l303 727 l136 0 l-398 -895 l-135 -631 l-328 0 Z" /><glyph glyph-name="Z" unicode="z" d="M23 0 l716 1425 q-32 0 -81 2.5 q-49 2.5 -103 2.5 q-36 0 -70 -2 q-34 -2 -60 -7 q-26 -5 -42 -14 q-16 -9 -16 -23 q11 0 22.5 -14 q11.5 -14 11.5 -51 q0 -34 -12 -56.5 q-12 -22.5 -30 -36 q-18 -13.5 -39 -19 q-21 -5.5 -39 -5.5 q-30 0 -50 11 q-20 11 -32.5 28 q-12.5 17 -17.5 39 q-5 22 -5 43 q0 39 16.5 77 q16.5 38 48 68.5 q31.5 30.5 78.5 49 q47 18.5 109 18.5 l702 0 l-706 -1403 q42 0 94 -2 q52 -2 103 -2 q36 0 70 1.5 q34 1.5 62.5 6.5 q28.5 5 49.5 13.5 q21 8.5 31 23.5 q-11 0 -24 13 q-13 13 -13 51 q0 33 11.5 55.5 q11.5 22.5 29 36.5 q17.5 14 39.5 20 q22 6 43 6 q28 0 48 -10.5 q20 -10.5 32.5 -27 q12.5 -16.5 18 -38 q5.5 -21.5 5.5 -42.5 q0 -39 -18 -81.5 q-18 -42.5 -52 -77 q-34 -34.5 -82.5 -57 q-48.5 -22.5 -109.5 -22.5 l-739 0 Z" /><glyph glyph-name="bracketleft" unicode="[" d="M422 -492 l-437 0 l430 2032 l437 0 l-23 -117 l-227 0 l-383 -1798 l227 0 l-24 -117 Z" /><glyph glyph-name="backslash" unicode="\" d="M520 -512 l-434 2048 l147 0 l435 -2048 l-148 0 Z" /><glyph glyph-name="bracketright" unicode="]" d="M308 1540 l437 0 l-430 -2032 l-437 0 l23 117 l227 0 l383 1798 l-227 0 l24 117 Z" /><glyph glyph-name="asciicircum" unicode="^" d="M637 1149 l-123 164 l-321 -164 l-91 0 l435 387 l43 0 l122 -387 l-65 0 Z" /><glyph glyph-name="underscore" unicode="_" d="M74 0 l37 162 l716 0 l-34 -162 l-719 0 Z" /><glyph glyph-name="grave" unicode="`" d="M49 1536 l215 0 l60 -387 l-113 0 l-162 387 Z" /><glyph glyph-name="a" unicode="a" d="M1163 367 q-29 -83 -63 -144 q-34 -61 -70.5 -103 q-36.5 -42 -74.5 -68 q-38 -26 -74 -40 q-36 -14 -69 -19 q-33 -5 -60 -5 q-87 0 -138.5 47.5 q-51.5 47.5 -62.5 140.5 q-25 -35 -55 -68.5 q-30 -33.5 -67 -60 q-37 -26.5 -82.5 -43 q-45.5 -16.5 -100.5 -16.5 q-53 0 -102 17 q-49 17 -87 56 q-38 39 -61 102 q-23 63 -23 154 q0 70 14 150 q14 80 43 160 q29 80 72.5 153.5 q43.5 73.5 102 130 q58.5 56.5 132.5 90 q74 33.5 163 33.5 q87 0 126.5 -30 q39.5 -30 39.5 -74 l0 -15 l22 109 l295 0 l-147 -696 q-5 -17 -7 -33.5 q-2 -16.5 -2 -32.5 q0 -88 84 -88 q30 0 55.5 15.5 q25.5 15.5 46.5 41.5 q21 26 37 61.5 q16 35.5 27 74.5 l86 0 ZM647 829 q0 9 -4 22.5 q-4 13.5 -13.5 26 q-9.5 12.5 -25.5 21 q-16 8.5 -41 8.5 q-43 0 -81.5 -28 q-38.5 -28 -70.5 -74.5 q-32 -46.5 -57 -105.5 q-25 -59 -42.5 -121.5 q-17.5 -62.5 -26.5 -123 q-9 -60.5 -9 -108.5 q0 -59 11 -91 q11 -32 26.5 -47.5 q15.5 -15.5 33.5 -18.5 q18 -3 32 -3 q23 0 48.5 11.5 q25.5 11.5 49 34 q23.5 22.5 43 56.5 q19.5 34 29.5 79 l98 462 Z" /><glyph glyph-name="b" unicode="b" d="M219 1393 l303 41 l-98 -461 q31 19 55.5 30.5 q24.5 11.5 44.5 17.5 q20 6 36.5 7.5 q16.5 1.5 31.5 1.5 q54 0 98.5 -18 q44.5 -18 76.5 -59.5 q32 -41.5 49.5 -108.5 q17.5 -67 17.5 -164 q0 -60 -11.5 -134.5 q-11.5 -74.5 -37.5 -151.5 q-26 -77 -69 -150 q-43 -73 -105 -130 q-62 -57 -146 -91.5 q-84 -34.5 -193 -34.5 q-142 0 -214 69 q-72 69 -72 193 q0 29 3 58.5 q3 29.5 11 58.5 l219 1026 ZM285 328 q-6 -26 -6 -47 q0 -95 108 -95 q33 0 64 22.5 q31 22.5 57.5 60 q26.5 37.5 48.5 88 q22 50.5 37.5 106 q15.5 55.5 24 113.5 q8.5 58 8.5 112 q0 37 -6.5 72.5 q-6.5 35.5 -20 63.5 q-13.5 28 -34 44.5 q-20.5 16.5 -48.5 16.5 q-11 0 -28 -1.5 q-17 -1.5 -35 -6 q-18 -4.5 -33.5 -11.5 q-15.5 -7 -24.5 -18 l-112 -520 Z" /><glyph glyph-name="c" unicode="c" d="M856 367 q-43 -72 -98.5 -140 q-55.5 -68 -125 -121 q-69.5 -53 -154 -85.5 q-84.5 -32.5 -185.5 -32.5 q-73 0 -132 18.5 q-59 18.5 -101 57.5 q-42 39 -64.5 100.5 q-22.5 61.5 -22.5 148.5 q0 59 12 136.5 q12 77.5 38.5 158.5 q26.5 81 69 159 q42.5 78 104 139 q61.5 61 142.5 98.5 q81 37.5 185 37.5 q68 0 112 -16.5 q44 -16.5 70 -43 q26 -26.5 36 -60.5 q10 -34 10 -68 q0 -38 -8.5 -65.5 q-8.5 -27.5 -23.5 -46.5 q-15 -19 -35 -28 q-20 -9 -42 -9 q-35 0 -72 24 q25 66 25 121 q0 38 -14 61 q-14 23 -43 23 q-32 0 -64 -29 q-32 -29 -61.5 -77 q-29.5 -48 -54.5 -110 q-25 -62 -43.5 -129 q-18.5 -67 -29 -133.5 q-10.5 -66.5 -10.5 -123.5 q0 -52 9.5 -85.5 q9.5 -33.5 28 -52.5 q18.5 -19 46 -26.5 q27.5 -7.5 64.5 -7.5 q61 0 110.5 16 q49.5 16 92.5 44 q43 28 81.5 66 q38.5 38 77.5 81 l70 0 Z" /><glyph glyph-name="d" unicode="d" d="M1161 367 q-29 -83 -63 -143 q-34 -60 -70.5 -100.5 q-36.5 -40.5 -74.5 -65 q-38 -24.5 -74 -37.5 q-36 -13 -69 -17 q-33 -4 -60 -4 q-85 0 -137 44.5 q-52 44.5 -64 131.5 q-23 -35 -52.5 -68.5 q-29.5 -33.5 -67 -60 q-37.5 -26.5 -83.5 -43 q-46 -16.5 -100 -16.5 q-53 0 -102 17 q-49 17 -87 56 q-38 39 -61 102 q-23 63 -23 154 q0 70 14 150 q14 80 43 160 q29 80 72.5 153.5 q43.5 73.5 102 130 q58.5 56.5 132.5 90 q74 33.5 163 33.5 q87 0 126.5 -30 q39.5 -30 39.5 -74 l0 -8 l100 471 l303 41 l-235 -1106 q-5 -17 -7 -33.5 q-2 -16.5 -2 -32.5 q0 -43 20.5 -59.5 q20.5 -16.5 63.5 -16.5 q30 0 55.5 13.5 q25.5 13.5 46 37.5 q20.5 24 36.5 57.5 q16 33.5 28 72.5 l86 0 ZM547 367 l100 469 q-2 9 -6.5 21 q-4.5 12 -13.5 23.5 q-9 11.5 -24.5 19 q-15.5 7.5 -39.5 7.5 q-43 0 -81.5 -28 q-38.5 -28 -70.5 -74.5 q-32 -46.5 -57 -105.5 q-25 -59 -42.5 -121.5 q-17.5 -62.5 -26.5 -123 q-9 -60.5 -9 -108.5 q0 -59 11 -91 q11 -32 26.5 -47.5 q15.5 -15.5 33.5 -18.5 q18 -3 32 -3 q21 0 46.5 10.5 q25.5 10.5 49 31.5 q23.5 21 43 53 q19.5 32 29.5 75 l0 11 Z" /><glyph glyph-name="e" unicode="e" d="M856 367 q-43 -72 -98.5 -140 q-55.5 -68 -125 -121 q-69.5 -53 -154 -85.5 q-84.5 -32.5 -185.5 -32.5 q-73 0 -132 18.5 q-59 18.5 -101 57.5 q-42 39 -64.5 100.5 q-22.5 61.5 -22.5 148.5 q0 59 12 136 q12 77 38 158 q26 81 69 159 q43 78 104 139.5 q61 61.5 143 99 q82 37.5 187 37.5 q69 0 112.5 -16.5 q43.5 -16.5 69 -43.5 q25.5 -27 35 -62.5 q9.5 -35.5 9.5 -73.5 q0 -89 -39 -165.5 q-39 -76.5 -104.5 -133.5 q-65.5 -57 -150.5 -92 q-85 -35 -177 -41 q-2 -23 -3.5 -43.5 q-1.5 -20.5 -1.5 -38.5 q0 -52 9.5 -85.5 q9.5 -33.5 28 -52.5 q18.5 -19 46 -26.5 q27.5 -7.5 64.5 -7.5 q61 0 110.5 16 q49.5 16 92.5 44 q43 28 81.5 66 q38.5 38 77.5 81 l70 0 ZM297 512 q58 4 112 33 q54 29 95 75.5 q41 46.5 65.5 106 q24.5 59.5 24.5 123.5 q0 38 -11 61 q-11 23 -40 23 q-39 0 -76.5 -37.5 q-37.5 -37.5 -70.5 -97.5 q-33 -60 -58.5 -135.5 q-25.5 -75.5 -40.5 -151.5 Z" /><glyph glyph-name="f" unicode="f" d="M174 1186 q22 110 64.5 178 q42.5 68 94.5 106 q52 38 108 51 q56 13 106 13 q46 0 89.5 -16 q43.5 -16 77 -45 q33.5 -29 54 -69.5 q20.5 -40.5 20.5 -90.5 q0 -48 -6 -84 l-96 0 q2 17 3 29 q1 12 1 26 q0 35 -23.5 52.5 q-23.5 17.5 -54.5 17.5 q-16 0 -36.5 -7 q-20.5 -7 -41 -25.5 q-20.5 -18.5 -38 -51.5 q-17.5 -33 -27.5 -84 l-35 -162 l150 0 l-15 -82 l-151 0 l-236 -1106 q-22 -110 -63.5 -178 q-41.5 -68 -92 -106 q-50.5 -38 -105.5 -51 q-55 -13 -105 -13 q-46 0 -89.5 16 q-43.5 16 -77.5 45 q-34 29 -54.5 69.5 q-20.5 40.5 -20.5 90.5 q0 71 27.5 119.5 q27.5 48.5 75.5 83 q48 34.5 112 58.5 q64 24 137 46 l248 1170 ZM-88 -51 q-48 -16 -89.5 -35.5 q-41.5 -19.5 -71.5 -45 q-30 -25.5 -47 -57.5 q-17 -32 -17 -73 q0 -12 6 -24 q6 -12 17 -21.5 q11 -9.5 26 -16 q15 -6.5 33 -6.5 q16 0 32.5 7.5 q16.5 7.5 32 26 q15.5 18.5 28.5 49.5 q13 31 23 77 l27 119 Z" /><glyph glyph-name="g" unicode="g" d="M731 -164 q-22 -110 -63.5 -178 q-41.5 -68 -92.5 -106 q-51 -38 -106.5 -51 q-55.5 -13 -106.5 -13 q-47 0 -88.5 12.5 q-41.5 12.5 -72.5 37 q-31 24.5 -49.5 62 q-18.5 37.5 -18.5 87.5 q0 64 30.5 113 q30.5 49 78.5 85.5 q48 36.5 107.5 62.5 q59.5 26 117.5 44 l25 108 q-45 -48 -105.5 -80 q-60.5 -32 -140.5 -32 q-53 0 -102 17 q-49 17 -87 56 q-38 39 -61 102 q-23 63 -23 154 q0 70 14 150 q14 80 43 160 q29 80 72.5 153.5 q43.5 73.5 102 130 q58.5 56.5 132.5 90 q74 33.5 163 33.5 q87 0 126.5 -30 q39.5 -30 39.5 -74 l0 -12 l22 106 l295 0 l-203 -950 q47 16 85 38.5 q38 22.5 69.5 57 q31.5 34.5 57 82.5 q25.5 48 46.5 115 l86 0 q-31 -102 -73.5 -170 q-42.5 -68 -90.5 -111.5 q-48 -43.5 -99 -66.5 q-51 -23 -99 -35 l-31 -148 ZM647 831 q0 9 -4 22 q-4 13 -13.5 25 q-9.5 12 -25.5 20.5 q-16 8.5 -41 8.5 q-43 0 -81.5 -28 q-38.5 -28 -70.5 -74.5 q-32 -46.5 -57 -105.5 q-25 -59 -42.5 -121.5 q-17.5 -62.5 -26.5 -123 q-9 -60.5 -9 -108.5 q0 -59 11 -91 q11 -32 26.5 -47.5 q15.5 -15.5 33.5 -18.5 q18 -3 32 -3 q21 0 45 10.5 q24 10.5 47.5 30.5 q23.5 20 42.5 50 q19 30 29 69 l104 485 ZM446 -111 q-40 -15 -76 -32.5 q-36 -17.5 -63.5 -38.5 q-27.5 -21 -44 -46.5 q-16.5 -25.5 -16.5 -56.5 q0 -11 4 -23 q4 -12 12.5 -22 q8.5 -10 21.5 -16 q13 -6 31 -6 q32 0 65.5 44.5 q33.5 44.5 53.5 137.5 l12 59 Z" /><glyph glyph-name="h" unicode="h" d="M1120 367 q-43 -126 -92.5 -201 q-49.5 -75 -100 -114.5 q-50.5 -39.5 -99 -51.5 q-48.5 -12 -89.5 -12 q-68 0 -114 19.5 q-46 19.5 -74 52 q-28 32.5 -40.5 74 q-12.5 41.5 -12.5 85.5 q0 52 14.5 121.5 q14.5 69.5 31.5 142.5 q17 73 31.5 141 q14.5 68 14.5 117 q0 105 -74 105 q-28 0 -52 -15 q-24 -15 -44 -40.5 q-20 -25.5 -36 -60 q-16 -34.5 -28 -73.5 l-139 -657 l-295 0 l297 1393 l303 41 l-110 -516 q33 37 65.5 59.5 q32.5 22.5 63.5 34.5 q31 12 58.5 16 q27.5 4 51.5 4 q49 0 91 -13 q42 -13 72.5 -41 q30.5 -28 47.5 -72 q17 -44 17 -105 q0 -41 -7.5 -88.5 q-7.5 -47.5 -18.5 -97 q-11 -49.5 -23.5 -98.5 q-12.5 -49 -23.5 -94 q-11 -45 -18.5 -83.5 q-7.5 -38.5 -7.5 -67.5 q0 -38 17.5 -62 q17.5 -24 64.5 -24 q33 0 58 13 q25 13 45 37 q20 24 36.5 57.5 q16.5 33.5 32.5 73.5 l86 0 Z" /><glyph glyph-name="i" unicode="i" d="M506 1296 q0 -34 -13 -63.5 q-13 -29.5 -35.5 -51 q-22.5 -21.5 -52 -34 q-29.5 -12.5 -63.5 -12.5 q-34 0 -63.5 12.5 q-29.5 12.5 -51.5 34 q-22 21.5 -34.5 51 q-12.5 29.5 -12.5 63.5 q0 34 12.5 63.5 q12.5 29.5 34.5 52 q22 22.5 51.5 35.5 q29.5 13 63.5 13 q34 0 63.5 -13 q29.5 -13 52 -35.5 q22.5 -22.5 35.5 -52 q13 -29.5 13 -63.5 ZM633 367 q-29 -83 -64.5 -144 q-35.5 -61 -74 -103 q-38.5 -42 -79 -68 q-40.5 -26 -78.5 -40 q-38 -14 -72.5 -19 q-34.5 -5 -61.5 -5 q-46 0 -86 14 q-40 14 -69.5 44 q-29.5 30 -46.5 76 q-17 46 -17 111 q0 28 4 61.5 q4 33.5 12 72.5 l139 657 l295 0 l-147 -696 q-5 -17 -6.5 -33.5 q-1.5 -16.5 -1.5 -32.5 q0 -43 20 -59.5 q20 -16.5 63 -16.5 q30 0 58.5 13.5 q28.5 13.5 52.5 37.5 q24 24 43 57.5 q19 33.5 31 72.5 l86 0 Z" /><glyph glyph-name="j" unicode="j" d="M184 -164 q-22 -110 -63.5 -178 q-41.5 -68 -92 -106 q-50.5 -38 -106 -51 q-55.5 -13 -106.5 -13 q-47 0 -88.5 12.5 q-41.5 12.5 -73 37 q-31.5 24.5 -50 62 q-18.5 37.5 -18.5 87.5 q0 64 30.5 112.5 q30.5 48.5 79 85.5 q48.5 37 108.5 63 q60 26 118 44 l219 1032 l295 0 l-203 -950 q47 16 85 38.5 q38 22.5 69.5 57 q31.5 34.5 57 82.5 q25.5 48 47.5 115 l86 0 q-31 -102 -73.5 -170 q-42.5 -68 -91 -111.5 q-48.5 -43.5 -99.5 -66.5 q-51 -23 -99 -35 l-31 -148 ZM489 1298 q0 -34 -13 -63.5 q-13 -29.5 -35 -51 q-22 -21.5 -51.5 -34 q-29.5 -12.5 -63.5 -12.5 q-34 0 -63.5 12.5 q-29.5 12.5 -51.5 34 q-22 21.5 -34.5 51 q-12.5 29.5 -12.5 63.5 q0 34 12.5 64 q12.5 30 34.5 52 q22 22 51.5 35 q29.5 13 63.5 13 q34 0 63.5 -13 q29.5 -13 51.5 -35 q22 -22 35 -52 q13 -30 13 -64 ZM-100 -111 q-40 -15 -76.5 -32.5 q-36.5 -17.5 -64 -38.5 q-27.5 -21 -44 -46.5 q-16.5 -25.5 -16.5 -56.5 q0 -11 4 -23 q4 -12 13 -22 q9 -10 22 -16 q13 -6 31 -6 q32 0 65 44.5 q33 44.5 53 137.5 l13 59 Z" /><glyph glyph-name="k" unicode="k" d="M1147 367 q-43 -129 -94.5 -204.5 q-51.5 -75.5 -102.5 -114 q-51 -38.5 -98.5 -49.5 q-47.5 -11 -81.5 -11 q-128 0 -193 60.5 q-65 60.5 -65 172.5 q0 48 12 107 l17 80 q5 20 6.5 39 q1.5 19 1.5 36 q0 45 -16 72 q-16 27 -58 27 q-35 0 -71.5 -20.5 q-36.5 -20.5 -79.5 -55.5 l-107 -506 l-295 0 l297 1393 l303 41 l-153 -721 l395 311 l203 0 l-410 -285 q34 9 68 9 q57 0 99.5 -19 q42.5 -19 70.5 -52 q28 -33 41.5 -76.5 q13.5 -43.5 13.5 -92.5 q0 -19 -1.5 -38.5 q-1.5 -19.5 -6.5 -39.5 l-23 -102 q-5 -17 -7.5 -33 q-2.5 -16 -2.5 -33 q0 -31 16 -53.5 q16 -22.5 64 -22.5 q33 0 58 13 q25 13 45 37 q20 24 36.5 57.5 q16.5 33.5 32.5 73.5 l86 0 Z" /><glyph glyph-name="l" unicode="l" d="M633 367 q-29 -83 -64.5 -144 q-35.5 -61 -74 -103 q-38.5 -42 -79 -68 q-40.5 -26 -78.5 -40 q-38 -14 -72.5 -19 q-34.5 -5 -61.5 -5 q-46 0 -86 14 q-40 14 -69.5 44 q-29.5 30 -46.5 76 q-17 46 -17 111 q0 28 4 61.5 q4 33.5 12 72.5 l219 1026 l303 41 l-235 -1106 q-5 -17 -6.5 -33.5 q-1.5 -16.5 -1.5 -32.5 q0 -43 20 -59.5 q20 -16.5 63 -16.5 q30 0 58.5 13.5 q28.5 13.5 52.5 37.5 q24 24 43 57.5 q19 33.5 31 72.5 l86 0 Z" /><glyph glyph-name="m" unicode="m" d="M1626 367 q-43 -126 -92.5 -201 q-49.5 -75 -100 -114.5 q-50.5 -39.5 -99 -51.5 q-48.5 -12 -89.5 -12 q-68 0 -114 19.5 q-46 19.5 -74 52 q-28 32.5 -40.5 74 q-12.5 41.5 -12.5 85.5 q0 52 14.5 121.5 q14.5 69.5 31.5 142.5 q17 73 31.5 141 q14.5 68 14.5 117 q0 105 -74 105 q-28 0 -52 -15 q-24 -15 -44 -40.5 q-20 -25.5 -36 -60 q-16 -34.5 -28 -73.5 l-139 -657 l-295 0 l150 707 q6 24 6 51 q0 18 -3 34 q-3 16 -10.5 28.5 q-7.5 12.5 -19 20 q-11.5 7.5 -29.5 7.5 q-30 0 -55.5 -15 q-25.5 -15 -46 -41 q-20.5 -26 -36.5 -61 q-16 -35 -28 -74 l-139 -657 l-295 0 l217 1024 l295 0 l-22 -106 q33 37 66 59.5 q33 22.5 65 35 q32 12.5 62 17 q30 4.5 57 4.5 q40 0 75 -9.5 q35 -9.5 62 -30.5 q27 -21 46 -54.5 q19 -33.5 27 -81.5 q37 57 76 91.5 q39 34.5 76 52.5 q37 18 71 24 q34 6 62 6 q49 0 90.5 -13 q41.5 -13 72 -41 q30.5 -28 47.5 -72 q17 -44 17 -105 q0 -41 -7.5 -88.5 q-7.5 -47.5 -18 -97 q-10.5 -49.5 -23.5 -98.5 q-13 -49 -23.5 -94 q-10.5 -45 -18 -83.5 q-7.5 -38.5 -7.5 -67.5 q0 -38 17.5 -62 q17.5 -24 64.5 -24 q33 0 58 13 q25 13 45 37 q20 24 36.5 57.5 q16.5 33.5 32.5 73.5 l86 0 Z" /><glyph glyph-name="n" unicode="n" d="M1120 367 q-43 -126 -92.5 -201 q-49.5 -75 -100 -114.5 q-50.5 -39.5 -99 -51.5 q-48.5 -12 -89.5 -12 q-68 0 -114 19.5 q-46 19.5 -74 52 q-28 32.5 -40.5 74 q-12.5 41.5 -12.5 85.5 q0 52 14.5 121.5 q14.5 69.5 31.5 142.5 q17 73 31.5 141 q14.5 68 14.5 117 q0 105 -74 105 q-28 0 -52 -15 q-24 -15 -44 -40.5 q-20 -25.5 -36 -60 q-16 -34.5 -28 -73.5 l-139 -657 l-295 0 l217 1024 l295 0 l-22 -106 q33 37 65.5 59.5 q32.5 22.5 63.5 34.5 q31 12 58.5 16 q27.5 4 51.5 4 q49 0 91 -13 q42 -13 72.5 -41 q30.5 -28 47.5 -72 q17 -44 17 -105 q0 -41 -7.5 -88.5 q-7.5 -47.5 -18.5 -97 q-11 -49.5 -23.5 -98.5 q-12.5 -49 -23.5 -94 q-11 -45 -18.5 -83.5 q-7.5 -38.5 -7.5 -67.5 q0 -38 17.5 -62 q17.5 -24 64.5 -24 q33 0 58 13 q25 13 45 37 q20 24 36.5 57.5 q16.5 33.5 32.5 73.5 l86 0 Z" /><glyph glyph-name="o" unicode="o" d="M1151 778 q-60 -63 -155 -107 q-95 -44 -208 -63 q-12 -142 -54.5 -256 q-42.5 -114 -107.5 -194 q-65 -80 -149 -123 q-84 -43 -178 -43 q-71 0 -131.5 17.5 q-60.5 17.5 -104 56 q-43.5 38.5 -68 100 q-24.5 61.5 -24.5 149.5 q0 60 12.5 136.5 q12.5 76.5 40 157.5 q27.5 81 71 158.5 q43.5 77.5 106 138.5 q62.5 61 144.5 98.5 q82 37.5 187 37.5 q263 0 263 -327 l0 -2 q5 -2 9.5 -2 q4.5 0 12.5 0 q36 0 77.5 10.5 q41.5 10.5 83.5 27.5 q42 17 82 39.5 q40 22.5 73 45.5 l18 -56 ZM618 602 q-32 8 -43.5 31.5 q-11.5 23.5 -11.5 54.5 q0 43 17.5 70.5 q17.5 27.5 46.5 40.5 q-2 33 -7 55.5 q-5 22.5 -14 37 q-9 14.5 -22.5 20.5 q-13.5 6 -34.5 6 q-37 0 -71 -28.5 q-34 -28.5 -64.5 -75.5 q-30.5 -47 -56 -107.5 q-25.5 -60.5 -43.5 -124.5 q-18 -64 -28 -126.5 q-10 -62.5 -10 -113.5 q0 -51 5.5 -83 q5.5 -32 18 -50.5 q12.5 -18.5 32.5 -25.5 q20 -7 49 -7 q37 0 74.5 33 q37.5 33 69.5 90 q32 57 56.5 135 q24.5 78 36.5 168 Z" /><glyph glyph-name="p" unicode="p" d="M-186 -512 l342 1612 l295 0 l-33 -154 q45 38 103 63 q58 25 136 25 q52 0 98 -16.5 q46 -16.5 79.5 -54 q33.5 -37.5 53 -99.5 q19.5 -62 19.5 -153 q0 -69 -9.5 -149.5 q-9.5 -80.5 -32.5 -161 q-23 -80.5 -60.5 -155 q-37.5 -74.5 -93.5 -131.5 q-56 -57 -132.5 -91.5 q-76.5 -34.5 -175.5 -34.5 q-39 0 -68 6 q-29 6 -49.5 16 q-20.5 10 -34 23.5 q-13.5 13.5 -22.5 27.5 l-106 -499 l-309 -74 ZM262 213 q6 -17 24.5 -32 q18.5 -15 53.5 -15 q54 0 96 27.5 q42 27.5 74 73 q32 45.5 54 103.5 q22 58 36 119 q14 61 20.5 120.5 q6.5 59.5 6.5 107.5 q0 59 -11 93 q-11 34 -26.5 51 q-15.5 17 -33.5 21.5 q-18 4.5 -32 4.5 q-35 0 -73.5 -25.5 q-38.5 -25.5 -67.5 -75.5 l-121 -573 Z" /><glyph glyph-name="q" unicode="q" d="M360 -512 l129 612 q-45 -48 -105 -80 q-60 -32 -138 -32 q-53 0 -102 17 q-49 17 -87 56 q-38 39 -61 102 q-23 63 -23 154 q0 70 14 150 q14 80 43 160 q29 80 72.5 153.5 q43.5 73.5 102 130 q58.5 56.5 132.5 90 q74 33.5 163 33.5 q87 0 126.5 -30 q39.5 -30 39.5 -74 l0 -4 l20 98 l295 0 l-311 -1462 l-310 -74 ZM647 838 q-2 9 -7 21 q-5 12 -14.5 22.5 q-9.5 10.5 -25 18 q-15.5 7.5 -37.5 7.5 q-43 0 -81.5 -28 q-38.5 -28 -70.5 -74.5 q-32 -46.5 -57 -105.5 q-25 -59 -42.5 -121.5 q-17.5 -62.5 -26.5 -123 q-9 -60.5 -9 -108.5 q0 -59 11 -91 q11 -32 26.5 -47.5 q15.5 -15.5 33.5 -18.5 q18 -3 32 -3 q21 0 43.5 9.5 q22.5 9.5 44.5 27.5 q22 18 41 45.5 q19 27.5 31 63.5 l108 506 Z" /><glyph glyph-name="r" unicode="r" d="M-78 0 l217 1024 l295 0 l-26 -127 q27 24 55 47 q28 23 58.5 40.5 q30.5 17.5 63.5 28.5 q33 11 70 11 q35 0 61.5 -13 q26.5 -13 44.5 -34 q18 -21 27 -49 q9 -28 9 -58 q0 -27 -9 -53.5 q-9 -26.5 -27.5 -47.5 q-18.5 -21 -46.5 -34.5 q-28 -13.5 -65 -13.5 q-29 0 -44.5 10 q-15.5 10 -23.5 25 q-8 15 -11.5 32.5 q-3.5 17.5 -7.5 32.5 q-4 15 -10.5 25 q-6.5 10 -21.5 10 q-47 0 -79 -21.5 q-32 -21.5 -70 -56.5 l-164 -778 l-295 0 Z" /><glyph glyph-name="s" unicode="s" d="M868 367 q-80 -93 -160.5 -153.5 q-80.5 -60.5 -152.5 -102.5 q-32 -34 -71.5 -57.5 q-39.5 -23.5 -82 -38 q-42.5 -14.5 -86 -21 q-43.5 -6.5 -82.5 -6.5 q-77 0 -133.5 23.5 q-56.5 23.5 -93.5 61 q-37 37.5 -54.5 84 q-17.5 46.5 -17.5 93.5 q0 36 9.5 66.5 q9.5 30.5 24.5 54.5 q15 24 34.5 41.5 q19.5 17.5 40.5 27.5 q86 154 145 304.5 q59 150.5 107 302.5 l303 40 q6 -133 11.5 -230.5 q5.5 -97.5 10.5 -169 q5 -71.5 9 -121.5 q4 -50 7.5 -88.5 q3.5 -38.5 5 -70 q1.5 -31.5 1.5 -65.5 q0 -23 -1.5 -42 q-1.5 -19 -6.5 -36 q45 26 81.5 51.5 q36.5 25.5 65.5 51.5 l86 0 ZM43 293 q0 -72 28.5 -107.5 q28.5 -35.5 96.5 -35.5 q34 0 66 9.5 q32 9.5 57 32 q25 22.5 40 58.5 q15 36 15 90 q0 26 -1.5 50.5 q-1.5 24.5 -3.5 52 q-2 27.5 -5.5 61.5 q-3.5 34 -8 79 q-4.5 45 -9.5 104 q-5 59 -11 138 q-31 -100 -73 -194 q-42 -94 -93 -193 q20 -11 33.5 -28 q13.5 -17 13.5 -43 q0 -19 -6 -37 q-6 -18 -18 -32.5 q-12 -14.5 -28.5 -23 q-16.5 -8.5 -37.5 -8.5 q-17 0 -32 5 q-15 5 -23 22 Z" /><glyph glyph-name="t" unicode="t" d="M633 367 q-29 -83 -64.5 -144 q-35.5 -61 -74 -103 q-38.5 -42 -79 -68 q-40.5 -26 -78.5 -40 q-38 -14 -72.5 -19 q-34.5 -5 -61.5 -5 q-46 0 -86 14 q-40 14 -69.5 44 q-29.5 30 -46.5 76 q-17 46 -17 111 q0 28 4 61.5 q4 33.5 12 72.5 l123 575 l-68 0 l17 82 l67 0 l62 283 l303 41 l-70 -324 l123 0 l-16 -82 l-123 0 l-131 -614 q-5 -17 -6.5 -33.5 q-1.5 -16.5 -1.5 -32.5 q0 -43 20 -59.5 q20 -16.5 63 -16.5 q30 0 58.5 13.5 q28.5 13.5 52.5 37.5 q24 24 43 57.5 q19 33.5 31 72.5 l86 0 Z" /><glyph glyph-name="u" unicode="u" d="M1120 367 q-29 -83 -63 -144 q-34 -61 -70.5 -103 q-36.5 -42 -74.5 -68 q-38 -26 -74 -40 q-36 -14 -69 -19 q-33 -5 -60 -5 q-88 0 -140 48.5 q-52 48.5 -63 145.5 q-39 -63 -79 -101 q-40 -38 -79 -59 q-39 -21 -76 -27.5 q-37 -6.5 -69 -6.5 q-46 0 -86 14 q-40 14 -69.5 44 q-29.5 30 -46.5 76 q-17 46 -17 111 q0 28 4 61.5 q4 33.5 12 72.5 l139 657 l295 0 l-147 -696 q-6 -32 -6 -58 q0 -35 13 -59.5 q13 -24.5 48 -24.5 q30 0 55 13.5 q25 13.5 45.5 37.5 q20.5 24 36 57.5 q15.5 33.5 27.5 72.5 l139 657 l295 0 l-147 -696 q-5 -17 -7 -33.5 q-2 -16.5 -2 -32.5 q0 -43 20.5 -59.5 q20.5 -16.5 63.5 -16.5 q30 0 55.5 13.5 q25.5 13.5 46.5 37.5 q21 24 37 57.5 q16 33.5 27 72.5 l86 0 Z" /><glyph glyph-name="v" unicode="v" d="M139 1024 l295 0 l-147 -696 q-5 -23 -8 -41.5 q-3 -18.5 -3 -32.5 q0 -31 16.5 -49.5 q16.5 -18.5 53.5 -18.5 q50 0 96 35 q46 35 85 92.5 q39 57.5 71 130.5 q32 73 54.5 149 q22.5 76 35 148.5 q12.5 72.5 12.5 128.5 q-2 -5 -10.5 -9 q-8.5 -4 -18.5 -6.5 q-10 -2.5 -20 -3.5 q-10 -1 -16 -1 q-18 0 -32 9.5 q-14 9.5 -23.5 24.5 q-9.5 15 -14 33.5 q-4.5 18.5 -4.5 36.5 q0 48 30.5 79.5 q30.5 31.5 96.5 31.5 q37 0 61.5 -15 q24.5 -15 39.5 -40 q15 -25 21.5 -57 q6.5 -32 6.5 -66 q0 -82 -14 -180.5 q-14 -98.5 -44.5 -198.5 q-30.5 -100 -77 -193.5 q-46.5 -93.5 -111.5 -166 q-65 -72.5 -149 -116.5 q-84 -44 -188 -44 q-116 0 -183.5 59.5 q-67.5 59.5 -67.5 181.5 q0 17 2 43.5 q2 26.5 8 55.5 l147 696 Z" /><glyph glyph-name="w" unicode="w" d="M645 1024 l295 0 l-147 -696 q-11 -49 -11 -74 q0 -31 16.5 -49.5 q16.5 -18.5 53.5 -18.5 q50 0 96 35 q46 35 85 92.5 q39 57.5 71 130.5 q32 73 54.5 149 q22.5 76 35 148.5 q12.5 72.5 12.5 128.5 q-2 -5 -10.5 -9 q-8.5 -4 -18.5 -6.5 q-10 -2.5 -20 -3.5 q-10 -1 -16 -1 q-18 0 -32 9.5 q-14 9.5 -23.5 24.5 q-9.5 15 -14 33.5 q-4.5 18.5 -4.5 36.5 q0 48 30.5 79.5 q30.5 31.5 96.5 31.5 q37 0 61.5 -15 q24.5 -15 39.5 -40 q15 -25 21.5 -57 q6.5 -32 6.5 -66 q0 -82 -14 -180.5 q-14 -98.5 -44.5 -198.5 q-30.5 -100 -77 -193.5 q-46.5 -93.5 -111.5 -166 q-65 -72.5 -149 -116.5 q-84 -44 -188 -44 q-100 0 -163.5 42.5 q-63.5 42.5 -81.5 129.5 q-37 -56 -76 -89.5 q-39 -33.5 -76.5 -52 q-37.5 -18.5 -73 -24.5 q-35.5 -6 -65.5 -6 q-46 0 -86 14 q-40 14 -69.5 44 q-29.5 30 -46.5 76 q-17 46 -17 111 q0 28 4 61.5 q4 33.5 12 72.5 l139 657 l295 0 l-147 -696 q-6 -26 -6 -52 q0 -18 3 -34 q3 -16 10 -28.5 q7 -12.5 18.5 -20 q11.5 -7.5 29.5 -7.5 q30 0 55 13.5 q25 13.5 45.5 37.5 q20.5 24 36 57.5 q15.5 33.5 27.5 72.5 l139 657 Z" /><glyph glyph-name="x" unicode="x" d="M1155 367 q-41 -119 -94.5 -193.5 q-53.5 -74.5 -110.5 -115.5 q-57 -41 -112.5 -55.5 q-55.5 -14.5 -100.5 -14.5 q-46 0 -85 20 q-39 20 -70.5 63.5 q-31.5 43.5 -55.5 110.5 q-24 67 -39 162 l-282 -344 l-148 0 l414 467 l-33 229 q-8 52 -16.5 85 q-8.5 33 -17.5 52 q-9 19 -20 26 q-11 7 -24 7 q-30 0 -66 -30.5 q-36 -30.5 -73.5 -92.5 q-37.5 -62 -72.5 -155.5 q-35 -93.5 -62 -220.5 l-86 0 q17 76 40 154.5 q23 78.5 53.5 153 q30.5 74.5 69.5 140 q39 65.5 87 114 q48 48.5 106 77 q58 28.5 127 28.5 q61 0 102 -23.5 q41 -23.5 66.5 -59 q25.5 -35.5 37.5 -78.5 q12 -43 16 -82 l18 -156 q87 97 130 167.5 q43 70.5 48 127.5 q-11 -2 -19 -3 q-8 -1 -16 -1 q-27 0 -45 9 q-18 9 -29.5 24.5 q-11.5 15.5 -16.5 36 q-5 20.5 -5 44.5 q0 27 11.5 46 q11.5 19 30.5 31.5 q19 12.5 44.5 18 q25.5 5.5 52.5 5.5 q28 0 50 -16.5 q22 -16.5 36 -43 q14 -26.5 21.5 -60 q7.5 -33.5 7.5 -67.5 q0 -48 -17.5 -95 q-17.5 -47 -53 -99 q-35.5 -52 -89 -113 q-53.5 -61 -125.5 -139 l19 -143 q6 -50 16.5 -84.5 q10.5 -34.5 26 -55.5 q15.5 -21 36.5 -30 q21 -9 48 -9 q30 0 58 13.5 q28 13.5 52 37.5 q24 24 43 57.5 q19 33.5 31 72.5 l86 0 Z" /><glyph glyph-name="y" unicode="y" d="M688 -164 q-22 -110 -63.5 -178 q-41.5 -68 -92.5 -106 q-51 -38 -106.5 -51 q-55.5 -13 -106.5 -13 q-47 0 -88.5 12.5 q-41.5 12.5 -72.5 37 q-31 24.5 -49.5 62 q-18.5 37.5 -18.5 87.5 q0 64 30.5 113 q30.5 49 78.5 85.5 q48 36.5 107.5 62.5 q59.5 26 117.5 44 l25 110 q-33 -36 -66 -58.5 q-33 -22.5 -64 -34.5 q-31 -12 -60 -16.5 q-29 -4.5 -56 -4.5 q-46 0 -86 14 q-40 14 -69.5 44 q-29.5 30 -46.5 76 q-17 46 -17 111 q0 28 4 61.5 q4 33.5 12 72.5 l139 657 l295 0 l-147 -696 q-6 -26 -6 -52 q0 -18 3 -34 q3 -16 10 -28.5 q7 -12.5 18.5 -20 q11.5 -7.5 29.5 -7.5 q28 0 52.5 12.5 q24.5 12.5 44.5 35 q20 22.5 35.5 53.5 q15.5 31 27.5 67 l143 670 l295 0 l-203 -950 q47 16 85 38.5 q38 22.5 69.5 57 q31.5 34.5 57 82.5 q25.5 48 46.5 115 l86 0 q-31 -102 -73.5 -170 q-42.5 -68 -90.5 -111.5 q-48 -43.5 -99 -66.5 q-51 -23 -99 -35 l-31 -148 ZM403 -111 q-40 -15 -76 -32.5 q-36 -17.5 -63.5 -38.5 q-27.5 -21 -44 -46.5 q-16.5 -25.5 -16.5 -56.5 q0 -11 4 -23 q4 -12 12.5 -22 q8.5 -10 21.5 -16 q13 -6 31 -6 q32 0 65.5 44.5 q33.5 44.5 53.5 137.5 l12 59 Z" /><glyph glyph-name="z" unicode="z" d="M0 0 l522 913 l-114 0 q-24 0 -44.5 -1 q-20.5 -1 -36 -4 q-15.5 -3 -24 -9.5 q-8.5 -6.5 -8.5 -17.5 q0 -5 3.5 -6 q3.5 -1 7.5 -4 q4 -3 7.5 -10 q3.5 -7 3.5 -25 q0 -29 -9.5 -49.5 q-9.5 -20.5 -25 -33.5 q-15.5 -13 -35 -19.5 q-19.5 -6.5 -40.5 -6.5 q-18 0 -34.5 6 q-16.5 6 -30 17 q-13.5 11 -21.5 28 q-8 17 -8 39 q0 31 16.5 67.5 q16.5 36.5 47 67.5 q30.5 31 74.5 51.5 q44 20.5 99 20.5 l527 0 l-502 -866 q13 -1 31 -3 q18 -2 39 -4.5 q21 -2.5 42.5 -4 q21.5 -1.5 42.5 -1.5 q38 0 65 8.5 q27 8.5 32 32.5 q-20 2 -29.5 14 q-9.5 12 -9.5 29 q0 15 7.5 30.5 q7.5 15.5 21.5 28 q14 12.5 35.5 21 q21.5 8.5 49.5 8.5 q48 0 69.5 -28 q21.5 -28 21.5 -70 q0 -35 -17 -74 q-17 -39 -49 -71 q-32 -32 -78.5 -53 q-46.5 -21 -105.5 -21 l-543 0 Z" /><glyph glyph-name="braceleft" unicode="{" d="M802 1438 q-49 0 -84.5 -7.5 q-35.5 -7.5 -61.5 -31.5 q-26 -24 -44 -68 q-18 -44 -31.5 -117 q-13.5 -73 -24.5 -179.5 q-11 -106.5 -23 -254.5 q-5 -52 -16.5 -90 q-11.5 -38 -35 -67 q-23.5 -29 -60.5 -52.5 q-37 -23.5 -92 -46.5 q63 -29 88.5 -65 q25.5 -36 25.5 -94 q0 -37 -8 -82 q-8 -45 -20 -94.5 q-12 -49.5 -26 -102.5 q-14 -53 -26 -105.5 q-12 -52.5 -20 -103.5 q-8 -51 -8 -96 q0 -90 34 -141.5 q34 -51.5 97 -59.5 l-19 -92 l-59 0 q-68 0 -122 17 q-54 17 -92 48.5 q-38 31.5 -58.5 77 q-20.5 45.5 -20.5 101.5 q0 44 11 98.5 q11 54.5 27 114 q16 59.5 35 121.5 q19 62 35 121 q16 59 27 113 q11 54 11 97 q0 42 -18 58 q-18 16 -66 16 l-64 0 l21 104 l65 0 q36 0 61.5 13 q25.5 13 42.5 42.5 q17 29.5 26 77 q9 47.5 11 115.5 q9 206 32.5 343.5 q23.5 137.5 70.5 220.5 q47 83 122.5 118 q75.5 35 186.5 35 l88 0 l-18 -102 Z" /><glyph glyph-name="bar" unicode="|" d="M449 -512 l0 2050 l190 0 l0 -2050 l-190 0 Z" /><glyph glyph-name="braceright" unicode="}" d="M-115 -410 q48 0 83.5 7.5 q35.5 7.5 61.5 31.5 q26 24 44 68 q18 44 31.5 117 q13.5 73 24.5 179.5 q11 106.5 23 254.5 q4 52 16 90 q12 38 35.5 67 q23.5 29 60.5 52.5 q37 23.5 93 46.5 q-32 15 -53.5 30.5 q-21.5 15.5 -35.5 34.5 q-14 19 -20 42.5 q-6 23.5 -6 52.5 q0 55 17 127.5 q17 72.5 37.5 151 q20.5 78.5 37.5 157.5 q17 79 17 147 q0 90 -34.5 141.5 q-34.5 51.5 -97.5 59.5 l19 92 l59 0 q68 0 122 -17 q54 -17 92 -48.5 q38 -31.5 58.5 -77 q20.5 -45.5 20.5 -101.5 q0 -44 -10.5 -98.5 q-10.5 -54.5 -27 -114 q-16.5 -59.5 -35 -121.5 q-18.5 -62 -35 -121 q-16.5 -59 -27 -113 q-10.5 -54 -10.5 -97 q0 -42 18 -58 q18 -16 66 -16 l63 0 l-20 -104 l-66 0 q-36 0 -61.5 -13 q-25.5 -13 -42.5 -42.5 q-17 -29.5 -26 -77 q-9 -47.5 -11 -115.5 q-9 -206 -32.5 -343.5 q-23.5 -137.5 -71 -220.5 q-47.5 -83 -122.5 -118 q-75 -35 -186 -35 l-88 0 l19 102 Z" /><glyph glyph-name="asciitilde" unicode="~" d="M922 1370 q-8 -36 -38.5 -72.5 q-30.5 -36.5 -76 -66 q-45.5 -29.5 -101.5 -48 q-56 -18.5 -114 -18.5 q-51 0 -95.5 12 q-44.5 12 -85.5 26 q-41 14 -80.5 26 q-39.5 12 -82.5 12 q-76 0 -135 -53 l-13 4 q50 99 137.5 150 q87.5 51 204.5 51 q55 0 98.5 -10.5 q43.5 -10.5 82 -23.5 q38.5 -13 76 -23.5 q37.5 -10.5 81.5 -10.5 q38 0 72 12 q34 12 57 35 l13 -2 Z" /><glyph glyph-name="afii10023" unicode="&#x401;" d="M991 348 q-41 -90 -104.5 -161 q-63.5 -71 -143 -121 q-79.5 -50 -169.5 -76.5 q-90 -26.5 -183 -26.5 q-99 0 -170.5 29.5 q-71.5 29.5 -117 79.5 q-45.5 50 -67.5 115 q-22 65 -22 137 q0 81 26 165 q26 84 74.5 157.5 q48.5 73.5 119 129 q70.5 55.5 159.5 78.5 q-66 48 -95.5 112.5 q-29.5 64.5 -29.5 133.5 q0 79 33.5 157.5 q33.5 78.5 93 141.5 q59.5 63 142 102 q82.5 39 180.5 39 q61 0 114.5 -16.5 q53.5 -16.5 93.5 -48.5 q40 -32 62.5 -80 q22.5 -48 22.5 -111 q0 -46 -12 -85 q-12 -39 -33 -67.5 q-21 -28.5 -48.5 -44.5 q-27.5 -16 -58.5 -16 q-56 0 -96 55 q18 6 34.5 25 q16.5 19 29 44 q12.5 25 19.5 54 q7 29 7 56 q0 31 -10 53 q-10 22 -25.5 35.5 q-15.5 13.5 -36 19.5 q-20.5 6 -41.5 6 q-46 0 -84.5 -25 q-38.5 -25 -66 -65.5 q-27.5 -40.5 -43 -92.5 q-15.5 -52 -15.5 -106 q0 -45 11.5 -88 q11.5 -43 36.5 -79.5 q25 -36.5 64.5 -64 q39.5 -27.5 94.5 -42.5 q-55 -12 -103.5 -40 q-48.5 -28 -89 -66.5 q-40.5 -38.5 -72.5 -85.5 q-32 -47 -54.5 -97.5 q-22.5 -50.5 -34.5 -101.5 q-12 -51 -12 -98 q0 -43 11 -81 q11 -38 34 -66 q23 -28 60 -44 q37 -16 89 -16 q47 0 101.5 13 q54.5 13 106.5 39.5 q52 26.5 97 65.5 q45 39 74 91 l47 -21 ZM737 1810 q0 -27 -10 -49.5 q-10 -22.5 -27 -39 q-17 -16.5 -40 -26 q-23 -9.5 -48 -9.5 q-27 0 -49.5 9.5 q-22.5 9.5 -39.5 26 q-17 16.5 -26.5 39 q-9.5 22.5 -9.5 49.5 q0 25 9.5 48 q9.5 23 26.5 40 q17 17 39.5 27 q22.5 10 49.5 10 q25 0 48 -10 q23 -10 40 -27 q17 -17 27 -40 q10 -23 10 -48 ZM1106 1810 q0 -27 -10 -49.5 q-10 -22.5 -27 -39 q-17 -16.5 -40 -26 q-23 -9.5 -48 -9.5 q-27 0 -50 9.5 q-23 9.5 -39.5 26 q-16.5 16.5 -26 39 q-9.5 22.5 -9.5 49.5 q0 25 9.5 48 q9.5 23 26 40 q16.5 17 39.5 27 q23 10 50 10 q25 0 48 -10 q23 -10 40 -27 q17 -17 27 -40 q10 -23 10 -48 Z" /><glyph glyph-name="afii10051" unicode="&#x402;" d="M334 0 l291 1356 l-25 0 q-81 0 -151.5 -18.5 q-70.5 -18.5 -122.5 -65 q-52 -46.5 -81.5 -126.5 q-29.5 -80 -29.5 -204 q0 -39 4.5 -63.5 q4.5 -24.5 10 -39 q5.5 -14.5 10 -22.5 q4.5 -8 4.5 -14 q-53 0 -94 10.5 q-41 10.5 -69 33.5 q-28 23 -42 61 q-14 38 -14 93 q0 102 38 198.5 q38 96.5 121.5 170.5 q83.5 74 216 119 q132.5 45 322.5 45 q93 0 158.5 -7.5 q65.5 -7.5 121.5 -16 q56 -8.5 112.5 -16 q56.5 -7.5 131.5 -7.5 q72 0 134 13 q62 13 104 30 q-5 -136 -68.5 -198 q-63.5 -62 -187.5 -62 q-76 0 -154.5 14 q-78.5 14 -163.5 31 l-100 -463 q39 25 78 40 q39 15 75 23.5 q36 8.5 67.5 11.5 q31.5 3 55.5 3 q52 0 98 -17 q46 -17 80.5 -52.5 q34.5 -35.5 55 -91 q20.5 -55.5 20.5 -132.5 q0 -82 -16.5 -172 q-16.5 -90 -36.5 -176 q-33 -139 -84 -268 q-51 -129 -119.5 -228 q-68.5 -99 -154.5 -158 q-86 -59 -189 -59 q-65 0 -107.5 21.5 q-42.5 21.5 -63.5 56 q-21 34.5 -21.5 78 q-0.5 43.5 20.5 86.5 q25 -26 51.5 -35.5 q26.5 -9.5 55.5 -9.5 q54 0 99.5 30.5 q45.5 30.5 84.5 94 q39 63.5 73.5 162 q34.5 98.5 67.5 233.5 q9 30 18 73 q9 43 16.5 89.5 q7.5 46.5 12.5 91.5 q5 45 5 80 q0 42 -9 69.5 q-9 27.5 -24.5 44 q-15.5 16.5 -35.5 23 q-20 6.5 -42 6.5 q-51 0 -90 -16 q-39 -16 -70 -39 l-153 -715 l-295 0 Z" /><glyph glyph-name="afii10052" unicode="&#x403;" d="M186 0 l295 1368 q-62 -2 -111 -22.5 q-49 -20.5 -83.5 -68.5 q-34.5 -48 -53 -129 q-18.5 -81 -18.5 -204 q0 -39 4.5 -63.5 q4.5 -24.5 10 -39 q5.5 -14.5 10 -22.5 q4.5 -8 4.5 -14 q-53 0 -94 10.5 q-41 10.5 -69 33.5 q-28 23 -42 61 q-14 38 -14 94 q0 68 15.5 134 q15.5 66 50 125 q34.5 59 90 109 q55.5 50 134 86.5 q78.5 36.5 183 57 q104.5 20.5 237.5 20.5 q33 0 73.5 -4 q40.5 -4 86 -8.5 q45.5 -4.5 95.5 -8.5 q50 -4 102 -4 q51 0 100 5.5 q49 5.5 94 19.5 q-8 -22 -14.5 -48.5 q-6.5 -26.5 -15.5 -53.5 q-9 -27 -21.5 -53 q-12.5 -26 -32.5 -46 q-20 -20 -49.5 -32.5 q-29.5 -12.5 -71.5 -12.5 q-78 0 -156.5 12 q-78.5 12 -156.5 29 l-287 -1331 l-295 0 ZM754 1661 l186 387 l215 0 l-248 -387 l-153 0 Z" /><glyph glyph-name="afii10053" unicode="&#x404;" d="M1071 348 q-41 -103 -111 -175.5 q-70 -72.5 -151.5 -118 q-81.5 -45.5 -166 -66.5 q-84.5 -21 -155.5 -21 q-114 0 -198 27 q-84 27 -139.5 87 q-55.5 60 -83 156 q-27.5 96 -27.5 234 q0 70 8.5 152.5 q8.5 82.5 27.5 170.5 q19 88 48.5 177 q29.5 89 71.5 171.5 q42 82.5 97 154.5 q55 72 124 125 q69 53 153 83.5 q84 30.5 185 30.5 q71 0 133.5 -15.5 q62.5 -15.5 109 -48.5 q46.5 -33 73 -85 q26.5 -52 26.5 -125 q0 -41 -7.5 -75.5 q-7.5 -34.5 -25 -60 q-17.5 -25.5 -45 -39.5 q-27.5 -14 -66.5 -14 q-24 0 -55.5 9 q-31.5 9 -60.5 44 q18 9 35 28.5 q17 19.5 30 45 q13 25.5 21 55.5 q8 30 8 60 q0 24 -6.5 47 q-6.5 23 -21.5 40 q-15 17 -39 27.5 q-24 10.5 -58 10.5 q-56 0 -109.5 -42 q-53.5 -42 -101 -113 q-47.5 -71 -87 -165 q-39.5 -94 -67.5 -198 l391 0 l-32 -152 l-393 0 q-13 -72 -20 -145 q-7 -73 -7 -142 q0 -71 10.5 -129.5 q10.5 -58.5 38 -100.5 q27.5 -42 75 -65.5 q47.5 -23.5 122.5 -23.5 q121 0 224 54 q103 54 175 151 l47 -21 Z" /><glyph glyph-name="afii10054" unicode="&#x405;" d="M797 1126 q21 12 38 32 q17 20 29 43.5 q12 23.5 18.5 49.5 q6.5 26 6.5 52 q0 27 -7.5 51.5 q-7.5 24.5 -25.5 43.5 q-18 19 -47 30.5 q-29 11.5 -72 11.5 q-86 0 -137 -47 q-51 -47 -51 -140 q0 -75 34 -132 q34 -57 85.5 -107 q51.5 -50 111 -100 q59.5 -50 111 -112 q51.5 -62 85.5 -142.5 q34 -80.5 34 -190.5 q0 -129 -48 -225 q-48 -96 -128.5 -160 q-80.5 -64 -184.5 -95.5 q-104 -31.5 -215 -31.5 q-88 0 -167 19.5 q-79 19.5 -138 62 q-59 42.5 -94 109 q-35 66.5 -35 161.5 q0 83 27 146 q27 63 70 105 q43 42 96.5 63.5 q53.5 21.5 107.5 21.5 q27 0 57.5 -6 q30.5 -6 57 -21.5 q26.5 -15.5 45 -41.5 q18.5 -26 20.5 -66 q-41 0 -83.5 -10 q-42.5 -10 -77 -33 q-34.5 -23 -56.5 -60 q-22 -37 -22 -90 q0 -38 12 -73.5 q12 -35.5 36.5 -62.5 q24.5 -27 61.5 -43.5 q37 -16.5 86 -16.5 q52 0 96 18.5 q44 18.5 75.5 53 q31.5 34.5 49 85 q17.5 50.5 17.5 115.5 q0 87 -31 158 q-31 71 -78 132 q-47 61 -101 116.5 q-54 55.5 -101 112.5 q-47 57 -78 119.5 q-31 62.5 -31 137.5 q0 80 37 147.5 q37 67.5 100.5 116 q63.5 48.5 150 76 q86.5 27.5 185.5 27.5 q24 0 58 -2.5 q34 -2.5 70.5 -11.5 q36.5 -9 72.5 -25.5 q36 -16.5 64.5 -43.5 q28.5 -27 46.5 -67 q18 -40 18 -96 q0 -45 -11.5 -83 q-11.5 -38 -33.5 -65.5 q-22 -27.5 -53 -43 q-31 -15.5 -70 -15.5 q-57 0 -94 43 Z" /><glyph glyph-name="afii10055" unicode="&#x406;" d="M205 0 l297 1391 q-135 -56 -211 -168.5 q-76 -112.5 -76 -278.5 q0 -39 4.5 -63.5 q4.5 -24.5 10 -39 q5.5 -14.5 10 -22.5 q4.5 -8 4.5 -14 q-53 0 -94 10.5 q-41 10.5 -69 33.5 q-28 23 -42 61 q-14 38 -14 94 q0 68 29.5 134 q29.5 66 80.5 125 q51 59 120.5 109 q69.5 50 149.5 86.5 q80 36.5 166 57 q86 20.5 172 20.5 q23 0 42.5 -1 q19.5 -1 39.5 -3 l-325 -1532 l-295 0 Z" /><glyph glyph-name="afii10056" unicode="&#x407;" d="M205 0 l297 1391 q-135 -56 -211 -168.5 q-76 -112.5 -76 -278.5 q0 -39 4.5 -63.5 q4.5 -24.5 10 -39 q5.5 -14.5 10 -22.5 q4.5 -8 4.5 -14 q-53 0 -94 10.5 q-41 10.5 -69 33.5 q-28 23 -42 61 q-14 38 -14 94 q0 68 29.5 134 q29.5 66 80.5 125 q51 59 120.5 109 q69.5 50 149.5 86.5 q80 36.5 166 57 q86 20.5 172 20.5 q23 0 42.5 -1 q19.5 -1 39.5 -3 l-325 -1532 l-295 0 ZM1016 1810 q0 -27 -10 -49.5 q-10 -22.5 -27.5 -39 q-17.5 -16.5 -40 -26 q-22.5 -9.5 -47.5 -9.5 q-27 0 -50 9.5 q-23 9.5 -39.5 26 q-16.5 16.5 -26 39 q-9.5 22.5 -9.5 49.5 q0 25 9.5 48 q9.5 23 26 40 q16.5 17 39.5 27 q23 10 50 10 q25 0 47.5 -10 q22.5 -10 40 -27 q17.5 -17 27.5 -40 q10 -23 10 -48 ZM647 1810 q0 -27 -10 -49.5 q-10 -22.5 -27 -39 q-17 -16.5 -40 -26 q-23 -9.5 -48 -9.5 q-27 0 -49.5 9.5 q-22.5 9.5 -39.5 26 q-17 16.5 -26.5 39 q-9.5 22.5 -9.5 49.5 q0 25 9.5 48 q9.5 23 26.5 40 q17 17 39.5 27 q22.5 10 49.5 10 q25 0 48 -10 q23 -10 40 -27 q17 -17 27 -40 q10 -23 10 -48 Z" /><glyph glyph-name="afii10057" unicode="&#x408;" d="M664 1393 q-136 -56 -212.5 -169.5 q-76.5 -113.5 -76.5 -279.5 q0 -39 4.5 -63.5 q4.5 -24.5 9.5 -39 q5 -14.5 9.5 -22.5 q4.5 -8 4.5 -14 q-53 0 -94 10.5 q-41 10.5 -68.5 33.5 q-27.5 23 -42 61 q-14.5 38 -14.5 94 q0 68 29.5 134 q29.5 66 81 125 q51.5 59 121 109 q69.5 50 149 86.5 q79.5 36.5 166 57 q86.5 20.5 172.5 20.5 l82 0 l-307 -1454 q-25 -117 -65 -211 q-40 -94 -103.5 -159.5 q-63.5 -65.5 -154 -100.5 q-90.5 -35 -216.5 -35 q-74 0 -130.5 21 q-56.5 21 -94.5 59 q-38 38 -58 91 q-20 53 -20 118 q0 52 16.5 101.5 q16.5 49.5 48 87.5 q31.5 38 78 61.5 q46.5 23.5 107.5 23.5 q31 0 66 -3 q35 -3 65 -16.5 q30 -13.5 50 -41 q20 -27.5 20 -76.5 q0 -37 -13 -82 q-19 16 -35 26.5 q-16 10.5 -30 16.5 q-14 6 -28 8 q-14 2 -29 2 q-36 0 -63 -13 q-27 -13 -45 -34 q-18 -21 -27 -48.5 q-9 -27.5 -9 -55.5 q0 -40 13.5 -67.5 q13.5 -27.5 34 -44.5 q20.5 -17 45 -24.5 q24.5 -7.5 46.5 -7.5 q35 0 63 9.5 q28 9.5 51 36.5 q23 27 43 76.5 q20 49.5 38 129.5 l322 1463 Z" /><glyph glyph-name="afii10058" unicode="&#x409;" d="M567 0 l295 1391 q-58 -31 -118.5 -96.5 q-60.5 -65.5 -119 -155 q-58.5 -89.5 -114 -197.5 q-55.5 -108 -104.5 -224 q-49 -116 -89.5 -234.5 q-40.5 -118.5 -70 -228.5 q-29.5 -110 -46 -206 q-16.5 -96 -16.5 -168 q0 -49 9 -74.5 q9 -25.5 20 -39.5 q-41 0 -89 4 q-48 4 -89 24.5 q-41 20.5 -68.5 64.5 q-27.5 44 -27.5 124 q0 76 26.5 183.5 q26.5 107.5 74 231 q47.5 123.5 113 255.5 q65.5 132 144 258.5 q78.5 126.5 167.5 239.5 q89 113 182 198.5 q93 85.5 188.5 135.5 q95.5 50 187.5 50 q18 0 38.5 -1.5 q20.5 -1.5 42 -4.5 q21.5 -3 42.5 -8.5 q21 -5.5 39 -14.5 l-140 -651 q60 20 110 28.5 q50 8.5 101 8.5 q89 0 154.5 -28.5 q65.5 -28.5 108 -79 q42.5 -50.5 63.5 -120 q21 -69.5 21 -151.5 q0 -51 -11 -111.5 q-11 -60.5 -33.5 -121.5 q-22.5 -61 -58 -118 q-35.5 -57 -84 -101 q-48.5 -44 -111.5 -70.5 q-63 -26.5 -141 -26.5 q-70 0 -116 22.5 q-46 22.5 -69 60 q-23 37.5 -23 86.5 q0 49 22 102 q32 -42 66 -58 q34 -16 71 -16 q56 0 95 34 q39 34 63 86.5 q24 52.5 34.5 116 q10.5 63.5 10.5 121.5 q0 53 -9.5 99 q-9.5 46 -32 80 q-22.5 34 -60 53.5 q-37.5 19.5 -93.5 19.5 q-23 0 -49 -5 q-26 -5 -51 -17 l-160 -750 l-295 0 Z" /><glyph glyph-name="afii10059" unicode="&#x40a;" d="M801 0 l164 770 l-301 0 l-164 -770 l-295 0 l297 1393 q-136 -57 -211.5 -170.5 q-75.5 -113.5 -75.5 -278.5 q0 -39 4.5 -63.5 q4.5 -24.5 10 -39 q5.5 -14.5 10 -22.5 q4.5 -8 4.5 -14 q-53 0 -94 10.5 q-41 10.5 -69 33.5 q-28 23 -42 61 q-14 38 -14 94 q0 68 29.5 134 q29.5 66 80.5 125 q51 59 120.5 109 q69.5 50 149.5 86.5 q80 36.5 166 57 q86 20.5 172 20.5 q23 0 42.5 -1 q19.5 -1 39.5 -3 l-131 -610 l301 0 l131 610 l295 0 l-143 -676 q60 19 110 28 q50 9 101 9 q89 0 154 -28.5 q65 -28.5 108 -79 q43 -50.5 63.5 -120 q20.5 -69.5 20.5 -151.5 q0 -51 -11 -111.5 q-11 -60.5 -33.5 -121.5 q-22.5 -61 -58 -118 q-35.5 -57 -84 -101 q-48.5 -44 -111 -70.5 q-62.5 -26.5 -140.5 -26.5 q-70 0 -116.5 22.5 q-46.5 22.5 -69.5 60 q-23 37.5 -23 86.5 q0 49 22 102 q32 -42 66 -58 q34 -16 72 -16 q56 0 94.5 34 q38.5 34 62.5 86.5 q24 52.5 34.5 116 q10.5 63.5 10.5 121.5 q0 53 -9.5 99 q-9.5 46 -32 80 q-22.5 34 -59.5 53.5 q-37 19.5 -93 19.5 q-23 0 -49.5 -5 q-26.5 -5 -51.5 -17 l-159 -750 l-295 0 Z" /><glyph glyph-name="afii10060" unicode="&#x40b;" d="M334 0 l291 1356 l-25 0 q-81 0 -151.5 -18.5 q-70.5 -18.5 -122.5 -65 q-52 -46.5 -81.5 -126.5 q-29.5 -80 -29.5 -204 q0 -39 4.5 -63.5 q4.5 -24.5 10 -39 q5.5 -14.5 10 -22.5 q4.5 -8 4.5 -14 q-53 0 -94 10.5 q-41 10.5 -69 33.5 q-28 23 -42 61 q-14 38 -14 93 q0 102 38 198.5 q38 96.5 121.5 170.5 q83.5 74 216 119 q132.5 45 322.5 45 q93 0 158.5 -7.5 q65.5 -7.5 121.5 -16 q56 -8.5 112.5 -16 q56.5 -7.5 131.5 -7.5 q72 0 134 13 q62 13 104 30 q-5 -136 -68.5 -198 q-63.5 -62 -187.5 -62 q-76 0 -154.5 14 q-78.5 14 -163.5 31 l-100 -463 q39 25 78.5 40 q39.5 15 76 23.5 q36.5 8.5 69 11.5 q32.5 3 57.5 3 q51 0 96 -17 q45 -17 79 -52.5 q34 -35.5 54 -91 q20 -55.5 20 -132.5 q0 -42 -4.5 -96 q-4.5 -54 -21.5 -117 q-25 -103 -40 -171 q-15 -68 -15 -118 q0 -48 21 -84.5 q21 -36.5 58 -50.5 q-66 -19 -121.5 -27 q-55.5 -8 -93.5 -8 q-50 0 -81 12.5 q-31 12.5 -48.5 32 q-17.5 19.5 -23.5 44 q-6 24.5 -6 48.5 q0 54 16.5 132 q16.5 78 42.5 190 q5 24 10.5 52.5 q5.5 28.5 9.5 56.5 q4 28 6.5 53 q2.5 25 2.5 41 q0 42 -9 69.5 q-9 27.5 -24.5 44 q-15.5 16.5 -35.5 23 q-20 6.5 -42 6.5 q-51 0 -90 -16 q-39 -16 -70 -39 l-153 -715 l-295 0 Z" /><glyph glyph-name="afii10061" unicode="&#x40c;" d="M205 0 l297 1393 q-136 -57 -211.5 -170.5 q-75.5 -113.5 -75.5 -278.5 q0 -39 4.5 -63.5 q4.5 -24.5 10 -39 q5.5 -14.5 10 -22.5 q4.5 -8 4.5 -14 q-53 0 -94 10.5 q-41 10.5 -69 33.5 q-28 23 -42 61 q-14 38 -14 94 q0 68 29.5 134 q29.5 66 80.5 125 q51 59 120.5 109 q69.5 50 149.5 86.5 q80 36.5 166 57 q86 20.5 172 20.5 q23 0 42.5 -1 q19.5 -1 39.5 -3 l-131 -612 q22 67 54 133 q32 66 66.5 124.5 q34.5 58.5 67.5 105 q33 46.5 58 75.5 q75 93 152 135.5 q77 42.5 149 42.5 q31 0 59 -9 q28 -9 49 -26 q21 -17 33.5 -42.5 q12.5 -25.5 12.5 -59.5 q0 -40 -12 -67.5 q-12 -27.5 -31 -44.5 q-19 -17 -42.5 -24.5 q-23.5 -7.5 -47.5 -7.5 q-88 0 -121 82 q-111 -66 -195.5 -186.5 q-84.5 -120.5 -157.5 -280.5 q25 2 46.5 2 q21.5 0 39.5 0 q75 0 124 -16.5 q49 -16.5 78 -46 q29 -29.5 40.5 -69.5 q11.5 -40 11.5 -87 q0 -64 -15.5 -134.5 q-15.5 -70.5 -34.5 -139.5 q-19 -69 -34.5 -132 q-15.5 -63 -15.5 -112 q0 -48 21.5 -84.5 q21.5 -36.5 58.5 -50.5 q-66 -19 -116 -27 q-50 -8 -87 -8 q-50 0 -81 12.5 q-31 12.5 -48.5 32 q-17.5 19.5 -24 44 q-6.5 24.5 -6.5 48.5 q0 52 17 120.5 q17 68.5 37.5 142 q20.5 73.5 37.5 145.5 q17 72 17 131 q0 31 -6.5 56.5 q-6.5 25.5 -20.5 44 q-14 18.5 -38 28.5 q-24 10 -58 10 q-14 0 -30.5 -1.5 q-16.5 -1.5 -36.5 -6.5 l-164 -772 l-295 0 ZM864 1661 l187 387 l215 0 l-248 -387 l-154 0 Z" /><glyph glyph-name="uni00AD" unicode="" d="M39 455 l37 161 l409 0 l-34 -161 l-412 0 Z" /><glyph glyph-name="afii10062" unicode="&#x40e;" d="M520 1399 q-143 -54 -224 -169 q-81 -115 -81 -286 q0 -39 4.5 -63.5 q4.5 -24.5 10 -39 q5.5 -14.5 10 -22.5 q4.5 -8 4.5 -14 q-53 0 -94 10.5 q-41 10.5 -69 33.5 q-28 23 -42 61 q-14 38 -14 94 q0 68 29.5 134 q29.5 66 80.5 125 q51 59 120.5 109 q69.5 50 149.5 86.5 q80 36.5 166 57 q86 20.5 172 20.5 q23 0 42.5 -1 q19.5 -1 39.5 -3 l179 -768 l323 762 l135 0 l-512 -1211 q-20 -46 -49 -102.5 q-29 -56.5 -70.5 -106 q-41.5 -49.5 -97.5 -83 q-56 -33.5 -131 -33.5 q-45 0 -79 11.5 q-34 11.5 -56.5 31.5 q-22.5 20 -33.5 47 q-11 27 -11 59 q0 68 36.5 107 q36.5 39 104.5 39 q54 0 86.5 -32 q32.5 -32 40.5 -89 q37 14 68.5 57 q31.5 43 54.5 94 l-293 1084 ZM1458 1987 q-35 -102 -81 -169 q-46 -67 -101.5 -107 q-55.5 -40 -118.5 -56.5 q-63 -16.5 -131 -16.5 q-128 0 -197 47.5 q-69 47.5 -69 129.5 q0 66 37 107.5 q37 41.5 100 41.5 q60 0 93.5 -28.5 q33.5 -28.5 33.5 -82.5 q0 -6 -1 -17.5 q-1 -11.5 -6 -25.5 q-5 -14 -14.5 -28.5 q-9.5 -14.5 -27.5 -26.5 q15 -5 35.5 -6.5 q20.5 -1.5 46.5 -1.5 q39 0 83 11 q44 11 86.5 38.5 q42.5 27.5 80.5 74 q38 46.5 65 116.5 l86 0 Z" /><glyph glyph-name="afii10145" unicode="&#x40f;" d="M410 -424 l92 424 l-297 0 l297 1393 q-136 -57 -211.5 -170.5 q-75.5 -113.5 -75.5 -278.5 q0 -39 4.5 -63.5 q4.5 -24.5 10 -39 q5.5 -14.5 10 -22.5 q4.5 -8 4.5 -14 q-53 0 -94 10.5 q-41 10.5 -69 33.5 q-28 23 -42 61 q-14 38 -14 94 q0 68 29.5 134 q29.5 66 80.5 125 q51 59 120.5 109 q69.5 50 149.5 86.5 q80 36.5 166 57 q86 20.5 172 20.5 q23 0 42.5 -1 q19.5 -1 39.5 -3 l-295 -1380 l301 0 l295 1380 l295 0 l-325 -1532 l-299 0 l-90 -424 l-297 0 Z" /><glyph glyph-name="afii10017" unicode="&#x410;" d="M762 0 l158 743 q-39 18 -74.5 30.5 q-35.5 12.5 -68.5 21.5 q-33 9 -65.5 14 q-32.5 5 -66.5 8 q-57 -125 -106 -257 q-49 -132 -84.5 -256.5 q-35.5 -124.5 -55.5 -233.5 q-20 -109 -20 -189 q0 -49 9 -74.5 q9 -25.5 20 -39.5 q-41 0 -89 4 q-48 4 -89.5 24.5 q-41.5 20.5 -69 64.5 q-27.5 44 -27.5 124 q0 68 21.5 163 q21.5 95 61.5 204.5 q40 109.5 95 229 q55 119.5 123 236.5 q-97 -6 -158 -29 q-61 -23 -81 -77 q4 0 8.5 -5.5 q4.5 -5.5 8.5 -14.5 q4 -9 6.5 -20.5 q2.5 -11.5 2.5 -23.5 q0 -37 -33.5 -58.5 q-33.5 -21.5 -81.5 -21.5 q-54 0 -90 29.5 q-36 29.5 -36 89.5 q0 52 31.5 98 q31.5 46 87.5 80 q56 34 132 54 q76 20 166 20 q42 0 107 -6 q78 123 165 232.5 q87 109.5 179 192 q92 82.5 185.5 131 q93.5 48.5 183.5 48.5 q35 0 79.5 -6 q44.5 -6 81.5 -23 l-321 -1507 l-295 0 ZM1057 1391 q-46 -25 -93.5 -71.5 q-47.5 -46.5 -94 -110 q-46.5 -63.5 -92.5 -141 q-46 -77.5 -89 -163.5 q62 -12 126 -29.5 q64 -17.5 124 -41.5 l119 557 Z" /><glyph glyph-name="afii10018" unicode="&#x411;" d="M186 0 l295 1368 q-59 -2 -108 -22.5 q-49 -20.5 -84 -68.5 q-35 -48 -54.5 -129 q-19.5 -81 -19.5 -204 q0 -39 4.5 -63.5 q4.5 -24.5 10 -39 q5.5 -14.5 10 -22.5 q4.5 -8 4.5 -14 q-53 0 -94 10.5 q-41 10.5 -69 33.5 q-28 23 -42 61 q-14 38 -14 94 q0 102 38 198 q38 96 121.5 170 q83.5 74 216 119 q132.5 45 322.5 45 q31 0 76.5 -4 q45.5 -4 99.5 -8.5 q54 -4.5 112 -8.5 q58 -4 113 -4 q48 0 94.5 5.5 q46.5 5.5 90.5 19.5 q-6 -32 -14.5 -74.5 q-8.5 -42.5 -28 -80.5 q-19.5 -38 -55.5 -64.5 q-36 -26.5 -97 -26.5 q-88 0 -176 12 q-88 12 -170 29 l-102 -475 q60 19 108.5 28 q48.5 9 99.5 9 q89 0 154.5 -28.5 q65.5 -28.5 108 -79 q42.5 -50.5 63.5 -120 q21 -69.5 21 -151.5 q0 -51 -11 -111.5 q-11 -60.5 -33.5 -121.5 q-22.5 -61 -58 -118 q-35.5 -57 -84 -101 q-48.5 -44 -111.5 -70.5 q-63 -26.5 -141 -26.5 q-70 0 -116 22.5 q-46 22.5 -69 60 q-23 37.5 -23 86.5 q0 49 22 102 q32 -42 66 -58 q34 -16 71 -16 q56 0 95 34 q39 34 63 86.5 q24 52.5 34.5 116 q10.5 63.5 10.5 121.5 q0 53 -9.5 99 q-9.5 46 -32 80 q-22.5 34 -60 53.5 q-37.5 19.5 -93.5 19.5 q-26 0 -50.5 -4.5 q-24.5 -4.5 -47.5 -15.5 l-162 -752 l-295 0 Z" /><glyph glyph-name="afii10019" unicode="&#x412;" d="M205 0 l278 1303 l303 40 l-96 -454 l12 0 q61 0 114.5 30 q53.5 30 93.5 78 q40 48 63.5 107 q23.5 59 23.5 117 q0 43 -15 82.5 q-15 39.5 -47 70.5 q-32 31 -83.5 49.5 q-51.5 18.5 -124.5 18.5 q-60 0 -121.5 -13.5 q-61.5 -13.5 -118 -41 q-56.5 -27.5 -106.5 -68.5 q-50 -41 -86.5 -96.5 q-36.5 -55.5 -58 -125 q-21.5 -69.5 -21.5 -153.5 q0 -39 4.5 -63.5 q4.5 -24.5 10 -39 q5.5 -14.5 10 -22.5 q4.5 -8 4.5 -14 q-104 0 -161.5 42 q-57.5 42 -57.5 146 q0 71 28 138.5 q28 67.5 78.5 128 q50.5 60.5 120 111 q69.5 50.5 152 87.5 q82.5 37 175 57.5 q92.5 20.5 189.5 20.5 q113 0 195 -27.5 q82 -27.5 135.5 -72.5 q53.5 -45 79.5 -104 q26 -59 26 -122 q0 -46 -13 -92 q-13 -46 -39 -88 q-26 -42 -64.5 -79.5 q-38.5 -37.5 -88.5 -65.5 q66 -12 112 -43.5 q46 -31.5 75 -76 q29 -44.5 42 -98.5 q13 -54 13 -112 q0 -49 -9.5 -112 q-9.5 -63 -30.5 -128.5 q-21 -65.5 -55 -128.5 q-34 -63 -84 -112 q-50 -49 -116.5 -79 q-66.5 -30 -152.5 -30 q-33 0 -69 6 q-36 6 -65.5 23 q-29.5 17 -49 46.5 q-19.5 29.5 -19.5 76.5 q0 26 6 55 q6 29 20 64 q39 -42 71 -58 q32 -16 67 -16 q56 0 94.5 35.5 q38.5 35.5 62.5 90 q24 54.5 34.5 119.5 q10.5 65 10.5 123 q0 53 -9.5 100.5 q-9.5 47.5 -32 83 q-22.5 35.5 -59.5 56.5 q-37 21 -93 21 q-13 0 -39 -1 q-26 -1 -55 -6 l-168 -784 l-295 0 Z" /><glyph glyph-name="afii10020" unicode="&#x413;" d="M186 0 l295 1368 q-62 -2 -111 -22.5 q-49 -20.5 -83.5 -68.5 q-34.5 -48 -53 -129 q-18.5 -81 -18.5 -204 q0 -39 4.5 -63.5 q4.5 -24.5 10 -39 q5.5 -14.5 10 -22.5 q4.5 -8 4.5 -14 q-53 0 -94 10.5 q-41 10.5 -69 33.5 q-28 23 -42 61 q-14 38 -14 94 q0 68 15.5 134 q15.5 66 50 125 q34.5 59 90 109 q55.5 50 134 86.5 q78.5 36.5 183 57 q104.5 20.5 237.5 20.5 q33 0 73.5 -4 q40.5 -4 86 -8.5 q45.5 -4.5 95.5 -8.5 q50 -4 102 -4 q51 0 100 5.5 q49 5.5 94 19.5 q-8 -22 -14.5 -48.5 q-6.5 -26.5 -15.5 -53.5 q-9 -27 -21.5 -53 q-12.5 -26 -32.5 -46 q-20 -20 -49.5 -32.5 q-29.5 -12.5 -71.5 -12.5 q-78 0 -156.5 12 q-78.5 12 -156.5 29 l-287 -1331 l-295 0 Z" /><glyph glyph-name="afii10021" unicode="&#x414;" d="M299 457 l184 846 l303 40 l-223 -1050 q-6 -26 -12 -49.5 q-6 -23.5 -14 -46.5 q29 -25 60 -34 q31 -9 60 -9 q61 0 114 38 q53 38 96.5 103.5 q43.5 65.5 78 153.5 q34.5 88 58 188.5 q23.5 100.5 35.5 207 q12 106.5 12 210.5 q0 104 -21.5 177.5 q-21.5 73.5 -61 120 q-39.5 46.5 -94.5 68 q-55 21.5 -122 21.5 q-115 0 -213 -34 q-98 -34 -170 -98.5 q-72 -64.5 -113 -156.5 q-41 -92 -41 -209 q0 -39 4.5 -63.5 q4.5 -24.5 10 -39 q5.5 -14.5 10 -22.5 q4.5 -8 4.5 -14 q-104 0 -161.5 43 q-57.5 43 -57.5 147 q0 70 27.5 137.5 q27.5 67.5 77.5 127.5 q50 60 120 110.5 q70 50.5 154.5 87.5 q84.5 37 181 57.5 q96.5 20.5 200.5 20.5 q149 0 253 -48 q104 -48 169.5 -129 q65.5 -81 95 -188 q29.5 -107 29.5 -225 q0 -117 -21 -235 q-21 -118 -58.5 -226 q-37.5 -108 -90 -201.5 q-52.5 -93.5 -115.5 -162.5 q-63 -69 -134.5 -108.5 q-71.5 -39.5 -147.5 -39.5 q-33 0 -67.5 6.5 q-34.5 6.5 -70 21.5 q-35.5 15 -70.5 39.5 q-35 24.5 -69 61.5 q-30 -47 -67 -77.5 q-37 -30.5 -76 -48 q-39 -17.5 -79 -24.5 q-40 -7 -77 -7 q-46 0 -89.5 16 q-43.5 16 -77 45 q-33.5 29 -54 69.5 q-20.5 40.5 -20.5 90.5 q0 61 21.5 110.5 q21.5 49.5 58.5 84 q37 34.5 85 53 q48 18.5 101 18.5 q22 0 40.5 -4 q18.5 -4 35.5 -12 l8 41 ZM274 338 q-17 11 -32 15.5 q-15 4.5 -29 4.5 q-28 0 -55 -12.5 q-27 -12.5 -48.5 -34.5 q-21.5 -22 -35 -52 q-13.5 -30 -13.5 -64 q0 -31 23.5 -49.5 q23.5 -18.5 58.5 -18.5 q15 0 32.5 7.5 q17.5 7.5 34 26 q16.5 18.5 31 49.5 q14.5 31 23.5 77 l10 51 Z" /><glyph glyph-name="afii10022" unicode="&#x415;" d="M991 348 q-41 -90 -104.5 -161 q-63.5 -71 -143 -121 q-79.5 -50 -169.5 -76.5 q-90 -26.5 -183 -26.5 q-99 0 -170.5 29.5 q-71.5 29.5 -117 79.5 q-45.5 50 -67.5 115 q-22 65 -22 137 q0 81 26 165 q26 84 74.5 157.5 q48.5 73.5 119 129 q70.5 55.5 159.5 78.5 q-66 48 -95.5 112.5 q-29.5 64.5 -29.5 133.5 q0 79 33.5 157.5 q33.5 78.5 93 141.5 q59.5 63 142 102 q82.5 39 180.5 39 q61 0 114.5 -16.5 q53.5 -16.5 93.5 -48.5 q40 -32 62.5 -80 q22.5 -48 22.5 -111 q0 -46 -12 -85 q-12 -39 -33 -67.5 q-21 -28.5 -48.5 -44.5 q-27.5 -16 -58.5 -16 q-56 0 -96 55 q18 6 34.5 25 q16.5 19 29 44 q12.5 25 19.5 54 q7 29 7 56 q0 31 -10 53 q-10 22 -25.5 35.5 q-15.5 13.5 -36 19.5 q-20.5 6 -41.5 6 q-46 0 -84.5 -25 q-38.5 -25 -66 -65.5 q-27.5 -40.5 -43 -92.5 q-15.5 -52 -15.5 -106 q0 -45 11.5 -88 q11.5 -43 36.5 -79.5 q25 -36.5 64.5 -64 q39.5 -27.5 94.5 -42.5 q-55 -12 -103.5 -40 q-48.5 -28 -89 -66.5 q-40.5 -38.5 -72.5 -85.5 q-32 -47 -54.5 -97.5 q-22.5 -50.5 -34.5 -101.5 q-12 -51 -12 -98 q0 -43 11 -81 q11 -38 34 -66 q23 -28 60 -44 q37 -16 89 -16 q47 0 101.5 13 q54.5 13 106.5 39.5 q52 26.5 97 65.5 q45 39 74 91 l47 -21 Z" /><glyph glyph-name="afii10024" unicode="&#x416;" d="M506 0 l158 745 q-13 2 -25 2.5 q-12 0.5 -23 0.5 q-43 2 -78 -11 q-35 -13 -62 -38.5 q-27 -25.5 -46 -61.5 q-19 -36 -31 -78 q-15 -49 -25 -103.5 q-10 -54.5 -18 -107.5 q-8 -53 -15 -102 q-7 -49 -15 -86 q-9 -38 -22.5 -73 q-13.5 -35 -36 -62 q-22.5 -27 -56.5 -43.5 q-34 -16.5 -84 -16.5 q-43 0 -98 6 q-55 6 -123 29 q47 25 77 62.5 q30 37.5 49.5 84 q19.5 46.5 31 99.5 q11.5 53 21 109 q9.5 56 20 112.5 q10.5 56.5 28 109.5 q17.5 53 45 101 q27.5 48 70.5 86 q49 49 120 68.5 q71 19.5 156 19.5 l6 0 q4 83 4 156.5 q0 73.5 -10 135 q-10 61.5 -31 110.5 q-21 49 -59 83 q-42 -82 -137 -82 q-50 0 -79.5 35.5 q-29.5 35.5 -29.5 89.5 q0 41 16.5 70.5 q16.5 29.5 44.5 48.5 q28 19 63 28 q35 9 73 9 q73 0 122.5 -36.5 q49.5 -36.5 81 -95.5 q31.5 -59 47 -133.5 q15.5 -74.5 20 -151.5 q4.5 -77 0 -149 q-4.5 -72 -12.5 -126 q11 0 20.5 -1 q9.5 -1 20.5 -3 l135 628 l307 64 l-147 -692 q12 2 24 3 q12 1 23 1 q16 74 41.5 151 q25.5 77 55 146.5 q29.5 69.5 60 126 q30.5 56.5 56.5 90.5 q69 92 149 135 q80 43 152 43 q31 0 59 -9 q28 -9 49 -26 q21 -17 33.5 -42.5 q12.5 -25.5 12.5 -59.5 q0 -40 -12 -67.5 q-12 -27.5 -31 -44.5 q-19 -17 -42.5 -24.5 q-23.5 -7.5 -47.5 -7.5 q-88 0 -121 82 q-56 -35 -97 -84 q-41 -49 -74 -110 q-33 -61 -62 -134 q-29 -73 -60 -157 l29 0 q74 0 123 -16.5 q49 -16.5 78 -46 q29 -29.5 41 -69.5 q12 -40 12 -87 q0 -64 -16 -131.5 q-16 -67.5 -34.5 -133 q-18.5 -65.5 -34.5 -125.5 q-16 -60 -16 -108 q0 -48 21.5 -84.5 q21.5 -36.5 58.5 -50.5 q-66 -19 -116 -27 q-50 -8 -87 -8 q-50 0 -81 12.5 q-31 12.5 -48.5 32 q-17.5 19.5 -23.5 44 q-6 24.5 -6 48.5 q0 52 17 117.5 q17 65.5 37 134.5 q20 69 37 135 q17 66 17 119 q0 31 -6.5 56.5 q-6.5 25.5 -20.5 44 q-14 18.5 -38 29 q-24 10.5 -58 10.5 q-18 0 -36.5 -2 q-18.5 -2 -37.5 -5 l-157 -741 l-295 0 Z" /><glyph glyph-name="afii10025" unicode="&#x417;" d="M315 770 l33 152 l74 0 q70 0 123.5 32 q53.5 32 89.5 80 q36 48 54 103.5 q18 55.5 18 101.5 q0 74 -41 117 q-41 43 -119 43 q-92 0 -171.5 -56.5 q-79.5 -56.5 -142.5 -179.5 l-47 21 q22 88 67.5 154 q45.5 66 106 109.5 q60.5 43.5 133 65 q72.5 21.5 150.5 21.5 q95 0 165 -23 q70 -23 115.5 -65 q45.5 -42 68 -102 q22.5 -60 22.5 -134 q0 -62 -21.5 -116.5 q-21.5 -54.5 -61 -99.5 q-39.5 -45 -96.5 -80.5 q-57 -35.5 -128 -59.5 q61 -18 110 -47 q49 -29 83 -70 q34 -41 52.5 -94 q18.5 -53 18.5 -117 q0 -114 -42 -216.5 q-42 -102.5 -121 -179.5 q-79 -77 -192 -122 q-113 -45 -254 -45 q-86 0 -156.5 17.5 q-70.5 17.5 -120.5 52.5 q-50 35 -77.5 87.5 q-27.5 52.5 -27.5 123.5 q0 42 12.5 76 q12.5 34 35 58 q22.5 24 53 37 q30.5 13 66.5 13 q45 0 70.5 -14 q25.5 -14 42.5 -39 q-42 -25 -59 -64 q-17 -39 -17 -84 q0 -28 10 -53.5 q10 -25.5 30.5 -44.5 q20.5 -19 50.5 -30 q30 -11 71 -11 q72 0 126 37 q54 37 91 97.5 q37 60.5 55.5 137 q18.5 76.5 18.5 154.5 q0 70 -16 118.5 q-16 48.5 -46 79 q-30 30.5 -74 44.5 q-44 14 -100 14 l-86 0 Z" /><glyph glyph-name="afii10026" unicode="&#x418;" d="M883 0 l223 1053 l-606 -1053 l-295 0 l297 1393 q-136 -57 -211.5 -170.5 q-75.5 -113.5 -75.5 -278.5 q0 -39 4.5 -63.5 q4.5 -24.5 10 -39 q5.5 -14.5 10 -22.5 q4.5 -8 4.5 -14 q-53 0 -94 10.5 q-41 10.5 -69 33.5 q-28 23 -42 61 q-14 38 -14 94 q0 68 29.5 134 q29.5 66 80.5 125 q51 59 120.5 109 q69.5 50 149.5 86.5 q80 36.5 166 57 q86 20.5 172 20.5 q23 0 42.5 -1 q19.5 -1 39.5 -3 l-231 -1090 l614 1090 l295 0 l-325 -1532 l-295 0 Z" /><glyph glyph-name="afii10027" unicode="&#x419;" d="M883 0 l223 1053 l-606 -1053 l-295 0 l297 1393 q-136 -57 -211.5 -170.5 q-75.5 -113.5 -75.5 -278.5 q0 -39 4.5 -63.5 q4.5 -24.5 10 -39 q5.5 -14.5 10 -22.5 q4.5 -8 4.5 -14 q-53 0 -94 10.5 q-41 10.5 -69 33.5 q-28 23 -42 61 q-14 38 -14 94 q0 68 29.5 134 q29.5 66 80.5 125 q51 59 120.5 109 q69.5 50 149.5 86.5 q80 36.5 166 57 q86 20.5 172 20.5 q23 0 42.5 -1 q19.5 -1 39.5 -3 l-231 -1090 l614 1090 l295 0 l-325 -1532 l-295 0 ZM1446 1987 q-35 -102 -81 -169 q-46 -67 -101.5 -107 q-55.5 -40 -118.5 -56.5 q-63 -16.5 -131 -16.5 q-128 0 -197 47.5 q-69 47.5 -69 129.5 q0 66 37 107.5 q37 41.5 100 41.5 q60 0 93.5 -28.5 q33.5 -28.5 33.5 -82.5 q0 -6 -1 -17.5 q-1 -11.5 -6 -25.5 q-5 -14 -14.5 -28.5 q-9.5 -14.5 -27.5 -26.5 q15 -5 35 -6.5 q20 -1.5 46 -1.5 q39 0 83.5 11 q44.5 11 87 38.5 q42.5 27.5 80.5 74 q38 46.5 65 116.5 l86 0 Z" /><glyph glyph-name="afii10028" unicode="&#x41a;" d="M205 0 l297 1393 q-136 -57 -211.5 -170.5 q-75.5 -113.5 -75.5 -278.5 q0 -39 4.5 -63.5 q4.5 -24.5 10 -39 q5.5 -14.5 10 -22.5 q4.5 -8 4.5 -14 q-53 0 -94 10.5 q-41 10.5 -69 33.5 q-28 23 -42 61 q-14 38 -14 94 q0 68 29.5 134 q29.5 66 80.5 125 q51 59 120.5 109 q69.5 50 149.5 86.5 q80 36.5 166 57 q86 20.5 172 20.5 q23 0 42.5 -1 q19.5 -1 39.5 -3 l-131 -612 q22 67 54 133 q32 66 66.5 124.5 q34.5 58.5 67.5 105 q33 46.5 58 75.5 q75 93 152 135.5 q77 42.5 149 42.5 q31 0 59 -9 q28 -9 49 -26 q21 -17 33.5 -42.5 q12.5 -25.5 12.5 -59.5 q0 -40 -12 -67.5 q-12 -27.5 -31 -44.5 q-19 -17 -42.5 -24.5 q-23.5 -7.5 -47.5 -7.5 q-88 0 -121 82 q-111 -66 -195.5 -186.5 q-84.5 -120.5 -157.5 -280.5 q25 2 46.5 2 q21.5 0 39.5 0 q75 0 124 -16.5 q49 -16.5 78 -46 q29 -29.5 40.5 -69.5 q11.5 -40 11.5 -87 q0 -64 -15.5 -134.5 q-15.5 -70.5 -34.5 -139.5 q-19 -69 -34.5 -132 q-15.5 -63 -15.5 -112 q0 -48 21.5 -84.5 q21.5 -36.5 58.5 -50.5 q-66 -19 -116 -27 q-50 -8 -87 -8 q-50 0 -81 12.5 q-31 12.5 -48.5 32 q-17.5 19.5 -24 44 q-6.5 24.5 -6.5 48.5 q0 52 17 120.5 q17 68.5 37.5 142 q20.5 73.5 37.5 145.5 q17 72 17 131 q0 31 -6.5 56.5 q-6.5 25.5 -20.5 44 q-14 18.5 -38 28.5 q-24 10 -58 10 q-14 0 -30.5 -1.5 q-16.5 -1.5 -36.5 -6.5 l-164 -772 l-295 0 Z" /><glyph glyph-name="afii10029" unicode="&#x41b;" d="M567 0 l295 1391 q-58 -31 -118.5 -96.5 q-60.5 -65.5 -119 -155 q-58.5 -89.5 -114 -197.5 q-55.5 -108 -104.5 -224 q-49 -116 -89.5 -234.5 q-40.5 -118.5 -70 -228.5 q-29.5 -110 -46 -206 q-16.5 -96 -16.5 -168 q0 -49 9 -74.5 q9 -25.5 20 -39.5 q-41 0 -89 4 q-48 4 -89 24.5 q-41 20.5 -68.5 64.5 q-27.5 44 -27.5 124 q0 76 26.5 183.5 q26.5 107.5 74 231 q47.5 123.5 113 255.5 q65.5 132 144 258.5 q78.5 126.5 167.5 239.5 q89 113 182 198.5 q93 85.5 188.5 135.5 q95.5 50 187.5 50 q18 0 38.5 -1.5 q20.5 -1.5 42 -4.5 q21.5 -3 42.5 -8.5 q21 -5.5 39 -14.5 l-322 -1507 l-295 0 Z" /><glyph glyph-name="afii10030" unicode="&#x41c;" d="M1137 0 l131 920 l-385 -920 l-281 0 l41 924 l-342 -924 l-164 0 l520 1407 q-153 -51 -239 -167.5 q-86 -116.5 -86 -293.5 q0 -41 4.5 -65.5 q4.5 -24.5 9.5 -39 q5 -14.5 9.5 -22 q4.5 -7.5 4.5 -14.5 q-50 0 -90.5 10 q-40.5 10 -69 32 q-28.5 22 -44 57.5 q-15.5 35.5 -15.5 86.5 q0 65 26.5 131 q26.5 66 73 126.5 q46.5 60.5 109.5 113 q63 52.5 135.5 91.5 q72.5 39 151 61 q78.5 22 156.5 22 q77 0 155 -29 l-47 -1079 l451 1079 l295 0 l-215 -1507 l-295 0 Z" /><glyph glyph-name="afii10031" unicode="&#x41d;" d="M801 0 l164 770 l-301 0 l-164 -770 l-295 0 l297 1393 q-136 -57 -211.5 -170.5 q-75.5 -113.5 -75.5 -278.5 q0 -39 4.5 -63.5 q4.5 -24.5 10 -39 q5.5 -14.5 10 -22.5 q4.5 -8 4.5 -14 q-53 0 -94 10.5 q-41 10.5 -69 33.5 q-28 23 -42 61 q-14 38 -14 94 q0 68 29.5 134 q29.5 66 80.5 125 q51 59 120.5 109 q69.5 50 149.5 86.5 q80 36.5 166 57 q86 20.5 172 20.5 q23 0 42.5 -1 q19.5 -1 39.5 -3 l-131 -610 l301 0 l131 610 l295 0 l-325 -1532 l-295 0 Z" /><glyph glyph-name="afii10032" unicode="&#x41e;" d="M883 1343 q-47 -28 -91.5 -87.5 q-44.5 -59.5 -84.5 -139 q-40 -79.5 -73.5 -173 q-33.5 -93.5 -58 -190 q-24.5 -96.5 -38 -190 q-13.5 -93.5 -13.5 -172.5 q0 -52 7 -95.5 q7 -43.5 21 -75 q14 -31.5 36.5 -49 q22.5 -17.5 54.5 -17.5 q52 0 103.5 40 q51.5 40 99.5 109 q48 69 89 160.5 q41 91.5 71 195 q30 103.5 47.5 212.5 q17.5 109 17.5 212 q0 89 -10.5 156.5 q-10.5 67.5 -39.5 112.5 q-29 45 -80 67.5 q-51 22.5 -132 22.5 q-117 0 -224 -36.5 q-107 -36.5 -188.5 -105 q-81.5 -68.5 -129.5 -166 q-48 -97.5 -48 -219.5 q0 -30 3.5 -48.5 q3.5 -18.5 7 -30 q3.5 -11.5 7 -18.5 q3.5 -7 3.5 -13 q-98 0 -152.5 39 q-54.5 39 -54.5 133 q0 72 31 141 q31 69 87 131.5 q56 62.5 132.5 115 q76.5 52.5 168.5 90.5 q92 38 195 59.5 q103 21.5 211 21.5 q135 0 227.5 -39 q92.5 -39 149.5 -108.5 q57 -69.5 82.5 -166 q25.5 -96.5 25.5 -210.5 q0 -99 -18.5 -213.5 q-18.5 -114.5 -58 -228 q-39.5 -113.5 -100 -219 q-60.5 -105.5 -144.5 -186 q-84 -80.5 -192 -129 q-108 -48.5 -242 -48.5 q-81 0 -148 22 q-67 22 -116 71 q-49 49 -76 127.5 q-27 78.5 -27 190.5 q0 83 15.5 186.5 q15.5 103.5 46.5 210 q31 106.5 77.5 208.5 q46.5 102 108 181 q61.5 79 138.5 127 q77 48 169 48 q26 0 52 -3 q26 -3 55 -14 Z" /><glyph glyph-name="afii10033" unicode="&#x41f;" d="M801 0 l278 1292 q-75 11 -147.5 23.5 q-72.5 12.5 -145.5 23.5 l-286 -1339 l-295 0 l289 1348 q-62 -10 -113 -37 q-51 -27 -88 -75 q-37 -48 -57.5 -120.5 q-20.5 -72.5 -20.5 -173.5 q0 -39 4.5 -63.5 q4.5 -24.5 10 -39 q5.5 -14.5 10 -22.5 q4.5 -8 4.5 -14 q-53 0 -94 10.5 q-41 10.5 -69 33.5 q-28 23 -42 61 q-14 38 -14 93 q0 102 38 198.5 q38 96.5 121.5 170.5 q83.5 74 216 119 q132.5 45 322.5 45 q87 0 162 -7.5 q75 -7.5 150 -17 q75 -9.5 157 -17 q82 -7.5 184 -7.5 q73 0 134.5 13 q61.5 13 103.5 30 q-6 -257 -246 -260 l-272 -1268 l-295 0 Z" /><glyph glyph-name="afii10034" unicode="&#x420;" d="M193 0 l278 1303 l303 40 l-145 -684 q52 4 98.5 28 q46.5 24 86.5 61.5 q40 37.5 72 86.5 q32 49 54.5 103.5 q22.5 54.5 34.5 112 q12 57.5 12 112.5 q0 57 -14.5 107.5 q-14.5 50.5 -45 89 q-30.5 38.5 -79 60.5 q-48.5 22 -115.5 22 q-125 0 -223.5 -34 q-98.5 -34 -166.5 -98 q-68 -64 -104 -156.5 q-36 -92.5 -36 -209.5 q0 -39 4.5 -63.5 q4.5 -24.5 9.5 -39 q5 -14.5 9.5 -22.5 q4.5 -8 4.5 -14 q-53 0 -94 10.5 q-41 10.5 -68.5 33.5 q-27.5 23 -42 61 q-14.5 38 -14.5 94 q0 68 29.5 134 q29.5 66 81 125 q51.5 59 121 109 q69.5 50 149 86.5 q79.5 36.5 166 57 q86.5 20.5 172.5 20.5 q126 0 217 -33.5 q91 -33.5 150.5 -89.5 q59.5 -56 87.5 -128.5 q28 -72.5 28 -151.5 q0 -98 -40.5 -196 q-40.5 -98 -117 -176.5 q-76.5 -78.5 -186 -127.5 q-109.5 -49 -247.5 -49 l-11 0 l-125 -584 l-294 0 Z" /><glyph glyph-name="afii10035" unicode="&#x421;" d="M1071 348 q-41 -103 -111 -175.5 q-70 -72.5 -151.5 -118 q-81.5 -45.5 -166 -66.5 q-84.5 -21 -155.5 -21 q-114 0 -198 27 q-84 27 -139.5 87 q-55.5 60 -83 156 q-27.5 96 -27.5 234 q0 70 8.5 152.5 q8.5 82.5 27.5 170.5 q19 88 48.5 177 q29.5 89 71.5 171.5 q42 82.5 97 154.5 q55 72 124 125 q69 53 153 83.5 q84 30.5 185 30.5 q71 0 133.5 -15.5 q62.5 -15.5 109 -48.5 q46.5 -33 73 -85 q26.5 -52 26.5 -125 q0 -41 -7.5 -75.5 q-7.5 -34.5 -25 -60 q-17.5 -25.5 -45 -39.5 q-27.5 -14 -66.5 -14 q-24 0 -55.5 9 q-31.5 9 -60.5 44 q18 9 35 28.5 q17 19.5 30 45 q13 25.5 21 55.5 q8 30 8 60 q0 24 -6.5 47 q-6.5 23 -21.5 40 q-15 17 -39 27.5 q-24 10.5 -58 10.5 q-57 0 -110.5 -42 q-53.5 -42 -101 -113.5 q-47.5 -71.5 -87 -166.5 q-39.5 -95 -67.5 -201 q-28 -106 -44 -218 q-16 -112 -16 -216 q0 -71 10.5 -129.5 q10.5 -58.5 38 -100.5 q27.5 -42 75 -65.5 q47.5 -23.5 122.5 -23.5 q121 0 224 54 q103 54 175 151 l47 -21 Z" /><glyph glyph-name="afii10036" unicode="&#x422;" d="M322 0 l290 1356 l-24 0 q-81 0 -151.5 -18.5 q-70.5 -18.5 -122.5 -65 q-52 -46.5 -81.5 -126.5 q-29.5 -80 -29.5 -204 q0 -39 4.5 -63.5 q4.5 -24.5 9.5 -39 q5 -14.5 9.5 -22.5 q4.5 -8 4.5 -14 q-53 0 -94 10.5 q-41 10.5 -68.5 33.5 q-27.5 23 -42 61 q-14.5 38 -14.5 93 q0 102 38 198.5 q38 96.5 121.5 170.5 q83.5 74 216.5 119 q133 45 323 45 q62 0 110.5 -3.5 q48.5 -3.5 90 -8.5 q41.5 -5 78.5 -11.5 q37 -6.5 74.5 -11.5 q37.5 -5 79 -8.5 q41.5 -3.5 91.5 -3.5 q72 0 134 13 q62 13 104 30 q-5 -135 -69.5 -197.5 q-64.5 -62.5 -186.5 -62.5 q-76 0 -154.5 14 q-78.5 14 -163.5 31 l-283 -1315 l-294 0 Z" /><glyph glyph-name="afii10037" unicode="&#x423;" d="M520 1399 q-143 -54 -224 -169 q-81 -115 -81 -286 q0 -39 4.5 -63.5 q4.5 -24.5 10 -39 q5.5 -14.5 10 -22.5 q4.5 -8 4.5 -14 q-53 0 -94 10.5 q-41 10.5 -69 33.5 q-28 23 -42 61 q-14 38 -14 94 q0 68 29.5 134 q29.5 66 80.5 125 q51 59 120.5 109 q69.5 50 149.5 86.5 q80 36.5 166 57 q86 20.5 172 20.5 q23 0 42.5 -1 q19.5 -1 39.5 -3 l179 -768 l323 762 l135 0 l-512 -1211 q-20 -46 -49 -102.5 q-29 -56.5 -70.5 -106 q-41.5 -49.5 -97.5 -83 q-56 -33.5 -131 -33.5 q-45 0 -79 11.5 q-34 11.5 -56.5 31.5 q-22.5 20 -33.5 47 q-11 27 -11 59 q0 68 36.5 107 q36.5 39 104.5 39 q54 0 86.5 -32 q32.5 -32 40.5 -89 q37 14 68.5 57 q31.5 43 54.5 94 l-293 1084 Z" /><glyph glyph-name="afii10038" unicode="&#x424;" d="M485 0 l45 211 q-133 2 -226 40 q-93 38 -152 99.5 q-59 61.5 -86 140.5 q-27 79 -27 164 q0 100 26 181.5 q26 81.5 73.5 146 q47.5 64.5 113.5 113.5 q66 49 146 83.5 q80 34.5 170.5 55.5 q90.5 21 187.5 31 l65 307 q-99 -7 -171.5 -21 q-72.5 -14 -120 -38 q-47.5 -24 -70.5 -59 q-23 -35 -23 -83 q0 -22 4.5 -43.5 q4.5 -21.5 12.5 -44.5 q-42 -4 -79.5 1.5 q-37.5 5.5 -66 21.5 q-28.5 16 -45 43.5 q-16.5 27.5 -16.5 68.5 q2 61 49.5 105.5 q47.5 44.5 125 74 q77.5 29.5 176.5 44 q99 14.5 204 14.5 q88 0 167.5 -7 q79.5 -7 157.5 -24 l-77 -358 q126 -12 219.5 -51 q93.5 -39 155.5 -97.5 q62 -58.5 93 -133 q31 -74.5 31 -159.5 q0 -125 -48 -237 q-48 -112 -136 -196 q-88 -84 -212.5 -133.5 q-124.5 -49.5 -277.5 -49.5 l-49 0 l-45 -211 l-295 0 ZM858 307 q96 0 173.5 48 q77.5 48 132.5 125 q55 77 84.5 172 q29.5 95 29.5 190 q0 142 -63 220.5 q-63 78.5 -187 102.5 l-182 -858 l12 0 ZM733 1165 q-204 -35 -307.5 -164 q-103.5 -129 -103.5 -374 q0 -61 15.5 -117 q15.5 -56 45 -100 q29.5 -44 72 -71.5 q42.5 -27.5 96.5 -31.5 l182 858 Z" /><glyph glyph-name="afii10039" unicode="&#x425;" d="M805 0 l-109 512 l-297 -512 l-125 0 l385 680 l-151 719 q-144 -54 -224.5 -169 q-80.5 -115 -80.5 -286 q0 -39 4.5 -63.5 q4.5 -24.5 9.5 -39 q5 -14.5 9.5 -22.5 q4.5 -8 4.5 -14 q-53 0 -94 10.5 q-41 10.5 -68.5 33.5 q-27.5 23 -42 61 q-14.5 38 -14.5 94 q0 68 29.5 134 q29.5 66 81 125 q51.5 59 121 109 q69.5 50 149 86.5 q79.5 36.5 166 57 q86.5 20.5 172.5 20.5 q23 0 42.5 -1 q19.5 -1 39.5 -3 l88 -426 l238 420 l143 0 l-344 -596 l192 -930 l-325 0 Z" /><glyph glyph-name="afii10040" unicode="&#x426;" d="M1126 1532 l295 0 l-336 -1567 q54 -23 101.5 -36 q47.5 -13 95.5 -13 q16 0 38 1 q22 1 45.5 5 q23.5 4 47.5 10.5 q24 6.5 45 18.5 q-7 -74 -24 -129.5 q-17 -55.5 -47.5 -92 q-30.5 -36.5 -76.5 -55 q-46 -18.5 -110 -18.5 q-74 0 -132 25.5 q-58 25.5 -111.5 63.5 q-53.5 38 -107.5 83 q-54 45 -119.5 83 q-65.5 38 -148 63.5 q-82.5 25.5 -192.5 25.5 q-75 0 -117 -2.5 q-42 -2.5 -59 -7.5 l-10 -2 l0 2 q0 2 2 4 l297 1397 q-135 -56 -211 -168.5 q-76 -112.5 -76 -278.5 q0 -39 4.5 -63.5 q4.5 -24.5 10 -39 q5.5 -14.5 10 -22.5 q4.5 -8 4.5 -14 q-53 0 -94 10.5 q-41 10.5 -69 33.5 q-28 23 -42 61 q-14 38 -14 94 q0 68 29.5 134 q29.5 66 80.5 125 q51 59 120.5 109 q69.5 50 149.5 86.5 q80 36.5 166 57 q86 20.5 172 20.5 q23 0 42.5 -1 q19.5 -1 39.5 -3 l-293 -1382 l19 0 q66 0 133 -19 q67 -19 133 -45 l309 1446 Z" /><glyph glyph-name="afii10041" unicode="&#x427;" d="M862 0 l146 682 q-86 -51 -161.5 -65.5 q-75.5 -14.5 -141.5 -14.5 q-61 0 -113.5 17 q-52.5 17 -91.5 52.5 q-39 35.5 -61.5 91 q-22.5 55.5 -22.5 132.5 q0 42 4 96 q4 54 18 117 l64 285 q-136 -57 -211.5 -170.5 q-75.5 -113.5 -75.5 -278.5 q0 -39 4.5 -63.5 q4.5 -24.5 10 -39 q5.5 -14.5 10 -22.5 q4.5 -8 4.5 -14 q-53 0 -94 10.5 q-41 10.5 -69 33.5 q-28 23 -42 61 q-14 38 -14 94 q0 68 29.5 134 q29.5 66 80.5 125 q51 59 120.5 109 q69.5 50 149.5 86.5 q80 36.5 166 57 q86 20.5 172 20.5 q23 0 42.5 -1 q19.5 -1 39.5 -3 l-92 -424 q-12 -60 -20 -112.5 q-8 -52.5 -8 -84.5 q0 -43 13 -71.5 q13 -28.5 35 -46 q22 -17.5 49 -24.5 q27 -7 56 -7 q56 0 100.5 18 q44.5 18 79.5 47 l150 705 l295 0 l-326 -1532 l-295 0 Z" /><glyph glyph-name="afii10042" unicode="&#x428;" d="M205 0 l297 1393 q-136 -57 -211.5 -170.5 q-75.5 -113.5 -75.5 -278.5 q0 -39 4.5 -63.5 q4.5 -24.5 10 -39 q5.5 -14.5 10 -22.5 q4.5 -8 4.5 -14 q-53 0 -94 10.5 q-41 10.5 -69 33.5 q-28 23 -42 61 q-14 38 -14 94 q0 68 29.5 134 q29.5 66 80.5 125 q51 59 120.5 109 q69.5 50 149.5 86.5 q80 36.5 166 57 q86 20.5 172 20.5 q23 0 42.5 -1 q19.5 -1 39.5 -3 l-295 -1380 l240 0 l295 1380 l295 0 l-295 -1380 l260 0 l295 1380 l295 0 l-326 -1532 l-1384 0 Z" /><glyph glyph-name="afii10043" unicode="&#x429;" d="M1620 1532 l295 0 l-338 -1587 q63 -13 113.5 -21 q50.5 -8 85.5 -8 q54 0 98.5 7.5 q44.5 7.5 79.5 27.5 q-7 -74 -24.5 -129.5 q-17.5 -55.5 -47.5 -92 q-30 -36.5 -75 -55 q-45 -18.5 -107 -18.5 q-74 0 -169 25.5 q-95 25.5 -204 63.5 q-109 38 -228 83 q-119 45 -240 83 q-121 38 -240.5 63.5 q-119.5 25.5 -229.5 25.5 q-78 0 -119.5 -2.5 q-41.5 -2.5 -58.5 -7.5 l-8 -2 l0 4 q0 6 2 8 l297 1393 q-136 -56 -211.5 -169 q-75.5 -113 -75.5 -278 q0 -41 4.5 -65.5 q4.5 -24.5 10 -39 q5.5 -14.5 10 -22 q4.5 -7.5 4.5 -14.5 q-104 0 -161.5 42 q-57.5 42 -57.5 146 q0 72 29.5 140.5 q29.5 68.5 81 129 q51.5 60.5 121 110.5 q69.5 50 149 86.5 q79.5 36.5 165 56.5 q85.5 20 170.5 20 q23 0 43.5 -1 q20.5 -1 40.5 -3 l-295 -1382 q17 0 33.5 1 q16.5 1 36.5 1 q64 0 166 -21 l299 1401 l295 0 l-311 -1462 q61 -14 123 -29.5 q62 -15.5 124 -32.5 l324 1524 Z" /><glyph glyph-name="afii10044" unicode="&#x42a;" d="M354 0 l291 1354 q-14 0 -26.5 1 q-12.5 1 -26.5 1 q-43 0 -86 -2.5 q-43 -2.5 -82 -11.5 q-39 -9 -73.5 -26.5 q-34.5 -17.5 -61.5 -47.5 q-32 -37 -51 -91.5 q-19 -54.5 -20 -117.5 q-1 -63 17 -130.5 q18 -67.5 60 -129.5 q-53 -10 -101.5 -3.5 q-48.5 6.5 -86 31.5 q-37.5 25 -60 68 q-22.5 43 -22.5 106 q0 63 19.5 127 q19.5 64 59 123 q39.5 59 99 111 q59.5 52 139 90 q79.5 38 180 60 q100.5 22 221.5 22 q75 0 130.5 -4 q55.5 -4 103.5 -12 l-143 -662 q60 20 109.5 28.5 q49.5 8.5 100.5 8.5 q89 0 154.5 -28.5 q65.5 -28.5 108 -79 q42.5 -50.5 63.5 -120 q21 -69.5 21 -151.5 q0 -51 -11 -111.5 q-11 -60.5 -33.5 -121.5 q-22.5 -61 -58 -118 q-35.5 -57 -84 -101 q-48.5 -44 -111.5 -70.5 q-63 -26.5 -141 -26.5 q-70 0 -116 22.5 q-46 22.5 -69 60 q-23 37.5 -23 86.5 q0 49 22 102 q32 -42 66 -58 q34 -16 71 -16 q56 0 95 34 q39 34 63 86.5 q24 52.5 34.5 116 q10.5 63.5 10.5 121.5 q0 53 -9.5 99 q-9.5 46 -32 80 q-22.5 34 -60 53.5 q-37.5 19.5 -93.5 19.5 q-23 0 -49 -5 q-26 -5 -51 -17 l-162 -750 l-295 0 Z" /><glyph glyph-name="afii10045" unicode="&#x42b;" d="M205 0 l297 1393 q-136 -57 -211.5 -170.5 q-75.5 -113.5 -75.5 -278.5 q0 -39 4.5 -63.5 q4.5 -24.5 10 -39 q5.5 -14.5 10 -22.5 q4.5 -8 4.5 -14 q-53 0 -94 10.5 q-41 10.5 -69 33.5 q-28 23 -42 61 q-14 38 -14 94 q0 68 29.5 134 q29.5 66 80.5 125 q51 59 120.5 109 q69.5 50 149.5 86.5 q80 36.5 166 57 q86 20.5 172 20.5 q23 0 42.5 -1 q19.5 -1 39.5 -3 l-143 -676 q60 19 110 28 q50 9 101 9 q89 0 154 -28.5 q65 -28.5 108 -79 q43 -50.5 63.5 -120 q20.5 -69.5 20.5 -151.5 q0 -51 -11 -111.5 q-11 -60.5 -33.5 -121.5 q-22.5 -61 -58 -118 q-35.5 -57 -84 -101 q-48.5 -44 -111 -70.5 q-62.5 -26.5 -140.5 -26.5 q-70 0 -116.5 22.5 q-46.5 22.5 -69.5 60 q-23 37.5 -23 86.5 q0 49 22 102 q32 -42 66 -58 q34 -16 72 -16 q56 0 94.5 34 q38.5 34 62.5 86.5 q24 52.5 34.5 116 q10.5 63.5 10.5 121.5 q0 53 -9.5 99 q-9.5 46 -32 80 q-22.5 34 -59.5 53.5 q-37 19.5 -93 19.5 q-23 0 -49.5 -5 q-26.5 -5 -51.5 -17 l-159 -750 l-295 0 ZM1300 0 l326 1532 l295 0 l-326 -1532 l-295 0 Z" /><glyph glyph-name="afii10046" unicode="&#x42c;" d="M205 0 l297 1393 q-136 -57 -211.5 -170.5 q-75.5 -113.5 -75.5 -278.5 q0 -39 4.5 -63.5 q4.5 -24.5 10 -39 q5.5 -14.5 10 -22.5 q4.5 -8 4.5 -14 q-53 0 -94 10.5 q-41 10.5 -69 33.5 q-28 23 -42 61 q-14 38 -14 94 q0 68 29.5 134 q29.5 66 80.5 125 q51 59 120.5 109 q69.5 50 149.5 86.5 q80 36.5 166 57 q86 20.5 172 20.5 q23 0 42.5 -1 q19.5 -1 39.5 -3 l-143 -676 q60 19 110 28 q50 9 101 9 q89 0 154 -28.5 q65 -28.5 108 -79 q43 -50.5 63.5 -120 q20.5 -69.5 20.5 -151.5 q0 -51 -11 -111.5 q-11 -60.5 -33.5 -121.5 q-22.5 -61 -58 -118 q-35.5 -57 -84 -101 q-48.5 -44 -111 -70.5 q-62.5 -26.5 -140.5 -26.5 q-70 0 -116.5 22.5 q-46.5 22.5 -69.5 60 q-23 37.5 -23 86.5 q0 49 22 102 q32 -42 66 -58 q34 -16 72 -16 q56 0 94.5 34 q38.5 34 62.5 86.5 q24 52.5 34.5 116 q10.5 63.5 10.5 121.5 q0 53 -9.5 99 q-9.5 46 -32 80 q-22.5 34 -59.5 53.5 q-37 19.5 -93 19.5 q-23 0 -49.5 -5 q-26.5 -5 -51.5 -17 l-159 -750 l-295 0 Z" /><glyph glyph-name="afii10047" unicode="&#x42d;" d="M299 770 l33 152 l420 0 q2 24 3 48.5 q1 24.5 1 49.5 q0 76 -11 138.5 q-11 62.5 -39 107.5 q-28 45 -75.5 69.5 q-47.5 24.5 -120.5 24.5 q-60 0 -107 -16 q-47 -16 -86.5 -45 q-39.5 -29 -74.5 -71 q-35 -42 -70 -93 l-47 20 q42 103 102.5 175.5 q60.5 72.5 130.5 118 q70 45.5 144.5 66.5 q74.5 21 144.5 21 q114 0 198 -27 q84 -27 140 -87 q56 -60 83.5 -156 q27.5 -96 27.5 -234 q0 -69 -9 -152 q-9 -83 -29.5 -170.5 q-20.5 -87.5 -52 -177 q-31.5 -89.5 -76 -172 q-44.5 -82.5 -103.5 -154 q-59 -71.5 -133 -125 q-74 -53.5 -164.5 -84 q-90.5 -30.5 -198.5 -30.5 q-75 0 -139.5 15.5 q-64.5 15.5 -112 48.5 q-47.5 33 -74.5 85 q-27 52 -27 126 q0 40 7.5 74.5 q7.5 34.5 25 60 q17.5 25.5 45 39.5 q27.5 14 66.5 14 q25 0 56.5 -9 q31.5 -9 60.5 -44 q-15 -9 -28 -28.5 q-13 -19.5 -23.5 -45 q-10.5 -25.5 -16.5 -55.5 q-6 -30 -6 -60 q0 -24 7.5 -47 q7.5 -23 23.5 -40 q16 -17 41.5 -27.5 q25.5 -10.5 62.5 -10.5 q48 0 95 28 q47 28 90 77 q43 49 82 116 q39 67 71 145.5 q32 78.5 56.5 165 q24.5 86.5 39.5 175.5 l-434 0 Z" /><glyph glyph-name="afii10048" unicode="&#x42e;" d="M205 0 l297 1393 q-136 -57 -211.5 -170.5 q-75.5 -113.5 -75.5 -278.5 q0 -39 4.5 -63.5 q4.5 -24.5 10 -39 q5.5 -14.5 10 -22.5 q4.5 -8 4.5 -14 q-53 0 -94 10.5 q-41 10.5 -69 33.5 q-28 23 -42 61 q-14 38 -14 94 q0 68 29.5 134 q29.5 66 80.5 125 q51 59 120.5 109 q69.5 50 149.5 86.5 q80 36.5 166 57 q86 20.5 172 20.5 q23 0 42.5 -1 q19.5 -1 39.5 -3 l-131 -610 l207 0 q33 84 77 159.5 q44 75.5 99.5 132.5 q55.5 57 122 91 q66.5 34 143.5 34 q26 0 52 -2.5 q26 -2.5 55 -13.5 q-46 -28 -90.5 -86 q-44.5 -58 -83 -135.5 q-38.5 -77.5 -71 -168.5 q-32.5 -91 -56 -185 q-23.5 -94 -36.5 -186 q-13 -92 -13 -171 q0 -52 7 -95.5 q7 -43.5 21 -75 q14 -31.5 36.5 -49 q22.5 -17.5 54.5 -17.5 q51 0 103 38.5 q52 38.5 99.5 105 q47.5 66.5 88.5 155.5 q41 89 71.5 190 q30.5 101 48 208.5 q17.5 107.5 17.5 211.5 q0 81 -14.5 147.5 q-14.5 66.5 -47.5 113 q-33 46.5 -87 72 q-54 25.5 -134 25.5 q-103 0 -176.5 -35.5 q-73.5 -35.5 -110.5 -95.5 q-16 48 4.5 92.5 q20.5 44.5 67.5 78.5 q47 34 115.5 54.5 q68.5 20.5 148.5 20.5 q262 0 384 -131 q122 -131 122 -393 q0 -99 -18.5 -213.5 q-18.5 -114.5 -58 -228 q-39.5 -113.5 -100 -219 q-60.5 -105.5 -144.5 -186 q-84 -80.5 -192.5 -129 q-108.5 -48.5 -242.5 -48.5 q-81 0 -148 22 q-67 22 -115.5 71 q-48.5 49 -75.5 127.5 q-27 78.5 -27 190.5 q0 79 13.5 175 q13.5 96 39.5 196 l-186 0 l-164 -770 l-295 0 Z" /><glyph glyph-name="afii10049" unicode="&#x42f;" d="M508 0 l145 684 q-41 -2 -70 -8 q-29 -6 -51.5 -16 q-22.5 -10 -40.5 -23 q-18 -13 -36 -29 q-31 -29 -51.5 -82.5 q-20.5 -53.5 -35.5 -117 q-15 -63.5 -27 -129 q-12 -65.5 -24 -119.5 q-8 -38 -20.5 -73 q-12.5 -35 -33.5 -62 q-21 -27 -54 -43.5 q-33 -16.5 -82 -16.5 q-38 0 -95.5 6 q-57.5 6 -125.5 29 q37 19 63 41 q26 22 44.5 49 q18.5 27 31 60.5 q12.5 33.5 21.5 76.5 l47 226 q15 73 38 126.5 q23 53.5 56 89.5 q33 36 77 57.5 q44 21.5 103 31.5 q-87 48 -123.5 122 q-36.5 74 -36.5 171 q0 96 44 184 q44 88 130 154.5 q86 66.5 213 106.5 q127 40 293 40 q108 0 201 -23.5 q93 -23.5 161.5 -66.5 q68.5 -43 108 -103.5 q39.5 -60.5 39.5 -134.5 q0 -55 -14.5 -93 q-14.5 -38 -42 -61 q-27.5 -23 -67.5 -33.5 q-40 -10.5 -91 -10.5 q2 7 6.5 17.5 q4.5 10.5 9 27 q4.5 16.5 8 39.5 q3.5 23 3.5 55 q0 77 -20.5 131 q-20.5 54 -61.5 88.5 q-41 34.5 -102 50 q-61 15.5 -142 15.5 q-114 0 -200 -31 q-86 -31 -144 -83 q-58 -52 -87.5 -121.5 q-29.5 -69.5 -29.5 -145.5 q0 -74 21.5 -127 q21.5 -53 54.5 -87.5 q33 -34.5 73.5 -50.5 q40.5 -16 78.5 -16 l2 0 l114 531 l304 40 l-287 -1343 l-295 0 Z" /><glyph glyph-name="afii10065" unicode="&#x430;" d="M1163 367 q-29 -83 -63 -144 q-34 -61 -70.5 -103 q-36.5 -42 -74.5 -68 q-38 -26 -74 -40 q-36 -14 -69 -19 q-33 -5 -60 -5 q-87 0 -138.5 47.5 q-51.5 47.5 -62.5 140.5 q-25 -35 -55 -68.5 q-30 -33.5 -67 -60 q-37 -26.5 -82.5 -43 q-45.5 -16.5 -100.5 -16.5 q-53 0 -102 17 q-49 17 -87 56 q-38 39 -61 102 q-23 63 -23 154 q0 70 14 150 q14 80 43 160 q29 80 72.5 153.5 q43.5 73.5 102 130 q58.5 56.5 132.5 90 q74 33.5 163 33.5 q87 0 126.5 -30 q39.5 -30 39.5 -74 l0 -15 l22 109 l295 0 l-147 -696 q-5 -17 -7 -33.5 q-2 -16.5 -2 -32.5 q0 -88 84 -88 q30 0 55.5 15.5 q25.5 15.5 46.5 41.5 q21 26 37 61.5 q16 35.5 27 74.5 l86 0 ZM647 829 q0 9 -4 22.5 q-4 13.5 -13.5 26 q-9.5 12.5 -25.5 21 q-16 8.5 -41 8.5 q-43 0 -81.5 -28 q-38.5 -28 -70.5 -74.5 q-32 -46.5 -57 -105.5 q-25 -59 -42.5 -121.5 q-17.5 -62.5 -26.5 -123 q-9 -60.5 -9 -108.5 q0 -59 11 -91 q11 -32 26.5 -47.5 q15.5 -15.5 33.5 -18.5 q18 -3 32 -3 q23 0 48.5 11.5 q25.5 11.5 49 34 q23.5 22.5 43 56.5 q19.5 34 29.5 79 l98 462 Z" /><glyph glyph-name="afii10066" unicode="&#x431;" d="M604 1192 q-11 0 -18.5 -4 q-7.5 -4 -7.5 -21 q0 -8 16 -28 q16 -20 40 -51 q24 -31 52.5 -73 q28.5 -42 52.5 -94.5 q24 -52.5 40 -116.5 q16 -64 16 -138 q0 -75 -15 -154 q-15 -79 -43.5 -154 q-28.5 -75 -71 -141.5 q-42.5 -66.5 -97.5 -116.5 q-55 -50 -122 -79 q-67 -29 -145 -29 q-77 0 -138 20.5 q-61 20.5 -103 62.5 q-42 42 -64.5 107.5 q-22.5 65.5 -22.5 155.5 q0 116 36.5 229 q36.5 113 108 202.5 q71.5 89.5 175.5 144.5 q104 55 239 55 q11 0 19 -1 q8 -1 16 -1 q-41 49 -85 91 q-44 42 -80.5 82.5 q-36.5 40.5 -60.5 82.5 q-24 42 -24 92 q0 78 53 114.5 q53 36.5 169 36.5 l311 0 q56 0 91.5 0 q35.5 0 58 8.5 q22.5 8.5 35 29 q12.5 20.5 22.5 61.5 l90 0 q-25 -118 -52 -191 q-27 -73 -66 -113.5 q-39 -40.5 -93.5 -54.5 q-54.5 -14 -134.5 -14 l-197 0 ZM379 176 q46 0 82.5 32.5 q36.5 32.5 64 83.5 q27.5 51 46.5 113 q19 62 30.5 121 q11.5 59 17 108.5 q5.5 49.5 5.5 74.5 q0 40 -5 66.5 q-5 26.5 -15 41.5 q-10 15 -24.5 21 q-14.5 6 -33.5 6 q-49 0 -88.5 -31 q-39.5 -31 -70 -79.5 q-30.5 -48.5 -52.5 -108 q-22 -59.5 -36.5 -116.5 q-14.5 -57 -21 -106 q-6.5 -49 -6.5 -75 q0 -45 6 -74.5 q6 -29.5 19 -47 q13 -17.5 33 -24 q20 -6.5 49 -6.5 Z" /><glyph glyph-name="afii10067" unicode="&#x432;" d="M1135 778 q-56 -60 -146.5 -103.5 q-90.5 -43.5 -200.5 -62.5 q7 -23 9 -48 q2 -25 2 -54 q0 -101 -33 -194.5 q-33 -93.5 -96 -165.5 q-63 -72 -153.5 -115 q-90.5 -43 -205.5 -43 q-88 0 -152 27.5 q-64 27.5 -106 76.5 q-42 49 -62 116.5 q-20 67.5 -20 147.5 q0 55 12.5 135 q12.5 80 35.5 173.5 q23 93.5 57 194 q34 100.5 76 197 q42 96.5 93 183.5 q51 87 108.5 152.5 q57.5 65.5 121 104 q63.5 38.5 131.5 38.5 q51 0 93 -15.5 q42 -15.5 71 -49 q29 -33.5 45 -87 q16 -53.5 16 -129.5 q0 -65 -16 -132 q-16 -67 -41 -131 q-25 -64 -54 -122.5 q-29 -58.5 -56 -105.5 q23 -11 41.5 -26 q18.5 -15 35.5 -35 q48 0 100 11.5 q52 11.5 102 30 q50 18.5 95 41.5 q45 23 78 46 l19 -56 ZM594 575 q-17 -6 -31 -9 q-14 -3 -43 -3 q-48 0 -77 26.5 q-29 26.5 -29 74.5 q0 33 11 55.5 q11 22.5 30 36.5 q19 14 45 21 q26 7 57 9 q27 49 52.5 109 q25.5 60 46 123.5 q20.5 63.5 32.5 127 q12 63.5 12 120.5 q0 63 -16 87.5 q-16 24.5 -51 24.5 q-33 0 -66 -35 q-33 -35 -64 -94.5 q-31 -59.5 -60 -137.5 q-29 -78 -54.5 -163.5 q-25.5 -85.5 -46 -174 q-20.5 -88.5 -35.5 -168 q-15 -79.5 -23 -145 q-8 -65.5 -8 -106.5 q0 -40 7 -72.5 q7 -32.5 22 -56 q15 -23.5 38.5 -36.5 q23.5 -13 57.5 -13 q50 0 89.5 26 q39.5 26 66.5 67.5 q27 41.5 41 92.5 q14 51 14 101 q0 76 -18 112 Z" /><glyph glyph-name="afii10068" unicode="&#x433;" d="M838 367 q-49 -78 -106.5 -147 q-57.5 -69 -126.5 -120.5 q-69 -51.5 -151 -81.5 q-82 -30 -180 -30 q-73 0 -131.5 13.5 q-58.5 13.5 -100 41.5 q-41.5 28 -63.5 71.5 q-22 43.5 -22 104.5 q0 57 18.5 101.5 q18.5 44.5 49 79.5 q30.5 35 69.5 63.5 q39 28.5 80 54 q41 25.5 80 50.5 q39 25 69.5 53.5 q30.5 28.5 49 62 q18.5 33.5 18.5 76.5 q0 45 -23 70.5 q-23 25.5 -71 25.5 q-66 0 -120 -50.5 q-54 -50.5 -101 -162.5 l-99 0 q31 88 70.5 161 q39.5 73 93 126 q53.5 53 123 82.5 q69.5 29.5 160.5 29.5 q54 0 104 -13 q50 -13 88.5 -41 q38.5 -28 61 -72 q22.5 -44 22.5 -105 q0 -84 -32 -143.5 q-32 -59.5 -80 -103.5 q-48 -44 -104 -78 q-56 -34 -104 -66 q-48 -32 -80 -68 q-32 -36 -32 -84 q0 -60 40 -84 q40 -24 106 -24 q45 0 87.5 10.5 q42.5 10.5 85.5 35 q43 24.5 87.5 64 q44.5 39.5 93.5 97.5 l70 0 Z" /><glyph glyph-name="afii10069" unicode="&#x434;" d="M731 -164 q-22 -110 -63.5 -178 q-41.5 -68 -92.5 -106 q-51 -38 -106.5 -51 q-55.5 -13 -106.5 -13 q-47 0 -88.5 12.5 q-41.5 12.5 -72.5 37 q-31 24.5 -49.5 62 q-18.5 37.5 -18.5 87.5 q0 64 30.5 113 q30.5 49 78.5 85.5 q48 36.5 107.5 62.5 q59.5 26 117.5 44 l25 108 q-45 -48 -105.5 -80 q-60.5 -32 -140.5 -32 q-53 0 -102 17 q-49 17 -87 56 q-38 39 -61 102 q-23 63 -23 154 q0 70 14 150 q14 80 43 160 q29 80 72.5 153.5 q43.5 73.5 102 130 q58.5 56.5 132.5 90 q74 33.5 163 33.5 q87 0 126.5 -30 q39.5 -30 39.5 -74 l0 -12 l22 106 l295 0 l-203 -950 q47 16 85 38.5 q38 22.5 69.5 57 q31.5 34.5 57 82.5 q25.5 48 46.5 115 l86 0 q-31 -102 -73.5 -170 q-42.5 -68 -90.5 -111.5 q-48 -43.5 -99 -66.5 q-51 -23 -99 -35 l-31 -148 ZM647 831 q0 9 -4 22 q-4 13 -13.5 25 q-9.5 12 -25.5 20.5 q-16 8.5 -41 8.5 q-43 0 -81.5 -28 q-38.5 -28 -70.5 -74.5 q-32 -46.5 -57 -105.5 q-25 -59 -42.5 -121.5 q-17.5 -62.5 -26.5 -123 q-9 -60.5 -9 -108.5 q0 -59 11 -91 q11 -32 26.5 -47.5 q15.5 -15.5 33.5 -18.5 q18 -3 32 -3 q21 0 45 10.5 q24 10.5 47.5 30.5 q23.5 20 42.5 50 q19 30 29 69 l104 485 ZM446 -111 q-40 -15 -76 -32.5 q-36 -17.5 -63.5 -38.5 q-27.5 -21 -44 -46.5 q-16.5 -25.5 -16.5 -56.5 q0 -11 4 -23 q4 -12 12.5 -22 q8.5 -10 21.5 -16 q13 -6 31 -6 q32 0 65.5 44.5 q33.5 44.5 53.5 137.5 l12 59 Z" /><glyph glyph-name="afii10070" unicode="&#x435;" d="M856 367 q-43 -72 -98.5 -140 q-55.5 -68 -125 -121 q-69.5 -53 -154 -85.5 q-84.5 -32.5 -185.5 -32.5 q-73 0 -132 18.5 q-59 18.5 -101 57.5 q-42 39 -64.5 100.5 q-22.5 61.5 -22.5 148.5 q0 59 12 136 q12 77 38 158 q26 81 69 159 q43 78 104 139.5 q61 61.5 143 99 q82 37.5 187 37.5 q69 0 112.5 -16.5 q43.5 -16.5 69 -43.5 q25.5 -27 35 -62.5 q9.5 -35.5 9.5 -73.5 q0 -89 -39 -165.5 q-39 -76.5 -104.5 -133.5 q-65.5 -57 -150.5 -92 q-85 -35 -177 -41 q-2 -23 -3.5 -43.5 q-1.5 -20.5 -1.5 -38.5 q0 -52 9.5 -85.5 q9.5 -33.5 28 -52.5 q18.5 -19 46 -26.5 q27.5 -7.5 64.5 -7.5 q61 0 110.5 16 q49.5 16 92.5 44 q43 28 81.5 66 q38.5 38 77.5 81 l70 0 ZM297 512 q58 4 112 33 q54 29 95 75.5 q41 46.5 65.5 106 q24.5 59.5 24.5 123.5 q0 38 -11 61 q-11 23 -40 23 q-39 0 -76.5 -37.5 q-37.5 -37.5 -70.5 -97.5 q-33 -60 -58.5 -135.5 q-25.5 -75.5 -40.5 -151.5 Z" /><glyph glyph-name="afii10072" unicode="&#x436;" d="M1892 367 q-32 -71 -83 -139 q-51 -68 -115 -121.5 q-64 -53.5 -138.5 -86 q-74.5 -32.5 -154.5 -32.5 q-70 0 -125.5 23 q-55.5 23 -94 65.5 q-38.5 42.5 -59 102.5 q-20.5 60 -20.5 134 q0 42 2.5 86.5 q2.5 44.5 13.5 92.5 l-117 0 l-102 -492 l-274 0 l104 492 l-115 0 q-18 -90 -53.5 -180 q-35.5 -90 -90.5 -162 q-55 -72 -130 -117 q-75 -45 -172 -45 q-69 0 -116 18.5 q-47 18.5 -75.5 49 q-28.5 30.5 -40.5 69.5 q-12 39 -12 80 q0 43 10 75 q10 32 26.5 53.5 q16.5 21.5 38.5 32.5 q22 11 46 11 q17 0 37 -6 q20 -6 37 -23 q-14 -37 -20.5 -70.5 q-6.5 -33.5 -6.5 -64.5 q0 -33 7 -55.5 q7 -22.5 17.5 -36 q10.5 -13.5 24 -19.5 q13.5 -6 25.5 -6 q29 0 56.5 26 q27.5 26 52.5 70.5 q25 44.5 46 103 q21 58.5 36 123 q15 64.5 23.5 130.5 q8.5 66 8.5 127 q0 112 -31.5 163.5 q-31.5 51.5 -93.5 51.5 q-60 0 -94.5 -40 q-34.5 -40 -63.5 -114 l-106 0 q21 70 49.5 126.5 q28.5 56.5 69 96 q40.5 39.5 95 61 q54.5 21.5 126.5 21.5 q70 0 126 -23 q56 -23 94 -65.5 q38 -42.5 58.5 -102.5 q20.5 -60 20.5 -134 q0 -51 -6 -103 l123 0 l86 410 l274 0 l-86 -410 l115 0 q24 81 61.5 158 q37.5 77 89 137 q51.5 60 118.5 96.5 q67 36.5 151 36.5 q62 0 103 -16.5 q41 -16.5 65 -43 q24 -26.5 33.5 -60.5 q9.5 -34 9.5 -68 q0 -75 -30.5 -112 q-30.5 -37 -74.5 -37 q-17 0 -36 6 q-19 6 -36 18 q11 35 16 65 q5 30 5 56 q0 38 -12 61 q-12 23 -35 23 q-27 0 -54 -26 q-27 -26 -51.5 -70.5 q-24.5 -44.5 -45.5 -103 q-21 -58.5 -36.5 -123 q-15.5 -64.5 -24.5 -131 q-9 -66.5 -9 -126.5 q0 -112 41.5 -163.5 q41.5 -51.5 109.5 -51.5 q36 0 77.5 13.5 q41.5 13.5 84 42 q42.5 28.5 83 71 q40.5 42.5 75.5 101.5 l69 0 Z" /><glyph glyph-name="afii10073" unicode="&#x437;" d="M1106 367 q-31 -105 -75.5 -174 q-44.5 -69 -95 -113 q-50.5 -44 -103.5 -67.5 q-53 -23.5 -101 -35.5 q-2 -116 -31 -207 q-29 -91 -79.5 -153.5 q-50.5 -62.5 -121 -95.5 q-70.5 -33 -155.5 -33 q-47 0 -88.5 12.5 q-41.5 12.5 -73 37 q-31.5 24.5 -49.5 62 q-18 37.5 -18 87.5 q0 62 28.5 110 q28.5 48 74.5 84.5 q46 36.5 103.5 62.5 q57.5 26 114.5 44 q-6 217 -147 217 l-64 0 l27 123 l59 0 q55 0 101.5 27.5 q46.5 27.5 80 75.5 q33.5 48 52 112 q18.5 64 18.5 137 q0 30 -5 61 q-5 31 -18.5 56.5 q-13.5 25.5 -38 42 q-24.5 16.5 -63.5 16.5 q-55 0 -104 -27 q-49 -27 -92.5 -85.5 q-43.5 -58.5 -82.5 -151.5 q-39 -93 -73 -225 l-86 0 q23 91 47.5 177 q24.5 86 55 161 q30.5 75 70 137 q39.5 62 92.5 106.5 q53 44.5 123 69 q70 24.5 161 24.5 q73 0 133 -21.5 q60 -21.5 102 -63 q42 -41.5 65 -102 q23 -60.5 23 -138.5 q0 -67 -18 -125.5 q-18 -58.5 -46 -107.5 q-28 -49 -63.5 -88 q-35.5 -39 -71 -67 q-35.5 -28 -67 -44.5 q-31.5 -16.5 -51.5 -20.5 q24 -8 49 -26 q25 -18 48.5 -44 q23.5 -26 42 -60 q18.5 -34 28.5 -75 q55 16 99 38.5 q44 22.5 80 57.5 q36 35 64.5 86.5 q28.5 51.5 53.5 125.5 l86 0 ZM430 -111 q-40 -14 -76.5 -31 q-36.5 -17 -64.5 -38.5 q-28 -21.5 -45 -47.5 q-17 -26 -17 -57 q0 -29 17.5 -48 q17.5 -19 52.5 -19 q22 0 43.5 19.5 q21.5 19.5 39.5 52.5 q18 33 31 77 q13 44 19 92 Z" /><glyph glyph-name="afii10074" unicode="&#x438;" d="M1120 367 q-29 -83 -63 -144 q-34 -61 -70.5 -103 q-36.5 -42 -74.5 -68 q-38 -26 -74 -40 q-36 -14 -69 -19 q-33 -5 -60 -5 q-88 0 -140 48.5 q-52 48.5 -63 145.5 q-39 -63 -79 -101 q-40 -38 -79 -59 q-39 -21 -76 -27.5 q-37 -6.5 -69 -6.5 q-46 0 -86 14 q-40 14 -69.5 44 q-29.5 30 -46.5 76 q-17 46 -17 111 q0 28 4 61.5 q4 33.5 12 72.5 l139 657 l295 0 l-147 -696 q-6 -32 -6 -58 q0 -35 13 -59.5 q13 -24.5 48 -24.5 q30 0 55 13.5 q25 13.5 45.5 37.5 q20.5 24 36 57.5 q15.5 33.5 27.5 72.5 l139 657 l295 0 l-147 -696 q-5 -17 -7 -33.5 q-2 -16.5 -2 -32.5 q0 -43 20.5 -59.5 q20.5 -16.5 63.5 -16.5 q30 0 55.5 13.5 q25.5 13.5 46.5 37.5 q21 24 37 57.5 q16 33.5 27 72.5 l86 0 Z" /><glyph glyph-name="afii10075" unicode="&#x439;" d="M1120 367 q-29 -83 -63 -144 q-34 -61 -70.5 -103 q-36.5 -42 -74.5 -68 q-38 -26 -74 -40 q-36 -14 -69 -19 q-33 -5 -60 -5 q-88 0 -140 48.5 q-52 48.5 -63 145.5 q-39 -63 -79 -101 q-40 -38 -79 -59 q-39 -21 -76 -27.5 q-37 -6.5 -69 -6.5 q-46 0 -86 14 q-40 14 -69.5 44 q-29.5 30 -46.5 76 q-17 46 -17 111 q0 28 4 61.5 q4 33.5 12 72.5 l139 657 l295 0 l-147 -696 q-6 -32 -6 -58 q0 -35 13 -59.5 q13 -24.5 48 -24.5 q30 0 55 13.5 q25 13.5 45.5 37.5 q20.5 24 36 57.5 q15.5 33.5 27.5 72.5 l139 657 l295 0 l-147 -696 q-5 -17 -7 -33.5 q-2 -16.5 -2 -32.5 q0 -43 20.5 -59.5 q20.5 -16.5 63.5 -16.5 q30 0 55.5 13.5 q25.5 13.5 46.5 37.5 q21 24 37 57.5 q16 33.5 27 72.5 l86 0 ZM965 1473 q-35 -102 -80 -169 q-45 -67 -99 -107 q-54 -40 -118 -56.5 q-64 -16.5 -136 -16.5 q-128 0 -197 47.5 q-69 47.5 -69 128.5 q0 67 37 108.5 q37 41.5 100 41.5 q60 0 93.5 -28.5 q33.5 -28.5 33.5 -82.5 q0 -6 -1 -17.5 q-1 -11.5 -6 -25.5 q-5 -14 -14.5 -28.5 q-9.5 -14.5 -27.5 -26.5 q16 -5 36 -6.5 q20 -1.5 46 -1.5 q43 0 87.5 11 q44.5 11 86.5 38.5 q42 27.5 78.5 74 q36.5 46.5 63.5 116.5 l86 0 Z" /><glyph glyph-name="afii10076" unicode="&#x43a;" d="M1112 367 q-129 -379 -373 -379 q-125 0 -186 61.5 q-61 61.5 -61 165.5 q0 25 3.5 52 q3.5 27 8 53 q4.5 26 8.5 49 q4 23 4 41 q0 98 -78 98 q-15 0 -28 -4.5 q-13 -4.5 -28 -14 q-15 -9.5 -33 -24 q-18 -14.5 -42 -33.5 l-90 -432 l-295 0 l219 1024 l295 0 l-88 -406 q73 73 128 132.5 q55 59.5 98.5 106.5 q43.5 47 78.5 82 q35 35 67.5 58 q32.5 23 66 34 q33.5 11 73.5 11 q72 0 106.5 -39 q34.5 -39 34.5 -96 q0 -62 -33.5 -97.5 q-33.5 -35.5 -95.5 -35.5 q-30 0 -52 9.5 q-22 9.5 -35.5 25 q-13.5 15.5 -19.5 34 q-6 18.5 -5 36.5 q-35 -21 -65 -48 q-30 -27 -58.5 -57.5 q-28.5 -30.5 -57.5 -63.5 q-29 -33 -61 -65 q23 5 45.5 6.5 q22.5 1.5 40.5 1.5 q55 0 92.5 -12.5 q37.5 -12.5 60.5 -36.5 q23 -24 32.5 -59.5 q9.5 -35.5 9.5 -81.5 q0 -24 -4 -48.5 q-4 -24.5 -8.5 -49 q-4.5 -24.5 -8.5 -50.5 q-4 -26 -4 -53 q0 -76 82 -76 q31 0 53.5 10.5 q22.5 10.5 41.5 33 q19 22.5 36.5 56.5 q17.5 34 38.5 81 l86 0 Z" /><glyph glyph-name="afii10077" unicode="&#x43b;" d="M1229 367 q-129 -379 -381 -379 q-62 0 -107.5 18 q-45.5 18 -75.5 48 q-30 30 -44.5 69.5 q-14.5 39.5 -14.5 81.5 q0 43 11 111 q11 68 34 167 l90 406 q-54 0 -92 -22 q-38 -22 -67.5 -69.5 q-29.5 -47.5 -52.5 -122 q-23 -74.5 -46 -179.5 q-26 -122 -49.5 -217 q-23.5 -95 -59 -159.5 q-35.5 -64.5 -89 -98 q-53.5 -33.5 -138.5 -33.5 q-60 0 -102.5 20 q-42.5 20 -69.5 52.5 q-27 32.5 -40 74 q-13 41.5 -13 84.5 q0 72 33.5 118 q33.5 46 93.5 46 q48 0 77.5 -29.5 q29.5 -29.5 29.5 -77.5 q0 -50 -25 -74.5 q-25 -24.5 -57 -19.5 q1 -11 4.5 -22.5 q3.5 -11.5 12.5 -21 q9 -9.5 24 -15.5 q15 -6 39 -6 q50 0 81 33 q31 33 51 88 q20 55 34.5 127.5 q14.5 72.5 31.5 150.5 q33 160 72.5 259 q39.5 99 88 154.5 q48.5 55.5 106 75 q57.5 19.5 126.5 19.5 l302 0 l-109 -508 q-23 -99 -36 -158.5 q-13 -59.5 -13 -85.5 q0 -86 82 -86 q31 0 53.5 10.5 q22.5 10.5 42 33 q19.5 22.5 37.5 56.5 q18 34 39 81 l86 0 Z" /><glyph glyph-name="afii10078" unicode="&#x43c;" d="M1669 367 q-129 -379 -381 -379 q-62 0 -107.5 18 q-45.5 18 -75 48 q-29.5 30 -44 69.5 q-14.5 39.5 -14.5 81.5 q0 84 43 272 l32 146 l-303 -623 l-287 0 l-36 625 l-27 -129 q-25 -122 -48.5 -217 q-23.5 -95 -57.5 -159.5 q-34 -64.5 -85 -98 q-51 -33.5 -131 -33.5 q-58 0 -100.5 21.5 q-42.5 21.5 -70 55.5 q-27.5 34 -41 75.5 q-13.5 41.5 -13.5 82.5 q0 72 33.5 113 q33.5 41 93.5 41 q48 0 77.5 -29.5 q29.5 -29.5 29.5 -77.5 q0 -50 -25 -74.5 q-25 -24.5 -57 -19.5 q-1 -12 2 -25.5 q3 -13.5 12 -25 q9 -11.5 25 -19.5 q16 -8 41 -8 q55 0 89 35.5 q34 35.5 55.5 94 q21.5 58.5 36 134 q14.5 75.5 30.5 154.5 l108 508 l287 0 l43 -786 l381 786 l303 0 l-109 -508 q-23 -99 -36 -158.5 q-13 -59.5 -13 -85.5 q0 -86 82 -86 q31 0 54 10.5 q23 10.5 42.5 33 q19.5 22.5 37 56.5 q17.5 34 38.5 81 l86 0 Z" /><glyph glyph-name="afii10079" unicode="&#x43d;" d="M1124 367 q-129 -379 -381 -379 q-62 0 -107.5 18 q-45.5 18 -75 48 q-29.5 30 -44 69.5 q-14.5 39.5 -14.5 81.5 q0 42 13.5 115.5 q13.5 73.5 33.5 171.5 l-227 0 l-105 -492 l-295 0 l217 1024 l295 0 l-88 -410 l229 0 l93 410 l274 0 l-108 -508 q-23 -99 -36.5 -158.5 q-13.5 -59.5 -13.5 -85.5 q0 -86 82 -86 q31 0 54 10.5 q23 10.5 42.5 33 q19.5 22.5 37 56.5 q17.5 34 38.5 81 l86 0 Z" /><glyph glyph-name="afii10080" unicode="&#x43e;" d="M1151 778 q-60 -63 -155 -107 q-95 -44 -208 -63 q-12 -142 -54.5 -256 q-42.5 -114 -107.5 -194 q-65 -80 -149 -123 q-84 -43 -178 -43 q-71 0 -131.5 17.5 q-60.5 17.5 -104 56 q-43.5 38.5 -68 100 q-24.5 61.5 -24.5 149.5 q0 60 12.5 136.5 q12.5 76.5 40 157.5 q27.5 81 71 158.5 q43.5 77.5 106 138.5 q62.5 61 144.5 98.5 q82 37.5 187 37.5 q263 0 263 -327 l0 -2 q5 -2 9.5 -2 q4.5 0 12.5 0 q36 0 77.5 10.5 q41.5 10.5 83.5 27.5 q42 17 82 39.5 q40 22.5 73 45.5 l18 -56 ZM618 602 q-32 8 -43.5 31.5 q-11.5 23.5 -11.5 54.5 q0 43 17.5 70.5 q17.5 27.5 46.5 40.5 q-2 33 -7 55.5 q-5 22.5 -14 37 q-9 14.5 -22.5 20.5 q-13.5 6 -34.5 6 q-37 0 -71 -28.5 q-34 -28.5 -64.5 -75.5 q-30.5 -47 -56 -107.5 q-25.5 -60.5 -43.5 -124.5 q-18 -64 -28 -126.5 q-10 -62.5 -10 -113.5 q0 -51 5.5 -83 q5.5 -32 18 -50.5 q12.5 -18.5 32.5 -25.5 q20 -7 49 -7 q37 0 74.5 33 q37.5 33 69.5 90 q32 57 56.5 135 q24.5 78 36.5 168 Z" /><glyph glyph-name="afii10081" unicode="&#x43f;" d="M1120 367 q-43 -126 -92.5 -201 q-49.5 -75 -100 -114.5 q-50.5 -39.5 -99 -51.5 q-48.5 -12 -89.5 -12 q-68 0 -114 19.5 q-46 19.5 -74 52 q-28 32.5 -40.5 74 q-12.5 41.5 -12.5 85.5 q0 52 14.5 121.5 q14.5 69.5 31.5 142.5 q17 73 31.5 141 q14.5 68 14.5 117 q0 105 -74 105 q-28 0 -52 -15 q-24 -15 -44 -40.5 q-20 -25.5 -36 -60 q-16 -34.5 -28 -73.5 l-139 -657 l-295 0 l217 1024 l295 0 l-22 -106 q33 37 65.5 59.5 q32.5 22.5 63.5 34.5 q31 12 58.5 16 q27.5 4 51.5 4 q49 0 91 -13 q42 -13 72.5 -41 q30.5 -28 47.5 -72 q17 -44 17 -105 q0 -41 -7.5 -88.5 q-7.5 -47.5 -18.5 -97 q-11 -49.5 -23.5 -98.5 q-12.5 -49 -23.5 -94 q-11 -45 -18.5 -83.5 q-7.5 -38.5 -7.5 -67.5 q0 -38 17.5 -62 q17.5 -24 64.5 -24 q33 0 58 13 q25 13 45 37 q20 24 36.5 57.5 q16.5 33.5 32.5 73.5 l86 0 Z" /><glyph glyph-name="afii10082" unicode="&#x440;" d="M-186 -512 l342 1612 l295 0 l-33 -154 q45 38 103 63 q58 25 136 25 q52 0 98 -16.5 q46 -16.5 79.5 -54 q33.5 -37.5 53 -99.5 q19.5 -62 19.5 -153 q0 -69 -9.5 -149.5 q-9.5 -80.5 -32.5 -161 q-23 -80.5 -60.5 -155 q-37.5 -74.5 -93.5 -131.5 q-56 -57 -132.5 -91.5 q-76.5 -34.5 -175.5 -34.5 q-39 0 -68 6 q-29 6 -49.5 16 q-20.5 10 -34 23.5 q-13.5 13.5 -22.5 27.5 l-106 -499 l-309 -74 ZM262 213 q6 -17 24.5 -32 q18.5 -15 53.5 -15 q54 0 96 27.5 q42 27.5 74 73 q32 45.5 54 103.5 q22 58 36 119 q14 61 20.5 120.5 q6.5 59.5 6.5 107.5 q0 59 -11 93 q-11 34 -26.5 51 q-15.5 17 -33.5 21.5 q-18 4.5 -32 4.5 q-35 0 -73.5 -25.5 q-38.5 -25.5 -67.5 -75.5 l-121 -573 Z" /><glyph glyph-name="afii10083" unicode="&#x441;" d="M856 367 q-43 -72 -98.5 -140 q-55.5 -68 -125 -121 q-69.5 -53 -154 -85.5 q-84.5 -32.5 -185.5 -32.5 q-73 0 -132 18.5 q-59 18.5 -101 57.5 q-42 39 -64.5 100.5 q-22.5 61.5 -22.5 148.5 q0 59 12 136.5 q12 77.5 38.5 158.5 q26.5 81 69 159 q42.5 78 104 139 q61.5 61 142.5 98.5 q81 37.5 185 37.5 q68 0 112 -16.5 q44 -16.5 70 -43 q26 -26.5 36 -60.5 q10 -34 10 -68 q0 -38 -8.5 -65.5 q-8.5 -27.5 -23.5 -46.5 q-15 -19 -35 -28 q-20 -9 -42 -9 q-35 0 -72 24 q25 66 25 121 q0 38 -14 61 q-14 23 -43 23 q-32 0 -64 -29 q-32 -29 -61.5 -77 q-29.5 -48 -54.5 -110 q-25 -62 -43.5 -129 q-18.5 -67 -29 -133.5 q-10.5 -66.5 -10.5 -123.5 q0 -52 9.5 -85.5 q9.5 -33.5 28 -52.5 q18.5 -19 46 -26.5 q27.5 -7.5 64.5 -7.5 q61 0 110.5 16 q49.5 16 92.5 44 q43 28 81.5 66 q38.5 38 77.5 81 l70 0 Z" /><glyph glyph-name="afii10084" unicode="&#x442;" d="M1626 367 q-43 -126 -92.5 -201 q-49.5 -75 -100 -114.5 q-50.5 -39.5 -99 -51.5 q-48.5 -12 -89.5 -12 q-68 0 -114 19.5 q-46 19.5 -74 52 q-28 32.5 -40.5 74 q-12.5 41.5 -12.5 85.5 q0 52 14.5 121.5 q14.5 69.5 31.5 142.5 q17 73 31.5 141 q14.5 68 14.5 117 q0 105 -74 105 q-28 0 -52 -15 q-24 -15 -44 -40.5 q-20 -25.5 -36 -60 q-16 -34.5 -28 -73.5 l-139 -657 l-295 0 l150 707 q6 24 6 51 q0 18 -3 34 q-3 16 -10.5 28.5 q-7.5 12.5 -19 20 q-11.5 7.5 -29.5 7.5 q-30 0 -55.5 -15 q-25.5 -15 -46 -41 q-20.5 -26 -36.5 -61 q-16 -35 -28 -74 l-139 -657 l-295 0 l217 1024 l295 0 l-22 -106 q33 37 66 59.5 q33 22.5 65 35 q32 12.5 62 17 q30 4.5 57 4.5 q40 0 75 -9.5 q35 -9.5 62 -30.5 q27 -21 46 -54.5 q19 -33.5 27 -81.5 q37 57 76 91.5 q39 34.5 76 52.5 q37 18 71 24 q34 6 62 6 q49 0 90.5 -13 q41.5 -13 72 -41 q30.5 -28 47.5 -72 q17 -44 17 -105 q0 -41 -7.5 -88.5 q-7.5 -47.5 -18 -97 q-10.5 -49.5 -23.5 -98.5 q-13 -49 -23.5 -94 q-10.5 -45 -18 -83.5 q-7.5 -38.5 -7.5 -67.5 q0 -38 17.5 -62 q17.5 -24 64.5 -24 q33 0 58 13 q25 13 45 37 q20 24 36.5 57.5 q16.5 33.5 32.5 73.5 l86 0 Z" /><glyph glyph-name="afii10085" unicode="&#x443;" d="M688 -164 q-22 -110 -63.5 -178 q-41.5 -68 -92.5 -106 q-51 -38 -106.5 -51 q-55.5 -13 -106.5 -13 q-47 0 -88.5 12.5 q-41.5 12.5 -72.5 37 q-31 24.5 -49.5 62 q-18.5 37.5 -18.5 87.5 q0 64 30.5 113 q30.5 49 78.5 85.5 q48 36.5 107.5 62.5 q59.5 26 117.5 44 l25 110 q-33 -36 -66 -58.5 q-33 -22.5 -64 -34.5 q-31 -12 -60 -16.5 q-29 -4.5 -56 -4.5 q-46 0 -86 14 q-40 14 -69.5 44 q-29.5 30 -46.5 76 q-17 46 -17 111 q0 28 4 61.5 q4 33.5 12 72.5 l139 657 l295 0 l-147 -696 q-6 -26 -6 -52 q0 -18 3 -34 q3 -16 10 -28.5 q7 -12.5 18.5 -20 q11.5 -7.5 29.5 -7.5 q28 0 52.5 12.5 q24.5 12.5 44.5 35 q20 22.5 35.5 53.5 q15.5 31 27.5 67 l143 670 l295 0 l-203 -950 q47 16 85 38.5 q38 22.5 69.5 57 q31.5 34.5 57 82.5 q25.5 48 46.5 115 l86 0 q-31 -102 -73.5 -170 q-42.5 -68 -90.5 -111.5 q-48 -43.5 -99 -66.5 q-51 -23 -99 -35 l-31 -148 ZM403 -111 q-40 -15 -76 -32.5 q-36 -17.5 -63.5 -38.5 q-27.5 -21 -44 -46.5 q-16.5 -25.5 -16.5 -56.5 q0 -11 4 -23 q4 -12 12.5 -22 q8.5 -10 21.5 -16 q13 -6 31 -6 q32 0 65.5 44.5 q33.5 44.5 53.5 137.5 l12 59 Z" /><glyph glyph-name="afii10086" unicode="&#x444;" d="M784 213 q17 -47 78 -47 q47 0 86.5 23 q39.5 23 71 63 q31.5 40 56 94 q24.5 54 40.5 115 q16 61 24.5 126.5 q8.5 65.5 8.5 129.5 q0 170 -102 170 q-84 0 -142 -101 l-121 -573 ZM645 838 q-12 69 -90 69 q-73 0 -145 -102 q-36 -53 -61 -110 q-25 -57 -42 -120 q-24 -96 -30 -162.5 q-6 -66.5 -1.5 -109.5 q4.5 -43 15.5 -66 q11 -23 22 -32 q16 -16 46 -18 q30 -2 63.5 12.5 q33.5 14.5 64.5 47 q31 32.5 50 85.5 l108 506 ZM356 -512 l136 612 q-105 -112 -238 -112 q-65 0 -117 19 q-52 19 -89 59.5 q-37 40.5 -57 102.5 q-20 62 -20 148 q0 231 129 461 q31 55 72.5 102 q41.5 47 92.5 81.5 q51 34.5 109.5 53.5 q58.5 19 123.5 19 q168 0 168 -112 l102 471 l283 41 l-111 -488 q51 45 110.5 66.5 q59.5 21.5 129.5 21.5 q250 0 250 -323 q0 -93 -12.5 -182.5 q-12.5 -89.5 -39 -170 q-26.5 -80.5 -67.5 -148.5 q-41 -68 -97.5 -117 q-56.5 -49 -130.5 -77 q-74 -28 -165 -28 q-124 0 -166 73 l-107 -499 l-289 -74 Z" /><glyph glyph-name="afii10087" unicode="&#x445;" d="M1155 367 q-41 -119 -94.5 -193.5 q-53.5 -74.5 -110.5 -115.5 q-57 -41 -112.5 -55.5 q-55.5 -14.5 -100.5 -14.5 q-46 0 -85 20 q-39 20 -70.5 63.5 q-31.5 43.5 -55.5 110.5 q-24 67 -39 162 l-282 -344 l-148 0 l414 467 l-33 229 q-8 52 -16.5 85 q-8.5 33 -17.5 52 q-9 19 -20 26 q-11 7 -24 7 q-30 0 -66 -30.5 q-36 -30.5 -73.5 -92.5 q-37.5 -62 -72.5 -155.5 q-35 -93.5 -62 -220.5 l-86 0 q17 76 40 154.5 q23 78.5 53.5 153 q30.5 74.5 69.5 140 q39 65.5 87 114 q48 48.5 106 77 q58 28.5 127 28.5 q61 0 102 -23.5 q41 -23.5 66.5 -59 q25.5 -35.5 37.5 -78.5 q12 -43 16 -82 l18 -156 q87 97 130 167.5 q43 70.5 48 127.5 q-11 -2 -19 -3 q-8 -1 -16 -1 q-27 0 -45 9 q-18 9 -29.5 24.5 q-11.5 15.5 -16.5 36 q-5 20.5 -5 44.5 q0 27 11.5 46 q11.5 19 30.5 31.5 q19 12.5 44.5 18 q25.5 5.5 52.5 5.5 q28 0 50 -16.5 q22 -16.5 36 -43 q14 -26.5 21.5 -60 q7.5 -33.5 7.5 -67.5 q0 -48 -17.5 -95 q-17.5 -47 -53 -99 q-35.5 -52 -89 -113 q-53.5 -61 -125.5 -139 l19 -143 q6 -50 16.5 -84.5 q10.5 -34.5 26 -55.5 q15.5 -21 36.5 -30 q21 -9 48 -9 q30 0 58 13.5 q28 13.5 52 37.5 q24 24 43 57.5 q19 33.5 31 72.5 l86 0 Z" /><glyph glyph-name="afii10088" unicode="&#x446;" d="M440 -385 q-54 0 -90 0 q-36 0 -59 -8.5 q-23 -8.5 -36 -29 q-13 -20.5 -22 -60.5 l-90 0 q25 117 52 190 q27 73 66 113.5 q39 40.5 93.5 54.5 q54.5 14 134.5 14 l160 0 q44 0 78.5 2.5 q34.5 2.5 61.5 19.5 q27 17 46.5 54.5 q19.5 37.5 34.5 106.5 q-28 -29 -50.5 -45.5 q-22.5 -16.5 -43 -25 q-20.5 -8.5 -42 -11 q-21.5 -2.5 -46.5 -2.5 q-72 0 -121.5 48.5 q-49.5 48.5 -60.5 145.5 q-39 -63 -79 -101 q-40 -38 -79 -59 q-39 -21 -76 -27.5 q-37 -6.5 -69 -6.5 q-46 0 -86 14 q-40 14 -69.5 44 q-29.5 30 -46.5 76 q-17 46 -17 111 q0 28 4 61.5 q4 33.5 12 72.5 l139 657 l295 0 l-147 -696 q-6 -32 -6 -58 q0 -35 13 -59.5 q13 -24.5 48 -24.5 q30 0 55 13.5 q25 13.5 45.5 37.5 q20.5 24 36 57.5 q15.5 33.5 27.5 72.5 l139 657 l295 0 l-147 -696 q-5 -17 -7 -33.5 q-2 -16.5 -2 -32.5 q0 -43 20.5 -59.5 q20.5 -16.5 63.5 -16.5 l105 0 q-12 -133 -37 -227.5 q-25 -94.5 -57.5 -158 q-32.5 -63.5 -71 -100.5 q-38.5 -37 -78 -56 q-39.5 -19 -77.5 -24 q-38 -5 -70 -5 l-142 0 Z" /><glyph glyph-name="afii10089" unicode="&#x447;" d="M1120 367 q-29 -83 -63 -144 q-34 -61 -70.5 -103 q-36.5 -42 -74.5 -68 q-38 -26 -74 -40 q-36 -14 -69 -19 q-33 -5 -60 -5 q-46 0 -86 14 q-40 14 -70 44 q-30 30 -47 76 q-17 46 -17 111 q0 28 4.5 61.5 q4.5 33.5 12.5 72.5 l10 51 q-33 -36 -65.5 -58.5 q-32.5 -22.5 -63.5 -35 q-31 -12.5 -60.5 -17 q-29.5 -4.5 -56.5 -4.5 q-46 0 -86 14 q-40 14 -69.5 44 q-29.5 30 -46.5 76.5 q-17 46.5 -17 111.5 q0 54 17 133 l71 342 l295 0 l-80 -381 q-6 -30 -6 -57 q0 -35 13 -59.5 q13 -24.5 49 -24.5 q30 0 56 13.5 q26 13.5 47 37.5 q21 24 36.5 57 q15.5 33 23.5 72 l72 342 l295 0 l-147 -696 q-5 -17 -7 -33.5 q-2 -16.5 -2 -32.5 q0 -43 20.5 -59.5 q20.5 -16.5 63.5 -16.5 q30 0 55.5 13.5 q25.5 13.5 46.5 37.5 q21 24 37 57.5 q16 33.5 27 72.5 l86 0 Z" /><glyph glyph-name="afii10090" unicode="&#x448;" d="M1626 367 q-43 -125 -97.5 -200 q-54.5 -75 -111 -115 q-56.5 -40 -109.5 -52 q-53 -12 -94 -12 q-88 0 -139.5 48.5 q-51.5 48.5 -62.5 145.5 q-39 -63 -79 -101 q-40 -38 -79 -59 q-39 -21 -76 -27.5 q-37 -6.5 -69 -6.5 q-88 0 -140 48.5 q-52 48.5 -63 145.5 q-39 -63 -79 -101 q-40 -38 -79 -59 q-39 -21 -76 -27.5 q-37 -6.5 -69 -6.5 q-46 0 -86 14 q-40 14 -69.5 44 q-29.5 30 -46.5 76 q-17 46 -17 111 q0 28 4 61.5 q4 33.5 12 72.5 l139 657 l295 0 l-147 -696 q-6 -32 -6 -58 q0 -35 13 -59.5 q13 -24.5 48 -24.5 q30 0 55 13.5 q25 13.5 45.5 37.5 q20.5 24 36 57.5 q15.5 33.5 27.5 72.5 l139 657 l295 0 l-147 -696 q-7 -29 -7 -58 q0 -35 13.5 -59.5 q13.5 -24.5 48.5 -24.5 q30 0 55 13.5 q25 13.5 45.5 37.5 q20.5 24 36 57.5 q15.5 33.5 27.5 72.5 l139 657 l295 0 l-148 -696 q-5 -17 -6.5 -33.5 q-1.5 -16.5 -1.5 -32.5 q0 -43 20.5 -59.5 q20.5 -16.5 63.5 -16.5 q30 0 55.5 13.5 q25.5 13.5 46 37.5 q20.5 24 36.5 57.5 q16 33.5 28 72.5 l86 0 Z" /><glyph glyph-name="afii10091" unicode="&#x449;" d="M946 -385 q-54 0 -90 0 q-36 0 -59 -8.5 q-23 -8.5 -36 -29 q-13 -20.5 -22 -60.5 l-90 0 q25 117 52 190 q27 73 66 113.5 q39 40.5 93.5 54.5 q54.5 14 134.5 14 l160 0 q44 0 78.5 2.5 q34.5 2.5 61.5 19.5 q27 17 46.5 54.5 q19.5 37.5 34.5 106.5 q-29 -29 -51 -45.5 q-22 -16.5 -43 -25 q-21 -8.5 -42 -11 q-21 -2.5 -46 -2.5 q-72 0 -121.5 48.5 q-49.5 48.5 -60.5 145.5 q-39 -63 -79 -101 q-40 -38 -79 -59 q-39 -21 -76 -27.5 q-37 -6.5 -69 -6.5 q-88 0 -140 48.5 q-52 48.5 -63 145.5 q-39 -63 -79 -101 q-40 -38 -79 -59 q-39 -21 -76 -27.5 q-37 -6.5 -69 -6.5 q-46 0 -86 14 q-40 14 -69.5 44 q-29.5 30 -46.5 76 q-17 46 -17 111 q0 28 4 61.5 q4 33.5 12 72.5 l139 657 l295 0 l-147 -696 q-6 -32 -6 -58 q0 -35 13 -59.5 q13 -24.5 48 -24.5 q30 0 55 13.5 q25 13.5 45.5 37.5 q20.5 24 36 57.5 q15.5 33.5 27.5 72.5 l139 657 l295 0 l-147 -696 q-7 -29 -7 -58 q0 -35 13.5 -59.5 q13.5 -24.5 48.5 -24.5 q30 0 55 13.5 q25 13.5 45.5 37.5 q20.5 24 36 57.5 q15.5 33.5 27.5 72.5 l139 657 l295 0 l-148 -696 q-5 -17 -6.5 -33.5 q-1.5 -16.5 -1.5 -32.5 q0 -43 20.5 -59.5 q20.5 -16.5 63.5 -16.5 l105 0 q-12 -133 -37 -227.5 q-25 -94.5 -57.5 -158 q-32.5 -63.5 -71 -100.5 q-38.5 -37 -78 -56 q-39.5 -19 -78 -24 q-38.5 -5 -70.5 -5 l-141 0 Z" /><glyph glyph-name="afii10092" unicode="&#x44a;" d="M510 926 q-16 -27 -33.5 -58 q-17.5 -31 -34.5 -64 q-17 -33 -32 -67 q-15 -34 -27 -67 q48 31 102.5 47 q54.5 16 110.5 16 q45 0 88.5 -14.5 q43.5 -14.5 77 -46 q33.5 -31.5 54 -80 q20.5 -48.5 20.5 -115.5 q0 -112 -44 -202.5 q-44 -90.5 -118 -154 q-74 -63.5 -171.5 -98 q-97.5 -34.5 -205.5 -34.5 q-65 0 -121.5 16 q-56.5 16 -98 48.5 q-41.5 32.5 -65.5 82 q-24 49.5 -24 117.5 q0 57 16 115 q16 58 43.5 115.5 q27.5 57.5 64 114.5 q36.5 57 78 111.5 q41.5 54.5 85 106 q43.5 51.5 85.5 98.5 l-100 0 q-24 0 -44.5 -1 q-20.5 -1 -35.5 -4 q-15 -3 -24 -9.5 q-9 -6.5 -9 -17.5 q0 -5 3.5 -6 q3.5 -1 8 -4 q4.5 -3 8 -10 q3.5 -7 3.5 -25 q0 -29 -9.5 -49.5 q-9.5 -20.5 -25 -33.5 q-15.5 -13 -35.5 -19.5 q-20 -6.5 -41 -6.5 q-18 0 -34.5 6 q-16.5 6 -30 17 q-13.5 11 -21.5 28 q-8 17 -8 39 q0 39 16.5 76.5 q16.5 37.5 47 66.5 q30.5 29 74.5 46.5 q44 17.5 100 17.5 l368 0 l-61 -98 ZM346 547 q-21 -54 -34 -95 q-13 -41 -20.5 -73.5 q-7.5 -32.5 -10 -59.5 q-2.5 -27 -2.5 -53 q0 -104 81 -104 q45 0 83 30.5 q38 30.5 65.5 76.5 q27.5 46 43 100 q15.5 54 15.5 100 q0 36 -9 58 q-9 22 -23.5 34.5 q-14.5 12.5 -32 16.5 q-17.5 4 -35.5 4 q-35 0 -65.5 -9 q-30.5 -9 -55.5 -26 Z" /><glyph glyph-name="afii10093" unicode="&#x44b;" d="M1427 367 q-129 -379 -378 -379 q-63 0 -108.5 18.5 q-45.5 18.5 -75.5 49 q-30 30.5 -44 71 q-14 40.5 -14 84.5 q0 7 1 19 q1 12 4.5 35.5 q3.5 23.5 10.5 63 q7 39.5 19.5 101 q12.5 61.5 31.5 149.5 q19 88 46 209 q-56 -35 -113 -68 q-57 -33 -117 -65 q49 -76 49 -204 q0 -43 -11.5 -94 q-11.5 -51 -36 -102.5 q-24.5 -51.5 -61.5 -99.5 q-37 -48 -87.5 -85 q-50.5 -37 -116 -59.5 q-65.5 -22.5 -145.5 -22.5 q-141 0 -217 69 q-76 69 -76 193 q0 29 3 58.5 q3 29.5 11 58.5 l135 657 l283 0 l-152 -721 q-5 -12 -5.5 -29 q-0.5 -17 -0.5 -28 q0 -84 92 -84 q42 0 81.5 26.5 q39.5 26.5 70 72.5 q30.5 46 49 108 q18.5 62 18.5 133 q0 26 -7.5 45 q-7.5 19 -22.5 33 q-11 -8 -27 -13.5 q-16 -5.5 -33 -5.5 q-15 0 -31 5 q-16 5 -29 15.5 q-13 10.5 -21.5 27 q-8.5 16.5 -8.5 40.5 q0 24 10 41.5 q10 17.5 26.5 29.5 q16.5 12 37 17.5 q20.5 5.5 41.5 5.5 q46 0 84 -12 q76 34 140 69.5 q64 35.5 125.5 72.5 q61.5 37 124 74.5 q62.5 37.5 136.5 76.5 l127 0 l-108 -508 q-23 -99 -36.5 -158.5 q-13.5 -59.5 -13.5 -85.5 q0 -86 82 -86 q31 0 54 10.5 q23 10.5 42.5 33 q19.5 22.5 37 56.5 q17.5 34 38.5 81 l86 0 Z" /><glyph glyph-name="afii10094" unicode="&#x44c;" d="M141 1024 l295 0 l-69 -332 q36 15 64.5 23 q28.5 8 52.5 12 q24 4 45 5 q21 1 42 1 q61 0 110.5 -18.5 q49.5 -18.5 83.5 -53 q34 -34.5 52.5 -85.5 q18.5 -51 18.5 -115 q0 -43 -13 -95 q-13 -52 -40.5 -104.5 q-27.5 -52.5 -70.5 -101.5 q-43 -49 -103 -87.5 q-60 -38.5 -138 -61.5 q-78 -23 -176 -23 q-71 0 -128 18 q-57 18 -96.5 51.5 q-39.5 33.5 -61 82 q-21.5 48.5 -21.5 110.5 q0 29 3 58.5 q3 29.5 11 58.5 l139 657 ZM285 303 q-5 -12 -5.5 -29 q-0.5 -17 -0.5 -28 q0 -84 88 -84 q40 0 76 27.5 q36 27.5 63.5 70 q27.5 42.5 44 93 q16.5 50.5 16.5 96.5 q0 60 -27.5 96.5 q-27.5 36.5 -82.5 36.5 q-11 0 -28 -3.5 q-17 -3.5 -34.5 -8.5 q-17.5 -5 -33.5 -11.5 q-16 -6.5 -25 -13.5 l-51 -242 Z" /><glyph glyph-name="afii10095" unicode="&#x44d;" d="M215 492 l27 122 l245 0 q2 20 3.5 39 q1.5 19 1.5 39 q0 52 -10 86.5 q-10 34.5 -31 54.5 q-21 20 -52.5 28.5 q-31.5 8.5 -74.5 8.5 q-62 0 -106 -33.5 q-44 -33.5 -81 -99.5 l-104 0 q28 68 64.5 124 q36.5 56 86 96.5 q49.5 40.5 116.5 62.5 q67 22 157 22 q77 0 139.5 -20 q62.5 -20 106.5 -61 q44 -41 68 -104 q24 -63 24 -150 q0 -56 -14 -131.5 q-14 -75.5 -44 -155.5 q-30 -80 -77.5 -157.5 q-47.5 -77.5 -113 -138.5 q-65.5 -61 -151 -98.5 q-85.5 -37.5 -192.5 -37.5 q-142 0 -210.5 58.5 q-68.5 58.5 -68.5 158.5 q0 43 9.5 75 q9.5 32 26 53.5 q16.5 21.5 38 32.5 q21.5 11 45.5 11 q17 0 36.5 -5 q19.5 -5 39.5 -24 q-14 -37 -20.5 -72 q-6.5 -35 -6.5 -67 q0 -113 113 -113 q44 0 84.5 33 q40.5 33 74.5 88 q34 55 61 126.5 q27 71.5 44 148.5 l-254 0 Z" /><glyph glyph-name="afii10096" unicode="&#x44e;" d="M1634 778 q-60 -63 -155 -107 q-95 -44 -207 -63 q-12 -142 -55 -256 q-43 -114 -108 -194 q-65 -80 -149 -123 q-84 -43 -178 -43 q-71 0 -131 17.5 q-60 17.5 -103.5 56 q-43.5 38.5 -68 100 q-24.5 61.5 -24.5 149.5 q0 78 18 177 l-154 0 l-102 -492 l-295 0 l217 1024 l295 0 l-86 -410 l160 0 q27 80 71 157 q44 77 106.5 137 q62.5 60 144.5 97 q82 37 186 37 q262 0 262 -327 l0 -2 q5 -2 9.5 -2 q4.5 0 12.5 0 q36 0 77.5 10.5 q41.5 10.5 83.5 27.5 q42 17 82 39.5 q40 22.5 73 45.5 l18 -56 ZM1102 602 q-32 8 -43.5 31.5 q-11.5 23.5 -11.5 54.5 q0 43 17 70.5 q17 27.5 46 40.5 q-2 33 -7 55.5 q-5 22.5 -14 37 q-9 14.5 -22.5 20.5 q-13.5 6 -34.5 6 q-36 0 -70.5 -28.5 q-34.5 -28.5 -64.5 -75.5 q-30 -47 -55.5 -107.5 q-25.5 -60.5 -43.5 -124.5 q-18 -64 -28 -126.5 q-10 -62.5 -10 -113.5 q0 -51 5.5 -83 q5.5 -32 17.5 -50.5 q12 -18.5 32 -25.5 q20 -7 49 -7 q38 0 75 33 q37 33 69.5 90 q32.5 57 57 135 q24.5 78 36.5 168 Z" /><glyph glyph-name="afii10097" unicode="&#x44f;" d="M1165 367 q-129 -379 -381 -379 q-62 0 -107.5 18 q-45.5 18 -75 48 q-29.5 30 -44 69.5 q-14.5 39.5 -14.5 81.5 q0 12 1 28 q1 16 5 41.5 q4 25.5 11.5 64 q7.5 38.5 19.5 95.5 q-56 -12 -115 -12 q-25 -105 -50 -185.5 q-25 -80.5 -59.5 -136 q-34.5 -55.5 -83 -84 q-48.5 -28.5 -120.5 -28.5 q-58 0 -101 19 q-43 19 -71.5 50.5 q-28.5 31.5 -43 73.5 q-14.5 42 -14.5 88 q0 72 33.5 118 q33.5 46 93.5 46 q48 0 77.5 -29.5 q29.5 -29.5 29.5 -77.5 q0 -50 -25 -74.5 q-25 -24.5 -57 -19.5 q1 -11 5 -22.5 q4 -11.5 13 -21 q9 -9.5 24 -15.5 q15 -6 38 -6 q36 0 61.5 22 q25.5 22 45 63 q19.5 41 35.5 99 q16 58 32 131 q-43 9 -79 28 q-36 19 -61.5 48 q-25.5 29 -40 69 q-14.5 40 -14.5 93 q0 71 27 135.5 q27 64.5 89.5 113 q62.5 48.5 166 77 q103.5 28.5 256.5 28.5 l311 0 l-109 -508 q-23 -99 -36 -158.5 q-13 -59.5 -13 -85.5 q0 -86 82 -86 q31 0 54 10.5 q23 10.5 42.5 33 q19.5 22.5 37 56.5 q17.5 34 38.5 81 l86 0 ZM684 913 l-49 0 q-61 0 -106.5 -17.5 q-45.5 -17.5 -76 -49 q-30.5 -31.5 -46 -75 q-15.5 -43.5 -15.5 -95.5 q0 -45 11.5 -75.5 q11.5 -30.5 31.5 -49 q20 -18.5 47 -26 q27 -7.5 58 -7.5 q18 0 32.5 -0.5 q14.5 -0.5 26.5 4.5 l86 391 Z" /><glyph glyph-name="afii61352" unicode="&#x2116;" d="M1683 702 q-44 0 -81 11 q-37 11 -64 35 q-27 24 -42 62.5 q-15 38.5 -15 92.5 q0 37 7.5 84.5 q7.5 47.5 24.5 97.5 q17 50 43.5 98 q26.5 48 65 85.5 q38.5 37.5 89.5 60.5 q51 23 116 23 q172 0 172 -203 q0 -101 -25.5 -183.5 q-25.5 -82.5 -69 -141 q-43.5 -58.5 -100.5 -90.5 q-57 -32 -121 -32 ZM1382 455 l37 161 l533 0 l-35 -161 l-535 0 ZM1733 815 q28 0 55.5 29 q27.5 29 49 78 q21.5 49 35 113.5 q13.5 64.5 13.5 135.5 q0 51 -10 77 q-10 26 -39 26 q-23 0 -44 -17.5 q-21 -17.5 -39.5 -47 q-18.5 -29.5 -34 -67 q-15.5 -37.5 -27 -76.5 q-11.5 -39 -17.5 -77.5 q-6 -38.5 -6 -68.5 q0 -56 14.5 -80.5 q14.5 -24.5 49.5 -24.5 ZM1474 1532 l-334 -1532 l-283 0 l-237 1016 l-234 -1016 l-194 0 l308 1403 q-142 -50 -213 -155 q-71 -105 -71 -255 q0 -66 14.5 -120.5 q14.5 -54.5 40.5 -88.5 q-131 0 -193.5 53.5 q-62.5 53.5 -62.5 168.5 q0 73 22.5 141 q22.5 68 63 128 q40.5 60 97.5 109.5 q57 49.5 126 85 q69 35.5 148 55 q79 19.5 165 19.5 q48 0 83.5 -6.5 q35.5 -6.5 78.5 -21.5 l247 -1096 l229 1112 l199 0 Z" /><glyph glyph-name="afii10071" unicode="&#x451;" d="M856 367 q-43 -72 -98.5 -140 q-55.5 -68 -125 -121 q-69.5 -53 -154 -85.5 q-84.5 -32.5 -185.5 -32.5 q-73 0 -132 18.5 q-59 18.5 -101 57.5 q-42 39 -64.5 100.5 q-22.5 61.5 -22.5 148.5 q0 59 12 136 q12 77 38 158 q26 81 69 159 q43 78 104 139.5 q61 61.5 143 99 q82 37.5 187 37.5 q69 0 112.5 -16.5 q43.5 -16.5 69 -43.5 q25.5 -27 35 -62.5 q9.5 -35.5 9.5 -73.5 q0 -89 -39 -165.5 q-39 -76.5 -104.5 -133.5 q-65.5 -57 -150.5 -92 q-85 -35 -177 -41 q-2 -23 -3.5 -43.5 q-1.5 -20.5 -1.5 -38.5 q0 -52 9.5 -85.5 q9.5 -33.5 28 -52.5 q18.5 -19 46 -26.5 q27.5 -7.5 64.5 -7.5 q61 0 110.5 16 q49.5 16 92.5 44 q43 28 81.5 66 q38.5 38 77.5 81 l70 0 ZM297 512 q58 4 112 33 q54 29 95 75.5 q41 46.5 65.5 106 q24.5 59.5 24.5 123.5 q0 38 -11 61 q-11 23 -40 23 q-39 0 -76.5 -37.5 q-37.5 -37.5 -70.5 -97.5 q-33 -60 -58.5 -135.5 q-25.5 -75.5 -40.5 -151.5 ZM862 1298 q0 -27 -10 -49.5 q-10 -22.5 -27 -39 q-17 -16.5 -40 -26 q-23 -9.5 -48 -9.5 q-27 0 -49.5 9.5 q-22.5 9.5 -39.5 26 q-17 16.5 -26.5 39 q-9.5 22.5 -9.5 49.5 q0 25 9.5 48 q9.5 23 26.5 40 q17 17 39.5 27 q22.5 10 49.5 10 q25 0 48 -10 q23 -10 40 -27 q17 -17 27 -40 q10 -23 10 -48 ZM494 1298 q0 -27 -10 -49.5 q-10 -22.5 -27.5 -39 q-17.5 -16.5 -40 -26 q-22.5 -9.5 -47.5 -9.5 q-27 0 -50 9.5 q-23 9.5 -39.5 26 q-16.5 16.5 -26 39 q-9.5 22.5 -9.5 49.5 q0 25 9.5 48 q9.5 23 26 40 q16.5 17 39.5 27 q23 10 50 10 q25 0 47.5 -10 q22.5 -10 40 -27 q17.5 -17 27.5 -40 q10 -23 10 -48 Z" /><glyph glyph-name="afii10099" unicode="&#x452;" d="M676 -164 q-25 -110 -63 -178 q-38 -68 -84 -106 q-46 -38 -97 -51 q-51 -13 -102 -13 q-47 0 -88.5 12.5 q-41.5 12.5 -73 37 q-31.5 24.5 -50 62 q-18.5 37.5 -18.5 87.5 q0 67 31 118 q31 51 79.5 88.5 q48.5 37.5 108.5 63 q60 25.5 117 41.5 q29 131 49.5 224 q20.5 93 34 157 q13.5 64 22 103.5 q8.5 39.5 12.5 62.5 q4 23 5.5 34.5 q1.5 11.5 1.5 20.5 q0 105 -74 105 q-27 0 -52.5 -15 q-25.5 -15 -47 -40.5 q-21.5 -25.5 -37.5 -60 q-16 -34.5 -24 -73.5 l-109 -516 l-295 0 l217 1024 l-110 0 l22 111 l113 0 l55 258 l303 41 l-63 -299 l256 0 l-25 -111 l-256 0 l-53 -248 q33 37 66 59.5 q33 22.5 64 35 q31 12.5 59.5 16.5 q28.5 4 52.5 4 q49 0 90.5 -13 q41.5 -13 72 -41.5 q30.5 -28.5 47.5 -72.5 q17 -44 17 -105 q0 -14 -1.5 -30 q-1.5 -16 -6 -42 q-4.5 -26 -12.5 -65.5 q-8 -39.5 -21.5 -100 q-13.5 -60.5 -32.5 -145.5 q-19 -85 -45 -202 q48 16 89 38.5 q41 22.5 75 57 q34 34.5 61.5 82.5 q27.5 48 49.5 115 l86 0 q-31 -102 -75.5 -170.5 q-44.5 -68.5 -96 -111.5 q-51.5 -43 -106 -66 q-54.5 -23 -105.5 -35 l-33 -148 ZM401 -170 q4 20 7 36 q3 16 8 30 q-39 -15 -76 -32.5 q-37 -17.5 -65 -39.5 q-28 -22 -45 -49 q-17 -27 -17 -60 q0 -11 4.5 -23 q4.5 -12 13 -22 q8.5 -10 21.5 -16 q13 -6 31 -6 q32 0 65 44.5 q33 44.5 53 137.5 Z" /><glyph glyph-name="afii10100" unicode="&#x453;" d="M838 367 q-49 -78 -106.5 -147 q-57.5 -69 -126.5 -120.5 q-69 -51.5 -151 -81.5 q-82 -30 -180 -30 q-73 0 -131.5 13.5 q-58.5 13.5 -100 41.5 q-41.5 28 -63.5 71.5 q-22 43.5 -22 104.5 q0 57 18.5 101.5 q18.5 44.5 49 79.5 q30.5 35 69.5 63.5 q39 28.5 80 54 q41 25.5 80 50.5 q39 25 69.5 53.5 q30.5 28.5 49 62 q18.5 33.5 18.5 76.5 q0 45 -23 70.5 q-23 25.5 -71 25.5 q-66 0 -120 -50.5 q-54 -50.5 -101 -162.5 l-99 0 q31 88 70.5 161 q39.5 73 93 126 q53.5 53 123 82.5 q69.5 29.5 160.5 29.5 q54 0 104 -13 q50 -13 88.5 -41 q38.5 -28 61 -72 q22.5 -44 22.5 -105 q0 -84 -32 -143.5 q-32 -59.5 -80 -103.5 q-48 -44 -104 -78 q-56 -34 -104 -66 q-48 -32 -80 -68 q-32 -36 -32 -84 q0 -60 40 -84 q40 -24 106 -24 q45 0 87.5 10.5 q42.5 10.5 85.5 35 q43 24.5 87.5 64 q44.5 39.5 93.5 97.5 l70 0 ZM399 1149 l187 387 l215 0 l-248 -387 l-154 0 Z" /><glyph glyph-name="afii10101" unicode="&#x454;" d="M856 367 q-43 -72 -98.5 -140 q-55.5 -68 -125 -121 q-69.5 -53 -154 -85.5 q-84.5 -32.5 -185.5 -32.5 q-73 0 -132 18.5 q-59 18.5 -101 57.5 q-42 39 -64.5 100.5 q-22.5 61.5 -22.5 148.5 q0 59 12 136.5 q12 77.5 38.5 158.5 q26.5 81 69 159 q42.5 78 104 139 q61.5 61 142.5 98.5 q81 37.5 185 37.5 q68 0 112 -16.5 q44 -16.5 70 -43 q26 -26.5 36 -60.5 q10 -34 10 -68 q0 -38 -8.5 -65.5 q-8.5 -27.5 -23.5 -46.5 q-15 -19 -35 -28 q-20 -9 -42 -9 q-35 0 -72 24 q25 66 25 121 q0 38 -14 61 q-14 23 -43 23 q-31 0 -61.5 -26.5 q-30.5 -26.5 -58.5 -70.5 q-28 -44 -52.5 -102 q-24.5 -58 -42.5 -121 l243 0 l-26 -122 l-248 0 q-8 -44 -12.5 -84.5 q-4.5 -40.5 -4.5 -75.5 q0 -52 9.5 -85.5 q9.5 -33.5 28 -52.5 q18.5 -19 46 -26.5 q27.5 -7.5 64.5 -7.5 q61 0 110.5 16 q49.5 16 92.5 44 q43 28 81.5 66 q38.5 38 77.5 81 l70 0 Z" /><glyph glyph-name="afii10102" unicode="&#x455;" d="M868 367 q-80 -93 -160.5 -153.5 q-80.5 -60.5 -152.5 -102.5 q-32 -34 -71.5 -57.5 q-39.5 -23.5 -82 -38 q-42.5 -14.5 -86 -21 q-43.5 -6.5 -82.5 -6.5 q-77 0 -133.5 23.5 q-56.5 23.5 -93.5 61 q-37 37.5 -54.5 84 q-17.5 46.5 -17.5 93.5 q0 36 9.5 66.5 q9.5 30.5 24.5 54.5 q15 24 34.5 41.5 q19.5 17.5 40.5 27.5 q86 154 145 304.5 q59 150.5 107 302.5 l303 40 q6 -133 11.5 -230.5 q5.5 -97.5 10.5 -169 q5 -71.5 9 -121.5 q4 -50 7.5 -88.5 q3.5 -38.5 5 -70 q1.5 -31.5 1.5 -65.5 q0 -23 -1.5 -42 q-1.5 -19 -6.5 -36 q45 26 81.5 51.5 q36.5 25.5 65.5 51.5 l86 0 ZM43 293 q0 -72 28.5 -107.5 q28.5 -35.5 96.5 -35.5 q34 0 66 9.5 q32 9.5 57 32 q25 22.5 40 58.5 q15 36 15 90 q0 26 -1.5 50.5 q-1.5 24.5 -3.5 52 q-2 27.5 -5.5 61.5 q-3.5 34 -8 79 q-4.5 45 -9.5 104 q-5 59 -11 138 q-31 -100 -73 -194 q-42 -94 -93 -193 q20 -11 33.5 -28 q13.5 -17 13.5 -43 q0 -19 -6 -37 q-6 -18 -18 -32.5 q-12 -14.5 -28.5 -23 q-16.5 -8.5 -37.5 -8.5 q-17 0 -32 5 q-15 5 -23 22 Z" /><glyph glyph-name="afii10103" unicode="&#x456;" d="M506 1296 q0 -34 -13 -63.5 q-13 -29.5 -35.5 -51 q-22.5 -21.5 -52 -34 q-29.5 -12.5 -63.5 -12.5 q-34 0 -63.5 12.5 q-29.5 12.5 -51.5 34 q-22 21.5 -34.5 51 q-12.5 29.5 -12.5 63.5 q0 34 12.5 63.5 q12.5 29.5 34.5 52 q22 22.5 51.5 35.5 q29.5 13 63.5 13 q34 0 63.5 -13 q29.5 -13 52 -35.5 q22.5 -22.5 35.5 -52 q13 -29.5 13 -63.5 ZM633 367 q-29 -83 -64.5 -144 q-35.5 -61 -74 -103 q-38.5 -42 -79 -68 q-40.5 -26 -78.5 -40 q-38 -14 -72.5 -19 q-34.5 -5 -61.5 -5 q-46 0 -86 14 q-40 14 -69.5 44 q-29.5 30 -46.5 76 q-17 46 -17 111 q0 28 4 61.5 q4 33.5 12 72.5 l139 657 l295 0 l-147 -696 q-5 -17 -6.5 -33.5 q-1.5 -16.5 -1.5 -32.5 q0 -43 20 -59.5 q20 -16.5 63 -16.5 q30 0 58.5 13.5 q28.5 13.5 52.5 37.5 q24 24 43 57.5 q19 33.5 31 72.5 l86 0 Z" /><glyph glyph-name="afii10104" unicode="&#x457;" d="M633 367 q-29 -83 -64.5 -144 q-35.5 -61 -74 -103 q-38.5 -42 -79 -68 q-40.5 -26 -78.5 -40 q-38 -14 -72.5 -19 q-34.5 -5 -61.5 -5 q-46 0 -86 14 q-40 14 -69.5 44 q-29.5 30 -46.5 76 q-17 46 -17 111 q0 28 4 61.5 q4 33.5 12 72.5 l139 657 l295 0 l-147 -696 q-5 -17 -6.5 -33.5 q-1.5 -16.5 -1.5 -32.5 q0 -43 20 -59.5 q20 -16.5 63 -16.5 q30 0 58.5 13.5 q28.5 13.5 52.5 37.5 q24 24 43 57.5 q19 33.5 31 72.5 l86 0 ZM283 1298 q0 -27 -10 -49.5 q-10 -22.5 -27.5 -39 q-17.5 -16.5 -40 -26 q-22.5 -9.5 -47.5 -9.5 q-27 0 -50 9.5 q-23 9.5 -39.5 26 q-16.5 16.5 -26 39 q-9.5 22.5 -9.5 49.5 q0 25 9.5 48 q9.5 23 26 40 q16.5 17 39.5 27 q23 10 50 10 q25 0 47.5 -10 q22.5 -10 40 -27 q17.5 -17 27.5 -40 q10 -23 10 -48 ZM651 1298 q0 -27 -10 -49.5 q-10 -22.5 -27 -39 q-17 -16.5 -40 -26 q-23 -9.5 -48 -9.5 q-27 0 -49.5 9.5 q-22.5 9.5 -39.5 26 q-17 16.5 -26.5 39 q-9.5 22.5 -9.5 49.5 q0 25 9.5 48 q9.5 23 26.5 40 q17 17 39.5 27 q22.5 10 49.5 10 q25 0 48 -10 q23 -10 40 -27 q17 -17 27 -40 q10 -23 10 -48 Z" /><glyph glyph-name="afii10105" unicode="&#x458;" d="M184 -164 q-22 -110 -63.5 -178 q-41.5 -68 -92 -106 q-50.5 -38 -106 -51 q-55.5 -13 -106.5 -13 q-47 0 -88.5 12.5 q-41.5 12.5 -73 37 q-31.5 24.5 -50 62 q-18.5 37.5 -18.5 87.5 q0 64 30.5 112.5 q30.5 48.5 79 85.5 q48.5 37 108.5 63 q60 26 118 44 l219 1032 l295 0 l-203 -950 q47 16 85 38.5 q38 22.5 69.5 57 q31.5 34.5 57 82.5 q25.5 48 47.5 115 l86 0 q-31 -102 -73.5 -170 q-42.5 -68 -91 -111.5 q-48.5 -43.5 -99.5 -66.5 q-51 -23 -99 -35 l-31 -148 ZM489 1298 q0 -34 -13 -63.5 q-13 -29.5 -35 -51 q-22 -21.5 -51.5 -34 q-29.5 -12.5 -63.5 -12.5 q-34 0 -63.5 12.5 q-29.5 12.5 -51.5 34 q-22 21.5 -34.5 51 q-12.5 29.5 -12.5 63.5 q0 34 12.5 64 q12.5 30 34.5 52 q22 22 51.5 35 q29.5 13 63.5 13 q34 0 63.5 -13 q29.5 -13 51.5 -35 q22 -22 35 -52 q13 -30 13 -64 ZM-100 -111 q-40 -15 -76.5 -32.5 q-36.5 -17.5 -64 -38.5 q-27.5 -21 -44 -46.5 q-16.5 -25.5 -16.5 -56.5 q0 -11 4 -23 q4 -12 13 -22 q9 -10 22 -16 q13 -6 31 -6 q32 0 65 44.5 q33 44.5 53 137.5 l13 59 Z" /><glyph glyph-name="afii10106" unicode="&#x459;" d="M741 889 q-54 0 -92 -22 q-38 -22 -67.5 -69.5 q-29.5 -47.5 -52.5 -122 q-23 -74.5 -46 -179.5 q-26 -122 -49.5 -217 q-23.5 -95 -59 -159.5 q-35.5 -64.5 -89 -98 q-53.5 -33.5 -138.5 -33.5 q-60 0 -102.5 20 q-42.5 20 -69.5 52.5 q-27 32.5 -40 74 q-13 41.5 -13 84.5 q0 72 33.5 118 q33.5 46 93.5 46 q48 0 77.5 -29.5 q29.5 -29.5 29.5 -77.5 q0 -50 -25 -74.5 q-25 -24.5 -57 -19.5 q1 -11 4.5 -22.5 q3.5 -11.5 12.5 -21 q9 -9.5 24 -15.5 q15 -6 39 -6 q50 0 81 33 q31 33 51 88 q20 55 34.5 127.5 q14.5 72.5 31.5 150.5 q33 160 72.5 259 q39.5 99 88 154.5 q48.5 55.5 106 75 q57.5 19.5 126.5 19.5 l302 0 l-72 -332 q36 15 64.5 23 q28.5 8 53 12 q24.5 4 45.5 5 q21 1 42 1 q123 0 193.5 -71 q70.5 -71 70.5 -201 q0 -43 -12.5 -95 q-12.5 -52 -39.5 -104.5 q-27 -52.5 -69 -101.5 q-42 -49 -101 -87.5 q-59 -38.5 -136 -61.5 q-77 -23 -173 -23 q-70 0 -125.5 18 q-55.5 18 -94.5 51.5 q-39 33.5 -60 82 q-21 48.5 -21 110.5 q0 29 3.5 58.5 q3.5 29.5 11.5 58.5 l114 522 ZM893 303 q-5 -12 -5.5 -29 q-0.5 -17 -0.5 -28 q0 -84 88 -84 q40 0 76 27.5 q36 27.5 64 70 q28 42.5 44.5 93 q16.5 50.5 16.5 96.5 q0 60 -27.5 96.5 q-27.5 36.5 -83.5 36.5 q-11 0 -27.5 -3.5 q-16.5 -3.5 -34.5 -8.5 q-18 -5 -34 -11.5 q-16 -6.5 -25 -13.5 l-51 -242 Z" /><glyph glyph-name="afii10107" unicode="&#x45a;" d="M-78 0 l217 1024 l295 0 l-88 -410 l232 0 l90 410 l274 0 l-72 -332 q36 15 65 23 q29 8 53 12 q24 4 45 5 q21 1 42 1 q124 0 194 -71 q70 -71 70 -201 q0 -43 -12.5 -95 q-12.5 -52 -39.5 -104.5 q-27 -52.5 -69 -101.5 q-42 -49 -100.5 -87.5 q-58.5 -38.5 -135.5 -61.5 q-77 -23 -173 -23 q-70 0 -125.5 18 q-55.5 18 -94.5 51.5 q-39 33.5 -60 82 q-21 48.5 -21 110.5 q0 29 3 58.5 q3 29.5 11 58.5 l27 125 l-227 0 l-105 -492 l-295 0 ZM788 303 q-5 -12 -5.5 -29 q-0.5 -17 -0.5 -28 q0 -84 88 -84 q40 0 76.5 27.5 q36.5 27.5 64 70 q27.5 42.5 44 93 q16.5 50.5 16.5 96.5 q0 60 -27.5 96.5 q-27.5 36.5 -82.5 36.5 q-11 0 -28 -3.5 q-17 -3.5 -34.5 -8.5 q-17.5 -5 -33.5 -11.5 q-16 -6.5 -25 -13.5 l-52 -242 Z" /><glyph glyph-name="afii10108" unicode="&#x45b;" d="M1120 367 q-43 -126 -92.5 -201 q-49.5 -75 -100 -114.5 q-50.5 -39.5 -99 -51.5 q-48.5 -12 -89.5 -12 q-68 0 -114 19.5 q-46 19.5 -74 52 q-28 32.5 -40.5 74 q-12.5 41.5 -12.5 85.5 q0 45 10 97.5 q10 52.5 21.5 104.5 q11.5 52 21.5 98.5 q10 46.5 10 80.5 q0 105 -74 105 q-27 0 -52.5 -15 q-25.5 -15 -47 -40.5 q-21.5 -25.5 -37.5 -60 q-16 -34.5 -24 -73.5 l-109 -516 l-295 0 l217 1024 l-110 0 l22 111 l113 0 l55 258 l303 41 l-63 -299 l256 0 l-25 -111 l-256 0 l-53 -248 q33 37 66 59.5 q33 22.5 64 35 q31 12.5 59.5 16.5 q28.5 4 52.5 4 q49 0 90.5 -13 q41.5 -13 72 -41.5 q30.5 -28.5 47.5 -72.5 q17 -44 17 -105 q0 -47 -11 -98.5 q-11 -51.5 -24 -102.5 q-13 -51 -24 -99 q-11 -48 -11 -87 q0 -38 17.5 -62 q17.5 -24 64.5 -24 q33 0 58 13 q25 13 45 37 q20 24 36.5 57.5 q16.5 33.5 32.5 73.5 l86 0 Z" /><glyph glyph-name="afii10109" unicode="&#x45c;" d="M1112 367 q-129 -379 -373 -379 q-125 0 -186 61.5 q-61 61.5 -61 165.5 q0 25 3.5 52 q3.5 27 8 53 q4.5 26 8.5 49 q4 23 4 41 q0 98 -78 98 q-15 0 -28 -4.5 q-13 -4.5 -28 -14 q-15 -9.5 -33 -24 q-18 -14.5 -42 -33.5 l-90 -432 l-295 0 l219 1024 l295 0 l-88 -406 q73 73 128 132.5 q55 59.5 98.5 106.5 q43.5 47 78.5 82 q35 35 67.5 58 q32.5 23 66 34 q33.5 11 73.5 11 q72 0 106.5 -39 q34.5 -39 34.5 -96 q0 -62 -33.5 -97.5 q-33.5 -35.5 -95.5 -35.5 q-30 0 -52 9.5 q-22 9.5 -35.5 25 q-13.5 15.5 -19.5 34 q-6 18.5 -5 36.5 q-35 -21 -65 -48 q-30 -27 -58.5 -57.5 q-28.5 -30.5 -57.5 -63.5 q-29 -33 -61 -65 q23 5 45.5 6.5 q22.5 1.5 40.5 1.5 q55 0 92.5 -12.5 q37.5 -12.5 60.5 -36.5 q23 -24 32.5 -59.5 q9.5 -35.5 9.5 -81.5 q0 -24 -4 -48.5 q-4 -24.5 -8.5 -49 q-4.5 -24.5 -8.5 -50.5 q-4 -26 -4 -53 q0 -76 82 -76 q31 0 53.5 10.5 q22.5 10.5 41.5 33 q19 22.5 36.5 56.5 q17.5 34 38.5 81 l86 0 ZM475 1149 l187 387 l215 0 l-248 -387 l-154 0 Z" /><glyph glyph-name="section" unicode="" d="M799 272 q0 -88 -30 -159 q-30 -71 -87 -120.5 q-57 -49.5 -140 -76.5 q-83 -27 -188 -27 q-30 0 -67 3.5 q-37 3.5 -74.5 13 q-37.5 9.5 -73 28 q-35.5 18.5 -63 48 q-27.5 29.5 -44 73 q-16.5 43.5 -16.5 103.5 q0 56 15 102.5 q15 46.5 41 79.5 q26 33 62.5 51.5 q36.5 18.5 78.5 18.5 q31 0 55 -9.5 q24 -9.5 43.5 -24.5 q19.5 -15 35 -33 q15.5 -18 28.5 -36 q-46 -4 -78 -14 q-32 -10 -51.5 -28.5 q-19.5 -18.5 -28 -46 q-8.5 -27.5 -8.5 -66.5 q0 -80 38 -120 q38 -40 130 -40 q75 0 119.5 47 q44.5 47 44.5 151 q0 63 -16 112 q-16 49 -42 89.5 q-26 40.5 -59 73.5 q-33 33 -67.5 63.5 q-34.5 30.5 -67.5 60.5 q-33 30 -59 64 q-26 34 -42 73 q-16 39 -16 89 q0 49 16 92.5 q16 43.5 44.5 79.5 q28.5 36 67.5 63.5 q39 27.5 85 45.5 q-5 23 -7.5 44.5 q-2.5 21.5 -2.5 41.5 q0 91 38.5 158 q38.5 67 100.5 110.5 q62 43.5 139.5 64.5 q77.5 21 155.5 21 q19 0 46 -2 q27 -2 56.5 -8.5 q29.5 -6.5 59 -19 q29.5 -12.5 52.5 -34.5 q23 -22 37.5 -54 q14.5 -32 14.5 -77 q0 -36 -9.5 -66.5 q-9.5 -30.5 -26.5 -52 q-17 -21.5 -42.5 -34 q-25.5 -12.5 -56.5 -12.5 q-19 0 -38 6 q-19 6 -38 26 q35 20 54.5 60 q19.5 40 19.5 82 q0 21 -6.5 41 q-6.5 20 -21 35.5 q-14.5 15.5 -36 24.5 q-21.5 9 -51.5 9 q-41 0 -76.5 -18 q-35.5 -18 -61 -48.5 q-25.5 -30.5 -40 -70 q-14.5 -39.5 -14.5 -82.5 q0 -64 30 -111 q30 -47 75 -88 q45 -41 97.5 -80 q52.5 -39 97.5 -87 q45 -48 75 -109 q30 -61 30 -145 q0 -59 -15.5 -115.5 q-15.5 -56.5 -45.5 -103 q-30 -46.5 -74.5 -79 q-44.5 -32.5 -101.5 -44.5 l0 -7 ZM786 375 q39 48 39 129 q0 59 -21 105.5 q-21 46.5 -55 85.5 q-34 39 -77 73.5 q-43 34.5 -87 69.5 q-44 35 -85.5 72.5 q-41.5 37.5 -71.5 84.5 q-17 -11 -28 -26.5 q-11 -15.5 -11 -44.5 q0 -43 25 -80 q25 -37 63.5 -74 q38.5 -37 85.5 -76.5 q47 -39.5 91 -86.5 q44 -47 80 -103.5 q36 -56.5 52 -128.5 Z" /><glyph glyph-name="afii10110" unicode="&#x45e;" d="M688 -164 q-22 -110 -63.5 -178 q-41.5 -68 -92.5 -106 q-51 -38 -106.5 -51 q-55.5 -13 -106.5 -13 q-47 0 -88.5 12.5 q-41.5 12.5 -72.5 37 q-31 24.5 -49.5 62 q-18.5 37.5 -18.5 87.5 q0 64 30.5 113 q30.5 49 78.5 85.5 q48 36.5 107.5 62.5 q59.5 26 117.5 44 l25 110 q-33 -36 -66 -58.5 q-33 -22.5 -64 -34.5 q-31 -12 -60 -16.5 q-29 -4.5 -56 -4.5 q-46 0 -86 14 q-40 14 -69.5 44 q-29.5 30 -46.5 76 q-17 46 -17 111 q0 28 4 61.5 q4 33.5 12 72.5 l139 657 l295 0 l-147 -696 q-6 -26 -6 -52 q0 -18 3 -34 q3 -16 10 -28.5 q7 -12.5 18.5 -20 q11.5 -7.5 29.5 -7.5 q28 0 53.5 12.5 q25.5 12.5 46.5 35 q21 22.5 36 53 q15 30.5 24 67.5 l143 670 l295 0 l-203 -950 q47 16 85 38.5 q38 22.5 69.5 57 q31.5 34.5 57 82.5 q25.5 48 46.5 115 l86 0 q-31 -102 -73.5 -170 q-42.5 -68 -90.5 -111.5 q-48 -43.5 -99 -66.5 q-51 -23 -99 -35 l-31 -148 ZM965 1473 q-35 -102 -80 -169 q-45 -67 -99 -107 q-54 -40 -118 -56.5 q-64 -16.5 -136 -16.5 q-128 0 -197 47.5 q-69 47.5 -69 128.5 q0 67 37 108.5 q37 41.5 100 41.5 q60 0 93.5 -28.5 q33.5 -28.5 33.5 -82.5 q0 -6 -1 -17.5 q-1 -11.5 -6 -25.5 q-5 -14 -14.5 -28.5 q-9.5 -14.5 -27.5 -26.5 q16 -5 36 -6.5 q20 -1.5 46 -1.5 q43 0 87.5 11 q44.5 11 86.5 38.5 q42 27.5 78.5 74 q36.5 46.5 63.5 116.5 l86 0 ZM403 -111 q-40 -15 -76 -32.5 q-36 -17.5 -63.5 -38.5 q-27.5 -21 -44 -46.5 q-16.5 -25.5 -16.5 -56.5 q0 -11 4 -23 q4 -12 12.5 -22 q8.5 -10 21.5 -16 q13 -6 31 -6 q32 0 65.5 44.5 q33.5 44.5 53.5 137.5 l12 59 Z" /><glyph glyph-name="afii10193" unicode="&#x45f;" d="M1120 367 q-29 -83 -63 -144 q-34 -61 -70.5 -103 q-36.5 -42 -74.5 -68 q-38 -26 -74 -40 q-36 -14 -69 -19 q-33 -5 -60 -5 q-88 0 -140 48.5 q-52 48.5 -63 145.5 q-39 -63 -79 -101 q-40 -38 -79 -59 q-39 -21 -76 -27.5 q-37 -6.5 -69 -6.5 q-46 0 -86 14 q-40 14 -69.5 44 q-29.5 30 -46.5 76 q-17 46 -17 111 q0 28 4 61.5 q4 33.5 12 72.5 l139 657 l295 0 l-147 -696 q-6 -32 -6 -58 q0 -35 13 -59.5 q13 -24.5 48 -24.5 q30 0 55 13.5 q25 13.5 45.5 37.5 q20.5 24 36 57.5 q15.5 33.5 27.5 72.5 l139 657 l295 0 l-147 -696 q-5 -17 -7 -33.5 q-2 -16.5 -2 -32.5 q0 -43 20.5 -59.5 q20.5 -16.5 63.5 -16.5 q30 0 55.5 13.5 q25.5 13.5 46.5 37.5 q21 24 37 57.5 q16 33.5 27 72.5 l86 0 ZM381 -512 q12 12 19.5 30.5 q7.5 18.5 7.5 32.5 q0 30 -15.5 51 q-15.5 21 -34 43.5 q-18.5 22.5 -34 51.5 q-15.5 29 -15.5 74 q0 120 109 229 l104 0 q-12 -12 -19 -29.5 q-7 -17.5 -7 -31.5 q0 -26 15.5 -48 q15.5 -22 34.5 -47.5 q19 -25.5 34.5 -57.5 q15.5 -32 15.5 -77 q-2 -57 -32.5 -113.5 q-30.5 -56.5 -78.5 -107.5 l-104 0 Z" /><glyph glyph-name="AE" unicode="" d="M801 0 l157 743 q-78 36 -144 52.5 q-66 16.5 -132 21.5 q-57 -125 -105.5 -256 q-48.5 -131 -83.5 -255 q-35 -124 -55 -233 q-20 -109 -20 -190 q0 -39 4.5 -59.5 q4.5 -20.5 9.5 -30.5 q5 -10 9.5 -14 q4.5 -4 4.5 -10 q-53 2 -102.5 7.5 q-49.5 5.5 -87.5 27.5 q-38 22 -61 67.5 q-23 45.5 -23 126.5 q0 65 21.5 157.5 q21.5 92.5 61.5 200.5 q40 108 95 226 q55 118 123 235 q-92 -6 -154.5 -28.5 q-62.5 -22.5 -85.5 -77.5 q8 0 17.5 -20.5 q9.5 -20.5 9.5 -43.5 q0 -32 -29.5 -56 q-29.5 -24 -95.5 -24 q-22 0 -43 7 q-21 7 -37.5 23 q-16.5 16 -26.5 40 q-10 24 -10 59 q0 47 33 89.5 q33 42.5 88 75 q55 32.5 127.5 52 q72.5 19.5 151.5 19.5 q53 0 121 -6 q77 124 164.5 235 q87.5 111 179.5 195 q92 84 186 133 q94 49 184 49 q42 0 85 -6.5 q43 -6.5 88 -14 q45 -7.5 93.5 -14 q48.5 -6.5 102.5 -6.5 q54 0 113 8 q59 8 127 31 q-11 -34 -23 -73.5 q-12 -39.5 -35 -73 q-23 -33.5 -61 -56 q-38 -22.5 -101 -22.5 q-39 0 -72.5 6 q-33.5 6 -63.5 15.5 q-30 9.5 -58.5 21 q-28.5 11.5 -58.5 22.5 l-111 -518 l317 0 l-41 -151 l-309 0 l-104 -490 l458 0 l-43 -217 l-755 0 ZM1096 1391 q-47 -26 -95 -72.5 q-48 -46.5 -95.5 -110 q-47.5 -63.5 -93.5 -141 q-46 -77.5 -89 -164.5 q66 -12 130 -29 q64 -17 124 -40 l119 557 Z" /><glyph glyph-name="Aacute" unicode="" d="M801 0 l157 743 q-78 36 -142.5 52 q-64.5 16 -131.5 22 q-58 -125 -106.5 -257 q-48.5 -132 -84 -256.5 q-35.5 -124.5 -55.5 -233.5 q-20 -109 -20 -189 q0 -49 8.5 -74.5 q8.5 -25.5 19.5 -39.5 q-41 0 -88.5 4 q-47.5 4 -89 24.5 q-41.5 20.5 -69 64.5 q-27.5 44 -27.5 124 q0 68 21.5 163 q21.5 95 61.5 204.5 q40 109.5 95 229 q55 119.5 123 236.5 q-97 -6 -158.5 -29.5 q-61.5 -23.5 -81.5 -76.5 q8 0 17.5 -20.5 q9.5 -20.5 9.5 -43.5 q0 -37 -33.5 -58.5 q-33.5 -21.5 -81.5 -21.5 q-27 0 -50 7.5 q-23 7.5 -40 22 q-17 14.5 -27 37 q-10 22.5 -10 52.5 q0 52 31.5 98 q31.5 46 87.5 80 q56 34 132.5 54 q76.5 20 166.5 20 q42 0 107 -6 q78 123 165 232.5 q87 109.5 179 192 q92 82.5 185 131 q93 48.5 183 48.5 q36 0 80.5 -6 q44.5 -6 81.5 -23 l-321 -1507 l-295 0 ZM1096 1391 q-46 -25 -93.5 -71.5 q-47.5 -46.5 -94 -110 q-46.5 -63.5 -92.5 -141 q-46 -77.5 -89 -163.5 q62 -12 126 -29.5 q64 -17.5 124 -41.5 l119 557 ZM1175 1661 l187 387 l215 0 l-248 -387 l-154 0 Z" /><glyph glyph-name="Acircumflex" unicode="" d="M801 0 l157 743 q-78 36 -142.5 52 q-64.5 16 -131.5 22 q-58 -125 -106.5 -257 q-48.5 -132 -84 -256.5 q-35.5 -124.5 -55.5 -233.5 q-20 -109 -20 -189 q0 -49 8.5 -74.5 q8.5 -25.5 19.5 -39.5 q-41 0 -88.5 4 q-47.5 4 -89 24.5 q-41.5 20.5 -69 64.5 q-27.5 44 -27.5 124 q0 68 21.5 163 q21.5 95 61.5 204.5 q40 109.5 95 229 q55 119.5 123 236.5 q-97 -6 -158.5 -29.5 q-61.5 -23.5 -81.5 -76.5 q8 0 17.5 -20.5 q9.5 -20.5 9.5 -43.5 q0 -37 -33.5 -58.5 q-33.5 -21.5 -81.5 -21.5 q-27 0 -50 7.5 q-23 7.5 -40 22 q-17 14.5 -27 37 q-10 22.5 -10 52.5 q0 52 31.5 98 q31.5 46 87.5 80 q56 34 132.5 54 q76.5 20 166.5 20 q42 0 107 -6 q78 123 165 232.5 q87 109.5 179 192 q92 82.5 185 131 q93 48.5 183 48.5 q36 0 80.5 -6 q44.5 -6 81.5 -23 l-321 -1507 l-295 0 ZM1096 1391 q-46 -25 -93.5 -71.5 q-47.5 -46.5 -94 -110 q-46.5 -63.5 -92.5 -141 q-46 -77.5 -89 -163.5 q62 -12 126 -29.5 q64 -17.5 124 -41.5 l119 557 ZM1498 1661 l-123 164 l-321 -164 l-90 0 l434 387 l43 0 l123 -387 l-66 0 Z" /><glyph glyph-name="Adieresis" unicode="" d="M801 0 l157 743 q-78 36 -142.5 52 q-64.5 16 -131.5 22 q-58 -125 -106.5 -257 q-48.5 -132 -84 -256.5 q-35.5 -124.5 -55.5 -233.5 q-20 -109 -20 -189 q0 -49 8.5 -74.5 q8.5 -25.5 19.5 -39.5 q-41 0 -88.5 4 q-47.5 4 -89 24.5 q-41.5 20.5 -69 64.5 q-27.5 44 -27.5 124 q0 68 21.5 163 q21.5 95 61.5 204.5 q40 109.5 95 229 q55 119.5 123 236.5 q-97 -6 -158.5 -29.5 q-61.5 -23.5 -81.5 -76.5 q8 0 17.5 -20.5 q9.5 -20.5 9.5 -43.5 q0 -37 -33.5 -58.5 q-33.5 -21.5 -81.5 -21.5 q-27 0 -50 7.5 q-23 7.5 -40 22 q-17 14.5 -27 37 q-10 22.5 -10 52.5 q0 52 31.5 98 q31.5 46 87.5 80 q56 34 132.5 54 q76.5 20 166.5 20 q42 0 107 -6 q78 123 165 232.5 q87 109.5 179 192 q92 82.5 185 131 q93 48.5 183 48.5 q36 0 80.5 -6 q44.5 -6 81.5 -23 l-321 -1507 l-295 0 ZM1096 1391 q-46 -25 -93.5 -71.5 q-47.5 -46.5 -94 -110 q-46.5 -63.5 -92.5 -141 q-46 -77.5 -89 -163.5 q62 -12 126 -29.5 q64 -17.5 124 -41.5 l119 557 ZM1056 1686 q-27 0 -50 9.5 q-23 9.5 -39.5 26 q-16.5 16.5 -26 39 q-9.5 22.5 -9.5 49.5 q0 25 9.5 48 q9.5 23 26 40 q16.5 17 39.5 27 q23 10 50 10 q25 0 47.5 -10 q22.5 -10 39.5 -27 q17 -17 27 -40 q10 -23 10 -48 q0 -27 -10 -49.5 q-10 -22.5 -27 -39 q-17 -16.5 -39.5 -26 q-22.5 -9.5 -47.5 -9.5 ZM1549 1810 q0 -27 -10 -49.5 q-10 -22.5 -27 -39 q-17 -16.5 -40 -26 q-23 -9.5 -48 -9.5 q-27 0 -49.5 9.5 q-22.5 9.5 -39.5 26 q-17 16.5 -26.5 39 q-9.5 22.5 -9.5 49.5 q0 25 9.5 48 q9.5 23 26.5 40 q17 17 39.5 27 q22.5 10 49.5 10 q25 0 48 -10 q23 -10 40 -27 q17 -17 27 -40 q10 -23 10 -48 Z" /><glyph glyph-name="Agrave" unicode="" d="M801 0 l157 743 q-78 36 -142.5 52 q-64.5 16 -131.5 22 q-58 -125 -106.5 -257 q-48.5 -132 -84 -256.5 q-35.5 -124.5 -55.5 -233.5 q-20 -109 -20 -189 q0 -49 8.5 -74.5 q8.5 -25.5 19.5 -39.5 q-41 0 -88.5 4 q-47.5 4 -89 24.5 q-41.5 20.5 -69 64.5 q-27.5 44 -27.5 124 q0 68 21.5 163 q21.5 95 61.5 204.5 q40 109.5 95 229 q55 119.5 123 236.5 q-97 -6 -158.5 -29.5 q-61.5 -23.5 -81.5 -76.5 q8 0 17.5 -20.5 q9.5 -20.5 9.5 -43.5 q0 -37 -33.5 -58.5 q-33.5 -21.5 -81.5 -21.5 q-27 0 -50 7.5 q-23 7.5 -40 22 q-17 14.5 -27 37 q-10 22.5 -10 52.5 q0 52 31.5 98 q31.5 46 87.5 80 q56 34 132.5 54 q76.5 20 166.5 20 q42 0 107 -6 q78 123 165 232.5 q87 109.5 179 192 q92 82.5 185 131 q93 48.5 183 48.5 q36 0 80.5 -6 q44.5 -6 81.5 -23 l-321 -1507 l-295 0 ZM1096 1391 q-46 -25 -93.5 -71.5 q-47.5 -46.5 -94 -110 q-46.5 -63.5 -92.5 -141 q-46 -77.5 -89 -163.5 q62 -12 126 -29.5 q64 -17.5 124 -41.5 l119 557 ZM1116 1661 l-121 387 l215 0 l59 -387 l-153 0 Z" /><glyph glyph-name="Aogonek" unicode="&#x104;" d="M1020 0 q-21 -12 -40.5 -30 q-19.5 -18 -35.5 -40.5 q-16 -22.5 -25.5 -48.5 q-9.5 -26 -9.5 -53 q0 -18 4.5 -36 q4.5 -18 14 -32.5 q9.5 -14.5 25 -24 q15.5 -9.5 36.5 -9.5 q18 0 36.5 7 q18.5 7 36 17.5 q17.5 10.5 34.5 22.5 q17 12 32 22 q-2 -18 -3 -31.5 q-1 -13.5 -1 -31.5 q-18 -18 -40.5 -40 q-22.5 -22 -50 -41.5 q-27.5 -19.5 -60.5 -32.5 q-33 -13 -72 -13 q-42 0 -73 15 q-31 15 -50.5 38 q-19.5 23 -29 51 q-9.5 28 -9.5 55 q0 54 36.5 115.5 q36.5 61.5 109.5 120.5 l-84 0 l157 743 q-78 36 -142.5 52 q-64.5 16 -131.5 22 q-58 -125 -106.5 -257 q-48.5 -132 -84 -256.5 q-35.5 -124.5 -55.5 -233.5 q-20 -109 -20 -189 q0 -49 8.5 -74.5 q8.5 -25.5 19.5 -39.5 q-41 0 -88.5 4 q-47.5 4 -89 24.5 q-41.5 20.5 -69 64.5 q-27.5 44 -27.5 124 q0 68 21.5 163 q21.5 95 61.5 204.5 q40 109.5 95 229 q55 119.5 123 236.5 q-97 -6 -158.5 -29.5 q-61.5 -23.5 -81.5 -76.5 q8 0 17.5 -20.5 q9.5 -20.5 9.5 -43.5 q0 -37 -33.5 -58.5 q-33.5 -21.5 -81.5 -21.5 q-27 0 -50 7.5 q-23 7.5 -40 22 q-17 14.5 -27 37 q-10 22.5 -10 52.5 q0 52 31.5 98 q31.5 46 87.5 80 q56 34 132.5 54 q76.5 20 166.5 20 q42 0 107 -6 q78 123 165 232.5 q87 109.5 179 192 q92 82.5 185 131 q93 48.5 183 48.5 q36 0 80.5 -6 q44.5 -6 81.5 -23 l-321 -1507 l-76 0 ZM1096 1391 q-46 -25 -93.5 -71.5 q-47.5 -46.5 -94 -110 q-46.5 -63.5 -92.5 -141 q-46 -77.5 -89 -163.5 q62 -12 126 -29.5 q64 -17.5 124 -41.5 l119 557 Z" /><glyph glyph-name="Aring" unicode="" d="M801 0 l157 743 q-78 36 -142.5 52 q-64.5 16 -131.5 22 q-58 -125 -106.5 -257 q-48.5 -132 -84 -256.5 q-35.5 -124.5 -55.5 -233.5 q-20 -109 -20 -189 q0 -49 8.5 -74.5 q8.5 -25.5 19.5 -39.5 q-41 0 -88.5 4 q-47.5 4 -89 24.5 q-41.5 20.5 -69 64.5 q-27.5 44 -27.5 124 q0 68 21.5 163 q21.5 95 61.5 204.5 q40 109.5 95 229 q55 119.5 123 236.5 q-97 -6 -158.5 -29.5 q-61.5 -23.5 -81.5 -76.5 q8 0 17.5 -20.5 q9.5 -20.5 9.5 -43.5 q0 -37 -33.5 -58.5 q-33.5 -21.5 -81.5 -21.5 q-27 0 -50 7.5 q-23 7.5 -40 22 q-17 14.5 -27 37 q-10 22.5 -10 52.5 q0 52 31.5 98 q31.5 46 87.5 80 q56 34 132.5 54 q76.5 20 166.5 20 q42 0 107 -6 q78 123 165 232.5 q87 109.5 179 192 q92 82.5 185 131 q93 48.5 183 48.5 q36 0 80.5 -6 q44.5 -6 81.5 -23 l-321 -1507 l-295 0 ZM1096 1391 q-46 -25 -93.5 -71.5 q-47.5 -46.5 -94 -110 q-46.5 -63.5 -92.5 -141 q-46 -77.5 -89 -163.5 q62 -12 126 -29.5 q64 -17.5 124 -41.5 l119 557 ZM1405 1815 q0 -34 -9.5 -65.5 q-9.5 -31.5 -31 -55.5 q-21.5 -24 -55.5 -38 q-34 -14 -82 -14 q-33 0 -59.5 11 q-26.5 11 -45.5 30.5 q-19 19.5 -29 46 q-10 26.5 -10 56.5 q0 28 10 60.5 q10 32.5 31 60.5 q21 28 54 46.5 q33 18.5 79 18.5 q38 0 66 -12 q28 -12 46 -33.5 q18 -21.5 27 -50 q9 -28.5 9 -61.5 ZM1329 1808 q0 15 -1.5 32.5 q-1.5 17.5 -8 31.5 q-6.5 14 -20 23.5 q-13.5 9.5 -38.5 9.5 q-27 0 -45 -11 q-18 -11 -29.5 -27.5 q-11.5 -16.5 -16.5 -37 q-5 -20.5 -5 -39.5 q0 -35 16.5 -55.5 q16.5 -20.5 53.5 -20.5 q48 0 71 25.5 q23 25.5 23 68.5 Z" /><glyph glyph-name="Atilde" unicode="" d="M801 0 l157 743 q-78 36 -142.5 52 q-64.5 16 -131.5 22 q-58 -125 -106.5 -257 q-48.5 -132 -84 -256.5 q-35.5 -124.5 -55.5 -233.5 q-20 -109 -20 -189 q0 -49 8.5 -74.5 q8.5 -25.5 19.5 -39.5 q-41 0 -88.5 4 q-47.5 4 -89 24.5 q-41.5 20.5 -69 64.5 q-27.5 44 -27.5 124 q0 68 21.5 163 q21.5 95 61.5 204.5 q40 109.5 95 229 q55 119.5 123 236.5 q-97 -6 -158.5 -29.5 q-61.5 -23.5 -81.5 -76.5 q8 0 17.5 -20.5 q9.5 -20.5 9.5 -43.5 q0 -37 -33.5 -58.5 q-33.5 -21.5 -81.5 -21.5 q-27 0 -50 7.5 q-23 7.5 -40 22 q-17 14.5 -27 37 q-10 22.5 -10 52.5 q0 52 31.5 98 q31.5 46 87.5 80 q56 34 132.5 54 q76.5 20 166.5 20 q42 0 107 -6 q78 123 165 232.5 q87 109.5 179 192 q92 82.5 185 131 q93 48.5 183 48.5 q36 0 80.5 -6 q44.5 -6 81.5 -23 l-321 -1507 l-295 0 ZM1096 1391 q-46 -25 -93.5 -71.5 q-47.5 -46.5 -94 -110 q-46.5 -63.5 -92.5 -141 q-46 -77.5 -89 -163.5 q62 -12 126 -29.5 q64 -17.5 124 -41.5 l119 557 ZM1659 1882 q-8 -36 -38.5 -72.5 q-30.5 -36.5 -76 -66 q-45.5 -29.5 -101.5 -48 q-56 -18.5 -114 -18.5 q-51 0 -95 12 q-44 12 -85 26 q-41 14 -81 26 q-40 12 -83 12 q-76 0 -135 -53 l-12 4 q49 99 136.5 150 q87.5 51 205.5 51 q55 0 98 -10.5 q43 -10.5 81.5 -23.5 q38.5 -13 76 -23.5 q37.5 -10.5 82.5 -10.5 q38 0 72 12 q34 12 57 35 l12 -2 Z" /><glyph glyph-name="Cacute" unicode="&#x106;" d="M1071 348 q-41 -103 -111 -175.5 q-70 -72.5 -151.5 -118 q-81.5 -45.5 -166 -66.5 q-84.5 -21 -155.5 -21 q-114 0 -198 27 q-84 27 -139.5 87 q-55.5 60 -83 156 q-27.5 96 -27.5 234 q0 70 8.5 152.5 q8.5 82.5 27.5 170.5 q19 88 48.5 177 q29.5 89 71.5 171.5 q42 82.5 97 154.5 q55 72 124 125 q69 53 153 83.5 q84 30.5 185 30.5 q71 0 133.5 -15.5 q62.5 -15.5 109 -48.5 q46.5 -33 73 -85 q26.5 -52 26.5 -125 q0 -41 -7.5 -75.5 q-7.5 -34.5 -25 -60 q-17.5 -25.5 -45 -39.5 q-27.5 -14 -66.5 -14 q-24 0 -55.5 9 q-31.5 9 -60.5 44 q18 9 35 28.5 q17 19.5 30 45 q13 25.5 21 55.5 q8 30 8 60 q0 24 -6.5 47 q-6.5 23 -21.5 40 q-15 17 -39 27.5 q-24 10.5 -58 10.5 q-57 0 -110.5 -42 q-53.5 -42 -101 -113.5 q-47.5 -71.5 -87 -166.5 q-39.5 -95 -67.5 -201 q-28 -106 -44 -218 q-16 -112 -16 -216 q0 -71 10.5 -129.5 q10.5 -58.5 38 -100.5 q27.5 -42 75 -65.5 q47.5 -23.5 122.5 -23.5 q121 0 224 54 q103 54 175 151 l47 -21 ZM690 1661 l187 387 l215 0 l-248 -387 l-154 0 Z" /><glyph glyph-name="Ccaron" unicode="&#x10c;" d="M1071 348 q-41 -103 -111 -175.5 q-70 -72.5 -151.5 -118 q-81.5 -45.5 -166 -66.5 q-84.5 -21 -155.5 -21 q-114 0 -198 27 q-84 27 -139.5 87 q-55.5 60 -83 156 q-27.5 96 -27.5 234 q0 70 8.5 152.5 q8.5 82.5 27.5 170.5 q19 88 48.5 177 q29.5 89 71.5 171.5 q42 82.5 97 154.5 q55 72 124 125 q69 53 153 83.5 q84 30.5 185 30.5 q71 0 133.5 -15.5 q62.5 -15.5 109 -48.5 q46.5 -33 73 -85 q26.5 -52 26.5 -125 q0 -41 -7.5 -75.5 q-7.5 -34.5 -25 -60 q-17.5 -25.5 -45 -39.5 q-27.5 -14 -66.5 -14 q-24 0 -55.5 9 q-31.5 9 -60.5 44 q18 9 35 28.5 q17 19.5 30 45 q13 25.5 21 55.5 q8 30 8 60 q0 24 -6.5 47 q-6.5 23 -21.5 40 q-15 17 -39 27.5 q-24 10.5 -58 10.5 q-57 0 -110.5 -42 q-53.5 -42 -101 -113.5 q-47.5 -71.5 -87 -166.5 q-39.5 -95 -67.5 -201 q-28 -106 -44 -218 q-16 -112 -16 -216 q0 -71 10.5 -129.5 q10.5 -58.5 38 -100.5 q27.5 -42 75 -65.5 q47.5 -23.5 122.5 -23.5 q121 0 224 54 q103 54 175 151 l47 -21 ZM764 1661 l-43 0 l-123 387 l66 0 l122 -164 l322 164 l90 0 l-434 -387 Z" /><glyph glyph-name="Ccedilla" unicode="" d="M1071 348 q-37 -92 -97 -159.5 q-60 -67.5 -131.5 -113.5 q-71.5 -46 -148 -71 q-76.5 -25 -145.5 -33 l-43 -106 q32 8 59.5 12 q27.5 4 48.5 4 q66 0 96.5 -27 q30.5 -27 30.5 -75 q0 -56 -21.5 -98 q-21.5 -42 -56 -70 q-34.5 -28 -78.5 -42.5 q-44 -14.5 -89 -14.5 q-39 0 -70 4.5 q-31 4.5 -57 12.5 q-26 8 -48.5 18 q-22.5 10 -44.5 22 q14 25 33.5 45 q19.5 20 48.5 20 q31 0 50 -8.5 q19 -8.5 34.5 -19 q15.5 -10.5 30.5 -19 q15 -8.5 37 -8.5 q13 0 24 7.5 q11 7.5 19.5 19.5 q8.5 12 13 27.5 q4.5 15.5 4.5 31.5 q0 29 -18 51.5 q-18 22.5 -61 22.5 q-42 0 -66 -8.5 q-24 -8.5 -41 -16.5 l76 211 q-108 3 -187 32 q-79 29 -131.5 89 q-52.5 60 -78 154.5 q-25.5 94.5 -25.5 228.5 q0 70 8.5 152.5 q8.5 82.5 27.5 170.5 q19 88 48.5 177 q29.5 89 71.5 171.5 q42 82.5 97 154.5 q55 72 124 125 q69 53 153 83.5 q84 30.5 185 30.5 q71 0 133.5 -15.5 q62.5 -15.5 109 -48.5 q46.5 -33 73 -85 q26.5 -52 26.5 -125 q0 -41 -7.5 -75.5 q-7.5 -34.5 -25 -60 q-17.5 -25.5 -45 -39.5 q-27.5 -14 -66.5 -14 q-24 0 -55.5 9 q-31.5 9 -60.5 44 q18 9 35 28.5 q17 19.5 30 45 q13 25.5 21 55.5 q8 30 8 60 q0 24 -6.5 47 q-6.5 23 -21.5 40 q-15 17 -39 27.5 q-24 10.5 -58 10.5 q-57 0 -110.5 -42 q-53.5 -42 -101 -113.5 q-47.5 -71.5 -87 -166.5 q-39.5 -95 -67.5 -201 q-28 -106 -44 -218 q-16 -112 -16 -216 q0 -71 10.5 -129.5 q10.5 -58.5 38 -100.5 q27.5 -42 75 -65.5 q47.5 -23.5 122.5 -23.5 q121 0 224 54 q103 54 175 151 l47 -21 Z" /><glyph glyph-name="Ccircumflex" unicode="&#x108;" d="M1071 348 q-41 -103 -111 -175.5 q-70 -72.5 -151.5 -118 q-81.5 -45.5 -166 -66.5 q-84.5 -21 -155.5 -21 q-114 0 -198 27 q-84 27 -139.5 87 q-55.5 60 -83 156 q-27.5 96 -27.5 234 q0 70 8.5 152.5 q8.5 82.5 27.5 170.5 q19 88 48.5 177 q29.5 89 71.5 171.5 q42 82.5 97 154.5 q55 72 124 125 q69 53 153 83.5 q84 30.5 185 30.5 q71 0 133.5 -15.5 q62.5 -15.5 109 -48.5 q46.5 -33 73 -85 q26.5 -52 26.5 -125 q0 -41 -7.5 -75.5 q-7.5 -34.5 -25 -60 q-17.5 -25.5 -45 -39.5 q-27.5 -14 -66.5 -14 q-24 0 -55.5 9 q-31.5 9 -60.5 44 q18 9 35 28.5 q17 19.5 30 45 q13 25.5 21 55.5 q8 30 8 60 q0 24 -6.5 47 q-6.5 23 -21.5 40 q-15 17 -39 27.5 q-24 10.5 -58 10.5 q-57 0 -110.5 -42 q-53.5 -42 -101 -113.5 q-47.5 -71.5 -87 -166.5 q-39.5 -95 -67.5 -201 q-28 -106 -44 -218 q-16 -112 -16 -216 q0 -71 10.5 -129.5 q10.5 -58.5 38 -100.5 q27.5 -42 75 -65.5 q47.5 -23.5 122.5 -23.5 q121 0 224 54 q103 54 175 151 l47 -21 ZM948 1661 l-123 164 l-321 -164 l-90 0 l434 387 l43 0 l123 -387 l-66 0 Z" /><glyph glyph-name="Eacute" unicode="" d="M991 348 q-41 -90 -104.5 -161 q-63.5 -71 -143 -121 q-79.5 -50 -169.5 -76.5 q-90 -26.5 -183 -26.5 q-99 0 -170.5 29.5 q-71.5 29.5 -117 79.5 q-45.5 50 -67.5 115 q-22 65 -22 137 q0 81 26 165 q26 84 74.5 157.5 q48.5 73.5 119 129 q70.5 55.5 159.5 78.5 q-66 48 -95.5 112.5 q-29.5 64.5 -29.5 133.5 q0 79 33.5 157.5 q33.5 78.5 93 141.5 q59.5 63 142 102 q82.5 39 180.5 39 q61 0 114.5 -16.5 q53.5 -16.5 93.5 -48.5 q40 -32 62.5 -80 q22.5 -48 22.5 -111 q0 -46 -12 -85 q-12 -39 -33 -67.5 q-21 -28.5 -48.5 -44.5 q-27.5 -16 -58.5 -16 q-56 0 -96 55 q18 6 34.5 25 q16.5 19 29 44 q12.5 25 19.5 54 q7 29 7 56 q0 31 -10 53 q-10 22 -25.5 35.5 q-15.5 13.5 -36 19.5 q-20.5 6 -41.5 6 q-46 0 -84.5 -25 q-38.5 -25 -66 -65.5 q-27.5 -40.5 -43 -92.5 q-15.5 -52 -15.5 -106 q0 -45 11.5 -88 q11.5 -43 36.5 -79.5 q25 -36.5 64.5 -64 q39.5 -27.5 94.5 -42.5 q-55 -12 -103.5 -40 q-48.5 -28 -89 -66.5 q-40.5 -38.5 -72.5 -85.5 q-32 -47 -54.5 -97.5 q-22.5 -50.5 -34.5 -101.5 q-12 -51 -12 -98 q0 -43 11 -81 q11 -38 34 -66 q23 -28 60 -44 q37 -16 89 -16 q47 0 101.5 13 q54.5 13 106.5 39.5 q52 26.5 97 65.5 q45 39 74 91 l47 -21 ZM676 1661 l186 387 l215 0 l-248 -387 l-153 0 Z" /><glyph glyph-name="Ecircumflex" unicode="" d="M991 348 q-41 -90 -104.5 -161 q-63.5 -71 -143 -121 q-79.5 -50 -169.5 -76.5 q-90 -26.5 -183 -26.5 q-99 0 -170.5 29.5 q-71.5 29.5 -117 79.5 q-45.5 50 -67.5 115 q-22 65 -22 137 q0 81 26 165 q26 84 74.5 157.5 q48.5 73.5 119 129 q70.5 55.5 159.5 78.5 q-66 48 -95.5 112.5 q-29.5 64.5 -29.5 133.5 q0 79 33.5 157.5 q33.5 78.5 93 141.5 q59.5 63 142 102 q82.5 39 180.5 39 q61 0 114.5 -16.5 q53.5 -16.5 93.5 -48.5 q40 -32 62.5 -80 q22.5 -48 22.5 -111 q0 -46 -12 -85 q-12 -39 -33 -67.5 q-21 -28.5 -48.5 -44.5 q-27.5 -16 -58.5 -16 q-56 0 -96 55 q18 6 34.5 25 q16.5 19 29 44 q12.5 25 19.5 54 q7 29 7 56 q0 31 -10 53 q-10 22 -25.5 35.5 q-15.5 13.5 -36 19.5 q-20.5 6 -41.5 6 q-46 0 -84.5 -25 q-38.5 -25 -66 -65.5 q-27.5 -40.5 -43 -92.5 q-15.5 -52 -15.5 -106 q0 -45 11.5 -88 q11.5 -43 36.5 -79.5 q25 -36.5 64.5 -64 q39.5 -27.5 94.5 -42.5 q-55 -12 -103.5 -40 q-48.5 -28 -89 -66.5 q-40.5 -38.5 -72.5 -85.5 q-32 -47 -54.5 -97.5 q-22.5 -50.5 -34.5 -101.5 q-12 -51 -12 -98 q0 -43 11 -81 q11 -38 34 -66 q23 -28 60 -44 q37 -16 89 -16 q47 0 101.5 13 q54.5 13 106.5 39.5 q52 26.5 97 65.5 q45 39 74 91 l47 -21 ZM948 1661 l-123 164 l-321 -164 l-90 0 l434 387 l43 0 l123 -387 l-66 0 Z" /><glyph glyph-name="Edieresis" unicode="" d="M991 348 q-41 -90 -104.5 -161 q-63.5 -71 -143 -121 q-79.5 -50 -169.5 -76.5 q-90 -26.5 -183 -26.5 q-99 0 -170.5 29.5 q-71.5 29.5 -117 79.5 q-45.5 50 -67.5 115 q-22 65 -22 137 q0 81 26 165 q26 84 74.5 157.5 q48.5 73.5 119 129 q70.5 55.5 159.5 78.5 q-66 48 -95.5 112.5 q-29.5 64.5 -29.5 133.5 q0 79 33.5 157.5 q33.5 78.5 93 141.5 q59.5 63 142 102 q82.5 39 180.5 39 q61 0 114.5 -16.5 q53.5 -16.5 93.5 -48.5 q40 -32 62.5 -80 q22.5 -48 22.5 -111 q0 -46 -12 -85 q-12 -39 -33 -67.5 q-21 -28.5 -48.5 -44.5 q-27.5 -16 -58.5 -16 q-56 0 -96 55 q18 6 34.5 25 q16.5 19 29 44 q12.5 25 19.5 54 q7 29 7 56 q0 31 -10 53 q-10 22 -25.5 35.5 q-15.5 13.5 -36 19.5 q-20.5 6 -41.5 6 q-46 0 -84.5 -25 q-38.5 -25 -66 -65.5 q-27.5 -40.5 -43 -92.5 q-15.5 -52 -15.5 -106 q0 -45 11.5 -88 q11.5 -43 36.5 -79.5 q25 -36.5 64.5 -64 q39.5 -27.5 94.5 -42.5 q-55 -12 -103.5 -40 q-48.5 -28 -89 -66.5 q-40.5 -38.5 -72.5 -85.5 q-32 -47 -54.5 -97.5 q-22.5 -50.5 -34.5 -101.5 q-12 -51 -12 -98 q0 -43 11 -81 q11 -38 34 -66 q23 -28 60 -44 q37 -16 89 -16 q47 0 101.5 13 q54.5 13 106.5 39.5 q52 26.5 97 65.5 q45 39 74 91 l47 -21 ZM737 1810 q0 -27 -10 -49.5 q-10 -22.5 -27 -39 q-17 -16.5 -40 -26 q-23 -9.5 -48 -9.5 q-27 0 -49.5 9.5 q-22.5 9.5 -39.5 26 q-17 16.5 -26.5 39 q-9.5 22.5 -9.5 49.5 q0 25 9.5 48 q9.5 23 26.5 40 q17 17 39.5 27 q22.5 10 49.5 10 q25 0 48 -10 q23 -10 40 -27 q17 -17 27 -40 q10 -23 10 -48 ZM1106 1810 q0 -27 -10 -49.5 q-10 -22.5 -27 -39 q-17 -16.5 -40 -26 q-23 -9.5 -48 -9.5 q-27 0 -50 9.5 q-23 9.5 -39.5 26 q-16.5 16.5 -26 39 q-9.5 22.5 -9.5 49.5 q0 25 9.5 48 q9.5 23 26 40 q16.5 17 39.5 27 q23 10 50 10 q25 0 48 -10 q23 -10 40 -27 q17 -17 27 -40 q10 -23 10 -48 Z" /><glyph glyph-name="Egrave" unicode="" d="M991 348 q-41 -90 -104.5 -161 q-63.5 -71 -143 -121 q-79.5 -50 -169.5 -76.5 q-90 -26.5 -183 -26.5 q-99 0 -170.5 29.5 q-71.5 29.5 -117 79.5 q-45.5 50 -67.5 115 q-22 65 -22 137 q0 81 26 165 q26 84 74.5 157.5 q48.5 73.5 119 129 q70.5 55.5 159.5 78.5 q-66 48 -95.5 112.5 q-29.5 64.5 -29.5 133.5 q0 79 33.5 157.5 q33.5 78.5 93 141.5 q59.5 63 142 102 q82.5 39 180.5 39 q61 0 114.5 -16.5 q53.5 -16.5 93.5 -48.5 q40 -32 62.5 -80 q22.5 -48 22.5 -111 q0 -46 -12 -85 q-12 -39 -33 -67.5 q-21 -28.5 -48.5 -44.5 q-27.5 -16 -58.5 -16 q-56 0 -96 55 q18 6 34.5 25 q16.5 19 29 44 q12.5 25 19.5 54 q7 29 7 56 q0 31 -10 53 q-10 22 -25.5 35.5 q-15.5 13.5 -36 19.5 q-20.5 6 -41.5 6 q-46 0 -84.5 -25 q-38.5 -25 -66 -65.5 q-27.5 -40.5 -43 -92.5 q-15.5 -52 -15.5 -106 q0 -45 11.5 -88 q11.5 -43 36.5 -79.5 q25 -36.5 64.5 -64 q39.5 -27.5 94.5 -42.5 q-55 -12 -103.5 -40 q-48.5 -28 -89 -66.5 q-40.5 -38.5 -72.5 -85.5 q-32 -47 -54.5 -97.5 q-22.5 -50.5 -34.5 -101.5 q-12 -51 -12 -98 q0 -43 11 -81 q11 -38 34 -66 q23 -28 60 -44 q37 -16 89 -16 q47 0 101.5 13 q54.5 13 106.5 39.5 q52 26.5 97 65.5 q45 39 74 91 l47 -21 ZM637 1661 l-121 387 l215 0 l60 -387 l-154 0 Z" /><glyph glyph-name="Eogonek" unicode="&#x118;" d="M991 348 q-24 -73 -60.5 -122 q-36.5 -49 -77.5 -85.5 q-41 -36.5 -82 -66 q-41 -29.5 -74 -63 q-33 -33.5 -53.5 -77 q-20.5 -43.5 -20.5 -106.5 q0 -18 4.5 -36 q4.5 -18 14 -32.5 q9.5 -14.5 24.5 -24 q15 -9.5 36 -9.5 q19 0 37.5 7 q18.5 7 36 17.5 q17.5 10.5 34.5 22.5 q17 12 32 22 q-2 -18 -3 -31.5 q-1 -13.5 -1 -31.5 q-18 -18 -40.5 -40 q-22.5 -22 -50.5 -41.5 q-28 -19.5 -61 -32.5 q-33 -13 -72 -13 q-42 0 -72.5 15 q-30.5 15 -50 38 q-19.5 23 -29 51 q-9.5 28 -9.5 55 q0 56 37.5 118.5 q37.5 62.5 109.5 119.5 q-38 -8 -77 -11 q-39 -3 -77 -3 q-106 0 -185 35 q-79 35 -132 92.5 q-53 57.5 -79.5 132 q-26.5 74.5 -26.5 153.5 q0 73 23 146 q23 73 69.5 135 q46.5 62 116 108 q69.5 46 161.5 64 q-52 28 -90.5 64 q-38.5 36 -63.5 76.5 q-25 40.5 -37 83.5 q-12 43 -12 87 q0 70 30 137 q30 67 88 119 q58 52 143 83.5 q85 31.5 194 31.5 q72 0 139.5 -15.5 q67.5 -15.5 120.5 -48.5 q53 -33 85 -85 q32 -52 32 -125 q0 -41 -7.5 -75.5 q-7.5 -34.5 -25 -60 q-17.5 -25.5 -44.5 -39.5 q-27 -14 -66 -14 q-25 0 -56.5 9 q-31.5 9 -60.5 44 q18 6 34.5 26 q16.5 20 29 45 q12.5 25 19.5 51.5 q7 26.5 7 45.5 q0 12 -2.5 37.5 q-2.5 25.5 -15.5 51 q-13 25.5 -40.5 44.5 q-27.5 19 -76.5 19 q-56 0 -102 -20 q-46 -20 -79 -54.5 q-33 -34.5 -51 -80.5 q-18 -46 -18 -97 q0 -45 15 -91.5 q15 -46.5 47.5 -90 q32.5 -43.5 83.5 -83.5 q51 -40 124 -73 q-98 -41 -165.5 -90 q-67.5 -49 -110 -102.5 q-42.5 -53.5 -61.5 -109.5 q-19 -56 -19 -110 q0 -56 19 -105.5 q19 -49.5 51.5 -86.5 q32.5 -37 76 -58.5 q43.5 -21.5 93.5 -21.5 q59 0 106 12.5 q47 12.5 86 37 q39 24.5 70.5 61.5 q31.5 37 60.5 86 l47 -21 Z" /><glyph glyph-name="Eth" unicode="" d="M193 0 l151 707 l-80 0 l41 151 l72 0 l94 445 l303 40 l-104 -485 l161 0 l-40 -151 l-154 0 l-109 -512 q56 -41 117 -41 q61 0 114 38.5 q53 38.5 96.5 104 q43.5 65.5 77.5 153 q34 87.5 57.5 186 q23.5 98.5 35.5 202.5 q12 104 12 202 q0 96 -11 171 q-11 75 -42 126 q-31 51 -86 78 q-55 27 -143 27 q-125 0 -226.5 -34 q-101.5 -34 -174.5 -98.5 q-73 -64.5 -112.5 -156.5 q-39.5 -92 -39.5 -209 q0 -39 4.5 -63.5 q4.5 -24.5 9.5 -39 q5 -14.5 9.5 -22.5 q4.5 -8 4.5 -14 q-53 0 -94 10.5 q-41 10.5 -68.5 33.5 q-27.5 23 -42 61 q-14.5 38 -14.5 94 q0 68 29.5 134 q29.5 66 81 125 q51.5 59 121 109 q69.5 50 149 86.5 q79.5 36.5 166 57 q86.5 20.5 172.5 20.5 q118 0 208 -21 q90 -21 155.5 -58.5 q65.5 -37.5 109 -89.5 q43.5 -52 69.5 -113.5 q26 -61.5 37 -130 q11 -68.5 11 -140.5 q0 -132 -21 -258.5 q-21 -126.5 -58.5 -239 q-37.5 -112.5 -90 -206.5 q-52.5 -94 -115.5 -162 q-63 -68 -134.5 -106 q-71.5 -38 -147.5 -38 q-60 0 -122 26 q-62 26 -128 83 l-17 -82 l-294 0 Z" /><glyph glyph-name="IJ" unicode="&#x132;" d="M1071 1468 l307 68 l-307 -1454 q-22 -107 -60 -199.5 q-38 -92.5 -98.5 -160.5 q-60.5 -68 -147 -107 q-86.5 -39 -206.5 -39 q-86 0 -148 21 q-62 21 -102.5 58.5 q-40.5 37.5 -60 89 q-19.5 51.5 -19.5 112.5 q0 42 8 77 q8 35 23 66 l-67 0 l296 1391 q-136 -56 -211 -168 q-75 -112 -75 -279 q0 -39 4.5 -63.5 q4.5 -24.5 9.5 -39 q5 -14.5 9.5 -22.5 q4.5 -8 4.5 -14 q-53 0 -94 10.5 q-41 10.5 -68.5 33.5 q-27.5 23 -42 61 q-14.5 38 -14.5 94 q0 68 29.5 134 q29.5 66 81 125 q51.5 59 121 109 q69.5 50 149 86.5 q79.5 36.5 166 57 q86.5 20.5 172.5 20.5 q23 0 42.5 -1 q19.5 -1 39.5 -3 l-301 -1413 q63 -10 100 -44.5 q37 -34.5 37 -86.5 q0 -30 -14 -68 q-47 47 -100 47 q-28 0 -52.5 -12 q-24.5 -12 -42.5 -32 q-18 -20 -28.5 -47 q-10.5 -27 -10.5 -58 q0 -30 10 -55.5 q10 -25.5 29 -44.5 q19 -19 46 -29.5 q27 -10.5 61 -10.5 q30 0 57 10.5 q27 10.5 51 39 q24 28.5 44 77 q20 48.5 36 125.5 l336 1538 Z" /><glyph glyph-name="Iacute" unicode="" d="M193 0 l296 1391 q-136 -56 -211 -168 q-75 -112 -75 -279 q0 -39 4.5 -63.5 q4.5 -24.5 9.5 -39 q5 -14.5 9.5 -22.5 q4.5 -8 4.5 -14 q-53 0 -94 10.5 q-41 10.5 -68.5 33.5 q-27.5 23 -42 61 q-14.5 38 -14.5 94 q0 68 29.5 134 q29.5 66 81 125 q51.5 59 121 109 q69.5 50 149 86.5 q79.5 36.5 166 57 q86.5 20.5 172.5 20.5 q23 0 42.5 -1 q19.5 -1 39.5 -3 l-326 -1532 l-294 0 ZM601 1661 l186 387 l215 0 l-247 -387 l-154 0 Z" /><glyph glyph-name="Icircumflex" unicode="" d="M193 0 l296 1391 q-136 -56 -211 -168 q-75 -112 -75 -279 q0 -39 4.5 -63.5 q4.5 -24.5 9.5 -39 q5 -14.5 9.5 -22.5 q4.5 -8 4.5 -14 q-53 0 -94 10.5 q-41 10.5 -68.5 33.5 q-27.5 23 -42 61 q-14.5 38 -14.5 94 q0 68 29.5 134 q29.5 66 81 125 q51.5 59 121 109 q69.5 50 149 86.5 q79.5 36.5 166 57 q86.5 20.5 172.5 20.5 q23 0 42.5 -1 q19.5 -1 39.5 -3 l-326 -1532 l-294 0 ZM884 1661 l-123 164 l-322 -164 l-90 0 l434 387 l43 0 l123 -387 l-65 0 Z" /><glyph glyph-name="Idieresis" unicode="" d="M193 0 l296 1391 q-136 -56 -211 -168 q-75 -112 -75 -279 q0 -39 4.5 -63.5 q4.5 -24.5 9.5 -39 q5 -14.5 9.5 -22.5 q4.5 -8 4.5 -14 q-53 0 -94 10.5 q-41 10.5 -68.5 33.5 q-27.5 23 -42 61 q-14.5 38 -14.5 94 q0 68 29.5 134 q29.5 66 81 125 q51.5 59 121 109 q69.5 50 149 86.5 q79.5 36.5 166 57 q86.5 20.5 172.5 20.5 q23 0 42.5 -1 q19.5 -1 39.5 -3 l-326 -1532 l-294 0 ZM632 1810 q0 -27 -10 -49.5 q-10 -22.5 -27 -39 q-17 -16.5 -40 -26 q-23 -9.5 -48 -9.5 q-27 0 -50 9.5 q-23 9.5 -39.5 26 q-16.5 16.5 -26 39 q-9.5 22.5 -9.5 49.5 q0 25 9.5 48 q9.5 23 26 40 q16.5 17 39.5 27 q23 10 50 10 q25 0 48 -10 q23 -10 40 -27 q17 -17 27 -40 q10 -23 10 -48 ZM1001 1810 q0 -27 -10 -49.5 q-10 -22.5 -27.5 -39 q-17.5 -16.5 -40 -26 q-22.5 -9.5 -47.5 -9.5 q-27 0 -50 9.5 q-23 9.5 -39.5 26 q-16.5 16.5 -26 39 q-9.5 22.5 -9.5 49.5 q0 25 9.5 48 q9.5 23 26 40 q16.5 17 39.5 27 q23 10 50 10 q25 0 47.5 -10 q22.5 -10 40 -27 q17.5 -17 27.5 -40 q10 -23 10 -48 Z" /><glyph glyph-name="Igrave" unicode="" d="M193 0 l296 1391 q-136 -56 -211 -168 q-75 -112 -75 -279 q0 -39 4.5 -63.5 q4.5 -24.5 9.5 -39 q5 -14.5 9.5 -22.5 q4.5 -8 4.5 -14 q-53 0 -94 10.5 q-41 10.5 -68.5 33.5 q-27.5 23 -42 61 q-14.5 38 -14.5 94 q0 68 29.5 134 q29.5 66 81 125 q51.5 59 121 109 q69.5 50 149 86.5 q79.5 36.5 166 57 q86.5 20.5 172.5 20.5 q23 0 42.5 -1 q19.5 -1 39.5 -3 l-326 -1532 l-294 0 ZM561 1661 l-121 387 l215 0 l60 -387 l-154 0 Z" /><glyph glyph-name="Lslash" unicode="&#x141;" d="M328 604 l-133 -80 l4 109 l155 100 l135 637 q-136 -56 -211 -167.5 q-75 -111.5 -75 -278.5 q0 -39 4.5 -63.5 q4.5 -24.5 9.5 -39.5 q5 -15 9.5 -23 q4.5 -8 4.5 -14 q-53 0 -94 10.5 q-41 10.5 -68.5 34 q-27.5 23.5 -42 61.5 q-14.5 38 -14.5 93 q0 68 29.5 134 q29.5 66 81 125 q51.5 59 121 109.5 q69.5 50.5 149 87 q79.5 36.5 166 57 q86.5 20.5 172.5 20.5 q23 0 42.5 -1.5 q19.5 -1.5 39.5 -3.5 l-113 -538 l238 141 l-8 -125 l-260 -160 l-172 -788 q53 -12 106.5 -36.5 q53.5 -24.5 108 -54 q54.5 -29.5 111 -60 q56.5 -30.5 115 -56 q58.5 -25.5 120 -41.5 q61.5 -16 127.5 -16 q42 0 84.5 7 q42.5 7 87.5 26 q-9 -74 -27.5 -133.5 q-18.5 -59.5 -45.5 -101.5 q-27 -42 -62.5 -64.5 q-35.5 -22.5 -77.5 -22.5 q-73 0 -144 34.5 q-71 34.5 -142.5 86 q-71.5 51.5 -144.5 112 q-73 60.5 -150 112 q-77 51.5 -159.5 86 q-82.5 34.5 -173.5 34.5 q-12 0 -23 0 q-11 0 -24 -2 l144 653 Z" /><glyph glyph-name="Nacute" unicode="&#x143;" d="M1016 1661 l186 387 l215 0 l-248 -387 l-153 0 ZM1471 1532 l-334 -1532 l-283 0 l-237 1016 l-234 -1016 l-194 0 l308 1403 q-142 -50 -213 -155 q-71 -105 -71 -255 q0 -66 14.5 -120.5 q14.5 -54.5 40.5 -88.5 q-131 0 -193.5 53.5 q-62.5 53.5 -62.5 168.5 q0 73 22.5 141 q22.5 68 63 128 q40.5 60 97.5 109.5 q57 49.5 126 85 q69 35.5 148 55 q79 19.5 165 19.5 q48 0 83.5 -6.5 q35.5 -6.5 78.5 -21.5 l247 -1096 l229 1112 l199 0 Z" /><glyph glyph-name="OE" unicode="&#x152;" d="M733 0 l2 4 q-35 -8 -72 -12 q-37 -4 -75 -4 q-81 0 -148 22 q-67 22 -116 71 q-49 49 -76 127.5 q-27 78.5 -27 190.5 q0 83 15.5 186.5 q15.5 103.5 46.5 210 q31 106.5 77.5 208.5 q46.5 102 108 181 q61.5 79 138.5 127 q77 48 169 48 q26 0 52 -3 q26 -3 55 -14 q-47 -28 -91.5 -87.5 q-44.5 -59.5 -84.5 -139 q-40 -79.5 -73.5 -173 q-33.5 -93.5 -58 -190 q-24.5 -96.5 -38 -190 q-13.5 -93.5 -13.5 -172.5 q0 -52 7 -95.5 q7 -43.5 21 -75 q14 -31.5 36.5 -49 q22.5 -17.5 54.5 -17.5 q52 0 103.5 40 q51.5 40 99.5 109 q48 69 89 160.5 q41 91.5 71 195 q30 103.5 47.5 212.5 q17.5 109 17.5 212 q0 89 -10.5 156.5 q-10.5 67.5 -39.5 112.5 q-29 45 -80 67.5 q-51 22.5 -132 22.5 q-117 0 -224 -36.5 q-107 -36.5 -188.5 -105 q-81.5 -68.5 -129.5 -166 q-48 -97.5 -48 -219.5 q0 -30 3.5 -48.5 q3.5 -18.5 7 -30 q3.5 -11.5 7 -18.5 q3.5 -7 3.5 -13 q-98 0 -152.5 39 q-54.5 39 -54.5 133 q0 72 31 141 q31 69 87 131.5 q56 62.5 132.5 115 q76.5 52.5 168.5 90.5 q92 38 195 59.5 q103 21.5 211 21.5 q66 0 122.5 -10 q56.5 -10 102.5 -29 q52 19 114 29 q62 10 151 10 q31 0 69.5 -4 q38.5 -4 82 -8.5 q43.5 -4.5 91 -8.5 q47.5 -4 97.5 -4 q48 0 94.5 5.5 q46.5 5.5 89.5 19.5 q-10 -32 -19.5 -69.5 q-9.5 -37.5 -29 -72.5 q-19.5 -35 -53.5 -63.5 q-34 -28.5 -93 -40.5 q-60 0 -115 9.5 q-55 9.5 -106.5 22 q-51.5 12.5 -101.5 25 q-50 12.5 -101 17.5 q48 -68 69 -157.5 q21 -89.5 21 -194.5 q0 -37 -2.5 -75.5 q-2.5 -38.5 -7.5 -78.5 l273 0 l-41 -151 l-260 0 q-31 -132 -88.5 -260 q-57.5 -128 -147.5 -230 l500 0 l-43 -217 l-793 0 Z" /><glyph glyph-name="Oacute" unicode="" d="M883 1343 q-47 -28 -91.5 -87.5 q-44.5 -59.5 -84.5 -139 q-40 -79.5 -73.5 -173 q-33.5 -93.5 -58 -190 q-24.5 -96.5 -38 -190 q-13.5 -93.5 -13.5 -172.5 q0 -52 7 -95.5 q7 -43.5 21 -75 q14 -31.5 36.5 -49 q22.5 -17.5 54.5 -17.5 q52 0 103.5 40 q51.5 40 99.5 109 q48 69 89 160.5 q41 91.5 71 195 q30 103.5 47.5 212.5 q17.5 109 17.5 212 q0 89 -10.5 156.5 q-10.5 67.5 -39.5 112.5 q-29 45 -80 67.5 q-51 22.5 -132 22.5 q-117 0 -224 -36.5 q-107 -36.5 -188.5 -105 q-81.5 -68.5 -129.5 -166 q-48 -97.5 -48 -219.5 q0 -30 3.5 -48.5 q3.5 -18.5 7 -30 q3.5 -11.5 7 -18.5 q3.5 -7 3.5 -13 q-98 0 -152.5 39 q-54.5 39 -54.5 133 q0 72 31 141 q31 69 87 131.5 q56 62.5 132.5 115 q76.5 52.5 168.5 90.5 q92 38 195 59.5 q103 21.5 211 21.5 q135 0 227.5 -39 q92.5 -39 149.5 -108.5 q57 -69.5 82.5 -166 q25.5 -96.5 25.5 -210.5 q0 -99 -18.5 -213.5 q-18.5 -114.5 -58 -228 q-39.5 -113.5 -100 -219 q-60.5 -105.5 -144.5 -186 q-84 -80.5 -192 -129 q-108 -48.5 -242 -48.5 q-81 0 -148 22 q-67 22 -116 71 q-49 49 -76 127.5 q-27 78.5 -27 190.5 q0 83 15.5 186.5 q15.5 103.5 46.5 210 q31 106.5 77.5 208.5 q46.5 102 108 181 q61.5 79 138.5 127 q77 48 169 48 q26 0 52 -3 q26 -3 55 -14 ZM813 1661 l186 387 l215 0 l-247 -387 l-154 0 Z" /><glyph glyph-name="Ocircumflex" unicode="" d="M883 1343 q-47 -28 -91.5 -87.5 q-44.5 -59.5 -84.5 -139 q-40 -79.5 -73.5 -173 q-33.5 -93.5 -58 -190 q-24.5 -96.5 -38 -190 q-13.5 -93.5 -13.5 -172.5 q0 -52 7 -95.5 q7 -43.5 21 -75 q14 -31.5 36.5 -49 q22.5 -17.5 54.5 -17.5 q52 0 103.5 40 q51.5 40 99.5 109 q48 69 89 160.5 q41 91.5 71 195 q30 103.5 47.5 212.5 q17.5 109 17.5 212 q0 89 -10.5 156.5 q-10.5 67.5 -39.5 112.5 q-29 45 -80 67.5 q-51 22.5 -132 22.5 q-117 0 -224 -36.5 q-107 -36.5 -188.5 -105 q-81.5 -68.5 -129.5 -166 q-48 -97.5 -48 -219.5 q0 -30 3.5 -48.5 q3.5 -18.5 7 -30 q3.5 -11.5 7 -18.5 q3.5 -7 3.5 -13 q-98 0 -152.5 39 q-54.5 39 -54.5 133 q0 72 31 141 q31 69 87 131.5 q56 62.5 132.5 115 q76.5 52.5 168.5 90.5 q92 38 195 59.5 q103 21.5 211 21.5 q135 0 227.5 -39 q92.5 -39 149.5 -108.5 q57 -69.5 82.5 -166 q25.5 -96.5 25.5 -210.5 q0 -99 -18.5 -213.5 q-18.5 -114.5 -58 -228 q-39.5 -113.5 -100 -219 q-60.5 -105.5 -144.5 -186 q-84 -80.5 -192 -129 q-108 -48.5 -242 -48.5 q-81 0 -148 22 q-67 22 -116 71 q-49 49 -76 127.5 q-27 78.5 -27 190.5 q0 83 15.5 186.5 q15.5 103.5 46.5 210 q31 106.5 77.5 208.5 q46.5 102 108 181 q61.5 79 138.5 127 q77 48 169 48 q26 0 52 -3 q26 -3 55 -14 ZM1092 1661 l-123 164 l-322 -164 l-90 0 l434 387 l43 0 l123 -387 l-65 0 Z" /><glyph glyph-name="Odieresis" unicode="" d="M883 1343 q-47 -28 -91.5 -87.5 q-44.5 -59.5 -84.5 -139 q-40 -79.5 -73.5 -173 q-33.5 -93.5 -58 -190 q-24.5 -96.5 -38 -190 q-13.5 -93.5 -13.5 -172.5 q0 -52 7 -95.5 q7 -43.5 21 -75 q14 -31.5 36.5 -49 q22.5 -17.5 54.5 -17.5 q52 0 103.5 40 q51.5 40 99.5 109 q48 69 89 160.5 q41 91.5 71 195 q30 103.5 47.5 212.5 q17.5 109 17.5 212 q0 89 -10.5 156.5 q-10.5 67.5 -39.5 112.5 q-29 45 -80 67.5 q-51 22.5 -132 22.5 q-117 0 -224 -36.5 q-107 -36.5 -188.5 -105 q-81.5 -68.5 -129.5 -166 q-48 -97.5 -48 -219.5 q0 -30 3.5 -48.5 q3.5 -18.5 7 -30 q3.5 -11.5 7 -18.5 q3.5 -7 3.5 -13 q-98 0 -152.5 39 q-54.5 39 -54.5 133 q0 72 31 141 q31 69 87 131.5 q56 62.5 132.5 115 q76.5 52.5 168.5 90.5 q92 38 195 59.5 q103 21.5 211 21.5 q135 0 227.5 -39 q92.5 -39 149.5 -108.5 q57 -69.5 82.5 -166 q25.5 -96.5 25.5 -210.5 q0 -99 -18.5 -213.5 q-18.5 -114.5 -58 -228 q-39.5 -113.5 -100 -219 q-60.5 -105.5 -144.5 -186 q-84 -80.5 -192 -129 q-108 -48.5 -242 -48.5 q-81 0 -148 22 q-67 22 -116 71 q-49 49 -76 127.5 q-27 78.5 -27 190.5 q0 83 15.5 186.5 q15.5 103.5 46.5 210 q31 106.5 77.5 208.5 q46.5 102 108 181 q61.5 79 138.5 127 q77 48 169 48 q26 0 52 -3 q26 -3 55 -14 ZM840 1810 q0 -27 -10 -49.5 q-10 -22.5 -27.5 -39 q-17.5 -16.5 -40 -26 q-22.5 -9.5 -47.5 -9.5 q-27 0 -50 9.5 q-23 9.5 -39.5 26 q-16.5 16.5 -26 39 q-9.5 22.5 -9.5 49.5 q0 25 9.5 48 q9.5 23 26 40 q16.5 17 39.5 27 q23 10 50 10 q25 0 47.5 -10 q22.5 -10 40 -27 q17.5 -17 27.5 -40 q10 -23 10 -48 ZM1208 1810 q0 -27 -10 -49.5 q-10 -22.5 -27 -39 q-17 -16.5 -40 -26 q-23 -9.5 -48 -9.5 q-27 0 -49.5 9.5 q-22.5 9.5 -39.5 26 q-17 16.5 -26.5 39 q-9.5 22.5 -9.5 49.5 q0 25 9.5 48 q9.5 23 26.5 40 q17 17 39.5 27 q22.5 10 49.5 10 q25 0 48 -10 q23 -10 40 -27 q17 -17 27 -40 q10 -23 10 -48 Z" /><glyph glyph-name="Ograve" unicode="" d="M883 1343 q-47 -28 -91.5 -87.5 q-44.5 -59.5 -84.5 -139 q-40 -79.5 -73.5 -173 q-33.5 -93.5 -58 -190 q-24.5 -96.5 -38 -190 q-13.5 -93.5 -13.5 -172.5 q0 -52 7 -95.5 q7 -43.5 21 -75 q14 -31.5 36.5 -49 q22.5 -17.5 54.5 -17.5 q52 0 103.5 40 q51.5 40 99.5 109 q48 69 89 160.5 q41 91.5 71 195 q30 103.5 47.5 212.5 q17.5 109 17.5 212 q0 89 -10.5 156.5 q-10.5 67.5 -39.5 112.5 q-29 45 -80 67.5 q-51 22.5 -132 22.5 q-117 0 -224 -36.5 q-107 -36.5 -188.5 -105 q-81.5 -68.5 -129.5 -166 q-48 -97.5 -48 -219.5 q0 -30 3.5 -48.5 q3.5 -18.5 7 -30 q3.5 -11.5 7 -18.5 q3.5 -7 3.5 -13 q-98 0 -152.5 39 q-54.5 39 -54.5 133 q0 72 31 141 q31 69 87 131.5 q56 62.5 132.5 115 q76.5 52.5 168.5 90.5 q92 38 195 59.5 q103 21.5 211 21.5 q135 0 227.5 -39 q92.5 -39 149.5 -108.5 q57 -69.5 82.5 -166 q25.5 -96.5 25.5 -210.5 q0 -99 -18.5 -213.5 q-18.5 -114.5 -58 -228 q-39.5 -113.5 -100 -219 q-60.5 -105.5 -144.5 -186 q-84 -80.5 -192 -129 q-108 -48.5 -242 -48.5 q-81 0 -148 22 q-67 22 -116 71 q-49 49 -76 127.5 q-27 78.5 -27 190.5 q0 83 15.5 186.5 q15.5 103.5 46.5 210 q31 106.5 77.5 208.5 q46.5 102 108 181 q61.5 79 138.5 127 q77 48 169 48 q26 0 52 -3 q26 -3 55 -14 ZM739 1661 l-121 387 l215 0 l59 -387 l-153 0 Z" /><glyph glyph-name="Oslash" unicode="" d="M543 -145 l28 133 l-4 0 q-78 0 -143.5 21 q-65.5 21 -112 67.5 q-46.5 46.5 -72.5 120 q-26 73.5 -26 178.5 q0 77 15 174 q15 97 45 196.5 q30 99.5 74.5 194.5 q44.5 95 104 169.5 q59.5 74.5 133.5 119.5 q74 45 163 45 q24 0 47 -3 q23 -3 45 -11 l18 83 q-17 4 -36.5 5.5 q-19.5 1.5 -41.5 1.5 q-114 0 -217 -34.5 q-103 -34.5 -181 -98.5 q-78 -64 -124.5 -155.5 q-46.5 -91.5 -46.5 -205.5 q0 -28 3 -45.5 q3 -17.5 7 -28 q4 -10.5 7 -17 q3 -6.5 3 -11.5 q-94 0 -147 36 q-53 36 -53 123 q0 68 30 133 q30 65 83.5 123.5 q53.5 58.5 128 107.5 q74.5 49 163 85 q88.5 36 188 56 q99.5 20 203.5 20 q13 0 25 0 q12 0 25 -2 l22 100 l107 0 l-25 -115 q86 -21 145.5 -64 q59.5 -43 97 -104.5 q37.5 -61.5 54 -139 q16.5 -77.5 16.5 -167.5 q0 -85 -15.5 -183 q-15.5 -98 -47.5 -196.5 q-32 -98.5 -81.5 -192.5 q-49.5 -94 -117.5 -171 q-68 -77 -156 -131.5 q-88 -54.5 -196 -73.5 l-31 -143 l-106 0 ZM838 1249 q-44 -29 -85.5 -85.5 q-41.5 -56.5 -78 -130.5 q-36.5 -74 -67.5 -160.5 q-31 -86.5 -53.5 -175 q-22.5 -88.5 -35 -174 q-12.5 -85.5 -12.5 -156.5 q0 -92 22 -152.5 q22 -60.5 76 -71.5 l234 1106 ZM719 180 q41 30 80 81 q39 51 74 117 q35 66 64 143 q29 77 50 159.5 q21 82.5 33 167.5 q12 85 12 166 q0 103 -15 172.5 q-15 69.5 -63 111.5 l-235 -1118 Z" /><glyph glyph-name="Otilde" unicode="" d="M883 1343 q-47 -28 -91.5 -87.5 q-44.5 -59.5 -84.5 -139 q-40 -79.5 -73.5 -173 q-33.5 -93.5 -58 -190 q-24.5 -96.5 -38 -190 q-13.5 -93.5 -13.5 -172.5 q0 -52 7 -95.5 q7 -43.5 21 -75 q14 -31.5 36.5 -49 q22.5 -17.5 54.5 -17.5 q52 0 103.5 40 q51.5 40 99.5 109 q48 69 89 160.5 q41 91.5 71 195 q30 103.5 47.5 212.5 q17.5 109 17.5 212 q0 89 -10.5 156.5 q-10.5 67.5 -39.5 112.5 q-29 45 -80 67.5 q-51 22.5 -132 22.5 q-117 0 -224 -36.5 q-107 -36.5 -188.5 -105 q-81.5 -68.5 -129.5 -166 q-48 -97.5 -48 -219.5 q0 -30 3.5 -48.5 q3.5 -18.5 7 -30 q3.5 -11.5 7 -18.5 q3.5 -7 3.5 -13 q-98 0 -152.5 39 q-54.5 39 -54.5 133 q0 72 31 141 q31 69 87 131.5 q56 62.5 132.5 115 q76.5 52.5 168.5 90.5 q92 38 195 59.5 q103 21.5 211 21.5 q135 0 227.5 -39 q92.5 -39 149.5 -108.5 q57 -69.5 82.5 -166 q25.5 -96.5 25.5 -210.5 q0 -99 -18.5 -213.5 q-18.5 -114.5 -58 -228 q-39.5 -113.5 -100 -219 q-60.5 -105.5 -144.5 -186 q-84 -80.5 -192 -129 q-108 -48.5 -242 -48.5 q-81 0 -148 22 q-67 22 -116 71 q-49 49 -76 127.5 q-27 78.5 -27 190.5 q0 83 15.5 186.5 q15.5 103.5 46.5 210 q31 106.5 77.5 208.5 q46.5 102 108 181 q61.5 79 138.5 127 q77 48 169 48 q26 0 52 -3 q26 -3 55 -14 ZM1382 1882 q-8 -36 -38.5 -72.5 q-30.5 -36.5 -75.5 -66 q-45 -29.5 -101 -48 q-56 -18.5 -114 -18.5 q-52 0 -96 12 q-44 12 -85 26 q-41 14 -80.5 26 q-39.5 12 -82.5 12 q-77 0 -136 -53 l-12 4 q50 99 137.5 150 q87.5 51 204.5 51 q55 0 98.5 -10.5 q43.5 -10.5 81.5 -23.5 q38 -13 75.5 -23.5 q37.5 -10.5 82.5 -10.5 q38 0 72 12 q34 12 57 35 l12 -2 Z" /><glyph glyph-name="Sacute" unicode="&#x15a;" d="M733 1661 l187 387 l215 0 l-248 -387 l-154 0 ZM1132 1260 q0 -43 -11.5 -78.5 q-11.5 -35.5 -31.5 -61 q-20 -25.5 -49 -39.5 q-29 -14 -63 -14 q-39 0 -70.5 16.5 q-31.5 16.5 -54.5 47.5 q38 28 61 74.5 q23 46.5 23 99.5 q0 66 -39 104.5 q-39 38.5 -107 38.5 q-41 0 -75.5 -15.5 q-34.5 -15.5 -59 -43 q-24.5 -27.5 -38 -65.5 q-13.5 -38 -13.5 -83 q0 -68 33 -128 q33 -60 83 -118 q50 -58 108 -117.5 q58 -59.5 108 -127 q50 -67.5 83 -146 q33 -78.5 33 -173.5 q0 -101 -42 -186.5 q-42 -85.5 -116.5 -148 q-74.5 -62.5 -175 -98 q-100.5 -35.5 -217.5 -35.5 q-98 0 -177.5 25.5 q-79.5 25.5 -136 73 q-56.5 47.5 -87.5 113.5 q-31 66 -31 147 q0 68 22 127 q22 59 60 102.5 q38 43.5 90 68.5 q52 25 111 25 q72 0 121 -36 q49 -36 61 -99 q-54 0 -97 -15 q-43 -15 -73 -42 q-30 -27 -46.5 -65.5 q-16.5 -38.5 -16.5 -86.5 q0 -90 52.5 -142.5 q52.5 -52.5 141.5 -52.5 q54 0 100 19.5 q46 19.5 79 53.5 q33 34 52 81 q19 47 19 102 q0 56 -18.5 107.5 q-18.5 51.5 -49.5 100 q-31 48.5 -70 95.5 q-39 47 -80 94.5 q-41 47.5 -80 95.5 q-39 48 -70 98.5 q-31 50.5 -49.5 104.5 q-18.5 54 -18.5 114 q0 81 34.5 149.5 q34.5 68.5 96 118.5 q61.5 50 145.5 78.5 q84 28.5 183 28.5 q83 0 150 -20.5 q67 -20.5 114.5 -58 q47.5 -37.5 73.5 -90.5 q26 -53 26 -118 Z" /><glyph glyph-name="Scaron" unicode="&#x160;" d="M876 1661 l-43 0 l-123 387 l66 0 l123 -164 l321 164 l90 0 l-434 -387 ZM1132 1260 q0 -43 -11.5 -78.5 q-11.5 -35.5 -31.5 -61 q-20 -25.5 -49 -39.5 q-29 -14 -63 -14 q-39 0 -70.5 16.5 q-31.5 16.5 -54.5 47.5 q38 28 61 74.5 q23 46.5 23 99.5 q0 66 -39 104.5 q-39 38.5 -107 38.5 q-41 0 -75.5 -15.5 q-34.5 -15.5 -59 -43 q-24.5 -27.5 -38 -65.5 q-13.5 -38 -13.5 -83 q0 -68 33 -128 q33 -60 83 -118 q50 -58 108 -117.5 q58 -59.5 108 -127 q50 -67.5 83 -146 q33 -78.5 33 -173.5 q0 -101 -42 -186.5 q-42 -85.5 -116.5 -148 q-74.5 -62.5 -175 -98 q-100.5 -35.5 -217.5 -35.5 q-98 0 -177.5 25.5 q-79.5 25.5 -136 73 q-56.5 47.5 -87.5 113.5 q-31 66 -31 147 q0 68 22 127 q22 59 60 102.5 q38 43.5 90 68.5 q52 25 111 25 q72 0 121 -36 q49 -36 61 -99 q-54 0 -97 -15 q-43 -15 -73 -42 q-30 -27 -46.5 -65.5 q-16.5 -38.5 -16.5 -86.5 q0 -90 52.5 -142.5 q52.5 -52.5 141.5 -52.5 q54 0 100 19.5 q46 19.5 79 53.5 q33 34 52 81 q19 47 19 102 q0 56 -18.5 107.5 q-18.5 51.5 -49.5 100 q-31 48.5 -70 95.5 q-39 47 -80 94.5 q-41 47.5 -80 95.5 q-39 48 -70 98.5 q-31 50.5 -49.5 104.5 q-18.5 54 -18.5 114 q0 81 34.5 149.5 q34.5 68.5 96 118.5 q61.5 50 145.5 78.5 q84 28.5 183 28.5 q83 0 150 -20.5 q67 -20.5 114.5 -58 q47.5 -37.5 73.5 -90.5 q26 -53 26 -118 Z" /><glyph glyph-name="Thorn" unicode="" d="M193 0 l245 1151 q-115 -60 -175 -168.5 q-60 -108.5 -60 -263.5 q0 -39 4.5 -63.5 q4.5 -24.5 9.5 -39.5 q5 -15 9.5 -22.5 q4.5 -7.5 4.5 -13.5 q-53 0 -94 10.5 q-41 10.5 -68.5 33.5 q-27.5 23 -42 61 q-14.5 38 -14.5 93 q0 75 36 148 q36 73 97 137 q61 64 142.5 115.5 q81.5 51.5 173.5 83.5 l51 233 l303 41 l-49 -225 q117 -6 201.5 -41.5 q84.5 -35.5 139 -90 q54.5 -54.5 81 -125 q26.5 -70.5 26.5 -147.5 q0 -98 -40.5 -195.5 q-40.5 -97.5 -117 -176.5 q-76.5 -79 -186 -128 q-109.5 -49 -247.5 -49 l-60 0 l-76 -358 l-294 0 ZM608 434 q54 0 103.5 22 q49.5 22 91.5 59.5 q42 37.5 76 87 q34 49.5 58 105.5 q24 56 37 115 q13 59 13 115 q0 54 -13.5 103.5 q-13.5 49.5 -42.5 87.5 q-29 38 -74 61.5 q-45 23.5 -109 26.5 l-168 -783 l28 0 Z" /><glyph glyph-name="Uacute" unicode="" d="M1260 1532 l289 0 l-136 -639 q-33 -156 -66 -283.5 q-33 -127.5 -73.5 -228.5 q-40.5 -101 -91.5 -175 q-51 -74 -119 -123 q-68 -49 -156.5 -73 q-88.5 -24 -203.5 -24 q-111 0 -186.5 21.5 q-75.5 21.5 -122 63 q-46.5 41.5 -67 102 q-20.5 60.5 -20.5 138.5 q0 77 14 168 q14 91 37 195.5 q23 104.5 53.5 223 q30.5 118.5 63.5 249.5 l68 270 q-84 -22 -151 -63.5 q-67 -41.5 -114 -101 q-47 -59.5 -72.5 -136.5 q-25.5 -77 -25.5 -170 q0 -41 4.5 -65.5 q4.5 -24.5 10 -39 q5.5 -14.5 10 -22 q4.5 -7.5 4.5 -14.5 q-51 0 -92 10 q-41 10 -69 32 q-28 22 -43 58 q-15 36 -15 88 q0 72 30 140.5 q30 68.5 82.5 129 q52.5 60.5 125.5 110.5 q73 50 159 86.5 q86 36.5 182 56.5 q96 20 195 20 q26 0 46 -2 q20 -2 52 -8 q-48 -176 -86.5 -318.5 q-38.5 -142.5 -69.5 -256.5 q-31 -114 -53.5 -202.5 q-22.5 -88.5 -37 -158 q-14.5 -69.5 -22 -123 q-7.5 -53.5 -7.5 -96.5 q0 -88 31.5 -136.5 q31.5 -48.5 109.5 -48.5 q44 0 80 6.5 q36 6.5 68 29.5 q32 23 60.5 69 q28.5 46 58 125.5 q29.5 79.5 61 197 q31.5 117.5 68.5 285.5 l137 633 ZM914 1661 l186 387 l215 0 l-248 -387 l-153 0 Z" /><glyph glyph-name="Ucircumflex" unicode="" d="M1260 1532 l289 0 l-136 -639 q-33 -156 -66 -283.5 q-33 -127.5 -73.5 -228.5 q-40.5 -101 -91.5 -175 q-51 -74 -119 -123 q-68 -49 -156.5 -73 q-88.5 -24 -203.5 -24 q-111 0 -186.5 21.5 q-75.5 21.5 -122 63 q-46.5 41.5 -67 102 q-20.5 60.5 -20.5 138.5 q0 77 14 168 q14 91 37 195.5 q23 104.5 53.5 223 q30.5 118.5 63.5 249.5 l68 270 q-84 -22 -151 -63.5 q-67 -41.5 -114 -101 q-47 -59.5 -72.5 -136.5 q-25.5 -77 -25.5 -170 q0 -41 4.5 -65.5 q4.5 -24.5 10 -39 q5.5 -14.5 10 -22 q4.5 -7.5 4.5 -14.5 q-51 0 -92 10 q-41 10 -69 32 q-28 22 -43 58 q-15 36 -15 88 q0 72 30 140.5 q30 68.5 82.5 129 q52.5 60.5 125.5 110.5 q73 50 159 86.5 q86 36.5 182 56.5 q96 20 195 20 q26 0 46 -2 q20 -2 52 -8 q-48 -176 -86.5 -318.5 q-38.5 -142.5 -69.5 -256.5 q-31 -114 -53.5 -202.5 q-22.5 -88.5 -37 -158 q-14.5 -69.5 -22 -123 q-7.5 -53.5 -7.5 -96.5 q0 -88 31.5 -136.5 q31.5 -48.5 109.5 -48.5 q44 0 80 6.5 q36 6.5 68 29.5 q32 23 60.5 69 q28.5 46 58 125.5 q29.5 79.5 61 197 q31.5 117.5 68.5 285.5 l137 633 ZM1268 1661 l-123 164 l-321 -164 l-91 0 l435 387 l43 0 l122 -387 l-65 0 Z" /></font>
</defs>
</svg>
