<svg xmlns="http://www.w3.org/2000/svg" version="1" width="445.333" height="400" viewBox="0 0 334.000000 300.000000"><g stroke-width=".8" stroke="#000"><path d="M70.2 10.2c-.7.7-1.2 1.6-1.2 2.2 0 1.7 12 33.9 13.2 35.3.6.8 2 1.3 3.1 1.1 4.4-.7 4.2-2.8-2.2-20.3-3.4-9.3-6.7-17.5-7.3-18.2-1.3-1.6-4-1.7-5.6-.1zm64.3 7.8c-.3.5-1.7 7.1-3 14.7L129 46.472c.883 2.455 4.98 3.05 6.887 2.135C137.2 47.997 137.2 48 140 31.7c1.7-9.2 1.9-12.2.9-13.3-1.3-1.6-5.5-1.9-6.4-.4zm-120 35.4c-1 .7-1.5 2.2-1.3 3.5.2 1.9 4.2 4.5 21.8 13.8 21.9 11.7 22.9 12 25.4 8 .8-1.2.7-2-.4-3.1-1.4-1.3-38.6-21.5-42.2-22.8-.9-.4-2.4-.1-3.3.6zm79.3 44.8c-1.6.5-2.8 1.3-2.8 1.8 0 1.4 44.2 122.4 45 123.4.9.9 8-1.1 8-2.4 0-.6-16.9-47.5-19.5-54.1-.4-1.1 2.6-5.5 9.6-13.8 5.6-6.7 10.3-12.1 10.4-11.9.1.2 3.1 16.7 6.5 36.8 6.2 35.3 7.4 40 10.6 40 5.861-1.698 5.88-1.748 24.78-17.26l-4.849-5.496c-11.708 9.124-7.063 5.365-12.502 9.919-5.229 4.376-4.629-1.563-5.229-2.963-.4-.9-3.2-16.3-6.3-34.2-3.1-17.9-6.1-33.8-6.7-35.3-.6-1.5-2-3.2-3-3.8-2.5-1.3-4 0-16.8 15.5-5.2 6.3-9.7 11.5-10 11.5-.3.1-5.3-13.1-11.1-29.2-6.8-18.8-11-29.3-12-29.4-.8-.1-2.6.3-4.1.9z" fill="#ff0"/><path d="M293.3 114.6c-5.3 1.9-10.8 8-12.3 13.5-1.6 5.8-.5 13.3 2.9 20.5 6.3 13.3 17.6 17.4 30.2 10.8 10.887-6.077 9.3-20.8 9.3-20.8-3.2-19.3-15.5-29.1-30.1-24zm13.3 7.3c4.9 3 8.8 12 8.9 20.4.397 6.818-3.2 9.7-3.2 9.7-4.5 4-9.8 4.9-14.3 2.3-7.4-4.3-12.4-20.7-8.6-28.2 3-5.7 11.4-7.8 17.2-4.2zm-40.2 3c-1.8 1.1-4.4 3.6-6 5.7l-2.8 3.7-1.3-3.1c-1.2-2.9-1.4-3-4.8-1.9-2.3.7-3.4 1.5-3.1 2.4.3.7 3.5 10.6 7.2 22 3.7 11.5 6.8 20.9 6.9 21.1.1.1 1.8-.4 3.7-1l3.5-1.3-5-15.7c-4.6-14.4-4.9-16-3.7-18.4 1.6-2.8 8.6-7.4 11.4-7.4 1.3 0 1.6-.5 1.2-1.6-.3-.9-.9-2.7-1.2-4-.7-2.9-1.9-3-6-.5z" fill="#0a0"/><path d="M222.5 137.5c-2.3.8-5.6 3.2-7.7 5.7-2.1 2.4-3.8 3.8-3.8 3.3-.1-2.7-1.6-3.5-4.8-2.4-1.8.6-3.2 1.4-3.2 1.7 0 .4 4.2 13.7 9.4 29.5 6.1 18.8 9 29 8.2 29.2-.6.3-20 6.9-43.1 14.9-49.4 16.9-45.2 15.4-45.9 17.2-.8 2.1 1.1 5.4 3 5.4 2.7 0 152.8-52 154.3-53.4 1.6-1.6.7-5.2-1.5-6-.9-.3-14 3.7-29.2 8.9-15.2 5.3-28.1 9.4-28.7 9.2-.8-.4-5.5-12.9-5.5-14.8 0-.3 1.5-.3 3.4-.1 4.5.5 12.7-2.2 15.3-5.1 4.1-4.5 5.7-8.9 5.7-15.7-.2-11.8-6.2-23.6-13.8-27.1-4.9-2.2-6.8-2.3-12.1-.4zm11.5 10.3c6.1 6.1 8.9 18.7 5.5 25.2-.9 1.6-2.9 3.7-4.5 4.5-3.6 1.8-11.1 2.9-12.6 1.8-.6-.4-2.9-6.5-5.1-13.4l-4-12.6 2.3-2.6c3.2-3.7 8.4-6.7 11.8-6.7 2 0 4 1.2 6.6 3.8z" fill="#0a0"/></g><ellipse cx="198.305" cy="186.547" rx="6.992" ry="6.674" fill="#0a0" fill-rule="evenodd" stroke="#000" stroke-width=".8"/><path d="M142.431 249.095l41.123-13.483s3.247 8.066-5.393 10.786l-24.27 7.64c-8.686 2.735-11.46-4.943-11.46-4.943zm14.196 12.254l25.842-8.315s2.648 7.047-8.763 11.011c-14.505 5.04-17.079-2.696-17.079-2.696zm24.269-170.11S155.234 51.61 99.774 68.542C75.4 75.984 43.196 98.876 53.482 144.946c8.727 39.085 38.89 43.484 52.584 75.504 7.144 16.704 2.578 29.993-8.54 38.652-11.117 8.658-44.942-1.349-44.942-1.349l-.45 11.236s36.631 11.476 52.134 0 22.102-24.967 13.933-50.336c-10.306-32.002-46.152-42.432-53.932-75.954-3.1-13.358-1.45-53.038 42.246-64.719 43.697-11.68 64.27 21.348 64.27 21.348z" fill="#0a0" fill-rule="evenodd" stroke="#000" stroke-width=".8"/></svg>