<?xml version="1.0" standalone="no"?><!DOCTYPE svg PUBLIC "-//W3C//DTD SVG 1.1//EN" "http://www.w3.org/Graphics/SVG/1.1/DTD/svg11.dtd" ><svg xmlns="http://www.w3.org/2000/svg"><metadata></metadata><defs><font id="JohanAakerlund: Comfortaa Bold: 2008" horiz-adv-x="2640"><font-face font-family="Comfortaa" font-weight="700" font-stretch="normal" units-per-em="2048" panose-1="2 15 8 3 7 2 0 6 0 3" ascent="2080" descent="-481" x-height="3" bbox="-384 -481 2596 2080" underline-thickness="150" underline-position="-217" unicode-range="U+0020-fb02" /><missing-glyph horiz-adv-x="1280" d="M442 1041 q0 -36 -25.5 -61 q-25.5 -25 -61.5 -25 q-36 0 -61 25 q-25 25 -25 61 q0 78 30 146.5 q30 68.5 81.5 119.5 q51.5 51 119.5 80.5 q68 29.5 144 29.5 q77 0 145.5 -30 q68.5 -30 119.5 -81 q51 -51 81 -119.5 q30 -68.5 30 -145.5 q0 -155 -111 -267 l-119 -111 q-28 -29 -43.5 -64.5 q-15.5 -35.5 -15.5 -77.5 q0 -36 -25 -61.5 q-25 -25.5 -62 -25.5 q-36 0 -61 25.5 q-25 25.5 -25 61.5 q0 156 111 266 l120 112 q28 29 43 64.5 q15 35.5 15 77.5 q0 42 -16 79 q-16 37 -43.5 64.5 q-27.5 27.5 -64.5 43.5 q-37 16 -79 16 q-42 0 -78.5 -16 q-36.5 -16 -64 -43.5 q-27.5 -27.5 -43.5 -64.5 q-16 -37 -16 -79 ZM760 298 q0 -23 -9 -44 q-9 -21 -24.5 -37 q-15.5 -16 -36.5 -25 q-21 -9 -46 -9 q-23 0 -44 9 q-21 9 -37 25 q-16 16 -25 37 q-9 21 -9 44 q0 25 9 46 q9 21 25 36.5 q16 15.5 37 24.5 q21 9 44 9 q51 0 83.5 -32.5 q32.5 -32.5 32.5 -83.5 ZM229 153 l831 0 l0 1294 l-831 0 l0 -1294 ZM163 0 q-37 0 -62 25.5 q-25 25.5 -25 61.5 l0 1426 q0 36 25 61.5 q25 25.5 62 25.5 l963 0 q37 0 62 -25.5 q25 -25.5 25 -61.5 l0 -1426 q0 -36 -25 -61.5 q-25 -25.5 -62 -25.5 l-963 0 Z" /><glyph glyph-name="nonbreakingspace" unicode="  " d="" /><glyph glyph-name="exclam" unicode="!" d="M353 142 q0 -30 -11.5 -56 q-11.5 -26 -31 -45 q-19.5 -19 -45.5 -30 q-26 -11 -54 -11 q-29 0 -54.5 11 q-25.5 11 -45 30 q-19.5 19 -31 45 q-11.5 26 -11.5 56 q0 29 11 55 q11 26 30.5 45.5 q19.5 19.5 45.5 31 q26 11.5 55 11.5 q29 0 55 -11.5 q26 -11.5 45.5 -31 q19.5 -19.5 30.5 -45.5 q11 -26 11 -55 ZM107 1494 q0 44 29.5 74.5 q29.5 30.5 74.5 30.5 q45 0 74.5 -30.5 q29.5 -30.5 29.5 -74.5 l0 -1044 q0 -21 -8.5 -40 q-8.5 -19 -22.5 -33 q-14 -14 -33 -22 q-19 -8 -40 -8 q-22 0 -41 8.5 q-19 8.5 -33 22.5 q-14 14 -22 32.5 q-8 18.5 -8 39.5 l0 1044 Z" /><glyph glyph-name="quotedbl" unicode="&quot;" d="M269 1494 l-19 -286 q-1 -35 -25.5 -59.5 q-24.5 -24.5 -59.5 -24.5 q-35 0 -59.5 24.5 q-24.5 24.5 -25.5 59.5 l-19 286 q0 21 8 40 q8 19 22.5 33.5 q14.5 14.5 33.5 22.5 q19 8 40 8 q21 0 40 -8 q19 -8 33.5 -22.5 q14.5 -14.5 22.5 -33.5 q8 -19 8 -40 ZM516 1495 l-19 -286 q-1 -35 -25.5 -59.5 q-24.5 -24.5 -59.5 -24.5 q-35 0 -59.5 24.5 q-24.5 24.5 -25.5 59.5 l-19 286 q0 21 8 40 q8 19 22.5 33.5 q14.5 14.5 33.5 22.5 q19 8 40 8 q21 0 40 -8 q19 -8 33.5 -22.5 q14.5 -14.5 22.5 -33.5 q8 -19 8 -40 Z" /><glyph glyph-name="numbersign" unicode="#" d="M426 102 q-4 -22 -15.5 -40 q-11.5 -18 -27.5 -32 q-16 -14 -36 -22 q-20 -8 -41 -8 q-43 0 -68.5 27.5 q-25.5 27.5 -25.5 67.5 q0 8 1 16 l63 353 l-119 0 q-19 0 -36 6.5 q-17 6.5 -30.5 18.5 q-13.5 12 -20.5 29 q-7 17 -7 37 l1 19 q3 22 14 40 q11 18 28 32 q17 14 37.5 21.5 q20.5 7.5 40.5 7.5 l129 0 l44 251 l-119 0 q-41 0 -68 26.5 q-27 26.5 -27 65.5 q0 24 10.5 46 q10.5 22 27 38.5 q16.5 16.5 39 26 q22.5 9.5 45.5 9.5 l129 0 l64 362 q4 22 15.5 40 q11.5 18 27.5 32 q16 14 36 22 q20 8 41 8 q43 0 68.5 -28 q25.5 -28 25.5 -69 q0 -10 -1 -15 l-62 -352 l172 0 l64 362 q3 22 14 40 q11 18 27.5 32 q16.5 14 36 22 q19.5 8 41.5 8 q42 0 68 -28.5 q26 -28.5 26 -68.5 q0 -10 -1 -15 l-62 -352 l120 0 q18 0 35 -6.5 q17 -6.5 30 -18.5 q13 -12 20.5 -29 q7.5 -17 7.5 -37 l-1 -19 q-3 -22 -14.5 -40 q-11.5 -18 -28 -32 q-16.5 -14 -37 -22 q-20.5 -8 -40.5 -8 l-129 0 l-45 -251 l120 0 q41 0 67.5 -26.5 q26.5 -26.5 26.5 -65.5 q0 -24 -10 -46 q-10 -22 -27 -38 q-17 -16 -39 -25.5 q-22 -9.5 -46 -9.5 l-129 0 l-64 -362 q-4 -22 -15 -40 q-11 -18 -27.5 -32 q-16.5 -14 -36 -22 q-19.5 -8 -41.5 -8 q-40 0 -67 26.5 q-27 26.5 -27 64.5 q0 10 2 20 l62 353 l-172 0 l-64 -362 ZM571 926 l-43 -251 l170 0 l45 251 l-172 0 Z" /><glyph glyph-name="dollar" unicode="$" d="M457 1337 q-96 -62 -96 -170 q0 -50 25 -98 q25 -48 71 -74 l0 342 ZM665 261 q30 24 52 47.5 q22 23.5 35.5 50 q13.5 26.5 20 58 q6.5 31.5 6.5 71.5 q0 63 -28 123 q-28 60 -86 98 l0 -448 ZM457 -47 l0 50 q-109 11 -203.5 67 q-94.5 56 -155.5 148 q-21 27 -21 64 q0 45 29.5 74.5 q29.5 29.5 74.5 29.5 q24 0 42.5 -11 q18.5 -11 36.5 -28 q18 -17 36 -37.5 q18 -20.5 41 -39.5 q23 -19 52 -34.5 q29 -15.5 68 -21.5 l0 556 q-65 17 -121 54.5 q-56 37.5 -97 90 q-41 52.5 -64 116 q-23 63.5 -23 132.5 q0 70 22 134 q22 64 62 116.5 q40 52.5 96 91 q56 38.5 125 56.5 l0 62 q0 45 29.5 74.5 q29.5 29.5 74.5 29.5 q45 0 74.5 -29.5 q29.5 -29.5 29.5 -74.5 l0 -63 q36 -9 72 -26 q36 -17 68 -40.5 q32 -23.5 59.5 -53.5 q27.5 -30 46.5 -65 q7 -13 11 -26 q4 -13 4 -30 q0 -45 -29.5 -74.5 q-29.5 -29.5 -74.5 -29.5 q-29 0 -47 12 q-18 12 -34 30 q-16 18 -33 39.5 q-17 21.5 -43 39.5 l0 -394 q70 -25 129.5 -70.5 q59.5 -45.5 102.5 -105 q43 -59.5 67 -130 q24 -70.5 24 -145.5 q0 -78 -22.5 -150 q-22.5 -72 -64.5 -132.5 q-42 -60.5 -101.5 -107.5 q-59.5 -47 -134.5 -74 l0 -74 q0 -21 -8 -40 q-8 -19 -22.5 -33.5 q-14.5 -14.5 -33.5 -22.5 q-19 -8 -40 -8 q-22 0 -41 8 q-19 8 -33 22.5 q-14 14.5 -22 33.5 q-8 19 -8 40 Z" /><glyph glyph-name="percent" unicode="%" d="M872 1190 q0 -83 -32 -157 q-32 -74 -87.5 -130 q-55.5 -56 -130 -88.5 q-74.5 -32.5 -158.5 -32.5 q-84 0 -158.5 32.5 q-74.5 32.5 -130 88.5 q-55.5 56 -87.5 130 q-32 74 -32 157 q0 83 32 157.5 q32 74.5 87.5 130.5 q55.5 56 130 88.5 q74.5 32.5 158.5 32.5 q84 0 158.5 -32.5 q74.5 -32.5 130 -88.5 q55.5 -56 87.5 -130.5 q32 -74.5 32 -157.5 ZM889 408 q0 83 32 157.5 q32 74.5 87.5 130 q55.5 55.5 129.5 88 q74 32.5 159 32.5 q83 0 157 -32 q74 -32 130 -87 q56 -55 88.5 -129.5 q32.5 -74.5 32.5 -159.5 q0 -85 -32.5 -159 q-32.5 -74 -88 -129.5 q-55.5 -55.5 -130 -87.5 q-74.5 -32 -157.5 -32 q-84 0 -158 32.5 q-74 32.5 -129.5 88 q-55.5 55.5 -88 129.5 q-32.5 74 -32.5 158 ZM464 1390 q-42 0 -78 -16 q-36 -16 -63 -43.5 q-27 -27.5 -42.5 -64 q-15.5 -36.5 -15.5 -76.5 q0 -41 15.5 -77 q15.5 -36 42 -63 q26.5 -27 63 -43 q36.5 -16 78.5 -16 q41 0 77.5 16 q36.5 16 63.5 43 q27 27 42.5 63 q15.5 36 15.5 77 q0 40 -16 76.5 q-16 36.5 -43 64 q-27 27.5 -63 43.5 q-36 16 -77 16 ZM1297 607 q-41 0 -77.5 -15.5 q-36.5 -15.5 -63.5 -42.5 q-27 -27 -42.5 -63.5 q-15.5 -36.5 -15.5 -77.5 q0 -41 15.5 -77.5 q15.5 -36.5 42.5 -63.5 q27 -27 63.5 -42.5 q36.5 -15.5 77.5 -15.5 q41 0 77.5 16 q36.5 16 63.5 43 q27 27 43 63 q16 36 16 77 q0 41 -16 77 q-16 36 -43 63 q-27 27 -63.5 43 q-36.5 16 -77.5 16 ZM342 0 q-22 0 -41 8 q-19 8 -33 22.5 q-14 14.5 -22 33.5 q-8 19 -8 40 q0 43 25 71 l1077 1383 q36 42 84 42 q22 0 41 -8.5 q19 -8.5 33 -22.5 q14 -14 22.5 -33 q8.5 -19 8.5 -41 q0 -36 -21 -63 l-1088 -1399 q-30 -33 -78 -33 Z" /><glyph glyph-name="ampersand" unicode="&amp;" d="M510 1007 l95 75 q40 33 62 69.5 q22 36.5 22 73.5 q0 34 -13 64 q-13 30 -36 52.5 q-23 22.5 -52.5 35.5 q-29.5 13 -62.5 13 q-34 0 -64 -13.5 q-30 -13.5 -52 -36 q-22 -22.5 -34.5 -52.5 q-12.5 -30 -12.5 -63 q0 -68 46 -115 l102 -103 ZM810 407 l-321 322 l-90 -69 q-55 -46 -85 -92.5 q-30 -46.5 -30 -94.5 q0 -60 19 -108.5 q19 -48.5 52 -82 q33 -33.5 77 -52 q44 -18.5 93 -18.5 q99 0 170 70 l115 125 ZM659 859 l296 -299 l151 162 q14 15 34 22.5 q20 7.5 41 7.5 q45 0 76 -30 q31 -30 31 -76 q0 -21 -7 -38.5 q-7 -17.5 -21 -33.5 l-154 -165 l228 -230 q31 -31 31 -73 q0 -22 -8.5 -41 q-8.5 -19 -23 -34 q-14.5 -15 -33.5 -23 q-19 -8 -42 -8 q-42 0 -74 28 l-224 226 l-114 -121 q-134 -133 -321 -133 q-92 0 -174.5 35 q-82.5 35 -144.5 98 q-62 63 -98 150 q-36 87 -36 190 q0 95 47.5 180.5 q47.5 85.5 145.5 161.5 l77 60 l-84 84 l1 0 q-110 112 -110 266 q0 77 30 146 q30 69 82 120 q52 51 120 81 q68 30 144 30 q78 0 146.5 -30.5 q68.5 -30.5 119 -82 q50.5 -51.5 80.5 -120 q30 -68.5 30 -144.5 q0 -167 -151 -298 l-91 -68 Z" /><glyph glyph-name="quotesingle" unicode="&#39;" d="M269 1494 l-19 -286 q-1 -35 -25.5 -59.5 q-24.5 -24.5 -59.5 -24.5 q-35 0 -59.5 24.5 q-24.5 24.5 -25.5 59.5 l-19 286 q0 21 8 40 q8 19 22.5 33.5 q14.5 14.5 33.5 22.5 q19 8 40 8 q21 0 40 -8 q19 -8 33.5 -22.5 q14.5 -14.5 22.5 -33.5 q8 -19 8 -40 Z" /><glyph glyph-name="parenleft" unicode="(" d="M303 1525 q16 35 42 53.5 q26 18.5 57 18.5 q22 0 41 -8.5 q19 -8.5 33 -23.5 q14 -15 22 -34.5 q8 -19.5 8 -41.5 q-3 -34 -15 -53 q-214 -438 -214 -876 q0 -217 56 -440.5 q56 -223.5 160 -440.5 q6 -13 9.5 -25 q3.5 -12 3.5 -27 q0 -45 -29.5 -76 q-29.5 -31 -74.5 -31 q-32 0 -56 16.5 q-24 16.5 -42 54.5 q-233 483 -233 970 q0 488 232 964 Z" /><glyph glyph-name="parenright" unicode=")" d="M506 561 q0 -246 -58.5 -486.5 q-58.5 -240.5 -174.5 -483.5 q-18 -38 -42 -54.5 q-24 -16.5 -56 -16.5 q-45 0 -74.5 31 q-29.5 31 -29.5 76 q0 15 3.5 27 q3.5 12 9.5 25 q104 217 160 440.5 q56 223.5 56 440.5 q0 438 -214 876 q-12 19 -15 53 q0 22 8 41.5 q8 19.5 22 34.5 q14 15 33 23.5 q19 8.5 41 8.5 q32 0 57 -18.5 q25 -18.5 42 -53.5 q116 -241 173.5 -480.5 q57.5 -239.5 58.5 -483.5 Z" /><glyph glyph-name="asterisk" unicode="*" d="M283 1233 l-103 4 q-42 5 -72 33.5 q-30 28.5 -30 71.5 q0 24 9.5 43 q9.5 19 24.5 32.5 q15 13.5 33.5 21 q18.5 7.5 36.5 7.5 q17 1 34 -5.5 q17 -6.5 31 -16.5 l80 -58 l-29 94 q-5 18 -5 34 q0 44 29.5 74.5 q29.5 30.5 74.5 30.5 q45 0 74.5 -30.5 q29.5 -30.5 29.5 -74.5 q0 -16 -5 -34 l-29 -96 l80 60 q30 22 65 22 q19 0 37.5 -7.5 q18.5 -7.5 33.5 -21.5 q15 -14 24.5 -33 q9.5 -19 9.5 -43 q0 -19 -7 -37 q-7 -18 -20.5 -32.5 q-13.5 -14.5 -32 -23.5 q-18.5 -9 -41.5 -11 l-104 -5 l83 -58 q48 -35 48 -87 q0 -42 -30 -72.5 q-30 -30.5 -89 -30.5 q-31 3 -51 21 q-20 18 -33 50 l-42 103 l-42 -105 q-11 -35 -37.5 -52.5 q-26.5 -17.5 -62.5 -17.5 q-24 0 -43.5 9 q-19.5 9 -33 23.5 q-13.5 14.5 -20.5 33 q-7 18.5 -7 38.5 q-1 26 12 48 q13 22 36 39 l83 59 Z" /><glyph glyph-name="plus" unicode="+" d="M941 683 l-275 0 l0 -275 q0 -45 -29.5 -74.5 q-29.5 -29.5 -74.5 -29.5 q-45 0 -75 29.5 q-30 29.5 -30 74.5 l0 275 l-275 0 q-45 0 -74.5 30 q-29.5 30 -29.5 75 q0 45 29.5 74.5 q29.5 29.5 74.5 29.5 l275 0 l0 275 q0 43 30.5 74 q30.5 31 74.5 31 q45 0 74.5 -30.5 q29.5 -30.5 29.5 -74.5 l0 -275 l275 0 q43 0 74 -30.5 q31 -30.5 31 -74.5 q0 -43 -31 -73.5 q-31 -30.5 -74 -30.5 Z" /><glyph glyph-name="comma" unicode="," d="M353 142 q0 -56 -10.5 -121 q-10.5 -65 -31 -120.5 q-20.5 -55.5 -50.5 -92 q-30 -36.5 -69 -36.5 q-36 0 -60.5 25 q-24.5 25 -24.5 61 q0 31 22 55.5 q22 24.5 22 50.5 q0 36 -41 78 q-41 41 -41 100 q0 59 41.5 100.5 q41.5 41.5 100.5 41.5 q59 0 100.5 -41.5 q41.5 -41.5 41.5 -100.5 Z" /><glyph glyph-name="hyphen" unicode="-­" d="M178 456 q-45 0 -74.5 29.5 q-29.5 29.5 -29.5 74.5 q0 45 29.5 74.5 q29.5 29.5 74.5 29.5 l456 0 q45 0 74.5 -29.5 q29.5 -29.5 29.5 -74.5 q0 -45 -29.5 -74.5 q-29.5 -29.5 -74.5 -29.5 l-456 0 Z" /><glyph glyph-name="period" unicode="." d="M343 142 q0 -59 -41.5 -100.5 q-41.5 -41.5 -100.5 -41.5 q-59 0 -100.5 41.5 q-41.5 41.5 -41.5 100.5 q0 59 41.5 100.5 q41.5 41.5 100.5 41.5 q59 0 100.5 -41.5 q41.5 -41.5 41.5 -100.5 Z" /><glyph glyph-name="slash" unicode="/" d="M893 1452 l-617 -1542 q-37 -62 -96 -62 q-45 0 -74.5 30 q-29.5 30 -29.5 75 q0 20 9 43 l617 1542 q8 17 23 32 q30 30 73 30 q43 0 73.5 -30.5 q30.5 -30.5 30.5 -73.5 q0 -24 -9 -44 Z" /><glyph glyph-name="zero" unicode="0" d="M78 801 q0 189 33 337.5 q33 148.5 95 251.5 q62 103 153 157.5 q91 54.5 208 54.5 q117 0 208 -55.5 q91 -55.5 153.5 -159 q62.5 -103.5 95 -252 q32.5 -148.5 32.5 -334.5 q0 -186 -32.5 -334.5 q-32.5 -148.5 -95 -252 q-62.5 -103.5 -153.5 -159 q-91 -55.5 -208 -55.5 q-117 0 -208 54.5 q-91 54.5 -153 157 q-62 102.5 -95 251.5 q-33 149 -33 338 ZM567 1390 q-70 0 -122.5 -45 q-52.5 -45 -87 -123 q-34.5 -78 -51.5 -186.5 q-17 -108.5 -17 -234.5 q0 -128 17 -236.5 q17 -108.5 52 -186.5 q35 -78 87 -122 q52 -44 122 -44 q71 0 123.5 45 q52.5 45 86.5 123.5 q34 78.5 51 186.5 q17 108 17 234 q0 125 -17.5 233 q-17.5 108 -51.5 187 q-34 79 -86.5 124 q-52.5 45 -122.5 45 Z" /><glyph glyph-name="one" unicode="1" d="M288 104 l0 1245 q-30 -10 -63 -22.5 q-33 -12.5 -60 -12.5 q-45 0 -74.5 29.5 q-29.5 29.5 -29.5 74.5 q0 32 16.5 57 q16.5 25 50.5 41 l229 76 q18 7 36 7 q45 0 74.5 -30.5 q29.5 -30.5 29.5 -74.5 l0 -1390 q0 -43 -30.5 -73.5 q-30.5 -30.5 -74.5 -30.5 q-43 0 -73.5 30.5 q-30.5 30.5 -30.5 73.5 Z" /><glyph glyph-name="two" unicode="2" d="M78 1115 q0 100 38.5 188 q38.5 88 104.5 154 q66 66 154 104 q88 38 187 38 q99 0 187 -39 q88 -39 154 -105 q66 -66 104.5 -154 q38.5 -88 38.5 -186 q0 -100 -36.5 -186 q-36.5 -86 -105.5 -156 l-486 -564 l523 0 q44 0 74.5 -31 q30.5 -31 30.5 -74 q0 -43 -30.5 -73.5 q-30.5 -30.5 -74.5 -30.5 l-759 0 q-22 0 -41 8 q-19 8 -33 22.5 q-14 14.5 -22 33.5 q-8 19 -8 40 q0 45 29 74 l648 740 q82 82 82 197 q0 56 -22 106 q-22 50 -59.5 87.5 q-37.5 37.5 -87.5 59.5 q-50 22 -106 22 q-57 0 -107 -21.5 q-50 -21.5 -87.5 -58.5 q-37.5 -37 -59 -87 q-21.5 -50 -21.5 -108 q0 -43 -30.5 -73.5 q-30.5 -30.5 -74.5 -30.5 q-43 0 -73.5 30.5 q-30.5 30.5 -30.5 73.5 Z" /><glyph glyph-name="three" unicode="3" d="M154 1186 q0 87 32.5 162.5 q32.5 75.5 88 132 q55.5 56.5 129.5 89 q74 32.5 158 32.5 q84 0 158 -33 q74 -33 129.5 -90 q55.5 -57 88 -132 q32.5 -75 32.5 -161 q0 -166 -123 -295 q199 -159 199 -399 q0 -101 -38 -190.5 q-38 -89.5 -104 -156.5 q-66 -67 -154 -106 q-88 -39 -188 -39 q-100 0 -188 38.5 q-88 38.5 -154 105.5 q-66 67 -104 156.5 q-38 89.5 -38 191.5 q0 46 29.5 76 q29.5 30 74.5 30 q44 0 74.5 -30 q30.5 -30 30.5 -76 q0 -59 21.5 -110 q21.5 -51 58.5 -88.5 q37 -37.5 87 -59.5 q50 -22 108 -22 q57 0 107.5 22.5 q50.5 22.5 87.5 60.5 q37 38 58.5 89 q21.5 51 21.5 108 q0 57 -21.5 108 q-21.5 51 -58.5 89 q-37 38 -87.5 60.5 q-50.5 22.5 -107.5 22.5 q-45 0 -75 30.5 q-30 30.5 -30 75.5 q0 46 30 76 q30 30 75 30 q40 0 76.5 16 q36.5 16 63.5 43.5 q27 27.5 43 64.5 q16 37 16 78 q0 42 -16 79 q-16 37 -43.5 64.5 q-27.5 27.5 -63.5 44 q-36 16.5 -76 16.5 q-41 0 -77.5 -16.5 q-36.5 -16.5 -63.5 -44 q-27 -27.5 -43 -64.5 q-16 -37 -15 -79 q0 -43 -30.5 -74 q-30.5 -31 -74.5 -31 q-43 0 -73.5 31 q-30.5 31 -30.5 74 Z" /><glyph glyph-name="four" unicode="4" d="M763 611 l0 549 l-379 -549 l379 0 ZM763 104 l0 299 l-579 0 q-45 0 -74.5 29.5 q-29.5 29.5 -29.5 74.5 q0 35 20 61 l682 987 q14 20 36.5 32 q22.5 12 49.5 12 q21 0 40 -8.5 q19 -8.5 33.5 -22.5 q14.5 -14 22.5 -33 q8 -19 8 -41 l0 -883 l123 0 q44 0 74.5 -29.5 q30.5 -29.5 30.5 -74.5 q0 -45 -30.5 -74.5 q-30.5 -29.5 -74.5 -29.5 l-123 0 l0 -299 q0 -43 -30.5 -73.5 q-30.5 -30.5 -74.5 -30.5 q-43 0 -73.5 30.5 q-30.5 30.5 -30.5 73.5 Z" /><glyph glyph-name="five" unicode="5" d="M942 1390 l-579 0 l0 -346 l238 0 q105 0 199.5 -41 q94.5 -41 166.5 -111.5 q72 -70.5 114 -166 q42 -95.5 42 -203.5 q0 -107 -41.5 -202 q-41.5 -95 -112.5 -166 q-71 -71 -166 -112.5 q-95 -41.5 -202 -41.5 q-107 0 -202 41.5 q-95 41.5 -166 112.5 q-71 71 -112.5 166 q-41.5 95 -41.5 202 q0 45 29.5 74.5 q29.5 29.5 74.5 29.5 q44 0 74.5 -29.5 q30.5 -29.5 30.5 -74.5 q0 -65 24.5 -122 q24.5 -57 67 -99.5 q42.5 -42.5 99.5 -67 q57 -24.5 122 -24.5 q64 0 121 24.5 q57 24.5 100 67.5 q43 43 67.5 99.5 q24.5 56.5 24.5 121.5 q0 64 -25 121 q-25 57 -67.5 99.5 q-42.5 42.5 -99.5 67.5 q-57 25 -121 25 l-342 0 q-45 0 -74.5 30 q-29.5 30 -29.5 75 l0 554 q0 44 29.5 74.5 q29.5 30.5 74.5 30.5 l683 0 q44 0 74.5 -31 q30.5 -31 30.5 -74 q0 -43 -30.5 -73.5 q-30.5 -30.5 -74.5 -30.5 Z" /><glyph glyph-name="six" unicode="6" d="M533 968 l29 0 q100 0 188 -38.5 q88 -38.5 154 -104.5 q66 -66 104 -154 q38 -88 38 -187 q0 -99 -38 -187 q-38 -88 -104 -154 q-66 -66 -154 -104.5 q-88 -38.5 -188 -38.5 q-100 0 -188 38 q-88 38 -154 104 q-66 66 -104 154 q-38 88 -38 188 q0 148 78 265 l-1 -2 l480 797 q15 25 39 40.5 q24 15.5 54 15.5 q45 0 74.5 -30.5 q29.5 -30.5 29.5 -74.5 q0 -25 -14 -53 l-285 -474 ZM837 484 q0 56 -21.5 106 q-21.5 50 -58.5 87.5 q-37 37.5 -87.5 59.5 q-50.5 22 -107.5 22 q-58 0 -108 -21.5 q-50 -21.5 -87 -58.5 q-37 -37 -58.5 -87.5 q-21.5 -50.5 -21.5 -107.5 q0 -58 21.5 -108 q21.5 -50 58.5 -87 q37 -37 87 -58.5 q50 -21.5 108 -21.5 q57 0 107.5 22 q50.5 22 87.5 59.5 q37 37.5 58.5 87.5 q21.5 50 21.5 106 Z" /><glyph glyph-name="seven" unicode="7" d="M96 169 l682 1222 l-583 0 q-45 0 -74.5 29.5 q-29.5 29.5 -29.5 74.5 q0 44 29.5 74.5 q29.5 30.5 74.5 30.5 l759 0 q22 0 41 -8.5 q19 -8.5 33 -22.5 q14 -14 22.5 -33 q8.5 -19 8.5 -41 q0 -27 -15 -56 l-768 -1381 q-8 -15 -20 -27 q-31 -31 -75 -31 q-43 0 -73.5 30.5 q-30.5 30.5 -30.5 73.5 q0 32 19 65 Z" /><glyph glyph-name="eight" unicode="8" d="M569 1386 q-42 0 -79 -16 q-37 -16 -64.5 -43.5 q-27.5 -27.5 -43.5 -64.5 q-16 -37 -16 -79 q0 -41 15.5 -78 q15.5 -37 43 -64.5 q27.5 -27.5 64.5 -43 q37 -15.5 80 -15.5 q40 0 77 16 q37 16 64.5 43.5 q27.5 27.5 44 64 q16.5 36.5 16.5 77.5 q0 42 -16.5 79 q-16.5 37 -44.5 64.5 q-28 27.5 -64.5 43.5 q-36.5 16 -76.5 16 ZM569 770 q-59 0 -109.5 -22 q-50.5 -22 -88 -59.5 q-37.5 -37.5 -59.5 -88.5 q-22 -51 -22 -109 q0 -59 22 -109.5 q22 -50.5 59.5 -88 q37.5 -37.5 88 -59.5 q50.5 -22 109.5 -22 q58 0 109 22.5 q51 22.5 88.5 60.5 q37.5 38 59.5 88.5 q22 50.5 22 107.5 q0 57 -22 107.5 q-22 50.5 -59.5 88.5 q-37.5 38 -88.5 60.5 q-51 22.5 -109 22.5 ZM279 888 q-124 124 -124 295 q0 86 33 162 q33 76 89.5 132 q56.5 56 131.5 88.5 q75 32.5 160 32.5 q85 0 160 -33 q75 -33 131.5 -89.5 q56.5 -56.5 89 -132 q32.5 -75.5 32.5 -160.5 q0 -170 -124 -295 q202 -159 202 -397 q0 -101 -39 -190 q-39 -89 -105.5 -156 q-66.5 -67 -156 -106 q-89.5 -39 -190.5 -39 q-102 0 -191 38.5 q-89 38.5 -156 105.5 q-67 67 -105.5 156 q-38.5 89 -38.5 191 q0 239 201 397 Z" /><glyph glyph-name="nine" unicode="9" d="M597 615 l-28 0 q-101 0 -190 39 q-89 39 -156 105.5 q-67 66.5 -106 156 q-39 89.5 -39 191.5 q0 102 39 191 q39 89 106 156 q67 67 156 105.5 q89 38.5 190 38.5 q100 0 189.5 -39.5 q89.5 -39.5 156 -106.5 q66.5 -67 106 -156 q39.5 -89 39.5 -189 q0 -149 -80 -268 l-471 -782 q-36 -57 -94 -57 q-23 0 -42 8 q-19 8 -34 23 q-15 15 -23 34 q-8 19 -8 40 q0 29 15 55 l274 455 ZM290 1107 q0 -60 22.5 -111 q22.5 -51 60.5 -88.5 q38 -37.5 88.5 -59 q50.5 -21.5 107.5 -21.5 q58 0 108.5 22.5 q50.5 22.5 88.5 60.5 q38 38 60 88.5 q22 50.5 22 108.5 q0 57 -22.5 107.5 q-22.5 50.5 -60.5 88.5 q-38 38 -88.5 60.5 q-50.5 22.5 -107.5 22.5 q-58 0 -108.5 -22 q-50.5 -22 -88.5 -59.5 q-38 -37.5 -60 -88 q-22 -50.5 -22 -109.5 Z" /><glyph glyph-name="colon" unicode=":" d="M343 142 q0 -59 -41.5 -100.5 q-41.5 -41.5 -100.5 -41.5 q-59 0 -100.5 41.5 q-41.5 41.5 -41.5 100.5 q0 59 41.5 100.5 q41.5 41.5 100.5 41.5 q59 0 100.5 -41.5 q41.5 -41.5 41.5 -100.5 ZM343 976 q0 -59 -41.5 -100.5 q-41.5 -41.5 -100.5 -41.5 q-59 0 -100.5 41.5 q-41.5 41.5 -41.5 100.5 q0 59 41.5 100.5 q41.5 41.5 100.5 41.5 q59 0 100.5 -41.5 q41.5 -41.5 41.5 -100.5 Z" /><glyph glyph-name="semicolon" unicode=";&#x37e;" d="M343 976 q0 -59 -41.5 -100.5 q-41.5 -41.5 -100.5 -41.5 q-59 0 -100.5 41.5 q-41.5 41.5 -41.5 100.5 q0 59 41.5 100.5 q41.5 41.5 100.5 41.5 q59 0 100.5 -41.5 q41.5 -41.5 41.5 -100.5 ZM343 142 q0 -56 -10.5 -121 q-10.5 -65 -31 -120.5 q-20.5 -55.5 -50.5 -92 q-30 -36.5 -69 -36.5 q-36 0 -60.5 25 q-24.5 25 -24.5 61 q0 31 22 55.5 q22 24.5 22 50.5 q0 36 -41 78 q-41 41 -41 100 q0 59 41.5 100.5 q41.5 41.5 100.5 41.5 q59 0 100.5 -41.5 q41.5 -41.5 41.5 -100.5 Z" /><glyph glyph-name="less" unicode="&lt;" d="M889 1259 q22 13 52 13 q22 0 41 -8.5 q19 -8.5 33 -22.5 q14 -14 22.5 -33 q8.5 -19 8.5 -41 q0 -57 -52 -91 l-609 -364 l609 -366 q52 -34 52 -90 q0 -45 -30.5 -74.5 q-30.5 -29.5 -74.5 -29.5 q-30 0 -52 13 l-756 454 q-55 34 -55 93 q0 55 55 92 l756 455 Z" /><glyph glyph-name="equal" unicode="=" d="M864 835 l-683 0 q-45 0 -74.5 30 q-29.5 30 -29.5 75 q0 45 29.5 74.5 q29.5 29.5 74.5 29.5 l683 0 q43 0 73.5 -30.5 q30.5 -30.5 30.5 -73.5 q0 -44 -30.5 -74.5 q-30.5 -30.5 -73.5 -30.5 ZM864 379 l-683 0 q-45 0 -74.5 30 q-29.5 30 -29.5 75 q0 45 29.5 74.5 q29.5 29.5 74.5 29.5 l683 0 q43 0 73.5 -30.5 q30.5 -30.5 30.5 -73.5 q0 -44 -30.5 -74.5 q-30.5 -30.5 -73.5 -30.5 Z" /><glyph glyph-name="greater" unicode="&gt;" d="M991 804 q55 -37 55 -92 q0 -59 -55 -93 l-756 -454 q-22 -13 -52 -13 q-44 0 -74.5 29.5 q-30.5 29.5 -30.5 74.5 q0 56 52 90 l609 366 l-609 364 q-52 34 -52 91 q0 22 8.5 41 q8.5 19 22.5 33 q14 14 33 22.5 q19 8.5 41 8.5 q30 0 52 -13 l756 -455 Z" /><glyph glyph-name="question" unicode="?" d="M287 1115 q0 -22 -8.5 -41 q-8.5 -19 -22.5 -33.5 q-14 -14.5 -33 -22.5 q-19 -8 -41 -8 q-45 0 -74.5 30 q-29.5 30 -29.5 75 q0 100 38.5 188 q38.5 88 104.5 154 q66 66 154 104 q88 38 187 38 q99 0 187 -39 q88 -39 154 -105 q66 -66 104.5 -154 q38.5 -88 38.5 -186 q0 -198 -143 -344 l-157 -145 q-80 -80 -80 -175 q0 -45 -29.5 -74.5 q-29.5 -29.5 -74.5 -29.5 q-45 0 -75 29.5 q-30 29.5 -30 74.5 q0 180 143 323 l157 146 q80 83 80 195 q0 56 -22 106 q-22 50 -59.5 87.5 q-37.5 37.5 -87.5 59.5 q-50 22 -106 22 q-57 0 -107 -21.5 q-50 -21.5 -87.5 -58.5 q-37.5 -37 -59 -87 q-21.5 -50 -21.5 -108 ZM704 142 q0 -59 -41.5 -100.5 q-41.5 -41.5 -100.5 -41.5 q-59 0 -100.5 41.5 q-41.5 41.5 -41.5 100.5 q0 59 41.5 100.5 q41.5 41.5 100.5 41.5 q59 0 100.5 -41.5 q41.5 -41.5 41.5 -100.5 Z" /><glyph glyph-name="at" unicode="@" d="M1121 917 q-74 0 -140 -28 q-66 -28 -114.5 -76 q-48.5 -48 -77 -114 q-28.5 -66 -28.5 -140 q0 -74 28.5 -140 q28.5 -66 77 -114 q48.5 -48 114.5 -76 q66 -28 140 -28 q74 0 140 28.5 q66 28.5 114 77.5 q48 49 76 114 q28 65 28 138 q0 73 -28 138 q-28 65 -76 114 q-48 49 -114 77.5 q-66 28.5 -140 28.5 ZM1742 -92 q-230 0 -258 207 q-160 -129 -363 -129 q-237 0 -405 168 q-168 168 -168 405 q0 237 168 405 q168 168 405 168 q237 0 404 -168 q169 -168 169 -405 l0 -389 q0 -48 48 -48 q204 0 204 437 q0 175 -60.5 319 q-60.5 144 -181.5 264 q-122 121 -266 182 q-144 61 -317 61 q-343 0 -585 -243 q-241 -240 -241 -583 q0 -343 241 -583 q242 -243 585 -243 q182 0 340 70 q24 14 50 14 q45 0 75.5 -31.5 q30.5 -31.5 30.5 -76.5 q0 -33 -19.5 -61.5 q-19.5 -28.5 -48.5 -37.5 q-198 -90 -428 -90 q-430 0 -735 305 q-304 305 -304 734 q0 428 304 734 q305 305 735 305 q428 0 733 -305 q305 -306 305 -734 q0 -651 -417 -651 Z" /><glyph glyph-name="A" unicode="a" d="M897 752 l-174 449 l-174 -449 l348 0 ZM88 154 l534 1374 q32 72 101 72 q71 0 101 -72 l536 -1379 q8 -20 8 -43 q0 -44 -31 -75 q-31 -31 -75 -31 q-44 0 -74 31 q-16 16 -24 34 l-185 475 l-512 0 l-186 -475 q-8 -18 -24 -34 q-31 -31 -75 -31 q-44 0 -74.5 31 q-30.5 31 -30.5 75 q0 24 11 48 Z" /><glyph glyph-name="B" unicode="b" d="M286 1388 l0 -405 l203 0 q42 0 78.5 16 q36.5 16 64 44 q27.5 28 43.5 64.5 q16 36.5 16 78.5 q0 41 -16 77.5 q-16 36.5 -44 64.5 q-28 28 -64.5 44 q-36.5 16 -77.5 16 l-203 0 ZM286 771 l0 -559 l280 0 q58 0 109 22 q51 22 88.5 60 q37.5 38 59.5 89 q22 51 22 109 q0 57 -22 108 q-22 51 -60 89 q-38 38 -89 60 q-51 22 -108 22 l-280 0 ZM489 1600 q85 0 160.5 -32.5 q75.5 -32.5 132 -89 q56.5 -56.5 89 -132 q32.5 -75.5 32.5 -160.5 q0 -152 -94 -265 q61 -36 107 -83 q46 -47 77.5 -102.5 q31.5 -55.5 47.5 -117 q16 -61.5 16 -126.5 q0 -101 -39 -190.5 q-39 -89.5 -105.5 -156.5 q-66.5 -67 -156 -106 q-89.5 -39 -190.5 -39 l-386 0 q-22 0 -41 8.5 q-19 8.5 -33.5 22.5 q-14.5 14 -23 33.5 q-8.5 19.5 -8.5 41.5 l0 1388 q0 22 8.5 41.5 q8.5 19.5 23 33.5 q14.5 14 33.5 22.5 q19 8.5 41 8.5 l309 0 Z" /><glyph glyph-name="C" unicode="c" d="M1308 360 q22 0 41 -8.5 q19 -8.5 33.5 -22.5 q14.5 -14 23 -33.5 q8.5 -19.5 8.5 -41.5 q0 -42 -33 -76 q-223 -178 -503 -178 q-332 0 -566 234 q-234 234 -234 566 q0 331 234 565 q235 235 566 235 q284 0 513 -187 q28 -27 28 -73 q0 -23 -8 -42 q-8 -19 -22.5 -33.5 q-14.5 -14.5 -34 -22.5 q-19.5 -8 -41.5 -8 q-39 0 -73 30 q-76 60 -167.5 92 q-91.5 32 -194.5 32 q-244 0 -417 -173 q-171 -171 -171 -415 q0 -245 171 -416 q172 -172 417 -172 q209 0 368 129 q26 18 62 19 Z" /><glyph glyph-name="D" unicode="d" d="M491 212 q243 0 415 172 q87 87 130 189.5 q43 102.5 43 226.5 q0 242 -173 415 q-173 173 -415 173 l-202 0 l0 -1176 l202 0 ZM491 1600 q330 0 565 -235 q118 -118 176.5 -257.5 q58.5 -139.5 58.5 -307.5 q0 -331 -235 -566 q-234 -234 -565 -234 l-308 0 q-22 0 -41.5 8.5 q-19.5 8.5 -34 22.5 q-14.5 14 -23 33.5 q-8.5 19.5 -8.5 41.5 l0 1388 q0 22 8.5 41.5 q8.5 19.5 23 33.5 q14.5 14 34 22.5 q19.5 8.5 41.5 8.5 l308 0 Z" /><glyph glyph-name="E" unicode="e" d="M1107 212 q44 0 75 -31 q31 -31 31 -75 q0 -44 -31 -75 q-31 -31 -75 -31 l-925 0 q-23 0 -42 8 q-19 8 -33.5 22.5 q-14.5 14.5 -22.5 33.5 q-8 19 -8 42 l0 1388 q0 22 8 41.5 q8 19.5 22.5 34 q14.5 14.5 33.5 22.5 q19 8 42 8 l925 0 q44 0 75 -31 q31 -31 31 -75 q0 -44 -31 -75 q-31 -31 -75 -31 l-819 0 l0 -482 l588 0 q44 0 75 -31 q31 -31 31 -75 q0 -44 -31 -75 q-31 -31 -75 -31 l-588 0 l0 -482 l819 0 Z" /><glyph glyph-name="F" unicode="f" d="M76 106 l0 1388 q0 22 8 41.5 q8 19.5 22.5 34 q14.5 14.5 33.5 22.5 q19 8 42 8 l925 0 q44 0 75 -31 q31 -31 31 -75 q0 -44 -31 -75 q-31 -31 -75 -31 l-819 0 l0 -482 l588 0 q44 0 75 -31 q31 -31 31 -75 q0 -44 -31 -75 q-31 -31 -75 -31 l-588 0 l0 -588 q0 -44 -31 -75 q-31 -31 -75 -31 q-44 0 -75 31 q-31 31 -31 75 Z" /><glyph glyph-name="G" unicode="g" d="M1414 254 q0 -42 -33 -76 q-223 -178 -503 -178 q-332 0 -566 234 q-234 234 -234 566 q0 331 234 565 q235 235 566 235 q284 0 513 -187 q28 -26 28 -73 q0 -23 -8 -42 q-8 -19 -22.5 -33.5 q-14.5 -14.5 -34 -22.5 q-19.5 -8 -41.5 -8 q-41 0 -73 30 q-76 60 -167.5 92 q-91.5 32 -194.5 32 q-244 0 -417 -173 q-171 -171 -171 -415 q0 -245 171 -416 q172 -172 417 -172 q181 0 324 95 l0 310 l-276 0 q-45 0 -75.5 30.5 q-30.5 30.5 -30.5 75.5 q0 22 8 41.5 q8 19.5 22.5 34 q14.5 14.5 33.5 22.5 q19 8 42 8 l383 0 q21 0 40 -8.5 q19 -8.5 33.5 -23 q14.5 -14.5 23 -34 q8.5 -19.5 8.5 -40.5 l0 -469 Z" /><glyph glyph-name="H" unicode="h" d="M1213 106 q0 -44 -31 -75 q-31 -31 -75 -31 q-44 0 -75 31 q-31 31 -31 75 l0 588 l-713 0 l0 -588 q0 -44 -31 -75 q-31 -31 -75 -31 q-44 0 -75 31 q-31 31 -31 75 l0 1388 q0 44 31 75 q31 31 75 31 q44 0 75 -31 q31 -31 31 -75 l0 -588 l713 0 l0 588 q0 44 31 75 q31 31 75 31 q44 0 75 -31 q31 -31 31 -75 l0 -1388 Z" /><glyph glyph-name="I" unicode="i" d="M358 106 q0 -44 -31 -75 q-31 -31 -75 -31 q-44 0 -75 31 q-31 31 -31 75 l0 1388 q0 44 31 75 q31 31 75 31 q44 0 75 -31 q31 -31 31 -75 l0 -1388 Z" /><glyph glyph-name="J" unicode="j" d="M286 492 q0 -59 22 -110 q22 -51 59.5 -88.5 q37.5 -37.5 88.5 -59.5 q51 -22 110 -22 q58 0 109 22 q51 22 88.5 60 q37.5 38 59.5 89 q22 51 22 109 l0 1002 q0 44 31 75 q31 31 75 31 q44 0 75 -31 q31 -31 31 -75 l0 -1002 q0 -101 -39 -190.5 q-39 -89.5 -105.5 -156.5 q-66.5 -67 -156 -106 q-89.5 -39 -190.5 -39 q-102 0 -191.5 39 q-89.5 39 -156 106.5 q-66.5 67.5 -105.5 156.5 q-39 89 -39 190 q0 44 31 75 q31 31 75 31 q44 0 75 -31 q31 -31 31 -75 Z" /><glyph glyph-name="K" unicode="k" d="M75 1494 q0 44 31 75 q31 31 75 31 q44 0 75 -31 q31 -31 31 -75 l0 -592 l665 665 q33 33 77 33 q22 0 41.5 -8 q19.5 -8 34 -22.5 q14.5 -14.5 22.5 -34 q8 -19.5 8 -41.5 q0 -44 -31 -75 l-524 -525 l535 -725 q20 -28 20 -60 q0 -21 -8 -41 q-8 -20 -22 -35 q-14 -15 -33 -24 q-19 -9 -41 -9 q-59 0 -89 45 l-514 697 l-141 -141 l0 -495 q0 -44 -31 -75 q-31 -31 -75 -31 q-44 0 -75 31 q-31 31 -31 75 l0 1388 Z" /><glyph glyph-name="L" unicode="l" d="M75 1494 q0 44 31 75 q31 31 75 31 q44 0 75 -31 q31 -31 31 -75 l0 -1282 l742 0 q44 0 75 -31 q31 -31 31 -75 q0 -44 -31 -75 q-31 -31 -75 -31 l-848 0 q-23 0 -42 8 q-19 8 -33.5 22.5 q-14.5 14.5 -22.5 33.5 q-8 19 -8 42 l0 1388 Z" /><glyph glyph-name="M" unicode="m" d="M80 106 l0 1388 q0 22 8 41.5 q8 19.5 22.5 34 q14.5 14.5 33.5 22.5 q19 8 42 8 q62 0 94 -57 l600 -1199 l600 1199 q36 57 94 57 q22 0 41.5 -8 q19.5 -8 34 -22.5 q14.5 -14.5 22.5 -34 q8 -19.5 8 -41.5 l0 -1388 q0 -44 -31 -75 q-31 -31 -75 -31 q-44 0 -75 31 q-31 31 -31 75 l0 938 l-496 -991 q-31 -53 -92 -53 q-66 0 -97 64 l-491 980 l0 -938 q0 -44 -31 -75 q-31 -31 -75 -31 q-44 0 -75 31 q-31 31 -31 75 Z" /><glyph glyph-name="N" unicode="n" d="M77 106 l0 1388 q0 22 8 41.5 q8 19.5 22.5 34 q14.5 14.5 33.5 22.5 q19 8 42 8 q47 0 82 -39 l892 -1147 l0 1080 q0 44 31 75 q31 31 75 31 q44 0 75 -31 q31 -31 31 -75 l0 -1388 q0 -23 -8 -42 q-8 -19 -22.5 -33.5 q-14.5 -14.5 -34 -22.5 q-19.5 -8 -41.5 -8 q-47 0 -81 37 l-893 1147 l0 -1078 q0 -44 -31 -75 q-31 -31 -75 -31 q-44 0 -75 31 q-31 31 -31 75 Z" /><glyph glyph-name="O" unicode="o" d="M880 1388 q-124 0 -226.5 -43 q-102.5 -43 -189.5 -130 q-87 -87 -129.5 -189 q-42.5 -102 -42.5 -226 q0 -244 172 -416 q172 -172 416 -172 q244 0 416 172 q172 172 172 416 q0 243 -172 415 q-173 173 -416 173 ZM1680 800 q0 -331 -235 -566 q-234 -234 -565 -234 q-332 0 -566 234 q-234 234 -234 566 q0 331 234 565 q235 235 566 235 q330 0 565 -235 q118 -118 176.5 -258 q58.5 -140 58.5 -307 Z" /><glyph glyph-name="P" unicode="p" d="M286 1388 l0 -636 l202 0 q65 0 122.5 25 q57.5 25 101 68 q43.5 43 69 101 q25.5 58 25.5 124 q0 67 -25.5 125 q-25.5 58 -69 101 q-43.5 43 -101.5 67.5 q-58 24.5 -122 24.5 l-202 0 ZM74 106 l0 1388 q0 22 8 41.5 q8 19.5 22.5 34 q14.5 14.5 33.5 22.5 q19 8 42 8 l308 0 q72 0 139.5 -19 q67.5 -19 126.5 -54 q59 -35 108 -83.5 q49 -48.5 83.5 -107.5 q34.5 -59 54 -126.5 q19.5 -67.5 19.5 -139.5 q0 -218 -157 -375 q-155 -155 -374 -155 l-202 0 l0 -434 q0 -44 -31 -75 q-31 -31 -75 -31 q-44 0 -75 31 q-31 31 -31 75 Z" /><glyph glyph-name="Q" unicode="q" d="M1366 164 q-106 -84 -226 -124 q-120 -40 -260 -40 q-332 0 -566 234 q-234 234 -234 566 q0 331 234 565 q235 235 566 235 q330 0 565 -235 q118 -118 176.5 -257.5 q58.5 -139.5 58.5 -307.5 q0 -140 -40 -260 q-40 -120 -124 -226 l134 -134 q30 -33 30 -74 q0 -23 -8 -42 q-8 -19 -22.5 -33.5 q-14.5 -14.5 -34 -22.5 q-19.5 -8 -41.5 -8 q-46 0 -76 31 l-132 133 ZM1074 455 q-30 35 -30 75 q0 22 8 41.5 q8 19.5 22.5 34 q14.5 14.5 33.5 22.5 q19 8 42 8 q44 0 75 -31 l140 -139 q103 145 103 334 q0 243 -172 415 q-173 173 -416 173 q-124 0 -226.5 -43 q-102.5 -43 -189.5 -130 q-87 -87 -129.5 -189 q-42.5 -102 -42.5 -226 q0 -244 172 -416 q172 -172 416 -172 q189 0 335 103 l-141 140 Z" /><glyph glyph-name="R" unicode="r" d="M287 1388 l0 -559 l280 0 q58 0 109 22 q51 22 88.5 60.5 q37.5 38.5 59.5 89 q22 50.5 22 107.5 q0 58 -22 109 q-22 51 -60 89 q-38 38 -89 60 q-51 22 -108 22 l-280 0 ZM75 106 l0 1388 q0 22 8 41.5 q8 19.5 22.5 34 q14.5 14.5 33.5 22.5 q19 8 42 8 l386 0 q101 0 190.5 -39 q89.5 -39 156 -106 q66.5 -67 105.5 -156.5 q39 -89.5 39 -190.5 q0 -66 -16.5 -128.5 q-16.5 -62.5 -49 -118 q-32.5 -55.5 -81 -103 q-48.5 -47.5 -112.5 -83.5 l319 -511 q17 -28 17 -58 q0 -23 -8 -42 q-8 -19 -22.5 -33.5 q-14.5 -14.5 -34 -22.5 q-19.5 -8 -41.5 -8 q-56 0 -91 52 l-353 565 l-298 0 l0 -511 q0 -44 -31 -75 q-31 -31 -75 -31 q-44 0 -75 31 q-31 31 -31 75 Z" /><glyph glyph-name="S" unicode="s" d="M95 222 q-21 27 -21 64 q0 22 8 41.5 q8 19.5 22.5 34 q14.5 14.5 33.5 22.5 q19 8 42 8 q59 0 89 -49 q42 -65 105 -98 q63 -33 136 -33 q57 0 107.5 22.5 q50.5 22.5 88 60.5 q37.5 38 59.5 89.5 q22 51.5 22 109.5 q0 55 -20.5 103.5 q-20.5 48.5 -55.5 85 q-35 36.5 -81.5 59.5 q-46.5 23 -98.5 28 q-80 7 -149 42 q-69 35 -121 90.5 q-52 55.5 -81.5 127 q-29.5 71.5 -29.5 151.5 q0 98 37 177.5 q37 79.5 109 141.5 l-1 0 q115 100 270 100 q50 0 100 -12.5 q50 -12.5 96.5 -38 q46.5 -25.5 87 -63.5 q40.5 -38 72.5 -89 q15 -26 15 -57 q0 -23 -8 -42 q-8 -19 -22.5 -33.5 q-14.5 -14.5 -34 -22.5 q-19.5 -8 -41.5 -8 q-20 0 -35.5 6 q-15.5 6 -28 17 q-12.5 11 -24 25.5 q-11.5 14.5 -24.5 33.5 q-24 35 -65.5 52.5 q-41.5 17.5 -89.5 17.5 q-38 0 -74 -15.5 q-36 -15.5 -64 -42.5 q-28 -27 -45.5 -64 q-17.5 -37 -17.5 -80 q0 -39 14.5 -74 q14.5 -35 39.5 -62.5 q25 -27.5 58.5 -45 q33.5 -17.5 72.5 -20.5 q93 -7 175 -48 q82 -41 143.5 -106.5 q61.5 -65.5 97.5 -150.5 q36 -85 36 -179 q0 -234 -173 -380 l1 0 q-139 -118 -316 -118 q-59 0 -118 14.5 q-59 14.5 -113.5 42.5 q-54.5 28 -102 70 q-47.5 42 -82.5 95 Z" /><glyph glyph-name="T" unicode="t" d="M1185 1388 l-395 0 l0 -1282 q0 -44 -31 -75 q-31 -31 -75 -31 q-44 0 -75 31 q-31 31 -31 75 l0 1282 l-395 0 q-44 0 -75 31 q-31 31 -31 75 q0 44 31 75 q31 31 75 31 l1002 0 q44 0 75 -31 q31 -31 31 -75 q0 -44 -31 -75 q-31 -31 -75 -31 Z" /><glyph glyph-name="U" unicode="u" d="M288 1494 l0 -925 q0 -73 28 -138 q28 -65 76 -113.5 q48 -48.5 113 -77 q65 -28.5 139 -28.5 q74 0 139 28 q65 28 113.5 77 q48.5 49 76.5 113.5 q28 64.5 28 138.5 l0 925 q0 44 31 75 q31 31 75 31 q44 0 75 -31 q31 -31 31 -75 l0 -925 q0 -78 -20.5 -150 q-20.5 -72 -57.5 -135.5 q-37 -63.5 -89 -115.5 q-52 -52 -115.5 -89.5 q-63.5 -37.5 -136 -58 q-72.5 -20.5 -150.5 -20.5 q-236 0 -401 167 q-167 167 -167 402 l0 925 q0 44 31 75 q31 31 75 31 q44 0 75 -31 q31 -31 31 -75 Z" /><glyph glyph-name="V" unicode="v" d="M723 0 q-70 0 -97 67 l-537 1373 q-12 31 -12 54 q0 22 8 41.5 q8 19.5 22.5 34 q14.5 14.5 33.5 22.5 q19 8 42 8 q70 0 98 -63 l442 -1137 l442 1137 q24 63 98 63 q22 0 41.5 -8 q19.5 -8 34 -22.5 q14.5 -14.5 22.5 -34 q8 -19.5 8 -41.5 q0 -26 -12 -54 l-537 -1373 q-27 -67 -97 -67 Z" /><glyph glyph-name="W" unicode="w" d="M288 1529 l285 -1027 l284 1026 q8 31 36.5 51.5 q28.5 20.5 65.5 20.5 q32 0 60.5 -18.5 q28.5 -18.5 39.5 -52.5 l285 -1027 l286 1027 q7 22 25 40 q31 31 75 31 q44 0 74.5 -31 q30.5 -31 30.5 -75 q-1 -20 -7 -42 l-377 -1366 q-14 -39 -42 -62.5 q-28 -23.5 -65 -23.5 q-45 0 -74 32 q-21 22 -32 52 l-279 1011 l-279 -1009 q-14 -39 -42 -62.5 q-28 -23.5 -65 -23.5 q-45 0 -75 32 q-20 20 -31 52 l-379 1369 q-6 23 -6 41 q0 44 31 75 q31 31 75 31 q44 0 75 -31 q17 -18 25 -40 Z" /><glyph glyph-name="X" unicode="x" d="M257 31 q-31 -31 -75 -31 q-44 0 -75 30.5 q-31 30.5 -31 74.5 q0 38 23 67 l489 628 l-492 632 q-19 27 -19 62 q0 44 31 75 q31 31 75 31 q48 0 75 -31 l465 -596 l465 596 q28 31 75 31 q44 0 74.5 -31 q30.5 -31 30.5 -75 q0 -35 -19 -62 l-491 -632 l489 -628 q22 -29 22 -67 q0 -44 -30.5 -74.5 q-30.5 -30.5 -74.5 -30.5 q-53 0 -83 38 l-458 589 l-466 -596 Z" /><glyph glyph-name="Y" unicode="y" d="M268 1556 l376 -563 l376 563 q31 44 87 44 q44 0 74.5 -31 q30.5 -31 30.5 -75 q0 -36 -16 -60 l-446 -666 l0 -662 q0 -44 -31 -75 q-31 -31 -75 -31 q-43 0 -74.5 31 q-31.5 31 -31.5 75 l0 662 l-445 666 q-17 26 -17 60 q0 44 31 75 q31 31 75 31 q56 0 86 -44 Z" /><glyph glyph-name="Z" unicode="z" d="M183 1600 l1080 0 q22 0 41.5 -8 q19.5 -8 34 -22.5 q14.5 -14.5 22.5 -34 q8 -19.5 8 -41.5 q0 -33 -20 -62 l-949 -1220 l863 0 q45 -1 75.5 -32 q30.5 -31 30.5 -75 q0 -44 -30.5 -74.5 q-30.5 -30.5 -74.5 -30.5 l-1081 0 q-23 0 -42 8 q-19 8 -33.5 22.5 q-14.5 14.5 -22.5 33.5 q-8 19 -8 42 q1 38 22 66 l947 1216 l-863 0 q-43 0 -74.5 31 q-31.5 31 -31.5 75 q0 44 31.5 75 q31.5 31 74.5 31 Z" /><glyph glyph-name="bracketleft" unicode="[" d="M494 1602 q46 0 76.5 -31.5 q30.5 -31.5 30.5 -76.5 q0 -46 -30.5 -76 q-30.5 -30 -76.5 -30 l-205 0 l0 -1654 l205 0 q46 0 76.5 -30 q30.5 -30 30.5 -76 q0 -47 -30.5 -77.5 q-30.5 -30.5 -76.5 -30.5 l-311 0 q-47 0 -77 30.5 q-30 30.5 -30 77.5 l0 1866 q0 45 30 76.5 q30 31.5 77 31.5 l311 0 Z" /><glyph glyph-name="backslash" unicode="\" d="M883 -12 q9 -19 9 -43 q0 -22 -8 -41.5 q-8 -19.5 -22.5 -34.5 q-14.5 -15 -34 -23 q-19.5 -8 -41.5 -8 q-28 0 -56.5 16 q-28.5 16 -41.5 47 l-620 1549 q-8 22 -8 44 q0 45 30 76 q30 31 76 31 q72 0 98 -63 l619 -1550 Z" /><glyph glyph-name="bracketright" unicode="]" d="M494 1602 q46 0 76.5 -31.5 q30.5 -31.5 30.5 -76.5 l0 -1866 q0 -47 -30.5 -77.5 q-30.5 -30.5 -76.5 -30.5 l-311 0 q-47 0 -77 30.5 q-30 30.5 -30 77.5 q0 46 30 76 q30 30 77 30 l204 0 l0 1654 l-204 0 q-47 0 -77 30 q-30 30 -30 76 q0 45 30 76.5 q30 31.5 77 31.5 l311 0 Z" /><glyph glyph-name="asciicircum" unicode="^" d="M484 1304 l-220 -329 q-32 -41 -84 -41 q-45 0 -74.5 30 q-29.5 30 -29.5 75 q0 33 14 54 l308 462 q29 44 86 44 q53 0 85 -44 l308 -462 q15 -22 15 -54 q0 -22 -8 -41 q-8 -19 -22.5 -33.5 q-14.5 -14.5 -33.5 -22.5 q-19 -8 -40 -8 q-53 0 -85 41 l-219 329 Z" /><glyph glyph-name="underscore" unicode="_" d="M976 -209 l-960 0 q-44 0 -74.5 30.5 q-30.5 30.5 -30.5 73.5 q0 44 30.5 74.5 q30.5 30.5 74.5 30.5 l960 0 q43 0 73.5 -30.5 q30.5 -30.5 30.5 -74.5 q0 -43 -30.5 -73.5 q-30.5 -30.5 -73.5 -30.5 Z" /><glyph glyph-name="grave" unicode="`" d="M71 1494 q0 44 29.5 74.5 q29.5 30.5 74.5 30.5 q42 0 74 -31 l200 -199 q26 -28 26 -71 q0 -45 -29.5 -74.5 q-29.5 -29.5 -74.5 -29.5 q-44 0 -72 28 l-200 199 q-28 28 -28 73 Z" /><glyph glyph-name="a" unicode="a" d="M640 911 q-74 0 -138 -28 q-64 -28 -111 -75.5 q-47 -47.5 -74.5 -111.5 q-27.5 -64 -27.5 -136 q0 -72 27.5 -136 q27.5 -64 74.5 -111.5 q47 -47.5 111 -75.5 q64 -28 138 -28 q73 0 137 28 q64 28 111.5 76 q47.5 48 75 111.5 q27.5 63.5 27.5 135.5 q0 72 -27.5 135.5 q-27.5 63.5 -75 111.5 q-47.5 48 -111.5 76 q-64 28 -137 28 ZM991 104 l0 20 q-75 -60 -163 -92 q-88 -32 -188 -32 q-232 0 -396 164 q-164 164 -164 396 q0 232 164 396 q164 164 396 164 q230 0 396 -164 q164 -164 164 -396 l0 -456 q0 -43 -30.5 -73.5 q-30.5 -30.5 -73.5 -30.5 q-44 0 -74.5 30.5 q-30.5 30.5 -30.5 73.5 Z" /><glyph glyph-name="b" unicode="b" d="M640 209 q73 0 137 28 q64 28 111.5 76 q47.5 48 75 111.5 q27.5 63.5 27.5 135.5 q0 72 -27.5 135.5 q-27.5 63.5 -75 111.5 q-47.5 48 -111.5 76 q-64 28 -137 28 q-74 0 -138 -28 q-64 -28 -111 -75.5 q-47 -47.5 -74.5 -111.5 q-27.5 -64 -27.5 -136 q0 -72 27.5 -136 q27.5 -64 74.5 -111.5 q47 -47.5 111 -75.5 q64 -28 138 -28 ZM289 996 q149 124 351 124 q230 0 396 -164 q82 -81 123 -180.5 q41 -99.5 41 -215.5 q0 -234 -164 -396 q-166 -164 -396 -164 q-232 0 -396 164 q-164 164 -164 396 l0 936 q0 45 29.5 74.5 q29.5 29.5 74.5 29.5 q44 0 74.5 -29.5 q30.5 -29.5 30.5 -74.5 l0 -500 Z" /><glyph glyph-name="c" unicode="c" d="M932 317 q45 0 74.5 -29.5 q29.5 -29.5 29.5 -74.5 q0 -44 -33 -77 q-155 -136 -365 -136 q-232 0 -396 164 q-164 164 -164 396 q0 232 164 396 q164 164 396 164 q211 0 365 -136 q36 -32 36 -79 q0 -45 -29.5 -75 q-29.5 -30 -74.5 -30 q-38 0 -68 24 q-51 43 -107 65 q-56 22 -122 22 q-73 0 -137 -27.5 q-64 -27.5 -112 -75 q-48 -47.5 -75.5 -111.5 q-27.5 -64 -27.5 -137 q0 -73 27.5 -137 q27.5 -64 75.5 -111.5 q48 -47.5 112 -75 q64 -27.5 137 -27.5 q66 0 122 21.5 q56 21.5 106 64.5 q28 21 66 22 Z" /><glyph glyph-name="d" unicode="d" d="M991 560 q0 72 -27.5 135.5 q-27.5 63.5 -75 111.5 q-47.5 48 -111.5 76 q-64 28 -137 28 q-74 0 -138 -28 q-64 -28 -111 -75.5 q-47 -47.5 -74.5 -111.5 q-27.5 -64 -27.5 -136 q0 -72 27.5 -136 q27.5 -64 74.5 -111.5 q47 -47.5 111 -75.5 q64 -28 138 -28 q73 0 137 28 q64 28 111.5 76 q47.5 48 75 111.5 q27.5 63.5 27.5 135.5 ZM640 1120 q199 0 351 -123 l0 499 q0 45 29.5 74.5 q29.5 29.5 74.5 29.5 q44 0 74.5 -29.5 q30.5 -29.5 30.5 -74.5 l0 -936 q0 -234 -164 -396 q-166 -164 -396 -164 q-232 0 -396 164 q-164 164 -164 396 q0 232 164 396 q164 164 396 164 Z" /><glyph glyph-name="e" unicode="e" d="M977 664 q-17 55 -50.5 100.5 q-33.5 45.5 -78 78 q-44.5 32.5 -98 50.5 q-53.5 18 -110.5 18 q-57 0 -111 -18 q-54 -18 -99 -50.5 q-45 -32.5 -78 -78 q-33 -45.5 -49 -100.5 l674 0 ZM932 315 q45 0 74.5 -29.5 q29.5 -29.5 29.5 -74.5 q0 -44 -30 -75 q-155 -136 -366 -136 q-232 0 -396 164 q-164 164 -164 396 q0 232 164 396 q164 164 396 164 q230 0 396 -164 q82 -81 123 -180.5 q41 -99.5 41 -215.5 q0 -45 -30.5 -74.5 q-30.5 -29.5 -74.5 -29.5 l-792 0 q17 -55 50 -100.5 q33 -45.5 77.5 -78 q44.5 -32.5 98 -50.5 q53.5 -18 111.5 -18 q66 0 121 20 q55 20 102 60 q30 25 69 26 Z" /><glyph glyph-name="f" unicode="f" d="M701 1390 q-276 0 -276 -275 l0 -52 l201 0 q43 0 73.5 -30.5 q30.5 -30.5 30.5 -73.5 q0 -44 -30.5 -74.5 q-30.5 -30.5 -73.5 -30.5 l-201 0 l0 -750 q0 -21 -8 -40 q-8 -19 -22 -33.5 q-14 -14.5 -33 -22.5 q-19 -8 -41 -8 q-22 0 -41 8 q-19 8 -33 22.5 q-14 14.5 -22 33.5 q-8 19 -8 40 l0 750 l-48 0 q-45 0 -74.5 30 q-29.5 30 -29.5 75 q0 45 29.5 74.5 q29.5 29.5 74.5 29.5 l48 0 l0 52 q0 484 484 484 q43 0 73.5 -30.5 q30.5 -30.5 30.5 -73.5 q0 -44 -30.5 -74.5 q-30.5 -30.5 -73.5 -30.5 Z" /><glyph glyph-name="g" unicode="g" d="M640 911 q-74 0 -138 -28 q-64 -28 -111 -75.5 q-47 -47.5 -74.5 -111.5 q-27.5 -64 -27.5 -136 q0 -72 27.5 -136 q27.5 -64 74.5 -111.5 q47 -47.5 111 -75.5 q64 -28 138 -28 q73 0 137 28 q64 28 111.5 76 q47.5 48 75 111.5 q27.5 63.5 27.5 135.5 q0 72 -27.5 135.5 q-27.5 63.5 -75 111.5 q-47.5 48 -111.5 76 q-64 28 -137 28 ZM991 123 q-150 -123 -351 -123 q-232 0 -396 164 q-164 164 -164 396 q0 232 164 396 q164 164 396 164 q230 0 396 -164 q164 -164 164 -396 l0 -556 q0 -72 -22 -136 q-22 -64 -61 -117.5 q-39 -53.5 -92 -96.5 q-53 -43 -114.5 -72.5 q-61.5 -29.5 -128.5 -45.5 q-67 -16 -134 -16 q-80 0 -157 20.5 q-77 20.5 -146 60.5 q-69 40 -126.5 99 q-57.5 59 -97.5 132 q-16 23 -16 56 q0 45 30 74.5 q30 29.5 75 29.5 q30 0 49.5 -14 q19.5 -14 53.5 -62 q34 -48 60 -73 q114 -114 275 -114 q162 0 274 112 q69 84 69 163 l0 119 Z" /><glyph glyph-name="h" unicode="h" d="M288 105 q0 -44 -30.5 -74.5 q-30.5 -30.5 -74.5 -30.5 q-43 0 -73.5 30.5 q-30.5 30.5 -30.5 74.5 l0 1390 q0 44 30.5 74.5 q30.5 30.5 73.5 30.5 q43 0 73.5 -30.5 q30.5 -30.5 31.5 -74.5 l0 -480 q133 103 313 103 q105 0 199.5 -41 q94.5 -41 166.5 -111.5 q72 -70.5 114 -166 q42 -95.5 42 -203.5 l0 -491 q-1 -44 -31.5 -74.5 q-30.5 -30.5 -73.5 -30.5 q-43 0 -73.5 30.5 q-30.5 30.5 -30.5 74.5 l0 491 q0 64 -25 121 q-25 57 -67.5 99.5 q-42.5 42.5 -99.5 67.5 q-57 25 -121 25 q-65 0 -121.5 -24.5 q-56.5 -24.5 -99.5 -67.5 q-43 -43 -67.5 -100 q-24.5 -57 -24.5 -121 l0 -491 Z" /><glyph glyph-name="i" unicode="i" d="M363 1319 q0 -51 -36 -87 q-36 -36 -87 -36 q-51 0 -87 36 q-36 36 -36 87 q0 51 36 87 q36 36 87 36 q51 0 87 -36 q36 -36 36 -87 ZM136 105 l0 910 q0 44 30.5 74.5 q30.5 30.5 73.5 30.5 q43 0 73.5 -30.5 q30.5 -30.5 31.5 -74.5 l0 -910 q-1 -44 -31.5 -74.5 q-30.5 -30.5 -73.5 -30.5 q-43 0 -73.5 30.5 q-30.5 30.5 -30.5 74.5 Z" /><glyph glyph-name="j" unicode="j" d="M602 1319 q0 -51 -36 -87 q-36 -36 -87 -36 q-51 0 -87 36 q-36 36 -36 87 q0 51 36 87 q36 36 87 36 q51 0 87 -36 q36 -36 36 -87 ZM583 1015 l0 -1010 q0 -99 -38.5 -187 q-38.5 -88 -104.5 -154 q-66 -66 -154 -104.5 q-88 -38.5 -187 -38.5 q-45 0 -74.5 30 q-29.5 30 -29.5 75 q0 45 29.5 74.5 q29.5 29.5 74.5 29.5 q57 0 107 21.5 q50 21.5 87.5 59 q37.5 37.5 59.5 87.5 q22 50 22 107 l0 1010 q0 44 30.5 74.5 q30.5 30.5 73.5 30.5 q43 0 73.5 -30.5 q30.5 -30.5 30.5 -74.5 Z" /><glyph glyph-name="k" unicode="k" d="M78 105 l0 1390 q0 44 30.5 74.5 q30.5 30.5 74.5 30.5 q43 0 73.5 -30.5 q30.5 -30.5 30.5 -74.5 l0 -780 l598 389 q25 16 56 16 q22 0 41 -8 q19 -8 33 -22.5 q14 -14.5 22.5 -33.5 q8.5 -19 8.5 -40 q0 -56 -40 -83 l-419 -272 l430 -484 q29 -32 29 -73 q0 -21 -8.5 -40 q-8.5 -19 -22.5 -33.5 q-14 -14.5 -33 -22.5 q-19 -8 -41 -8 q-42 0 -70 27 l-462 519 l-122 -80 l0 -361 q0 -43 -30.5 -74 q-30.5 -31 -73.5 -31 q-44 0 -74.5 31 q-30.5 31 -30.5 74 Z" /><glyph glyph-name="l" unicode="l" d="M70 104 l0 1391 q0 44 29.5 74.5 q29.5 30.5 74.5 30.5 q45 0 74.5 -30.5 q29.5 -30.5 29.5 -74.5 l0 -1286 l48 0 q43 0 73.5 -30.5 q30.5 -30.5 30.5 -74.5 q0 -43 -30.5 -73.5 q-30.5 -30.5 -73.5 -30.5 l-153 0 q-43 0 -73 30.5 q-30 30.5 -30 73.5 Z" /><glyph glyph-name="m" unicode="m" d="M1661 105 q0 -44 -30.5 -74.5 q-30.5 -30.5 -73.5 -30.5 q-44 0 -74 30.5 q-30 30.5 -30 74.5 l0 569 q0 48 -18.5 91 q-18.5 43 -50.5 75.5 q-32 32.5 -75.5 51.5 q-43.5 19 -93.5 19 q-49 0 -92 -19 q-43 -19 -75.5 -51 q-32.5 -32 -51 -75 q-18.5 -43 -18.5 -92 l0 -569 q0 -44 -30.5 -74.5 q-30.5 -30.5 -73.5 -30.5 q-44 0 -74.5 30.5 q-30.5 30.5 -30.5 74.5 l0 569 q0 49 -19 92 q-19 43 -51 75 q-32 32 -75 51 q-43 19 -92 19 q-49 0 -92 -18.5 q-43 -18.5 -75.5 -51 q-32.5 -32.5 -51 -75.5 q-18.5 -43 -18.5 -92 l0 -569 q0 -44 -30.5 -74.5 q-30.5 -30.5 -73.5 -30.5 q-44 0 -74.5 30.5 q-30.5 30.5 -30.5 74.5 l0 911 q0 43 30.5 73.5 q30.5 30.5 73.5 30.5 q35 0 62 -19.5 q27 -19.5 37 -51.5 q107 71 243 71 q100 0 188 -39.5 q88 -39.5 154 -119.5 q139 159 341 159 q91 0 172.5 -35.5 q81.5 -35.5 142 -96 q60.5 -60.5 96 -142 q35.5 -81.5 35.5 -172.5 l0 -569 Z" /><glyph glyph-name="n" unicode="n" d="M288 1017 q133 103 313 103 q105 0 199.5 -41 q94.5 -41 166.5 -111.5 q72 -70.5 114 -166 q42 -95.5 42 -203.5 l0 -493 q0 -44 -30.5 -74.5 q-30.5 -30.5 -73.5 -30.5 q-44 0 -74.5 30.5 q-30.5 30.5 -30.5 74.5 l0 493 q0 64 -25 121 q-25 57 -67.5 99.5 q-42.5 42.5 -99.5 67.5 q-57 25 -121 25 q-65 0 -121.5 -24.5 q-56.5 -24.5 -99.5 -67.5 q-43 -43 -67.5 -100 q-24.5 -57 -24.5 -121 l0 -493 q0 -44 -30.5 -74.5 q-30.5 -30.5 -73.5 -30.5 q-44 0 -74.5 30.5 q-30.5 30.5 -30.5 74.5 l0 910 q0 43 30.5 74 q30.5 31 74.5 31 q43 0 73.5 -31 q30.5 -31 30.5 -72 Z" /><glyph glyph-name="o" unicode="o" d="M1200 560 q0 -234 -164 -396 q-166 -164 -396 -164 q-232 0 -396 164 q-164 164 -164 396 q0 232 164 396 q164 164 396 164 q230 0 396 -164 q82 -82 122.5 -181 q40.5 -99 41.5 -215 ZM640 911 q-74 0 -138 -28 q-64 -28 -111 -75.5 q-47 -47.5 -74.5 -111.5 q-27.5 -64 -27.5 -136 q0 -72 27.5 -136 q27.5 -64 74.5 -111.5 q47 -47.5 111 -75.5 q64 -28 138 -28 q73 0 137 28 q64 28 111.5 76 q47.5 48 75 111.5 q27.5 63.5 27.5 135.5 q0 72 -27.5 135.5 q-27.5 63.5 -75 111.5 q-47.5 48 -111.5 76 q-64 28 -137 28 Z" /><glyph glyph-name="p" unicode="p" d="M289 560 q0 -72 27.5 -136 q27.5 -64 74.5 -111.5 q47 -47.5 111 -75.5 q64 -28 138 -28 q73 0 137 28 q64 28 111.5 76 q47.5 48 75 111.5 q27.5 63.5 27.5 135.5 q0 72 -27.5 135.5 q-27.5 63.5 -75 111.5 q-47.5 48 -111.5 76 q-64 28 -137 28 q-74 0 -138 -28 q-64 -28 -111 -75.5 q-47 -47.5 -74.5 -111.5 q-27.5 -64 -27.5 -136 ZM640 0 q-201 0 -351 123 l0 -499 q0 -45 -30.5 -74.5 q-30.5 -29.5 -74.5 -29.5 q-45 0 -74.5 29.5 q-29.5 29.5 -29.5 74.5 l0 936 q0 232 164 396 q164 164 396 164 q230 0 396 -164 q82 -81 123 -180.5 q41 -99.5 41 -215.5 q0 -234 -164 -396 q-84 -83 -182.5 -123.5 q-98.5 -40.5 -213.5 -40.5 Z" /><glyph glyph-name="q" unicode="q" d="M640 911 q-74 0 -138 -28 q-64 -28 -111 -75.5 q-47 -47.5 -74.5 -111.5 q-27.5 -64 -27.5 -136 q0 -72 27.5 -136 q27.5 -64 74.5 -111.5 q47 -47.5 111 -75.5 q64 -28 138 -28 q73 0 137 28 q64 28 111.5 76 q47.5 48 75 111.5 q27.5 63.5 27.5 135.5 q0 72 -27.5 135.5 q-27.5 63.5 -75 111.5 q-47.5 48 -111.5 76 q-64 28 -137 28 ZM991 123 q-150 -123 -351 -123 q-232 0 -396 164 q-164 164 -164 396 q0 232 164 396 q164 164 396 164 q230 0 396 -164 q164 -164 164 -396 l0 -936 q0 -45 -30.5 -74.5 q-30.5 -29.5 -74.5 -29.5 q-45 0 -74.5 29.5 q-29.5 29.5 -29.5 74.5 l0 499 Z" /><glyph glyph-name="r" unicode="r" d="M285 1016 l0 -20 q75 60 163 92 q88 32 188 32 q44 0 94.5 -6 q50.5 -6 93 -21.5 q42.5 -15.5 70.5 -42.5 q28 -27 28 -70 q0 -22 -8.5 -41 q-8.5 -19 -22.5 -33.5 q-14 -14.5 -33 -22.5 q-19 -8 -41 -8 q-19 0 -44 11 q-63 25 -137 25 q-73 0 -137 -27.5 q-64 -27.5 -111.5 -75 q-47.5 -47.5 -75 -111.5 q-27.5 -64 -27.5 -137 l0 -456 q0 -43 -30.5 -73.5 q-30.5 -30.5 -73.5 -30.5 q-44 0 -74.5 30.5 q-30.5 30.5 -30.5 73.5 l0 912 q0 43 30.5 73.5 q30.5 30.5 74.5 30.5 q43 0 73.5 -30.5 q30.5 -30.5 30.5 -73.5 Z" /><glyph glyph-name="s" unicode="s" d="M284 533 q-94 36 -132 74 l1 0 q-76 77 -76 181 q0 76 40.5 137.5 q40.5 61.5 105.5 104.5 q65 43 146.5 66.5 q81.5 23.5 163.5 23.5 q250 0 429 -201 q21 -26 21 -63 q0 -45 -29.5 -74.5 q-29.5 -29.5 -74.5 -29.5 q-32 0 -54.5 18 q-22.5 18 -43.5 39 q-102 102 -248 102 q-144 0 -230 -88 q-16 -16 -16 -44 q0 -28 26 -38 l468 -154 q98 -38 132 -74 l-1 0 q76 -77 76 -181 q0 -77 -40.5 -138 q-40.5 -61 -105.5 -104.5 q-65 -43.5 -146 -66.5 q-81 -23 -163 -23 q-252 0 -429 199 q-22 29 -22 65 q0 45 29.5 74.5 q29.5 29.5 74.5 29.5 q33 0 56 -19.5 q23 -19.5 42 -37.5 q102 -102 249 -102 q143 0 230 90 q15 17 15 41 q0 28 -27 39 l-467 154 Z" /><glyph glyph-name="t" unicode="t" d="M178 1120 l47 0 l0 376 q0 43 30.5 73.5 q30.5 30.5 74.5 30.5 q43 0 73.5 -30.5 q30.5 -30.5 30.5 -73.5 l0 -376 l125 0 q43 0 73 -30.5 q30 -30.5 30 -73.5 q0 -44 -30 -74.5 q-30 -30.5 -73 -30.5 l-125 0 l0 -503 q0 -199 200 -199 q43 0 73 -30.5 q30 -30.5 30 -73.5 q0 -44 -30 -74.5 q-30 -30.5 -73 -30.5 q-409 0 -409 408 l0 503 l-47 0 q-42 0 -72.5 30.5 q-30.5 30.5 -30.5 74.5 q0 43 30.5 73.5 q30.5 30.5 72.5 30.5 Z" /><glyph glyph-name="u" unicode="u" d="M1018 0 q-45 0 -74 30 q-29 30 -30 73 q-69 -54 -146 -78.5 q-77 -24.5 -167 -24.5 q-107 0 -202 41.5 q-95 41.5 -166 112.5 q-71 71 -112.5 166 q-41.5 95 -41.5 202 l0 494 q0 43 30.5 73.5 q30.5 30.5 74.5 30.5 q43 0 73.5 -30.5 q30.5 -30.5 30.5 -73.5 l0 -494 q0 -65 24.5 -122 q24.5 -57 67 -99.5 q42.5 -42.5 99.5 -67 q57 -24.5 122 -24.5 q64 0 121 24.5 q57 24.5 100 67.5 q43 43 67.5 99.5 q24.5 56.5 24.5 121.5 l0 494 q0 43 30.5 73.5 q30.5 30.5 74.5 30.5 q43 0 73.5 -30.5 q30.5 -30.5 30.5 -73.5 l0 -912 q0 -43 -30.5 -73.5 q-30.5 -30.5 -74.5 -30.5 Z" /><glyph glyph-name="v" unicode="v" d="M601 0 q-66 0 -92 56 l-422 918 q-8 21 -8 42 q0 21 8 40 q8 19 22 33.5 q14 14.5 33 22.5 q19 8 41 8 q27 0 52 -13.5 q25 -13.5 39 -38.5 l327 -713 l326 712 q29 53 91 53 q22 0 41 -8 q19 -8 33 -22.5 q14 -14.5 22.5 -33.5 q8.5 -19 8.5 -40 q0 -23 -9 -42 l-421 -918 q-28 -56 -92 -56 Z" /><glyph glyph-name="w" unicode="w" d="M796 1120 q74 0 100 -77 l203 -609 l210 628 q8 26 32 42 q24 16 62 16 q22 0 41 -8 q19 -8 33 -22.5 q14 -14.5 22.5 -33.5 q8.5 -19 8.5 -40 q0 -19 -8 -40 l-303 -909 q-9 -29 -33 -48 q-24 -19 -65 -19 q-35 0 -62 20 q-27 20 -35 47 l-206 618 l-206 -618 q-9 -29 -36 -48 q-27 -19 -62 -19 q-35 0 -61.5 19 q-26.5 19 -36.5 48 l-303 909 q-7 22 -7 40 q0 21 8 40 q8 19 22 33.5 q14 14.5 33 22.5 q19 8 41 8 q36 0 60.5 -17 q24.5 -17 33.5 -41 l210 -627 l203 608 q26 77 101 77 Z" /><glyph glyph-name="x" unicode="x" d="M426 561 l-324 386 q-24 27 -24 69 q0 21 8 40 q8 19 22 33.5 q14 14.5 33 22.5 q19 8 41 8 q47 0 78 -34 l302 -361 l302 361 q30 34 77 34 q22 0 41 -8 q19 -8 33 -22.5 q14 -14.5 22.5 -33.5 q8.5 -19 8.5 -40 q0 -38 -25 -69 l-324 -386 l327 -392 q22 -25 22 -65 q0 -21 -8.5 -40 q-8.5 -19 -22.5 -33.5 q-14 -14.5 -33 -22.5 q-19 -8 -41 -8 q-43 0 -75 32 l-304 366 l-306 -366 q-30 -32 -74 -32 q-22 0 -41 8 q-19 8 -33 22.5 q-14 14.5 -22 33.5 q-8 19 -8 40 q0 39 21 65 l327 392 Z" /><glyph glyph-name="y" unicode="y" d="M448 104 l-360 865 q-10 23 -10 47 q0 21 8 40 q8 19 22 33.5 q14 14.5 33 22.5 q19 8 41 8 q31 0 58 -17.5 q27 -17.5 41 -51.5 l281 -671 l281 673 q12 30 34.5 48.5 q22.5 18.5 63.5 18.5 q22 0 41 -8 q19 -8 33 -22.5 q14 -14.5 22.5 -33.5 q8.5 -19 8.5 -40 q0 -22 -11 -47 l-575 -1379 q-13 -31 -40 -50.5 q-27 -19.5 -59 -19.5 q-45 0 -74.5 30 q-29.5 30 -29.5 75 q0 24 10 46 l181 433 Z" /><glyph glyph-name="z" unicode="z" d="M941 0 l-759 0 q-22 0 -41 8 q-19 8 -33 22.5 q-14 14.5 -22 33.5 q-8 19 -8 40 q0 37 21 65 l619 742 l-536 0 q-42 0 -72.5 30.5 q-30.5 30.5 -30.5 74.5 q0 43 30.5 73.5 q30.5 30.5 72.5 30.5 l759 0 q22 0 41 -8 q19 -8 33 -22.5 q14 -14.5 22.5 -33.5 q8.5 -19 8.5 -40 q0 -41 -25 -69 l-618 -738 l538 0 q43 0 73 -30.5 q30 -30.5 30 -73.5 q0 -44 -30 -74.5 q-30 -30.5 -73 -30.5 Z" /><glyph glyph-name="braceleft" unicode="{" d="M634 1599 q45 0 74.5 -30.5 q29.5 -30.5 29.5 -74.5 q0 -45 -29.5 -74.5 q-29.5 -29.5 -74.5 -29.5 q-124 0 -124 -124 l0 -478 q0 -144 -66 -228 q66 -84 66 -228 l0 -478 q0 -124 124 -124 q45 0 74.5 -29.5 q29.5 -29.5 29.5 -74.5 q0 -45 -29.5 -75 q-29.5 -30 -74.5 -30 q-333 0 -333 333 l0 478 q0 124 -123 124 q-45 0 -74.5 29.5 q-29.5 29.5 -29.5 74.5 q0 45 29.5 74.5 q29.5 29.5 74.5 29.5 q123 0 123 124 l0 478 q0 333 333 333 Z" /><glyph glyph-name="bar" unicode="|" d="M510 1495 l0 -1870 q0 -45 -29.5 -75 q-29.5 -30 -74.5 -30 q-45 0 -75 30 q-30 30 -30 75 l0 1870 q0 45 30 75 q30 30 75 30 q45 0 74.5 -30 q29.5 -30 29.5 -75 Z" /><glyph glyph-name="braceright" unicode="}" d="M511 1266 l0 -478 q0 -124 123 -124 q45 0 74.5 -29.5 q29.5 -29.5 29.5 -74.5 q0 -45 -29.5 -74.5 q-29.5 -29.5 -74.5 -29.5 q-123 0 -123 -124 l0 -478 q0 -333 -333 -333 q-45 0 -74.5 30 q-29.5 30 -29.5 75 q0 45 29.5 74.5 q29.5 29.5 74.5 29.5 q124 0 124 124 l0 478 q0 144 66 228 q-66 84 -66 228 l0 478 q0 124 -124 124 q-45 0 -74.5 29.5 q-29.5 29.5 -29.5 74.5 q0 44 29.5 74.5 q29.5 30.5 74.5 30.5 q333 0 333 -333 Z" /><glyph glyph-name="asciitilde" unicode="~" d="M332 576 q-38 0 -84 11 q-46 11 -86.5 33 q-40.5 22 -67.5 53.5 q-27 31.5 -27 73.5 q1 47 31 75.5 q30 28.5 73 28.5 q36 0 81 -33 q45 -33 84 -33 q43 0 73 27 q87 82 219 82 q37 0 83.5 -11.5 q46.5 -11.5 86.5 -33.5 q40 -22 67.5 -54 q27.5 -32 27.5 -72 q0 -45 -30.5 -74.5 q-30.5 -29.5 -74.5 -29.5 q-32 0 -79.5 33 q-47.5 33 -83.5 33 q-41 0 -74 -27 q-90 -82 -219 -82 Z" /><glyph glyph-name="exclamdown" unicode="¡" d="M211 835 q-29 0 -55 11.5 q-26 11.5 -45.5 31 q-19.5 19.5 -30.5 45.5 q-11 26 -11 55 q0 30 11.5 56 q11.5 26 31 45 q19.5 19 45 30 q25.5 11 54.5 11 q28 0 54 -11 q26 -11 45.5 -30 q19.5 -19 31 -45 q11.5 -26 11.5 -56 q0 -29 -11 -55 q-11 -26 -30.5 -45.5 q-19.5 -19.5 -45.5 -31 q-26 -11.5 -55 -11.5 ZM107 670 q0 21 8 39.5 q8 18.5 22 32.5 q14 14 33 22.5 q19 8.5 41 8.5 q21 0 40 -8 q19 -8 33 -22 q14 -14 22.5 -33 q8.5 -19 8.5 -40 l0 -1044 q0 -44 -29.5 -74.5 q-29.5 -30.5 -74.5 -30.5 q-45 0 -74.5 30.5 q-29.5 30.5 -29.5 74.5 l0 1044 Z" /><glyph glyph-name="cent" unicode="¢" d="M587 906 q-65 -11 -119 -43 q-54 -32 -93 -78.5 q-39 -46.5 -60.5 -104 q-21.5 -57.5 -21.5 -120.5 q0 -63 17 -114 q17 -51 53 -99 l224 559 ZM539 223 q54 -14 105 -14 q66 0 122.5 21.5 q56.5 21.5 106.5 64.5 q14 11 31 16.5 q17 5.5 35 5.5 q45 0 74.5 -29.5 q29.5 -29.5 29.5 -74.5 q0 -44 -33 -77 q-157 -136 -366 -136 q-99 0 -182 28 l-106 -265 q-12 -27 -38.5 -47 q-26.5 -20 -58.5 -20 q-22 0 -41 8.5 q-19 8.5 -33.5 23.5 q-14.5 15 -22.5 34 q-8 19 -8 40 q0 19 7 38 l118 295 q-15 14 -30 29 q-165 163 -165 396 q0 115 44.5 216.5 q44.5 101.5 121 178 q76.5 76.5 178 121 q101.5 44.5 216.5 44.5 l28 0 l96 238 q16 41 57 58 q19 8 41 8 q22 0 41 -8.5 q19 -8.5 33 -23 q14 -14.5 22 -33.5 q8 -19 8 -40 q0 -15 -8 -38 l-83 -210 q58 -31 112.5 -71 q54.5 -40 54.5 -95 q0 -22 -8.5 -41 q-8.5 -19 -22.5 -33.5 q-14 -14.5 -33 -22.5 q-19 -8 -41 -8 q-38 0 -69 25.5 q-31 25.5 -71 49.5 l-262 -652 Z" /><glyph glyph-name="sterling" unicode="£" d="M260 0 q-52 0 -79 30 q-27 30 -27 75 q0 26 7 42 q104 243 108 468 l-87 0 q-45 0 -75 30.5 q-30 30.5 -30 76.5 q0 46 30 75.5 q30 29.5 75 29.5 l66 0 q-22 102 -63 201 q-31 73 -31 155 q0 86 33 162 q33 76 89.5 132 q56.5 56 131.5 88.5 q75 32.5 160 32.5 q107 0 191.5 -46 q84.5 -46 153.5 -138 q20 -29 20 -64 q0 -46 -30 -76.5 q-30 -30.5 -76 -30.5 q-39 0 -63.5 27.5 q-24.5 27.5 -52.5 56.5 q-59 59 -143 59 q-42 0 -79 -16 q-37 -16 -64.5 -43.5 q-27.5 -27.5 -43.5 -64.5 q-16 -37 -16 -79 q0 -35 17 -75 q30 -70 50 -139 q20 -69 32 -142 l258 0 q46 0 75.5 -29.5 q29.5 -29.5 29.5 -75.5 q0 -46 -29.5 -76.5 q-29.5 -30.5 -75.5 -30.5 l-242 0 q-2 -98 -18.5 -198.5 q-16.5 -100.5 -49.5 -204.5 l321 0 q31 61 58.5 107.5 q27.5 46.5 83.5 46.5 q22 0 41.5 -8.5 q19.5 -8.5 33.5 -23 q14 -14.5 22.5 -33.5 q8.5 -19 8.5 -41 q0 -28 -12 -50 l-74 -146 q-34 -64 -96 -64 l-539 0 Z" /><glyph glyph-name="currency" unicode="¤" d="M484 864 q-26 0 -48.5 -10 q-22.5 -10 -39 -27 q-16.5 -17 -26.5 -39.5 q-10 -22.5 -10 -47.5 q0 -24 9.5 -46.5 q9.5 -22.5 26 -39.5 q16.5 -17 39 -27 q22.5 -10 49.5 -10 q25 0 47.5 9.5 q22.5 9.5 39 26.5 q16.5 17 26.5 39 q10 22 10 48 q0 26 -10 49 q-10 23 -27 39.5 q-17 16.5 -39.5 26 q-22.5 9.5 -46.5 9.5 ZM686 1090 q30 30 73 30 q22 0 41 -8 q19 -8 33 -22.5 q14 -14.5 22 -33.5 q8 -19 8 -40 q-1 -48 -31 -76 l-50 -47 q34 -67 34 -153 q0 -80 -33 -147 l51 -54 q29 -31 29 -74 q0 -45 -29.5 -74.5 q-29.5 -29.5 -74.5 -29.5 q-41 0 -72 27 l-50 55 q-72 -35 -153 -35 q-77 0 -147 32 l-53 -49 q-34 -30 -75 -30 q-45 0 -75 29.5 q-30 29.5 -30 74.5 q0 42 31 74 l53 49 q-36 69 -36 152 q0 82 34 149 l-51 54 q-31 27 -31 73 q0 21 8 40 q8 19 22.5 33.5 q14.5 14.5 33.5 22.5 q19 8 41 8 q41 0 72 -28 l50 -55 q79 41 153 36 q78 0 147 -34 l55 51 Z" /><glyph glyph-name="yen" unicode="¥" d="M1183 1436 l-247 -368 l160 0 q44 0 75 -29.5 q31 -29.5 31 -74.5 q0 -46 -31 -75.5 q-31 -29.5 -75 -29.5 l-300 0 l-52 -79 l0 -92 l351 0 q44 0 74.5 -29.5 q30.5 -29.5 30.5 -74.5 q0 -45 -30.5 -74.5 q-30.5 -29.5 -74.5 -29.5 l-351 0 l0 -374 q0 -45 -30 -75.5 q-30 -30.5 -75 -30.5 q-45 0 -74.5 30.5 q-29.5 30.5 -29.5 75.5 l0 374 l-351 0 q-45 0 -74.5 29.5 q-29.5 29.5 -29.5 74.5 q0 45 29.5 74.5 q29.5 29.5 74.5 29.5 l351 0 l0 92 l-52 79 l-299 0 q-45 0 -74.5 30 q-29.5 30 -29.5 75 q0 45 29.5 74.5 q29.5 29.5 74.5 29.5 l160 0 l-247 368 q-17 26 -17 59 q0 44 29.5 74.5 q29.5 30.5 74.5 30.5 q53 0 85 -44 l371 -554 l370 554 q32 44 85 44 q45 0 74.5 -30.5 q29.5 -30.5 29.5 -74.5 q0 -33 -16 -59 Z" /><glyph glyph-name="brokenbar" unicode="¦" d="M145 1623 q0 45 30 74.5 q30 29.5 75 29.5 q45 0 74.5 -29.5 q29.5 -29.5 29.5 -74.5 l0 -683 q0 -45 -29.5 -75 q-29.5 -30 -74.5 -30 q-45 0 -75 30 q-30 30 -30 75 l0 683 ZM145 309 q0 45 30 74.5 q30 29.5 75 29.5 q45 0 74.5 -29.5 q29.5 -29.5 29.5 -74.5 l0 -683 q0 -45 -29.5 -75 q-29.5 -30 -74.5 -30 q-45 0 -75 30 q-30 30 -30 75 l0 683 Z" /><glyph glyph-name="section" unicode="§" d="M494 765 q-42 0 -79.5 -15.5 q-37.5 -15.5 -65 -43.5 q-27.5 -28 -44 -65.5 q-16.5 -37.5 -16.5 -78.5 q0 -44 16.5 -81 q16.5 -37 44 -64.5 q27.5 -27.5 65 -43 q37.5 -15.5 79.5 -15.5 q41 0 78 15.5 q37 15.5 65 43.5 q28 28 44.5 64.5 q16.5 36.5 16.5 80.5 q0 41 -16.5 78.5 q-16.5 37.5 -44.5 65.5 q-28 28 -65 43.5 q-37 15.5 -78 15.5 ZM912 1183 q0 -46 -30.5 -76.5 q-30.5 -30.5 -76.5 -30.5 q-46 0 -76.5 30.5 q-30.5 30.5 -30.5 76.5 q0 42 -16.5 79.5 q-16.5 37.5 -44.5 65 q-28 27.5 -65 44 q-37 16.5 -78 16.5 q-42 0 -79.5 -16.5 q-37.5 -16.5 -65 -44 q-27.5 -27.5 -44 -65 q-16.5 -37.5 -16.5 -79.5 q0 -42 16 -79.5 q16 -37.5 43.5 -65 q27.5 -27.5 65 -43.5 q37.5 -16 80.5 -16 q86 0 162 -33 q76 -33 133 -90 q57 -57 90 -133 q33 -76 33 -161 q0 -177 -139 -312 q139 -135 139 -310 q0 -86 -33.5 -162 q-33.5 -76 -90.5 -133 q-57 -57 -132.5 -90.5 q-75.5 -33.5 -161.5 -33.5 q-86 0 -162.5 33.5 q-76.5 33.5 -133 90.5 q-56.5 57 -89.5 133 q-33 76 -33 162 q0 46 30.5 76.5 q30.5 30.5 77.5 30.5 q45 0 75 -30.5 q30 -30.5 30 -76.5 q0 -42 16.5 -79.5 q16.5 -37.5 44 -65 q27.5 -27.5 65 -44 q37.5 -16.5 79.5 -16.5 q41 0 78 16.5 q37 16.5 65 44 q28 27.5 44.5 65 q16.5 37.5 16.5 79.5 q0 41 -16.5 78 q-16.5 37 -44.5 65 q-28 28 -65 44.5 q-37 16.5 -78 16.5 q-86 0 -162.5 32.5 q-76.5 32.5 -133 89.5 q-56.5 57 -89.5 133 q-33 76 -33 163 q0 173 137 311 q-77 74 -107 149.5 q-30 75.5 -30 160.5 q0 85 33 161.5 q33 76.5 89.5 133.5 q56.5 57 133 90.5 q76.5 33.5 162.5 33.5 q86 0 161.5 -33.5 q75.5 -33.5 132.5 -90.5 q57 -57 90.5 -133 q33.5 -76 33.5 -162 Z" /><glyph glyph-name="dieresis" unicode="¨" d="M378 1359 q0 -51 -36 -87 q-36 -36 -87 -36 q-51 0 -87 36 q-36 36 -36 87 q0 51 36 87 q36 36 87 36 q51 0 87 -36 q36 -36 36 -87 ZM833 1359 q0 -51 -36 -87 q-36 -36 -87 -36 q-51 0 -87 36 q-36 36 -36 87 q0 51 36 87 q36 36 87 36 q51 0 87 -36 q36 -36 36 -87 Z" /><glyph glyph-name="copyright" unicode="©" d="M1175 561 q45 0 74 -30.5 q29 -30.5 29 -73.5 q0 -21 -8 -41 q-8 -20 -25 -35 q-76 -68 -166 -101.5 q-90 -33.5 -196 -33.5 q-230 0 -392 163 q-163 163 -163 393 q0 228 163 392 q80 81 178.5 122 q98.5 41 213.5 41 q210 0 362 -135 q36 -32 36 -79 q0 -45 -29 -74.5 q-29 -29.5 -74 -29.5 q-18 0 -36 5.5 q-18 5.5 -31 18.5 q-51 43 -106.5 65 q-55.5 22 -121.5 22 q-72 0 -135.5 -28 q-63.5 -28 -111 -75.5 q-47.5 -47.5 -75 -110.5 q-27.5 -63 -27.5 -134 q0 -72 27.5 -135 q27.5 -63 74.5 -110.5 q47 -47.5 110.5 -75 q63.5 -27.5 136.5 -27.5 q66 0 121.5 21 q55.5 21 105.5 64 q13 12 29.5 16.5 q16.5 4.5 35.5 5.5 ZM1685 800 q0 -333 -235 -566 q-236 -234 -564 -234 q-166 0 -307.5 58 q-141.5 58 -259.5 176 q-118 117 -175.5 258.5 q-57.5 141.5 -57.5 307.5 q0 330 233 564 q233 235 567 235 q332 0 564 -235 q235 -232 235 -564 ZM883 1437 q-264 0 -450 -186 q-186 -186 -186 -448 q0 -135 45.5 -246 q45.5 -111 140.5 -205 q185 -185 450 -185 q132 0 244.5 45.5 q112.5 45.5 204.5 139.5 q186 188 186 451 q0 262 -186 448 q-186 186 -449 186 Z" /><glyph glyph-name="ordfeminine" unicode="ª" d="M484 1367 q-41 0 -77.5 -16 q-36.5 -16 -63.5 -43 q-27 -27 -43 -63.5 q-16 -36.5 -16 -77.5 q0 -41 15.5 -77.5 q15.5 -36.5 42.5 -63.5 q27 -27 63.5 -42.5 q36.5 -15.5 78.5 -15.5 q40 0 76.5 16 q36.5 16 63.5 43 q27 27 43 63 q16 36 16 77 q0 41 -16 77.5 q-16 36.5 -43.5 63.5 q-27.5 27 -63.5 43 q-36 16 -76 16 ZM713 791 q-11 11 -18 25 q-94 -57 -211 -57 q-84 0 -158.5 32.5 q-74.5 32.5 -130 88.5 q-55.5 56 -87.5 130 q-32 74 -32 157 q0 83 32 157.5 q32 74.5 87.5 130.5 q55.5 56 130 88.5 q74.5 32.5 158.5 32.5 q84 0 158 -32.5 q74 -32.5 129.5 -88.5 q55.5 -56 88 -130 q32.5 -74 32.5 -158 l0 -303 q0 -22 -8 -41 q-8 -19 -22.5 -33.5 q-14.5 -14.5 -33.5 -22.5 q-19 -8 -40 -8 q-45 0 -75 32 Z" /><glyph glyph-name="guillemotleft" unicode="«" d="M312 1055 q14 32 39 48 q25 16 57 16 q45 0 74.5 -29.5 q29.5 -29.5 30.5 -74.5 q-1 -25 -10 -45 l-205 -410 l205 -412 q9 -19 9 -44 q0 -21 -8 -40 q-8 -19 -22 -33.5 q-14 -14.5 -33 -22.5 q-19 -8 -41 -8 q-29 0 -55 16 q-26 16 -41 48 l-221 441 q-15 29 -15 54 q0 24 13 50 l223 446 ZM694 1055 q14 32 39 48 q25 16 57 16 q45 0 74.5 -29.5 q29.5 -29.5 30.5 -74.5 q-1 -25 -10 -45 l-205 -410 l205 -412 q9 -19 9 -44 q0 -21 -8 -40 q-8 -19 -22 -33.5 q-14 -14.5 -33 -22.5 q-19 -8 -41 -8 q-29 0 -55 16 q-26 16 -41 48 l-221 441 q-15 29 -15 54 q0 24 13 50 l223 446 Z" /><glyph glyph-name="logicalnot" unicode="¬" d="M182 911 q-45 0 -74.5 30 q-29.5 30 -29.5 75 q0 21 8 40 q8 19 22 33.5 q14 14.5 33 22.5 q19 8 41 8 l759 0 q22 0 41 -8 q19 -8 33 -22.5 q14 -14.5 22.5 -33.5 q8.5 -19 8.5 -40 l0 -304 q0 -22 -8.5 -41 q-8.5 -19 -22.5 -33.5 q-14 -14.5 -33 -22.5 q-19 -8 -41 -8 q-21 0 -40 8 q-19 8 -33.5 22.5 q-14.5 14.5 -22.5 33.5 q-8 19 -8 41 l0 199 l-655 0 Z" /><glyph glyph-name="registered" unicode="®" d="M1688 802 q0 -334 -236 -567 q-236 -235 -564 -235 q-167 0 -308.5 58 q-141.5 58 -259.5 177 q-119 117 -176.5 258.5 q-57.5 141.5 -57.5 308.5 q0 330 234 564 q233 236 568 236 q332 0 564 -236 q236 -232 236 -564 ZM885 1435 q-263 0 -448 -185 q-185 -185 -185 -446 q0 -134 45.5 -244 q45.5 -110 139.5 -204 q184 -184 448 -184 q131 0 242.5 45.5 q111.5 45.5 203.5 138.5 q185 187 185 448 q0 261 -185 446 q-185 185 -446 185 ZM717 1181 l0 -341 l171 0 q35 0 66 13.5 q31 13.5 54.5 37 q23.5 23.5 37 54.5 q13.5 31 13.5 66 q0 35 -13.5 66 q-13.5 31 -37 54 q-23.5 23 -54.5 36.5 q-31 13.5 -66 13.5 l-171 0 ZM888 1338 q66 0 125.5 -26 q59.5 -26 104 -70 q44.5 -44 71 -104 q26.5 -60 26.5 -127 q0 -88 -41 -160.5 q-41 -72.5 -123 -123.5 l199 -319 q15 -22 15 -44 q0 -16 -6.5 -30.5 q-6.5 -14.5 -17 -25 q-10.5 -10.5 -24.5 -17 q-14 -6.5 -30 -6.5 q-44 0 -68 39 l-224 360 l-178 0 l0 -320 q0 -32 -23.5 -55.5 q-23.5 -23.5 -55.5 -23.5 q-16 0 -30 6.5 q-14 6.5 -24.5 17 q-10.5 10.5 -17 25 q-6.5 14.5 -6.5 30.5 l0 896 q0 33 23 55.5 q23 22.5 55 22.5 l250 0 Z" /><glyph glyph-name="macron" unicode="¯" d="M182 1671 q-45 0 -74.5 29.5 q-29.5 29.5 -29.5 74.5 q0 45 29.5 74.5 q29.5 29.5 74.5 29.5 l759 0 q44 0 74.5 -29.5 q30.5 -29.5 30.5 -74.5 q0 -45 -30.5 -74.5 q-30.5 -29.5 -74.5 -29.5 l-759 0 Z" /><glyph glyph-name="degree" unicode="°" d="M892 1167 q0 -83 -32.5 -157 q-32.5 -74 -88 -130 q-55.5 -56 -129.5 -88.5 q-74 -32.5 -158 -32.5 q-84 0 -158.5 32.5 q-74.5 32.5 -130 88.5 q-55.5 56 -87.5 130 q-32 74 -32 157 q0 83 32 157.5 q32 74.5 87.5 130.5 q55.5 56 130 88.5 q74.5 32.5 158.5 32.5 q84 0 158 -32.5 q74 -32.5 129.5 -88.5 q55.5 -56 88 -130 q32.5 -74 32.5 -158 ZM484 1367 q-41 0 -77.5 -16 q-36.5 -16 -63.5 -43 q-27 -27 -43 -63.5 q-16 -36.5 -16 -77.5 q0 -41 15.5 -77.5 q15.5 -36.5 42.5 -63.5 q27 -27 63.5 -42.5 q36.5 -15.5 78.5 -15.5 q40 0 76.5 16 q36.5 16 63.5 43 q27 27 43 63 q16 36 16 77 q0 41 -16 77.5 q-16 36.5 -43.5 63.5 q-27.5 27 -63.5 43 q-36 16 -76 16 Z" /><glyph glyph-name="plusminus" unicode="±" d="M941 683 l-275 0 l0 -275 q0 -45 -29.5 -74.5 q-29.5 -29.5 -74.5 -29.5 q-45 0 -75 29.5 q-30 29.5 -30 74.5 l0 275 l-275 0 q-45 0 -74.5 30 q-29.5 30 -29.5 75 q0 45 29.5 74.5 q29.5 29.5 74.5 29.5 l275 0 l0 275 q0 43 30.5 74 q30.5 31 74.5 31 q45 0 74.5 -30.5 q29.5 -30.5 29.5 -74.5 l0 -275 l275 0 q43 0 74 -30.5 q31 -30.5 31 -74.5 q0 -43 -31 -73.5 q-31 -30.5 -74 -30.5 ZM182 0 q-45 0 -74.5 29.5 q-29.5 29.5 -29.5 74.5 q0 45 29.5 74.5 q29.5 29.5 74.5 29.5 l760 0 q45 0 74.5 -29.5 q29.5 -29.5 29.5 -74.5 q0 -45 -29.5 -74.5 q-29.5 -29.5 -74.5 -29.5 l-760 0 Z" /><glyph glyph-name="twosuperior" unicode="²" d="M514 923 q26 0 45.5 -20 q19.5 -20 19.5 -46 q0 -29 -19.5 -47.5 q-19.5 -18.5 -45.5 -18.5 l-376 0 q-29 0 -47.5 18.5 q-18.5 18.5 -18.5 47.5 q0 28 17 46 l321 355 q37 37 37 87 q0 25 -10 47.5 q-10 22.5 -26.5 39 q-16.5 16.5 -38.5 26.5 q-22 10 -46 10 q-26 0 -48 -10 q-22 -10 -39 -26.5 q-17 -16.5 -26.5 -39 q-9.5 -22.5 -9.5 -47.5 q0 -26 -19.5 -45.5 q-19.5 -19.5 -45.5 -19.5 q-29 0 -47.5 19.5 q-18.5 19.5 -18.5 45.5 q0 53 20.5 99.5 q20.5 46.5 55 81 q34.5 34.5 81 54.5 q46.5 20 97.5 20 q51 0 97 -20 q46 -20 80.5 -55 q34.5 -35 55 -81.5 q20.5 -46.5 20.5 -98.5 q0 -51 -19 -96 q-19 -45 -55 -82 l-218 -244 l227 0 Z" /><glyph glyph-name="threesuperior" unicode="³" d="M328 1165 q-29 0 -48 18.5 q-19 18.5 -19 47.5 q0 26 19 46.5 q19 20.5 48 20.5 q35 0 59.5 24.5 q24.5 24.5 24.5 59.5 q0 38 -25 62 q-25 24 -59 24 q-18 0 -33.5 -7 q-15.5 -7 -27.5 -18.5 q-12 -11.5 -18.5 -27 q-6.5 -15.5 -6.5 -33.5 q0 -26 -20 -45.5 q-20 -19.5 -46 -19.5 q-29 0 -47.5 19.5 q-18.5 19.5 -18.5 45.5 q0 46 17.5 86 q17.5 40 47.5 69.5 q30 29.5 69.5 46.5 q39.5 17 83.5 17 q44 0 83.5 -18 q39.5 -18 69 -48 q29.5 -30 47 -70 q17.5 -40 17.5 -83 q0 -40 -14.5 -77 q-14.5 -37 -38.5 -67 q46 -33 68.5 -87.5 q22.5 -54.5 22.5 -108.5 q0 -52 -20 -98.5 q-20 -46.5 -55 -81.5 q-35 -35 -81.5 -55.5 q-46.5 -20.5 -98.5 -20.5 q-53 0 -99.5 20 q-46.5 20 -81.5 55 q-35 35 -55 81.5 q-20 46.5 -20 99.5 q0 29 18.5 47.5 q18.5 18.5 47.5 18.5 q26 0 46 -18.5 q20 -18.5 20 -47.5 q0 -25 9 -47.5 q9 -22.5 25.5 -39 q16.5 -16.5 39.5 -26.5 q23 -10 50 -10 q26 0 48 9.5 q22 9.5 38.5 26.5 q16.5 17 26 39 q9.5 22 9.5 48 q0 25 -10 47.5 q-10 22.5 -26.5 39 q-16.5 16.5 -38.5 26.5 q-22 10 -47 10 Z" /><glyph glyph-name="acute" unicode="´" d="M480 1421 l-200 -199 q-28 -28 -72 -28 q-45 0 -74.5 29.5 q-29.5 29.5 -29.5 74.5 q0 43 26 71 l200 199 q32 31 74 31 q45 0 74.5 -30.5 q29.5 -30.5 29.5 -74.5 q0 -45 -28 -73 Z" /><glyph glyph-name="mu" unicode="µ" d="M288 522 q0 -65 24.5 -122 q24.5 -57 67 -99.5 q42.5 -42.5 99.5 -67 q57 -24.5 122 -24.5 q64 0 121 24.5 q57 24.5 100 67.5 q43 43 67.5 99.5 q24.5 56.5 24.5 121.5 l0 494 q0 21 8 40 q8 19 22 33.5 q14 14.5 33 22.5 q19 8 41 8 q22 0 41 -8 q19 -8 33 -22.5 q14 -14.5 22.5 -33.5 q8.5 -19 8.5 -40 l0 -912 q0 -21 -8.5 -40 q-8.5 -19 -22.5 -33.5 q-14 -14.5 -33 -22.5 q-19 -8 -41 -8 q-45 0 -74 30 q-29 30 -30 73 q-69 -54 -146 -78.5 q-77 -24.5 -167 -24.5 q-180 0 -313 103 l0 -477 q0 -22 -8.5 -41 q-8.5 -19 -22.5 -33.5 q-14 -14.5 -33 -22.5 q-19 -8 -41 -8 q-45 0 -74.5 30 q-29.5 30 -29.5 75 l0 1390 q0 21 8 40 q8 19 22 33.5 q14 14.5 33 22.5 q19 8 41 8 q22 0 41 -8 q19 -8 33 -22.5 q14 -14.5 22.5 -33.5 q8.5 -19 8.5 -40 l0 -494 Z" /><glyph glyph-name="paragraph" unicode="¶" d="M970 104 q0 -21 -8.5 -40 q-8.5 -19 -22.5 -33.5 q-14 -14.5 -33 -22.5 q-19 -8 -41 -8 q-21 0 -40 8 q-19 8 -33.5 22.5 q-14.5 14.5 -22.5 33.5 q-8 19 -8 40 l0 1286 l-95 0 l0 -1286 q0 -21 -8 -40 q-8 -19 -22 -33.5 q-14 -14.5 -33 -22.5 q-19 -8 -41 -8 q-22 0 -41 8 q-19 8 -33.5 22.5 q-14.5 14.5 -22.5 33.5 q-8 19 -8 40 l0 679 q-79 5 -148 39.5 q-69 34.5 -120.5 90 q-51.5 55.5 -81 127.5 q-29.5 72 -29.5 150 q0 83 32 157.5 q32 74.5 87.5 130.5 q55.5 56 130 88.5 q74.5 32.5 158.5 32.5 l455 0 q22 0 41 -8.5 q19 -8.5 33 -22.5 q14 -14 22.5 -33 q8.5 -19 8.5 -41 q0 -36 -21 -63.5 q-21 -27.5 -55 -36.5 l0 -1290 Z" /><glyph glyph-name="periodcentered" unicode="·&#x2219;" d="M343 750 q0 -59 -41.5 -100.5 q-41.5 -41.5 -100.5 -41.5 q-59 0 -100.5 41.5 q-41.5 41.5 -41.5 100.5 q0 59 41.5 100.5 q41.5 41.5 100.5 41.5 q59 0 100.5 -41.5 q41.5 -41.5 41.5 -100.5 Z" /><glyph glyph-name="cedilla" unicode="¸" d="M293 82 q31 28 73 28 q45 0 74.5 -30.5 q29.5 -30.5 29.5 -74.5 q0 -11 -3 -23 l-9 -35 q126 -74 126 -198 q0 -97 -77 -163 q-73 -65 -179 -65 q-64 0 -123 31 l-87 53 q-46 37 -46 87 q0 44 29.5 74.5 q29.5 30.5 74.5 30.5 q29 1 56 -16 l72 -45 q12 -6 24 -6 q47 0 47 22 q0 22 -45 25 q-45 0 -81.5 33.5 q-36.5 33.5 -23.5 85.5 l40 139 q6 23 28 47 Z" /><glyph glyph-name="onesuperior" unicode="¹" d="M353 855 q0 -29 -20.5 -48 q-20.5 -19 -46.5 -19 q-26 0 -46 19 q-20 19 -20 48 l0 588 l-22 -9 q-9 -4 -25 -4 q-29 0 -47.5 18.5 q-18.5 18.5 -18.5 47.5 q0 18 11.5 35.5 q11.5 17.5 31.5 26.5 l115 39 q10 3 21 3 q26 0 46.5 -19 q20.5 -19 20.5 -48 l0 -678 Z" /><glyph glyph-name="ordmasculine" unicode="º" d="M72 1194 q0 96 17 171 q17 75 49.5 127.5 q32.5 52.5 80 80 q47.5 27.5 108.5 27.5 q59 0 106 -27.5 q47 -27.5 80 -80 q33 -52.5 50.5 -127.5 q17.5 -75 17.5 -171 q0 -96 -17.5 -171 q-17.5 -75 -50.5 -127.5 q-33 -52.5 -80 -80 q-47 -27.5 -106 -27.5 q-61 0 -108.5 27.5 q-47.5 27.5 -80 80 q-32.5 52.5 -49.5 127.5 q-17 75 -17 171 ZM327 1468 q-30 0 -53 -21.5 q-23 -21.5 -38.5 -59 q-15.5 -37.5 -23.5 -87 q-8 -49.5 -8 -106.5 q0 -176 64 -249 l-2 1 q24 -25 61 -25 q31 0 54 21 q23 21 38 58 q15 37 22.5 87 q7.5 50 7.5 107 q0 178 -63 249 l0 -1 q-24 26 -59 26 Z" /><glyph glyph-name="guillemotright" unicode="»" d="M882 609 q13 -26 13 -50 q0 -25 -15 -54 l-221 -441 q-15 -32 -41 -48 q-26 -16 -55 -16 q-22 0 -41 8 q-19 8 -33 22.5 q-14 14.5 -22 33.5 q-8 19 -8 40 q0 25 9 44 l205 412 l-205 410 q-9 20 -10 45 q1 45 30.5 74.5 q29.5 29.5 74.5 29.5 q32 0 57 -16 q25 -16 39 -48 l223 -446 ZM500 609 q13 -26 13 -50 q0 -25 -15 -54 l-221 -441 q-15 -32 -41 -48 q-26 -16 -55 -16 q-22 0 -41 8 q-19 8 -33 22.5 q-14 14.5 -22 33.5 q-8 19 -8 40 q0 25 9 44 l205 412 l-205 410 q-9 20 -10 45 q1 45 30.5 74.5 q29.5 29.5 74.5 29.5 q32 0 57 -16 q25 -16 39 -48 l223 -446 Z" /><glyph glyph-name="onequarter" unicode="¼" d="M1189 1600 q22 0 41 -8.5 q19 -8.5 33 -22.5 q14 -14 22.5 -33 q8.5 -19 8.5 -41 q0 -30 -16 -57 l-926 -1387 q-36 -51 -90 -51 q-22 0 -41 8 q-19 8 -33 22.5 q-14 14.5 -22 33.5 q-8 19 -8 40 q0 34 15 56 l932 1398 q28 42 84 42 ZM367 704 q0 -31 -21.5 -52.5 q-21.5 -21.5 -53.5 -21.5 q-31 0 -52.5 21.5 q-21.5 21.5 -21.5 52.5 l0 717 l-36 -10 q-14 -5 -26 -5 q-32 0 -53 21 q-21 21 -21 53 q0 22 12 40.5 q12 18.5 31 26.5 l141 48 q13 5 26 5 q32 0 53.5 -21.5 q21.5 -21.5 21.5 -52.5 l0 -822 ZM1069 376 l0 281 l-194 -281 l194 0 ZM733 228 q-32 0 -53 21 q-21 21 -21 53 q0 23 14 43 l409 592 q22 31 61 31 q32 0 53 -21 q21 -21 21 -53 l0 -518 l63 0 q31 0 52.5 -21 q21.5 -21 21.5 -53 q0 -32 -21.5 -53 q-21.5 -21 -52.5 -21 l-63 0 l0 -154 q0 -32 -21 -53 q-21 -21 -53 -21 q-32 0 -53 21 q-21 21 -21 53 l0 154 l-336 0 Z" /><glyph glyph-name="onehalf" unicode="½" d="M1433 148 q30 0 52.5 -21 q22.5 -21 22.5 -53 q0 -32 -22.5 -53 q-22.5 -21 -52.5 -21 l-456 0 q-32 0 -53 21 q-21 21 -21 53 q0 28 21 51 l389 431 q46 46 46 111 q0 32 -12.5 60 q-12.5 28 -33.5 49 q-21 21 -49 33 q-28 12 -59 12 q-32 0 -60 -12 q-28 -12 -49 -33 q-21 -21 -33 -49 q-12 -28 -12 -60 q0 -32 -21 -53 q-21 -21 -53 -21 q-32 0 -53 21 q-21 21 -21 53 q0 62 24 117 q24 55 65 96 q41 41 96 65 q55 24 117 24 q61 0 116.5 -24.5 q55.5 -24.5 96.5 -65.5 q41 -41 65.5 -96 q24.5 -55 24.5 -116 q0 -61 -23.5 -114 q-23.5 -53 -65.5 -99 l-275 -306 l289 0 ZM1189 1600 q22 0 41 -8.5 q19 -8.5 33 -22.5 q14 -14 22.5 -33 q8.5 -19 8.5 -41 q0 -30 -16 -57 l-926 -1387 q-36 -51 -90 -51 q-22 0 -41 8 q-19 8 -33 22.5 q-14 14.5 -22 33.5 q-8 19 -8 40 q0 34 15 56 l932 1398 q28 42 84 42 ZM367 704 q0 -31 -21.5 -52.5 q-21.5 -21.5 -53.5 -21.5 q-31 0 -52.5 21.5 q-21.5 21.5 -21.5 52.5 l0 717 l-36 -10 q-14 -5 -26 -5 q-32 0 -53 21 q-21 21 -21 53 q0 22 12 40.5 q12 18.5 31 26.5 l141 48 q13 5 26 5 q32 0 53.5 -21.5 q21.5 -21.5 21.5 -52.5 l0 -822 Z" /><glyph glyph-name="threequarters" unicode="¾" d="M385 1089 q-32 0 -53 21 q-21 21 -21 53 q0 29 21 51 q21 22 53 22 q22 0 41.5 8.5 q19.5 8.5 34.5 23.5 q15 15 23.5 34.5 q8.5 19.5 8.5 41.5 q0 23 -9.5 42.5 q-9.5 19.5 -24.5 34 q-15 14.5 -34.5 23 q-19.5 8.5 -39.5 8.5 q-22 0 -41.5 -8.5 q-19.5 -8.5 -34.5 -23.5 q-15 -15 -23.5 -34.5 q-8.5 -19.5 -8.5 -41.5 q0 -15 -6 -28.5 q-6 -13.5 -16.5 -23.5 q-10.5 -10 -23.5 -16 q-13 -6 -28 -6 q-31 0 -52.5 21.5 q-21.5 21.5 -21.5 52.5 q0 52 20.5 98.5 q20.5 46.5 55 81.5 q34.5 35 81 55.5 q46.5 20.5 99.5 20.5 q53 0 99.5 -20.5 q46.5 -20.5 81 -56 q34.5 -35.5 54.5 -82 q20 -46.5 20 -97.5 q0 -99 -67 -172 q27 -28 48.5 -54.5 q21.5 -26.5 35.5 -55 q14 -28.5 21.5 -60 q7.5 -31.5 7.5 -67.5 q0 -61 -24 -115.5 q-24 -54.5 -65.5 -96 q-41.5 -41.5 -96 -65.5 q-54.5 -24 -115.5 -24 q-62 0 -116.5 24 q-54.5 24 -95.5 65 q-41 41 -65 95.5 q-24 54.5 -24 116.5 q0 32 21 53 q21 21 53 21 q32 0 53 -21 q21 -21 21 -53 q0 -32 12 -60 q12 -28 32.5 -48.5 q20.5 -20.5 48.5 -32 q28 -11.5 60 -11.5 q31 0 58.5 12 q27.5 12 48.5 33 q21 21 33 48.5 q12 27.5 12 58.5 q0 33 -12 61 q-12 28 -33 48.5 q-21 20.5 -48.5 32.5 q-27.5 12 -58.5 12 ZM1343 1600 q22 0 41 -8.5 q19 -8.5 33 -22.5 q14 -14 22.5 -33 q8.5 -19 8.5 -41 q0 -30 -16 -57 l-926 -1387 q-36 -51 -90 -51 q-22 0 -41 8 q-19 8 -33 22.5 q-14 14.5 -22 33.5 q-8 19 -8 40 q0 34 15 56 l932 1398 q28 42 84 42 ZM1222 376 l0 281 l-194 -281 l194 0 ZM886 228 q-32 0 -53 21 q-21 21 -21 53 q0 23 14 43 l409 592 q22 31 61 31 q32 0 53 -21 q21 -21 21 -53 l0 -518 l63 0 q31 0 52.5 -21 q21.5 -21 21.5 -53 q0 -32 -21.5 -53 q-21.5 -21 -52.5 -21 l-63 0 l0 -154 q0 -32 -21 -53 q-21 -21 -53 -21 q-32 0 -53 21 q-21 21 -21 53 l0 154 l-336 0 Z" /><glyph glyph-name="questiondown" unicode="¿" d="M562 -271 q56 0 106 22 q50 22 87.5 59.5 q37.5 37.5 59.5 87.5 q22 50 22 106 q0 112 -80 195 l-157 146 q-143 143 -143 343 q0 45 30 74.5 q30 29.5 75 29.5 q45 0 74.5 -29.5 q29.5 -29.5 29.5 -74.5 q0 -115 80 -195 l157 -145 q143 -146 143 -344 q0 -98 -38.5 -186 q-38.5 -88 -104.5 -154 q-66 -66 -154 -105 q-88 -39 -187 -39 q-99 0 -187 38 q-88 38 -154 104 q-66 66 -104.5 154 q-38.5 88 -38.5 188 q0 45 29.5 75 q29.5 30 74.5 30 q22 0 41 -8 q19 -8 33 -22.5 q14 -14.5 22.5 -33.5 q8.5 -19 8.5 -41 q0 -58 21.5 -108 q21.5 -50 59 -87 q37.5 -37 87.5 -58.5 q50 -21.5 107 -21.5 ZM562 835 q-59 0 -100.5 41.5 q-41.5 41.5 -41.5 100.5 q0 59 41.5 100.5 q41.5 41.5 100.5 41.5 q59 0 100.5 -41.5 q41.5 -41.5 41.5 -100.5 q0 -59 -41.5 -100.5 q-41.5 -41.5 -100.5 -41.5 Z" /><glyph glyph-name="AE" unicode="æ" d="M851 1084 l-141 -255 l141 0 l0 255 ZM1574 1600 q22 0 41.5 -8 q19.5 -8 34 -22.5 q14.5 -14.5 22.5 -34 q8 -19.5 8 -41.5 q0 -23 -8 -42 q-8 -19 -22.5 -33.5 q-14.5 -14.5 -34 -22.5 q-19.5 -8 -41.5 -8 l-511 0 l0 -559 l357 0 q22 0 41.5 -8 q19.5 -8 34 -22.5 q14.5 -14.5 22.5 -34 q8 -19.5 8 -41.5 q0 -23 -8 -42 q-8 -19 -22.5 -33.5 q-14.5 -14.5 -34 -22.5 q-19.5 -8 -41.5 -8 l-357 0 l0 -405 l511 0 q22 0 41.5 -8 q19.5 -8 34 -22.5 q14.5 -14.5 22.5 -34 q8 -19.5 8 -41.5 q0 -23 -8 -42 q-8 -19 -22.5 -33.5 q-14.5 -14.5 -34 -22.5 q-19.5 -8 -41.5 -8 l-617 0 q-23 0 -42 8 q-19 8 -33.5 22.5 q-14.5 14.5 -22.5 33.5 q-8 19 -8 42 l0 511 l-259 0 l-317 -570 q-32 -47 -89 -47 q-23 0 -42 8 q-19 8 -33.5 22.5 q-14.5 14.5 -22.5 33.5 q-8 19 -8 42 q0 29 15 53 l772 1391 q27 50 90 50 l617 0 Z" /><glyph glyph-name="Eth" unicode="ð" d="M230 906 l0 588 q0 22 8.5 41.5 q8.5 19.5 23 33.5 q14.5 14 33.5 22.5 q19 8.5 41 8.5 l309 0 q330 0 565 -235 q118 -118 176.5 -257.5 q58.5 -139.5 58.5 -307.5 q0 -331 -235 -566 q-234 -234 -565 -234 l-309 0 q-22 0 -41 8.5 q-19 8.5 -33.5 22.5 q-14.5 14 -23 33.5 q-8.5 19.5 -8.5 41.5 l0 588 l-124 0 q-23 0 -42 8 q-19 8 -33.5 22.5 q-14.5 14.5 -22.5 33.5 q-8 19 -8 42 q0 22 8 41.5 q8 19.5 22.5 34 q14.5 14.5 33.5 22.5 q19 8 42 8 l124 0 ZM442 906 l280 0 q45 0 75.5 -30.5 q30.5 -30.5 30.5 -75.5 q0 -23 -8 -42 q-8 -19 -22.5 -33.5 q-14.5 -14.5 -34 -22.5 q-19.5 -8 -41.5 -8 l-280 0 l0 -482 l203 0 q243 0 415 172 q87 87 130 189.5 q43 102.5 43 226.5 q0 242 -173 415 q-173 173 -415 173 l-203 0 l0 -482 Z" /><glyph glyph-name="multiply" unicode="×" d="M336 712 l-232 231 q-28 31 -28 73 q0 21 8 40 q8 19 22 33.5 q14 14.5 33 22.5 q19 8 41 8 q44 0 75 -31 l229 -229 l229 229 q31 31 75 31 q21 0 40 -8 q19 -8 33.5 -22.5 q14.5 -14.5 22.5 -33.5 q8 -19 8 -40 q0 -41 -29 -73 l-231 -231 l231 -231 q29 -31 29 -73 q0 -22 -8 -41 q-8 -19 -22.5 -33 q-14.5 -14 -33.5 -22 q-19 -8 -40 -8 q-45 0 -73 27 l-231 233 l-233 -233 q-28 -27 -71 -27 q-45 0 -74.5 29.5 q-29.5 29.5 -29.5 74.5 q0 46 28 73 l232 231 Z" /><glyph glyph-name="Oslash" unicode="ø" d="M1516 1286 q84 -106 124 -226 q40 -120 40 -260 q0 -331 -235 -566 q-234 -234 -565 -234 q-140 0 -260 40 q-120 40 -226 124 l-133 -134 q-32 -30 -75 -30 q-23 0 -42 8 q-19 8 -33.5 22.5 q-14.5 14.5 -22.5 33.5 q-8 19 -8 42 q0 44 28 72 l136 136 q-84 106 -124 226 q-40 120 -40 260 q0 331 234 565 q235 235 566 235 q140 0 260 -40 q120 -40 226 -124 l133 133 q31 31 75 31 q22 0 41.5 -8 q19.5 -8 34 -22.5 q14.5 -14.5 22.5 -34 q8 -19.5 8 -41.5 q0 -39 -24 -67 l-140 -141 ZM1215 1285 q-146 103 -335 103 q-124 0 -226.5 -43 q-102.5 -43 -189.5 -130 q-87 -87 -129.5 -189 q-42.5 -102 -42.5 -226 q0 -189 103 -334 l820 819 ZM546 315 q145 -103 334 -103 q244 0 416 172 q172 172 172 416 q0 185 -104 334 l-818 -819 Z" /><glyph glyph-name="Thorn" unicode="þ" d="M76 1494 q0 22 8 41.5 q8 19.5 22.5 34 q14.5 14.5 33.5 22.5 q19 8 42 8 q22 0 41.5 -8 q19.5 -8 34 -22.5 q14.5 -14.5 22.5 -34 q8 -19.5 8 -41.5 l0 -202 l434 0 q100 0 189.5 -39 q89.5 -39 156.5 -106 q67 -67 106 -156.5 q39 -89.5 39 -190.5 q0 -102 -39.5 -191.5 q-39.5 -89.5 -106.5 -156.5 q-67 -67 -156 -105.5 q-89 -38.5 -189 -38.5 l-434 0 l0 -202 q0 -23 -8 -42 q-8 -19 -22.5 -33.5 q-14.5 -14.5 -34 -22.5 q-19.5 -8 -41.5 -8 q-23 0 -42 8 q-19 8 -33.5 22.5 q-14.5 14.5 -22.5 33.5 q-8 19 -8 42 l0 1388 ZM722 520 q58 0 109 22 q51 22 88.5 60 q37.5 38 59.5 89 q22 51 22 109 q0 58 -22 109 q-22 51 -60 89 q-38 38 -89 60 q-51 22 -108 22 l-434 0 l0 -560 l434 0 Z" /><glyph glyph-name="germandbls" unicode="ß" d="M290 105 q0 -21 -8.5 -40 q-8.5 -19 -23 -34 q-14.5 -15 -33.5 -23 q-19 -8 -42 -8 q-22 0 -41 8 q-19 8 -33.5 23 q-14.5 15 -22.5 34 q-8 19 -8 40 l0 1078 q0 84 32.5 160 q32.5 76 88.5 132.5 q56 56.5 132 89.5 q76 33 161 33 q85 0 160 -33 q75 -33 131 -89.5 q56 -56.5 89 -132 q33 -75.5 33 -160.5 q0 -152 -95 -263 q-17 -26 -17 -57 q0 -57 39 -78 q54 -29 96.5 -69 q42.5 -40 71.5 -88 q29 -48 44.5 -102.5 q15.5 -54.5 15.5 -111.5 q0 -85 -33 -160.5 q-33 -75.5 -89.5 -131.5 q-56.5 -56 -131.5 -89 q-75 -33 -160 -33 q-172 0 -293 122 q-34 33 -34 77 q0 21 8.5 40.5 q8.5 19.5 22.5 34 q14 14.5 33 22.5 q19 8 42 8 q42 0 78 -32 q60 -60 143 -60 q40 0 77 16 q37 16 64.5 43.5 q27.5 27.5 44 64 q16.5 36.5 16.5 78.5 q0 85 -59 144 l0 -1 q-29 25 -66 50 q-37 25 -55 44 q-90 88 -90 213 q0 113 77 201 q38 47 38 118 q0 42 -16 79 q-16 37 -44 64.5 q-28 27.5 -64.5 43.5 q-36.5 16 -76.5 16 q-42 0 -79 -15.5 q-37 -15.5 -64.5 -43 q-27.5 -27.5 -43 -64.5 q-15.5 -37 -15.5 -80 l0 -1078 Z" /><glyph glyph-name="ae" unicode="æ" d="M652 911 q-73 0 -137 -27.5 q-64 -27.5 -111.5 -75 q-47.5 -47.5 -75 -111.5 q-27.5 -64 -27.5 -137 q0 -73 27.5 -137 q27.5 -64 75 -111.5 q47.5 -47.5 111.5 -75 q64 -27.5 137 -27.5 q73 0 137 27.5 q64 27.5 111.5 75 q47.5 47.5 75 111.5 q27.5 64 27.5 137 q0 73 -27.5 137 q-27.5 64 -75 111.5 q-47.5 47.5 -111.5 75 q-64 27.5 -137 27.5 ZM1900 664 q-17 55 -50.5 101 q-33.5 46 -78.5 78 q-45 32 -98 50 q-53 18 -110 18 q-56 0 -110 -18 q-54 -18 -99 -50.5 q-45 -32.5 -78.5 -78 q-33.5 -45.5 -49.5 -100.5 l674 0 ZM1212 104 q0 -21 -8 -40 q-8 -19 -22.5 -33.5 q-14.5 -14.5 -33.5 -22.5 q-19 -8 -40 -8 q-22 0 -41 8 q-19 8 -33.5 22.5 q-14.5 14.5 -22.5 33.5 q-8 19 -8 40 l0 20 q-75 -60 -163 -92 q-88 -32 -188 -32 q-232 0 -396 164 q-164 164 -164 396 q0 232 164 396 q164 164 396 164 q141 0 251.5 -58.5 q110.5 -58.5 204.5 -174.5 q48 58 98.5 101.5 q50.5 43.5 106 73 q55.5 29.5 117.5 44 q62 14.5 133 14.5 q232 0 396 -164 q164 -164 164 -396 q0 -45 -29.5 -74.5 q-29.5 -29.5 -74.5 -29.5 l-793 0 q18 -57 51.5 -102.5 q33.5 -45.5 78 -77.5 q44.5 -32 97.5 -49.5 q53 -17.5 110 -17.5 q66 0 121 20 q55 20 102 60 q32 26 69 26 q44 0 74.5 -29.5 q30.5 -29.5 30.5 -74.5 q0 -45 -31 -75 q-155 -136 -366 -136 q-100 0 -188 32 q-88 32 -163 92 l0 -20 Z" /><glyph glyph-name="eth" unicode="ð" d="M638 924 q-75 0 -140 -28.5 q-65 -28.5 -112.5 -76.5 q-47.5 -48 -75.5 -113 q-28 -65 -28 -138 q0 -73 28 -138 q28 -65 75.5 -113 q47.5 -48 112.5 -76.5 q65 -28.5 140 -28.5 q74 0 139 28.5 q65 28.5 113 77 q48 48.5 76 113 q28 64.5 28 137.5 q0 73 -28 137.5 q-28 64.5 -76 113 q-48 48.5 -113 77 q-65 28.5 -139 28.5 ZM554 1429 l-16 28 q-7 16 -7 38 q0 22 8.5 41 q8.5 19 23 33.5 q14.5 14.5 34 23 q19.5 8.5 41.5 8.5 q50 0 75 -33 l22 -33 l96 57 q19 9 45 9 q28 0 53 -13.5 q25 -13.5 39 -37.5 q14 -25 14 -55 q0 -27 -13 -52 q-13 -25 -39 -39 l-87 -51 l294 -511 q35 -61 52 -130 q17 -69 17 -144 q0 -237 -167 -402 q-168 -166 -401 -166 q-235 0 -402 166 q-166 167 -166 402 q0 235 166 401 q167 167 402 167 q44 0 86 -6 l-65 116 l-110 -63 q-20 -10 -46 -10 q-28 0 -52.5 13 q-24.5 13 -38.5 37 q-14 25 -14 55 q0 27 12.5 52 q12.5 25 38.5 39 l105 60 Z" /><glyph glyph-name="divide" unicode="÷" d="M180 607 q-45 0 -74.5 30 q-29.5 30 -29.5 75 q0 45 29.5 74.5 q29.5 29.5 74.5 29.5 l608 0 q45 0 74.5 -29.5 q29.5 -29.5 29.5 -74.5 q0 -45 -29.5 -75 q-29.5 -30 -74.5 -30 l-608 0 ZM607 997 q0 -52 -36 -88 q-36 -36 -87 -36 q-52 0 -88 36 q-36 36 -36 88 q0 51 36 87 q36 36 88 36 q51 0 87 -36 q36 -36 36 -87 ZM607 428 q0 -52 -36 -88 q-36 -36 -87 -36 q-52 0 -88 36 q-36 36 -36 88 q0 51 36 87 q36 36 88 36 q51 0 87 -36 q36 -36 36 -87 Z" /><glyph glyph-name="oslash" unicode="ø" d="M804 871 q-37 21 -78 30.5 q-41 9.5 -86 9.5 q-74 0 -138 -28 q-64 -28 -111 -75.5 q-47 -47.5 -74.5 -111.5 q-27.5 -64 -27.5 -136 q0 -91 38 -164 l477 475 ZM476 248 q37 -20 77.5 -29.5 q40.5 -9.5 86.5 -9.5 q73 0 137 28 q64 28 111.5 76 q47.5 48 75 111.5 q27.5 63.5 27.5 135.5 q0 46 -9.5 86.5 q-9.5 40.5 -29.5 77.5 l-476 -476 ZM1019 1087 q31 33 76 33 q22 0 41 -8 q19 -8 33 -22.5 q14 -14.5 22.5 -33.5 q8.5 -19 8.5 -40 q0 -42 -30 -73 l-67 -68 q97 -137 97 -315 q0 -234 -164 -396 q-166 -164 -396 -164 q-179 0 -315 97 l-70 -73 q-27 -24 -71 -24 q-22 0 -41 8 q-19 8 -33 22.5 q-14 14.5 -22 33.5 q-8 19 -8 40 q0 21 6.5 39.5 q6.5 18.5 21.5 33.5 l69 68 q-97 136 -97 315 q0 232 164 396 q164 164 396 164 q180 0 316 -97 l63 64 Z" /><glyph glyph-name="thorn" unicode="þ" d="M289 562 q0 -72 27.5 -136 q27.5 -64 74.5 -111.5 q47 -47.5 111 -75.5 q64 -28 138 -28 q73 0 137 28 q64 28 111.5 76 q47.5 48 75 111.5 q27.5 63.5 27.5 135.5 q0 72 -27.5 135.5 q-27.5 63.5 -75 111.5 q-47.5 48 -111.5 76 q-64 28 -137 28 q-74 0 -138 -28 q-64 -28 -111 -75.5 q-47 -47.5 -74.5 -111.5 q-27.5 -64 -27.5 -136 ZM289 998 q75 60 163 92 q88 32 188 32 q230 0 396 -164 q82 -81 123 -180.5 q41 -99.5 41 -215.5 q0 -234 -164 -396 q-166 -164 -396 -164 q-100 0 -188 32 q-88 32 -163 92 l0 -500 q0 -22 -8.5 -41 q-8.5 -19 -22.5 -33.5 q-14 -14.5 -33 -22.5 q-19 -8 -41 -8 q-45 0 -74.5 30 q-29.5 30 -29.5 75 l0 1870 q0 45 29.5 74.5 q29.5 29.5 74.5 29.5 q44 0 74.5 -29.5 q30.5 -29.5 30.5 -74.5 l0 -498 Z" /><glyph glyph-name="dotlessi" unicode="&#x131;" d="M146 105 l0 910 q0 44 30.5 74.5 q30.5 30.5 73.5 30.5 q43 0 73.5 -30.5 q30.5 -30.5 31.5 -74.5 l0 -910 q-1 -44 -31.5 -74.5 q-30.5 -30.5 -73.5 -30.5 q-43 0 -73.5 30.5 q-30.5 30.5 -30.5 74.5 Z" /><glyph glyph-name="circumflex" unicode="&#x2c6;" d="M678 1433 q50 -38 50 -90 q0 -45 -29.5 -74.5 q-29.5 -29.5 -74.5 -29.5 q-35 0 -66 22 l-162 107 l-162 -107 q-30 -22 -66 -22 q-45 0 -74.5 29.5 q-29.5 29.5 -29.5 74.5 q0 53 49 90 l229 151 q25 16 54 16 q29 0 54 -16 l228 -151 Z" /><glyph glyph-name="caron" unicode="&#x2c7;" d="M450 1255 q-25 -16 -54 -16 q-29 0 -54 16 l-229 151 q-49 37 -49 90 q0 45 29.5 74.5 q29.5 29.5 74.5 29.5 q36 0 66 -22 l162 -107 l162 107 q31 22 66 22 q45 0 74.5 -29.5 q29.5 -29.5 29.5 -74.5 q0 -52 -50 -90 l-228 -151 Z" /><glyph glyph-name="uni02C9" unicode="&#x2c9;" d="M168 1251 q-45 0 -74.5 29.5 q-29.5 29.5 -29.5 74.5 q0 44 29.5 74.5 q29.5 30.5 74.5 30.5 l456 0 q45 0 74.5 -30.5 q29.5 -30.5 29.5 -74.5 q0 -45 -29.5 -74.5 q-29.5 -29.5 -74.5 -29.5 l-456 0 Z" /><glyph glyph-name="breve" unicode="&#x2d8;" d="M397 1239 q-69 0 -129.5 19.5 q-60.5 19.5 -105.5 54 q-45 34.5 -71.5 81.5 q-26.5 47 -26.5 101 q0 44 29.5 74.5 q29.5 30.5 74.5 30.5 q45 0 75 -30 q22 -23 27 -54 q3 -28 38 -47 q37 -21 89 -21 q52 0 89 21 q35 19 37 47 q6 31 28 54 q30 30 75 30 q45 0 74.5 -30.5 q29.5 -30.5 29.5 -74.5 q0 -54 -26.5 -101 q-26.5 -47 -71.5 -81.5 q-45 -34.5 -105.5 -54 q-60.5 -19.5 -129.5 -19.5 Z" /><glyph glyph-name="dotaccent" unicode="&#x2d9;" d="M343 1379 q0 -59 -41.5 -100.5 q-41.5 -41.5 -100.5 -41.5 q-59 0 -100.5 41.5 q-41.5 41.5 -41.5 100.5 q0 59 41.5 100.5 q41.5 41.5 100.5 41.5 q59 0 100.5 -41.5 q41.5 -41.5 41.5 -100.5 Z" /><glyph glyph-name="ring" unicode="&#x2da;" d="M500 1379 q0 -45 -17.5 -85 q-17.5 -40 -47.5 -70 q-30 -30 -69.5 -47.5 q-39.5 -17.5 -84.5 -17.5 q-45 0 -85 17 q-40 17 -70 47 q-30 30 -47.5 70 q-17.5 40 -17.5 86 q0 45 17.5 85 q17.5 40 47.5 70 q30 30 70 47.5 q40 17.5 85 17.5 q45 0 85 -18 q40 -18 70 -48 q30 -30 47 -70 q17 -40 17 -84 ZM281 1446 q-28 0 -48 -20 q-20 -20 -20 -47 q0 -28 20 -47.5 q20 -19.5 48 -19.5 q27 0 46.5 19.5 q19.5 19.5 19.5 47.5 q0 27 -19.5 47 q-19.5 20 -46.5 20 Z" /><glyph glyph-name="ogonek" unicode="&#x2db;" d="M236 51 q13 26 36 40.5 q23 14.5 55 14.5 q44 0 73.5 -29 q29.5 -29 31.5 -73 q0 -46 -33 -93 q-33 -47 -97 -94 q-22 -18 -22 -40 q0 -20 14 -34 q14 -14 34 -14 q14 0 25 8 l63 47 q27 21 64 21 q45 0 74.5 -29.5 q29.5 -29.5 29.5 -74.5 q0 -51 -38 -83 l-77 -53 q-65 -45 -141 -45 q-51 0 -97.5 20 q-46.5 20 -82 55 q-35.5 35 -56 82 q-20.5 47 -20.5 100 q0 124 107 208 q42 35 57 66 Z" /><glyph glyph-name="tilde" unicode="&#x2dc;" d="M332 1231 q-38 0 -84 11 q-46 11 -86.5 33 q-40.5 22 -67.5 53.5 q-27 31.5 -27 73.5 q1 47 31 75.5 q30 28.5 73 28.5 q36 0 81 -33 q45 -33 84 -33 q43 0 73 27 q87 82 219 82 q37 0 83.5 -11.5 q46.5 -11.5 86.5 -33.5 q40 -22 67.5 -54 q27.5 -32 27.5 -72 q0 -45 -30.5 -74.5 q-30.5 -29.5 -74.5 -29.5 q-32 0 -79.5 33 q-47.5 33 -83.5 33 q-41 0 -74 -27 q-90 -82 -219 -82 Z" /><glyph glyph-name="hungarumlaut" unicode="&#x2dd;" d="M244 1214 q-25 -52 -79 -52 q-15 0 -30 5.5 q-15 5.5 -27 16 q-12 10.5 -20 26.5 q-8 16 -8 37 q0 14 5 32 l79 254 q9 28 37 47.5 q28 19.5 60 19.5 q22 0 41.5 -8.5 q19.5 -8.5 34 -23 q14.5 -14.5 22.5 -33.5 q8 -19 8 -40 q0 -17 -9 -39 l-114 -242 ZM538 1214 q-25 -52 -79 -52 q-15 0 -30 5.5 q-15 5.5 -27 16 q-12 10.5 -20 26.5 q-8 16 -8 37 q0 14 5 32 l79 254 q9 28 37 47.5 q28 19.5 60 19.5 q22 0 41.5 -8.5 q19.5 -8.5 34 -23 q14.5 -14.5 22.5 -33.5 q8 -19 8 -40 q0 -17 -9 -39 l-114 -242 Z" /><glyph glyph-name="endash" unicode="&#x2013;" d="M0 456 q-45 0 -74.5 29.5 q-29.5 29.5 -29.5 74.5 q0 45 29.5 74.5 q29.5 29.5 74.5 29.5 l802 0 q44 0 74.5 -29.5 q30.5 -29.5 30.5 -74.5 q0 -45 -30.5 -74.5 q-30.5 -29.5 -74.5 -29.5 l-802 0 Z" /><glyph glyph-name="emdash" unicode="&#x2014;" d="M0 664 l1919 0 q45 0 74.5 -29.5 q29.5 -29.5 29.5 -74.5 q0 -45 -29.5 -74.5 q-29.5 -29.5 -74.5 -29.5 l-1919 0 q-45 0 -74.5 29.5 q-29.5 29.5 -29.5 74.5 q0 45 29.5 74.5 q29.5 29.5 74.5 29.5 Z" /><glyph glyph-name="quoteleft" unicode="&#x2018;" d="M405 1039 q0 -26 -10 -48.5 q-10 -22.5 -26.5 -39.5 q-16.5 -17 -39.5 -26.5 q-23 -9.5 -48 -9.5 q-46 0 -79 32 q-33 32 -54 78.5 q-21 46.5 -30.5 96 q-9.5 49.5 -9.5 92.5 q0 177 151 358 q27 27 61 27 q35 0 60 -25 q25 -25 25 -60 q0 -17 -7 -35 q-45 -110 -45 -209 q0 -94 41 -182 q11 -25 11 -49 Z" /><glyph glyph-name="quoteright" unicode="&#x2019;" d="M108 1475 q0 26 10 48.5 q10 22.5 26.5 39.5 q16.5 17 39.5 26.5 q23 9.5 48 9.5 q46 0 79 -32 q33 -32 54 -78.5 q21 -46.5 30.5 -96 q9.5 -49.5 9.5 -92.5 q0 -177 -151 -358 q-27 -27 -61 -27 q-35 0 -60 25 q-25 25 -25 60 q0 17 7 35 q45 110 45 209 q0 94 -41 182 q-11 25 -11 49 Z" /><glyph glyph-name="quotesinglbase" unicode="&#x201a;" d="M108 197 q0 26 10 48.5 q10 22.5 26.5 39.5 q16.5 17 39.5 26.5 q23 9.5 48 9.5 q46 0 79 -32 q33 -32 54 -78.5 q21 -46.5 30.5 -96 q9.5 -49.5 9.5 -92.5 q0 -177 -151 -358 q-27 -27 -61 -27 q-35 0 -60 25 q-25 25 -25 60 q0 17 7 35 q45 110 45 209 q0 94 -41 182 q-11 25 -11 49 Z" /><glyph glyph-name="quotedblleft" unicode="&#x201c;" d="M370 1039 q0 -26 -10 -48.5 q-10 -22.5 -26.5 -39.5 q-16.5 -17 -39.5 -26.5 q-23 -9.5 -48 -9.5 q-46 0 -79 32 q-33 32 -54 78.5 q-21 46.5 -30.5 96 q-9.5 49.5 -9.5 92.5 q0 177 151 358 q27 27 61 27 q35 0 60 -25 q25 -25 25 -60 q0 -17 -7 -35 q-45 -110 -45 -209 q0 -94 41 -182 q11 -25 11 -49 ZM699 1039 q0 -26 -10 -48.5 q-10 -22.5 -26.5 -39.5 q-16.5 -17 -39.5 -26.5 q-23 -9.5 -48 -9.5 q-46 0 -79 32 q-33 32 -54 78.5 q-21 46.5 -30.5 96 q-9.5 49.5 -9.5 92.5 q0 177 151 358 q27 27 61 27 q35 0 60 -25 q25 -25 25 -60 q0 -17 -7 -35 q-45 -110 -45 -209 q0 -94 41 -182 q11 -25 11 -49 Z" /><glyph glyph-name="quotedblright" unicode="&#x201d;" d="M402 1475 q0 26 10 48.5 q10 22.5 26.5 39.5 q16.5 17 39.5 26.5 q23 9.5 48 9.5 q46 0 79 -32 q33 -32 54 -78.5 q21 -46.5 30.5 -96 q9.5 -49.5 9.5 -92.5 q0 -177 -151 -358 q-27 -27 -61 -27 q-35 0 -60 25 q-25 25 -25 60 q0 17 7 35 q45 110 45 209 q0 94 -41 182 q-11 25 -11 49 ZM73 1475 q0 26 10 48.5 q10 22.5 26.5 39.5 q16.5 17 39.5 26.5 q23 9.5 48 9.5 q46 0 79 -32 q33 -32 54 -78.5 q21 -46.5 30.5 -96 q9.5 -49.5 9.5 -92.5 q0 -177 -151 -358 q-27 -27 -61 -27 q-35 0 -60 25 q-25 25 -25 60 q0 17 7 35 q45 110 45 209 q0 94 -41 182 q-11 25 -11 49 Z" /><glyph glyph-name="quotedblbase" unicode="&#x201e;" d="M402 197 q0 26 10 48.5 q10 22.5 26.5 39.5 q16.5 17 39.5 26.5 q23 9.5 48 9.5 q46 0 79 -32 q33 -32 54 -78.5 q21 -46.5 30.5 -96 q9.5 -49.5 9.5 -92.5 q0 -177 -151 -358 q-27 -27 -61 -27 q-35 0 -60 25 q-25 25 -25 60 q0 17 7 35 q45 110 45 209 q0 94 -41 182 q-11 25 -11 49 ZM73 197 q0 26 10 48.5 q10 22.5 26.5 39.5 q16.5 17 39.5 26.5 q23 9.5 48 9.5 q46 0 79 -32 q33 -32 54 -78.5 q21 -46.5 30.5 -96 q9.5 -49.5 9.5 -92.5 q0 -177 -151 -358 q-27 -27 -61 -27 q-35 0 -60 25 q-25 25 -25 60 q0 17 7 35 q45 110 45 209 q0 94 -41 182 q-11 25 -11 49 Z" /><glyph glyph-name="dagger" unicode="&#x2020;" d="M182 911 q-45 0 -74.5 30 q-29.5 30 -29.5 75 q0 21 8 40 q8 19 22 33.5 q14 14.5 33 22.5 q19 8 41 8 l275 0 l0 374 q0 22 8 41 q8 19 22.5 33 q14.5 14 33.5 22.5 q19 8.5 41 8.5 q45 0 74.5 -30.5 q29.5 -30.5 29.5 -74.5 l0 -374 l275 0 q22 0 41 -8 q19 -8 33 -22.5 q14 -14.5 22.5 -33.5 q8.5 -19 8.5 -40 q0 -22 -8.5 -41 q-8.5 -19 -22.5 -33.5 q-14 -14.5 -33 -22.5 q-19 -8 -41 -8 l-275 0 l0 -1288 q0 -21 -8.5 -40 q-8.5 -19 -23 -33.5 q-14.5 -14.5 -33.5 -22.5 q-19 -8 -39 -8 q-21 0 -40.5 8.5 q-19.5 8.5 -33.5 23 q-14 14.5 -22.5 33 q-8.5 18.5 -8.5 39.5 l0 1288 l-275 0 Z" /><glyph glyph-name="daggerdbl" unicode="&#x2021;" d="M457 209 l0 702 l-275 0 q-45 0 -74.5 30 q-29.5 30 -29.5 75 q0 21 8 40 q8 19 22 33.5 q14 14.5 33 22.5 q19 8 41 8 l275 0 l0 374 q0 22 8 41 q8 19 22.5 33 q14.5 14 33.5 22.5 q19 8.5 41 8.5 q45 0 74.5 -30.5 q29.5 -30.5 29.5 -74.5 l0 -374 l275 0 q22 0 41 -8 q19 -8 33 -22.5 q14 -14.5 22.5 -33.5 q8.5 -19 8.5 -40 q0 -22 -8.5 -41 q-8.5 -19 -22.5 -33.5 q-14 -14.5 -33 -22.5 q-19 -8 -41 -8 l-275 0 l0 -702 l275 0 q22 0 41 -8.5 q19 -8.5 33 -22.5 q14 -14 22.5 -33 q8.5 -19 8.5 -41 q0 -21 -8.5 -40 q-8.5 -19 -22.5 -33.5 q-14 -14.5 -33 -22.5 q-19 -8 -41 -8 l-275 0 l0 -377 q0 -21 -8.5 -40 q-8.5 -19 -23 -33.5 q-14.5 -14.5 -33.5 -22.5 q-19 -8 -39 -8 q-21 0 -40.5 8.5 q-19.5 8.5 -33.5 23 q-14 14.5 -22.5 33 q-8.5 18.5 -8.5 39.5 l0 377 l-275 0 q-22 0 -41 8 q-19 8 -33 22.5 q-14 14.5 -22 33.5 q-8 19 -8 40 q0 44 29.5 74.5 q29.5 30.5 74.5 30.5 l275 0 Z" /><glyph glyph-name="bullet" unicode="&#x2022;" d="M662 788 q0 -51 -20 -97.5 q-20 -46.5 -54.5 -81.5 q-34.5 -35 -81 -56 q-46.5 -21 -100.5 -21 q-53 0 -99.5 20 q-46.5 20 -81.5 55 q-35 35 -55 81.5 q-20 46.5 -20 99.5 q0 54 21 100.5 q21 46.5 56 81 q35 34.5 81.5 54.5 q46.5 20 97.5 20 q51 0 97.5 -20.5 q46.5 -20.5 82 -56 q35.5 -35.5 56 -82 q20.5 -46.5 20.5 -97.5 Z" /><glyph glyph-name="ellipsis" unicode="&#x2026;" d="M365 142 q0 -30 -11.5 -56 q-11.5 -26 -31 -45 q-19.5 -19 -45.5 -30 q-26 -11 -54 -11 q-29 0 -55 11 q-26 11 -45.5 30.5 q-19.5 19.5 -30.5 45.5 q-11 26 -11 55 q0 28 11 54 q11 26 30 46 q19 20 45 31.5 q26 11.5 56 11.5 q29 0 55 -11.5 q26 -11.5 45.5 -31 q19.5 -19.5 30.5 -45.5 q11 -26 11 -55 ZM1317 142 q0 -29 -11.5 -55 q-11.5 -26 -31 -45.5 q-19.5 -19.5 -45.5 -30.5 q-26 -11 -55 -11 q-29 0 -55 11 q-26 11 -45.5 30.5 q-19.5 19.5 -30.5 45.5 q-11 26 -11 55 q0 28 11 54 q11 26 30 46 q19 20 45 31.5 q26 11.5 56 11.5 q30 0 56 -12 q26 -12 45.5 -31.5 q19.5 -19.5 30.5 -45.5 q11 -26 11 -54 ZM841 142 q0 -29 -11.5 -55 q-11.5 -26 -31 -45.5 q-19.5 -19.5 -45 -30.5 q-25.5 -11 -54.5 -11 q-29 0 -55 11 q-26 11 -45.5 30.5 q-19.5 19.5 -31 45.5 q-11.5 26 -11.5 55 q0 28 11 54 q11 26 30.5 45.5 q19.5 19.5 45.5 31.5 q26 12 56 12 q29 0 55 -11.5 q26 -11.5 45.5 -31 q19.5 -19.5 30.5 -45.5 q11 -26 11 -55 Z" /><glyph glyph-name="guilsinglleft" unicode="&#x2039;" d="M312 1055 q14 32 39 48 q25 16 57 16 q45 0 74.5 -29.5 q29.5 -29.5 30.5 -74.5 q-1 -25 -10 -45 l-205 -410 l205 -412 q9 -19 9 -44 q0 -21 -8 -40 q-8 -19 -22 -33.5 q-14 -14.5 -33 -22.5 q-19 -8 -41 -8 q-29 0 -55 16 q-26 16 -41 48 l-221 441 q-15 29 -15 54 q0 24 13 50 l223 446 Z" /><glyph glyph-name="guilsinglright" unicode="&#x203a;" d="M500 609 q13 -26 13 -50 q0 -25 -15 -54 l-221 -441 q-15 -32 -41 -48 q-26 -16 -55 -16 q-22 0 -41 8 q-19 8 -33 22.5 q-14 14.5 -22 33.5 q-8 19 -8 40 q0 25 9 44 l205 412 l-205 410 q-9 20 -10 45 q1 45 30.5 74.5 q29.5 29.5 74.5 29.5 q32 0 57 -16 q25 -16 39 -48 l223 -446 Z" /><glyph glyph-name="fraction" unicode="&#x2044;&#x2215;" d="M957 1600 q22 0 41 -8.5 q19 -8.5 33 -22.5 q14 -14 22.5 -33 q8.5 -19 8.5 -41 q0 -37 -22 -65 l-1240 -1393 q-33 -37 -80 -37 q-21 0 -40 8 q-19 8 -33.5 22.5 q-14.5 14.5 -22.5 33.5 q-8 19 -8 40 q0 38 24 68 l1238 1391 q33 37 79 37 Z" /><glyph glyph-name="franc" unicode="&#x20a3;" d="M311 513 l0 981 q0 44 29.5 74.5 q29.5 30.5 74.5 30.5 l911 0 q22 0 41 -8.5 q19 -8.5 33 -22.5 q14 -14 22.5 -33 q8.5 -19 8.5 -41 q0 -45 -30.5 -74.5 q-30.5 -29.5 -74.5 -29.5 l-807 0 l0 -498 l579 0 q44 0 74.5 -29.5 q30.5 -29.5 30.5 -74.5 q0 -22 -8.5 -41 q-8.5 -19 -22.5 -33.5 q-14 -14.5 -33 -22.5 q-19 -8 -41 -8 l-579 0 l0 -170 l124 0 q45 0 74.5 -30.5 q29.5 -30.5 29.5 -74.5 q0 -45 -29.5 -74.5 q-29.5 -29.5 -74.5 -29.5 l-124 0 l0 -200 q0 -21 -8 -40 q-8 -19 -22 -33.5 q-14 -14.5 -33 -22.5 q-19 -8 -41 -8 q-22 0 -41 8 q-19 8 -33 22.5 q-14 14.5 -22 33.5 q-8 19 -8 40 l0 200 l-124 0 q-45 0 -74.5 29.5 q-29.5 29.5 -29.5 74.5 q0 44 29.5 74.5 q29.5 30.5 74.5 30.5 l124 0 Z" /><glyph glyph-name="lira" unicode="&#x20a4;" d="M213 956 q-12 36 -27 75 q-32 73 -32 155 q0 87 33 162.5 q33 75.5 89.5 132 q56.5 56.5 132 89 q75.5 32.5 160.5 32.5 q108 0 192 -46.5 q84 -46.5 154 -137.5 q20 -29 20 -65 q0 -46 -30 -76.5 q-30 -30.5 -76 -30.5 q-37 0 -62.5 27.5 q-25.5 27.5 -54.5 57.5 q-59 59 -143 59 q-42 0 -79 -16.5 q-37 -16.5 -64.5 -44 q-27.5 -27.5 -43.5 -64.5 q-16 -37 -16 -79 q0 -39 16 -75 q38 -77 51 -155 l290 0 q46 0 76 -31 q30 -31 30 -76 q0 -46 -30 -76 q-30 -30 -76 -30 l-255 0 q4 -18 3 -39 l252 0 q46 0 76 -31 q30 -31 30 -75 q0 -22 -8 -41 q-8 -19 -22.5 -34 q-14.5 -15 -33.5 -23 q-19 -8 -42 -8 l-254 0 q-12 -151 -56 -280 l322 0 l63 113 q25 42 79 42 q22 0 41.5 -8.5 q19.5 -8.5 33.5 -23 q14 -14.5 23 -33.5 q9 -19 9 -42 q0 -25 -12 -50 l-75 -146 q-34 -64 -96 -64 l-541 0 q-22 0 -41.5 8 q-19.5 8 -33.5 23 q-14 15 -22.5 34 q-8.5 19 -8.5 41 q0 27 7 42 q38 81 61.5 166 q23.5 85 31.5 178 l-71 0 q-23 0 -42 8 q-19 8 -33.5 23 q-14.5 15 -22.5 34 q-8 19 -8 41 q0 44 30 75 q30 31 76 31 l74 0 q0 20 -5 39 l-69 0 q-46 0 -76 30 q-30 30 -30 76 q0 45 30 76 q30 31 76 31 l30 0 Z" /><glyph glyph-name="peseta" unicode="&#x20a7;" d="M286 1390 l0 -638 l179 0 q57 0 108.5 25 q51.5 25 90.5 68 q39 43 62 101.5 q23 58.5 23 124.5 q0 66 -22.5 124 q-22.5 58 -61.5 101.5 q-39 43.5 -90.5 68.5 q-51.5 25 -109.5 25 l-179 0 ZM1209 790 q0 -27 28 -37 l474 -156 q100 -39 135 -76 q76 -77 76 -184 q0 -78 -41.5 -140 q-41.5 -62 -107.5 -106 q-66 -44 -148 -67.5 q-82 -23.5 -166 -23.5 l-261 0 q-415 0 -415 415 l0 261 q-71 -70 -149.5 -102.5 q-78.5 -32.5 -168.5 -32.5 l-179 0 l0 -435 q0 -22 -7.5 -41 q-7.5 -19 -20.5 -34 q-13 -15 -31.5 -23 q-18.5 -8 -38.5 -8 q-21 0 -39 8 q-18 8 -31.5 23 q-13.5 15 -21 34 q-7.5 19 -7.5 41 l0 1389 q0 46 28 76.5 q28 30.5 71 30.5 l277 0 q176 0 318 -136 l0 29 q0 23 8.5 42 q8.5 19 23 33.5 q14.5 14.5 34 23 q19.5 8.5 41.5 8.5 q46 0 76 -31 q30 -31 30 -76 l0 -357 l472 0 q230 -5 393 -166 q57 -53 57 -102 q0 -46 -31 -76 q-31 -30 -76 -30 q-47 0 -100 58 q-103 104 -252 104 q-146 0 -235 -91 q-15 -18 -15 -45 ZM1459 212 q146 0 233 90 q17 20 17 49 q-1 24 -27 34 l-476 157 q-95 36 -133 75 q-74 74 -77 173 l0 -375 q0 -203 202 -203 l261 0 Z" /><glyph glyph-name="Euro" unicode="&#x20ac;" d="M1190 1059 q45 0 75 -30 q30 -30 30 -75 q0 -46 -30 -76.5 q-30 -30.5 -75 -30.5 l-895 0 q-4 -48 0 -96 l895 0 q45 0 75 -30 q30 -30 30 -76 q0 -46 -30 -75.5 q-30 -29.5 -75 -29.5 l-837 0 q39 -78 96 -139.5 q57 -61.5 126 -103 q69 -41.5 147 -63.5 q78 -22 159 -22 q209 0 369 129 q28 19 61 19 q22 0 41 -8 q19 -8 34 -23 q15 -15 23 -34 q8 -19 8 -40 q0 -46 -33 -76 q-223 -179 -503 -179 q-329 0 -565 234 q-234 233 -234 565 q0 330 234 564 q236 236 565 236 q283 0 514 -188 q28 -28 28 -73 q0 -46 -31 -76 q-31 -30 -76 -30 q-41 0 -73 30 q-76 61 -168 93 q-92 32 -194 32 q-82 0 -159.5 -21.5 q-77.5 -21.5 -146 -63 q-68.5 -41.5 -125.5 -103 q-57 -61.5 -97 -140.5 l837 0 Z" /><glyph glyph-name="afii61352" unicode="&#x2116;" d="M306 105 q0 -21 -8.5 -40 q-8.5 -19 -23 -34 q-14.5 -15 -33.5 -23 q-19 -8 -42 -8 q-22 0 -41 8 q-19 8 -33.5 23 q-14.5 15 -22.5 34 q-8 19 -8 40 l0 1387 q0 44 30 75 q30 31 75 31 q47 0 83 -39 l890 -1145 l0 1078 q0 22 8 41 q8 19 22.5 33.5 q14.5 14.5 34 23 q19.5 8.5 40.5 8.5 q23 0 42 -8.5 q19 -8.5 33.5 -23 q14.5 -14.5 23 -33.5 q8.5 -19 8.5 -41 l0 -1387 q0 -21 -8.5 -40 q-8.5 -19 -23 -34 q-14.5 -15 -33.5 -23 q-19 -8 -42 -8 q-47 0 -80 37 l-891 1145 l0 -1077 ZM2307 1183 q0 -84 -32.5 -159 q-32.5 -75 -89 -131.5 q-56.5 -56.5 -131.5 -89.5 q-75 -33 -160 -33 q-85 0 -160.5 33 q-75.5 33 -132 89.5 q-56.5 56.5 -89 131.5 q-32.5 75 -32.5 159 q0 84 32.5 160 q32.5 76 89 132.5 q56.5 56.5 132 89.5 q75.5 33 160.5 33 q85 0 160 -33 q75 -33 131.5 -89.5 q56.5 -56.5 89 -132 q32.5 -75.5 32.5 -160.5 ZM1894 1386 q-42 0 -78.5 -15.5 q-36.5 -15.5 -64 -43 q-27.5 -27.5 -43.5 -64.5 q-16 -37 -16 -80 q0 -42 15.5 -78.5 q15.5 -36.5 43 -64 q27.5 -27.5 64 -43 q36.5 -15.5 79.5 -15.5 q40 0 77 16 q37 16 64.5 43.5 q27.5 27.5 44 64 q16.5 36.5 16.5 77.5 q0 42 -16.5 79 q-16.5 37 -44.5 64.5 q-28 27.5 -64.5 43.5 q-36.5 16 -76.5 16 ZM1586 489 q-46 0 -76 30 q-30 30 -30 76 q0 46 30 75.5 q30 29.5 76 29.5 l616 0 q46 0 75.5 -29.5 q29.5 -29.5 29.5 -75.5 q0 -46 -29.5 -76 q-29.5 -30 -75.5 -30 l-616 0 Z" /><glyph glyph-name="partialdiff" unicode="&#x2202;" d="M638 924 q-75 0 -140 -28.5 q-65 -28.5 -112.5 -76.5 q-47.5 -48 -75.5 -113 q-28 -65 -28 -138 q0 -73 28 -138 q28 -65 75.5 -113 q47.5 -48 112.5 -76.5 q65 -28.5 140 -28.5 q74 0 139 28.5 q65 28.5 113 77 q48 48.5 76 113 q28 64.5 28 137.5 q0 73 -28 137.5 q-28 64.5 -76 113 q-48 48.5 -113 77 q-65 28.5 -139 28.5 ZM1206 568 q0 -237 -166 -402 q-169 -166 -402 -166 q-235 0 -402 166 q-166 167 -166 402 q0 235 166 402 q167 166 402 166 q191 0 335 -108 q-27 83 -76 149 q-49 66 -114 112.5 q-65 46.5 -141.5 72 q-76.5 25.5 -157.5 25.5 q-96 0 -164 -26 q-17 -7 -38 -7 q-46 0 -76.5 30.5 q-30.5 30.5 -30.5 76.5 q0 16 6.5 33 q6.5 17 17.5 31.5 q11 14.5 26.5 25 q15.5 10.5 33.5 14.5 q103 34 225 34 q295 0 510 -212 q212 -215 212 -511 l0 -308 Z" /><glyph glyph-name="Delta" unicode="&#x2206;" d="M188 0 q-23 0 -42 8 q-19 8 -33.5 23 q-14.5 15 -22.5 34 q-8 19 -8 41 q0 27 11 54 l537 1373 q13 29 40 48 q27 19 58 19 q30 0 57 -18 q27 -18 40 -49 l536 -1373 q12 -30 12 -54 q0 -22 -8.5 -41 q-8.5 -19 -23 -34 q-14.5 -15 -33.5 -23 q-19 -8 -42 -8 l-1078 0 ZM1111 212 l-383 988 l-385 -988 l768 0 Z" /><glyph glyph-name="product" unicode="&#x220f;" d="M1266 1602 q22 0 41.5 -8.5 q19.5 -8.5 34 -23 q14.5 -14.5 23 -34 q8.5 -19.5 8.5 -42.5 l0 -1866 q0 -23 -8.5 -42.5 q-8.5 -19.5 -23 -34.5 q-14.5 -15 -34 -23 q-19.5 -8 -41.5 -8 q-46 0 -76.5 30.5 q-30.5 30.5 -30.5 77.5 l0 1760 l-875 0 l0 -1760 q0 -23 -8.5 -42.5 q-8.5 -19.5 -23 -34.5 q-14.5 -15 -34 -23 q-19.5 -8 -41.5 -8 q-47 0 -77 30.5 q-30 30.5 -30 77.5 l0 1866 q0 45 30 76.5 q30 31.5 77 31.5 l1089 0 Z" /><glyph glyph-name="summation" unicode="&#x2211;" d="M1267 -265 q45 0 76.5 -30 q31.5 -30 31.5 -76 q0 -23 -9 -42.5 q-9 -19.5 -23 -34.5 q-14 -15 -33.5 -23 q-19.5 -8 -42.5 -8 l-1075 0 q-60 0 -90 30.5 q-30 30.5 -30 77.5 q0 38 23 65 l723 868 l-723 866 q-23 27 -23 66 q0 46 30 77 q30 31 77 31 l1088 0 q23 0 42.5 -8.5 q19.5 -8.5 33.5 -23 q14 -14.5 23 -34 q9 -19.5 9 -42.5 q0 -46 -31.5 -76 q-31.5 -30 -76.5 -30 l-862 0 l634 -759 q24 -30 24 -67 q0 -39 -24 -68 l-633 -759 l861 0 Z" /><glyph glyph-name="minus" unicode="&#x2212;" d="M182 607 q-45 0 -74.5 30 q-29.5 30 -29.5 75 q0 45 29.5 74.5 q29.5 29.5 74.5 29.5 l759 0 q44 0 74.5 -29.5 q30.5 -29.5 30.5 -74.5 q0 -22 -8.5 -41 q-8.5 -19 -22.5 -33.5 q-14 -14.5 -33 -22.5 q-19 -8 -41 -8 l-759 0 Z" /><glyph glyph-name="radical" unicode="&#x221a;" d="M1403 1727 q44 0 74.5 -29.5 q30.5 -29.5 30.5 -74.5 q0 -45 -30.5 -74.5 q-30.5 -29.5 -74.5 -29.5 l-86 0 l-731 -1460 q-14 -29 -39.5 -44 q-25.5 -15 -54.5 -15 q-44 0 -71 29 q-12 11 -21 26 l-302 605 q-14 26 -14 52 q0 45 29.5 74.5 q29.5 29.5 74.5 29.5 q31 0 55.5 -15.5 q24.5 -15.5 40.5 -46.5 l208 -416 l663 1328 q32 61 96 61 l152 0 Z" /><glyph glyph-name="infinity" unicode="&#x221e;" d="M492 911 q-42 0 -78 -16 q-36 -16 -63 -43.5 q-27 -27.5 -42.5 -63.5 q-15.5 -36 -15.5 -76 q0 -41 15 -77.5 q15 -36.5 42 -63.5 q27 -27 63.5 -42.5 q36.5 -15.5 78.5 -15.5 q41 0 77 15.5 q36 15.5 63 42.5 q27 27 43 63.5 q16 36.5 16 77.5 q0 40 -16 76 q-16 36 -43.5 63.5 q-27.5 27.5 -63.5 43.5 q-36 16 -76 16 ZM1099 911 q-41 0 -77 -16 q-36 -16 -63 -43 q-27 -27 -43 -63.5 q-16 -36.5 -16 -76.5 q0 -42 15.5 -78 q15.5 -36 42.5 -63 q27 -27 63 -42.5 q36 -15.5 78 -15.5 q42 0 78.5 16 q36.5 16 63.5 43 q27 27 42.5 63 q15.5 36 15.5 77 q0 40 -16 76 q-16 36 -43 63.5 q-27 27.5 -63.5 43.5 q-36.5 16 -77.5 16 ZM796 439 q-129 -135 -304 -135 q-84 0 -158.5 32 q-74.5 32 -130 87.5 q-55.5 55.5 -87.5 130 q-32 74.5 -32 158.5 q0 84 32.5 158.5 q32.5 74.5 88 130 q55.5 55.5 130 87.5 q74.5 32 157.5 32 q88 0 166.5 -33.5 q78.5 -33.5 137.5 -101.5 q128 135 303 135 q84 0 158 -32.5 q74 -32.5 130 -88 q56 -55.5 88.5 -129.5 q32.5 -74 32.5 -158 q0 -84 -32.5 -158.5 q-32.5 -74.5 -88.5 -130 q-56 -55.5 -130.5 -87.5 q-74.5 -32 -157.5 -32 q-174 0 -303 135 Z" /><glyph glyph-name="integral" unicode="&#x222b;" d="M938 1453 q-43 0 -76 29 q-29 28 -29 64 q-2 18 -16 28 q-14 10 -31 10 q-17 0 -30.5 -12.5 q-13.5 -12.5 -15.5 -28.5 l-151 -1523 q-5 -47 -27 -88 q-22 -41 -56.5 -72.5 q-34.5 -31.5 -78 -49.5 q-43.5 -18 -91.5 -18 q-46 0 -90 17.5 q-44 17.5 -79.5 48 q-35.5 30.5 -61 71.5 q-25.5 41 -25.5 88 q0 55 29.5 85.5 q29.5 30.5 74.5 30.5 q45 0 73 -26.5 q28 -26.5 30 -62.5 q1 -14 11 -25 q14 -17 34.5 -17 q20.5 0 33.5 11 q13 11 15 30 l151 1523 q14 108 97 172 q71 56 158 56 q130 -4 201 -98 q52 -67 54 -127 q0 -55 -30.5 -85.5 q-30.5 -30.5 -73.5 -30.5 Z" /><glyph glyph-name="fi" unicode="&#xf001;&#xfb01;" d="M837 1016 q0 21 8 40 q8 19 22.5 33.5 q14.5 14.5 33.5 22.5 q19 8 41 8 q22 0 41 -8 q19 -8 33 -22.5 q14 -14.5 22 -33.5 q8 -19 8 -40 l0 -912 q0 -21 -8 -40 q-8 -19 -22 -33.5 q-14 -14.5 -33 -22.5 q-19 -8 -41 -8 q-22 0 -41 8 q-19 8 -33.5 22.5 q-14.5 14.5 -22.5 33.5 q-8 19 -8 40 l0 912 ZM676 1367 q-237 0 -237 -275 l0 -29 l200 0 q45 0 74.5 -29.5 q29.5 -29.5 29.5 -74.5 q0 -45 -29.5 -75 q-29.5 -30 -74.5 -30 l-200 0 l0 -750 q0 -21 -8.5 -40 q-8.5 -19 -22.5 -33.5 q-14 -14.5 -33 -22.5 q-19 -8 -41 -8 q-22 0 -41 8 q-19 8 -33 22.5 q-14 14.5 -22 33.5 q-8 19 -8 40 l0 750 l-48 0 q-45 0 -74.5 30 q-29.5 30 -29.5 75 q0 45 29.5 74.5 q29.5 29.5 74.5 29.5 l48 0 l0 29 q0 484 446 484 q389 0 389 -257 q0 -26 -10 -48 q-10 -22 -26.5 -39 q-16.5 -17 -39 -26.5 q-22.5 -9.5 -47.5 -9.5 q-26 0 -48.5 9.5 q-22.5 9.5 -39.5 26.5 q-17 17 -26.5 39 q-9.5 22 -9.5 48 q0 48 -142 48 Z" /><glyph glyph-name="fl" unicode="&#xf002;&#xfb02;" d="M762 1319 q0 48 -47 48 q-276 0 -276 -275 l0 -29 l201 0 q45 0 74.5 -29.5 q29.5 -29.5 29.5 -74.5 q0 -45 -29.5 -75 q-29.5 -30 -74.5 -30 l-201 0 l0 -750 q0 -21 -8 -40 q-8 -19 -22 -33.5 q-14 -14.5 -33 -22.5 q-19 -8 -41 -8 q-22 0 -41 8 q-19 8 -33 22.5 q-14 14.5 -22 33.5 q-8 19 -8 40 l0 750 l-48 0 q-45 0 -74.5 30 q-29.5 30 -29.5 75 q0 45 29.5 74.5 q29.5 29.5 74.5 29.5 l48 0 l0 29 q0 484 484 484 q256 0 256 -257 l0 -1110 l47 0 q22 0 41 -8.5 q19 -8.5 33 -22.5 q14 -14 22.5 -33 q8.5 -19 8.5 -41 q0 -21 -8.5 -40 q-8.5 -19 -22.5 -33.5 q-14 -14.5 -33 -22.5 q-19 -8 -41 -8 l-151 0 q-22 0 -41 8 q-19 8 -33.5 22.5 q-14.5 14.5 -22.5 33.5 q-8 19 -8 40 l0 1215 Z" /><glyph glyph-name="dcroat" unicode="&#x111;" d="M993 560 q0 72 -27.5 135.5 q-27.5 63.5 -75 111.5 q-47.5 48 -111.5 76 q-64 28 -137 28 q-74 0 -138 -28 q-64 -28 -111 -75.5 q-47 -47.5 -74.5 -111.5 q-27.5 -64 -27.5 -136 q0 -72 27.5 -136 q27.5 -64 74.5 -111.5 q47 -47.5 111 -75.5 q64 -28 138 -28 q73 0 137 28 q64 28 111.5 76 q47.5 48 75 111.5 q27.5 63.5 27.5 135.5 ZM993 1447 l0 49 q0 45 29.5 74.5 q29.5 29.5 74.5 29.5 q44 0 74.5 -29.5 q30.5 -29.5 30.5 -74.5 l0 -49 l47 0 q22 0 41 -8.5 q19 -8.5 33 -22.5 q14 -14 22.5 -33 q8.5 -19 8.5 -41 q0 -45 -30.5 -74.5 q-30.5 -29.5 -74.5 -29.5 l-47 0 l0 -678 q0 -234 -164 -396 q-166 -164 -396 -164 q-232 0 -396 164 q-164 164 -164 396 q0 232 164 396 q164 164 396 164 q199 0 351 -123 l0 241 l-275 0 q-45 0 -75 29.5 q-30 29.5 -30 74.5 q0 22 8 41 q8 19 22.5 33 q14.5 14 33.5 22.5 q19 8.5 41 8.5 l275 0 Z" /><glyph glyph-name="Hbar" unicode="&#x126;" d="M233 1330 l0 164 q0 22 8 41.5 q8 19.5 22.5 34 q14.5 14.5 33.5 22.5 q19 8 42 8 q22 0 41.5 -8 q19.5 -8 34 -22.5 q14.5 -14.5 22.5 -34 q8 -19.5 8 -41.5 l0 -164 l713 0 l0 164 q0 22 8 41.5 q8 19.5 22.5 34 q14.5 14.5 33.5 22.5 q19 8 42 8 q22 0 41.5 -8 q19.5 -8 34 -22.5 q14.5 -14.5 22.5 -34 q8 -19.5 8 -41.5 l0 -164 l48 0 q22 0 41.5 -8 q19.5 -8 34 -22.5 q14.5 -14.5 22.5 -34 q8 -19.5 8 -41.5 q0 -23 -8 -42 q-8 -19 -22.5 -33.5 q-14.5 -14.5 -34 -22.5 q-19.5 -8 -41.5 -8 l-48 0 l0 -1012 q0 -23 -8 -42 q-8 -19 -22.5 -33.5 q-14.5 -14.5 -34 -22.5 q-19.5 -8 -41.5 -8 q-23 0 -42 8 q-19 8 -33.5 22.5 q-14.5 14.5 -22.5 33.5 q-8 19 -8 42 l0 588 l-713 0 l0 -588 q0 -23 -8 -42 q-8 -19 -22.5 -33.5 q-14.5 -14.5 -34 -22.5 q-19.5 -8 -41.5 -8 q-23 0 -42 8 q-19 8 -33.5 22.5 q-14.5 14.5 -22.5 33.5 q-8 19 -8 42 l0 1012 l-48 0 q-23 0 -42 8 q-19 8 -33.5 22.5 q-14.5 14.5 -22.5 33.5 q-8 19 -8 42 q0 22 8 41.5 q8 19.5 22.5 34 q14.5 14.5 33.5 22.5 q19 8 42 8 l48 0 ZM445 1118 l0 -212 l713 0 l0 212 l-713 0 Z" /><glyph glyph-name="hbar" unicode="&#x127;" d="M194 1448 l0 47 q0 44 29.5 74.5 q29.5 30.5 74.5 30.5 q45 0 74.5 -30.5 q29.5 -30.5 29.5 -74.5 l0 -47 l276 0 q45 0 74.5 -30.5 q29.5 -30.5 29.5 -74.5 q0 -45 -29.5 -74.5 q-29.5 -29.5 -74.5 -29.5 l-276 0 l0 -222 q136 103 314 103 q106 0 200.5 -41 q94.5 -41 166 -112 q71.5 -71 113.5 -166 q42 -95 42 -203 l0 -494 q0 -21 -8.5 -40 q-8.5 -19 -22.5 -33.5 q-14 -14.5 -33 -22.5 q-19 -8 -41 -8 q-22 0 -41 8 q-19 8 -33 22.5 q-14 14.5 -22 33.5 q-8 19 -8 40 l0 494 q0 64 -25 121 q-25 57 -67.5 99.5 q-42.5 42.5 -99.5 67.5 q-57 25 -121 25 q-65 0 -122 -25 q-57 -25 -99.5 -67.5 q-42.5 -42.5 -67.5 -99.5 q-25 -57 -25 -121 l0 -494 q0 -21 -8 -40 q-8 -19 -22 -33.5 q-14 -14.5 -33 -22.5 q-19 -8 -41 -8 q-22 0 -41 8 q-19 8 -33 22.5 q-14 14.5 -22 33.5 q-8 19 -8 40 l0 1135 l-48 0 q-45 0 -74.5 29.5 q-29.5 29.5 -29.5 74.5 q0 44 29.5 74.5 q29.5 30.5 74.5 30.5 l48 0 Z" /><glyph glyph-name="jcircumflex" unicode="&#x135;" d="M377 1016 q0 21 8 40 q8 19 22.5 33.5 q14.5 14.5 33.5 22.5 q19 8 41 8 q22 0 41 -8 q19 -8 33 -22.5 q14 -14.5 22 -33.5 q8 -19 8 -40 l0 -988 q0 -99 -38.5 -187 q-38.5 -88 -104.5 -154 q-66 -66 -154 -104.5 q-88 -38.5 -187 -38.5 q-45 0 -74.5 30 q-29.5 30 -29.5 75 q0 45 29.5 74.5 q29.5 29.5 74.5 29.5 q57 0 107 21.5 q50 21.5 87.5 59 q37.5 37.5 59 87.5 q21.5 50 21.5 107 l0 988 ZM760 1433 q50 -38 50 -90 q0 -45 -29.5 -74.5 q-29.5 -29.5 -74.5 -29.5 q-35 0 -66 22 l-162 107 l-162 -107 q-30 -22 -66 -22 q-45 0 -74.5 29.5 q-29.5 29.5 -29.5 74.5 q0 53 49 90 l229 151 q25 16 54 16 q29 0 54 -16 l228 -151 Z" /><glyph glyph-name="kgreenlandic" unicode="&#x138;" d="M287 715 l598 389 q25 16 56 16 q22 0 41 -8 q19 -8 33 -22.5 q14 -14.5 22.5 -33.5 q8.5 -19 8.5 -40 q0 -56 -43 -85 l-416 -270 l430 -484 q29 -33 29 -73 q0 -21 -8.5 -40 q-8.5 -19 -22.5 -33.5 q-14 -14.5 -33 -22.5 q-19 -8 -41 -8 q-42 0 -70 27 l-462 519 l-122 -80 l0 -362 q0 -21 -8.5 -40 q-8.5 -19 -22.5 -33.5 q-14 -14.5 -33 -22.5 q-19 -8 -41 -8 q-22 0 -41 8 q-19 8 -33 22.5 q-14 14.5 -22 33.5 q-8 19 -8 40 l0 911 q0 45 29.5 74.5 q29.5 29.5 74.5 29.5 q44 0 74.5 -29.5 q30.5 -29.5 30.5 -74.5 l0 -300 Z" /><glyph glyph-name="Lslash" unicode="&#x141;" d="M230 847 l0 647 q0 22 8 41.5 q8 19.5 22.5 34 q14.5 14.5 33.5 22.5 q19 8 42 8 q22 0 41.5 -8 q19.5 -8 34 -22.5 q14.5 -14.5 22.5 -34 q8 -19.5 8 -41.5 l0 -438 l50 51 q31 31 76 31 q22 0 41 -9 q19 -9 33.5 -24 q14.5 -15 23 -34 q8.5 -19 8.5 -40 q0 -43 -31 -74 l-201 -198 l0 -547 l742 0 q22 0 41.5 -8 q19.5 -8 34 -22.5 q14.5 -14.5 22.5 -34 q8 -19.5 8 -41.5 q0 -23 -8 -42 q-8 -19 -22.5 -33.5 q-14.5 -14.5 -34 -22.5 q-19.5 -8 -41.5 -8 l-848 0 q-23 0 -42 8 q-19 8 -33.5 22.5 q-14.5 14.5 -22.5 33.5 q-8 19 -8 42 l0 443 l-26 -27 q-29 -31 -75 -31 q-22 0 -41.5 8.5 q-19.5 8.5 -33.5 23 q-14 14.5 -22.5 34 q-8.5 19.5 -8.5 41.5 q0 43 31 74 l176 175 Z" /><glyph glyph-name="lslash" unicode="&#x142;" d="M224 834 l0 637 q0 44 29.5 74.5 q29.5 30.5 74.5 30.5 q22 0 41 -8.5 q19 -8.5 33 -22.5 q14 -14 22.5 -33 q8.5 -19 8.5 -41 l0 -431 l49 50 q31 31 74 31 q21 0 40 -8.5 q19 -8.5 33.5 -22.5 q14.5 -14 22.5 -33.5 q8 -19.5 8 -40.5 q0 -43 -30 -73 l-197 -196 l0 -538 l47 0 q45 0 74.5 -30.5 q29.5 -30.5 29.5 -74.5 q0 -21 -8 -40 q-8 -19 -22 -33.5 q-14 -14.5 -33 -22.5 q-19 -8 -41 -8 l-152 0 q-22 0 -41 8 q-19 8 -33 22.5 q-14 14.5 -22 33.5 q-8 19 -8 40 l0 437 l-26 -27 q-31 -31 -74 -31 q-20 0 -39 8 q-19 8 -33.5 22 q-14.5 14 -23 33 q-8.5 19 -8.5 42 q0 44 30 74 l174 172 Z" /><glyph glyph-name="Eng" unicode="&#x14a;" d="M289 106 q0 -23 -8 -42 q-8 -19 -22.5 -33.5 q-14.5 -14.5 -34 -22.5 q-19.5 -8 -41.5 -8 q-23 0 -42 8 q-19 8 -33.5 22.5 q-14.5 14.5 -22.5 33.5 q-8 19 -8 42 l0 1388 q0 22 8 41.5 q8 19.5 22.5 34 q14.5 14.5 33.5 22.5 q19 8 42 8 q22 0 41.5 -8 q19.5 -8 34 -22.5 q14.5 -14.5 22.5 -34 q8 -19.5 8 -41.5 l0 -62 q183 168 434 168 q266 0 456 -190 q190 -190 190 -456 l0 -462 q0 -101 -39 -190 q-39 -89 -105.5 -156.5 q-66.5 -67.5 -156 -106.5 q-89.5 -39 -191.5 -39 q-204 0 -347 145 q-32 30 -32 75 q0 22 8.5 41.5 q8.5 19.5 23 33.5 q14.5 14 33.5 22.5 q19 8.5 41 8.5 q43 0 76 -31 q42 -42 90.5 -62.5 q48.5 -20.5 106.5 -20.5 q58 0 109.5 22 q51.5 22 89 60.5 q37.5 38.5 59.5 89.5 q22 51 22 108 l0 462 q0 89 -34 168 q-34 79 -93 138 q-59 59 -138 93.5 q-79 34.5 -169 34.5 q-90 0 -169.5 -34.5 q-79.5 -34.5 -138 -93.5 q-58.5 -59 -92.5 -138 q-34 -79 -34 -168 l0 -848 Z" /><glyph glyph-name="eng" unicode="&#x14b;" d="M914 598 q0 64 -25 121 q-25 57 -67.5 99.5 q-42.5 42.5 -99.5 67.5 q-57 25 -121 25 q-65 0 -121.5 -24.5 q-56.5 -24.5 -99.5 -67.5 q-43 -43 -67.5 -100 q-24.5 -57 -24.5 -121 l0 -494 q0 -21 -8.5 -40 q-8.5 -19 -22.5 -33.5 q-14 -14.5 -33 -22.5 q-19 -8 -41 -8 q-22 0 -41 8 q-19 8 -33 22.5 q-14 14.5 -22 33.5 q-8 19 -8 40 l0 912 q0 21 8 40 q8 19 22 33.5 q14 14.5 33 22.5 q19 8 41 8 q21 0 40 -8 q19 -8 33.5 -22 q14.5 -14 23 -33 q8.5 -19 8.5 -40 q133 103 313 103 q105 0 199.5 -41 q94.5 -41 166.5 -111.5 q72 -70.5 114 -166 q42 -95.5 42 -203.5 l0 -745 q0 -68 -26.5 -128.5 q-26.5 -60.5 -71.5 -106 q-45 -45.5 -105.5 -72 q-60.5 -26.5 -128.5 -26.5 q-34 0 -69.5 6.5 q-35.5 6.5 -65 21 q-29.5 14.5 -48.5 38.5 q-19 24 -19 59 q0 22 8 41 q8 19 22.5 33 q14.5 14 33.5 22.5 q19 8.5 41 8.5 q23 0 48 -10.5 q25 -10.5 49 -10.5 q24 0 46.5 9.5 q22.5 9.5 39.5 26 q17 16.5 27 39 q10 22.5 10 49.5 l0 745 Z" /><glyph glyph-name="OE" unicode="&#x152;" d="M884 1388 q-244 0 -417 -173 q-171 -171 -171 -415 q0 -245 171 -416 q172 -172 417 -172 l48 0 l0 1176 l-48 0 ZM884 0 q-332 0 -566 234 q-234 234 -234 566 q0 331 234 565 q235 235 566 235 l1080 0 q22 0 41.5 -8 q19.5 -8 34 -22.5 q14.5 -14.5 22.5 -34 q8 -19.5 8 -41.5 q0 -23 -8 -42 q-8 -19 -22.5 -33.5 q-14.5 -14.5 -34 -22.5 q-19.5 -8 -41.5 -8 l-820 0 l0 -482 l589 0 q22 0 41.5 -8 q19.5 -8 34 -22.5 q14.5 -14.5 22.5 -34 q8 -19.5 8 -41.5 q0 -23 -8.5 -42.5 q-8.5 -19.5 -22.5 -33.5 q-14 -14 -33.5 -22.5 q-19.5 -8.5 -41.5 -8.5 l-589 0 l0 -481 l819 0 q22 0 41.5 -8 q19.5 -8 34 -22.5 q14.5 -14.5 22.5 -34 q8 -19.5 8 -41.5 q0 -23 -8 -42 q-8 -19 -22.5 -33.5 q-14.5 -14.5 -34 -22.5 q-19.5 -8 -41.5 -8 l-1079 0 Z" /><glyph glyph-name="oe" unicode="&#x153;" d="M652 911 q-73 0 -137 -27.5 q-64 -27.5 -111.5 -75 q-47.5 -47.5 -75 -111.5 q-27.5 -64 -27.5 -137 q0 -73 27.5 -137 q27.5 -64 75 -111.5 q47.5 -47.5 111.5 -75 q64 -27.5 137 -27.5 q73 0 137 27.5 q64 27.5 111.5 75 q47.5 47.5 75 111.5 q27.5 64 27.5 137 q0 73 -27.5 137 q-27.5 64 -75 111.5 q-47.5 47.5 -111.5 75 q-64 27.5 -137 27.5 ZM1900 664 q-17 55 -50.5 101 q-33.5 46 -78.5 78 q-45 32 -98 50 q-53 18 -110 18 q-56 0 -110 -18 q-54 -18 -99 -50.5 q-45 -32.5 -78.5 -78 q-33.5 -45.5 -49.5 -100.5 l674 0 ZM1167 164 q-31 31 -59 69 q-93 -117 -204 -175 q-111 -58 -252 -58 q-232 0 -396 164 q-164 164 -164 396 q0 232 164 396 q164 164 396 164 q141 0 251.5 -58.5 q110.5 -58.5 204.5 -174.5 q48 58 98.5 101.5 q50.5 43.5 106 73 q55.5 29.5 117.5 44 q62 14.5 133 14.5 q232 0 396 -164 q164 -164 164 -396 q0 -45 -29.5 -74.5 q-29.5 -29.5 -74.5 -29.5 l-793 0 q18 -57 51.5 -102.5 q33.5 -45.5 78 -77.5 q44.5 -32 97.5 -49.5 q53 -17.5 110 -17.5 q66 0 121 20 q55 20 102 60 q32 26 69 26 q44 0 74.5 -29.5 q30.5 -29.5 30.5 -74.5 q0 -46 -31 -75 q-155 -136 -366 -136 q-232 0 -396 164 Z" /><glyph glyph-name="Tbar" unicode="&#x166;" d="M578 829 l0 559 l-395 0 q-22 0 -41.5 8.5 q-19.5 8.5 -34 22.5 q-14.5 14 -23 33.5 q-8.5 19.5 -8.5 41.5 q0 22 8.5 41.5 q8.5 19.5 23 33.5 q14.5 14 34 22.5 q19.5 8.5 41.5 8.5 l1002 0 q22 0 41.5 -8 q19.5 -8 34 -22.5 q14.5 -14.5 22.5 -34 q8 -19.5 8 -41.5 q0 -23 -8 -42 q-8 -19 -22.5 -33.5 q-14.5 -14.5 -34 -22.5 q-19.5 -8 -41.5 -8 l-395 0 l0 -559 l279 0 q22 0 41.5 -8 q19.5 -8 34 -22.5 q14.5 -14.5 22.5 -34 q8 -19.5 8 -41.5 q0 -23 -8 -42 q-8 -19 -22.5 -33.5 q-14.5 -14.5 -34 -22.5 q-19.5 -8 -41.5 -8 l-279 0 l0 -511 q0 -23 -8 -42 q-8 -19 -22.5 -33.5 q-14.5 -14.5 -34 -22.5 q-19.5 -8 -41.5 -8 q-23 0 -42 8 q-19 8 -33.5 22.5 q-14.5 14.5 -22.5 33.5 q-8 19 -8 42 l0 511 l-280 0 q-23 0 -42 8 q-19 8 -33.5 22.5 q-14.5 14.5 -22.5 33.5 q-8 19 -8 42 q0 22 8 41.5 q8 19.5 22.5 34 q14.5 14.5 33.5 22.5 q19 8 42 8 l280 0 Z" /><glyph glyph-name="tbar" unicode="&#x167;" d="M434 532 l0 -124 q0 -199 200 -199 q21 0 40 -8.5 q19 -8.5 33.5 -22.5 q14.5 -14 22.5 -33 q8 -19 8 -41 q0 -21 -8 -40 q-8 -19 -22.5 -33.5 q-14.5 -14.5 -33.5 -22.5 q-19 -8 -40 -8 q-409 0 -409 408 l0 124 l-48 0 q-45 0 -74.5 29.5 q-29.5 29.5 -29.5 74.5 q0 45 29.5 74.5 q29.5 29.5 74.5 29.5 l48 0 l0 171 l-47 0 q-45 0 -74.5 30 q-29.5 30 -29.5 75 q0 21 8 40 q8 19 22 33.5 q14 14.5 33 22.5 q19 8 41 8 l47 0 l0 351 q0 22 8 41 q8 19 22.5 33 q14.5 14 33.5 22.5 q19 8.5 41 8.5 q45 0 74.5 -30.5 q29.5 -30.5 29.5 -74.5 l0 -351 l125 0 q22 0 41 -8 q19 -8 33 -22.5 q14 -14.5 22 -33.5 q8 -19 8 -40 q0 -45 -29.5 -75 q-29.5 -30 -74.5 -30 l-125 0 l0 -171 l124 0 q45 0 74.5 -29.5 q29.5 -29.5 29.5 -74.5 q0 -45 -29.5 -74.5 q-29.5 -29.5 -74.5 -29.5 l-124 0 Z" /><glyph glyph-name="longs" unicode="&#x17f;" d="M537 1599 q45 0 74.5 -30.5 q29.5 -30.5 29.5 -74.5 q0 -45 -29.5 -74.5 q-29.5 -29.5 -74.5 -29.5 q-276 0 -276 -275 l0 -1011 q0 -21 -8 -40 q-8 -19 -22 -33.5 q-14 -14.5 -33 -22.5 q-19 -8 -41 -8 q-22 0 -41 8 q-19 8 -33 22.5 q-14 14.5 -22 33.5 q-8 19 -8 40 l0 1011 q0 484 484 484 Z" /><glyph glyph-name="florin" unicode="&#x192;" d="M380 5 l0 849 l-48 0 q-45 0 -74.5 30 q-29.5 30 -29.5 75 q0 45 29.5 74.5 q29.5 29.5 74.5 29.5 l47 0 l0 52 q0 484 484 484 q22 0 41 -8.5 q19 -8.5 33 -22.5 q14 -14 22.5 -33 q8.5 -19 8.5 -41 q0 -45 -30.5 -74.5 q-30.5 -29.5 -74.5 -29.5 q-275 0 -275 -275 l0 -52 l200 0 q44 0 74.5 -29.5 q30.5 -29.5 30.5 -74.5 q0 -22 -8.5 -41 q-8.5 -19 -22.5 -33.5 q-14 -14.5 -33 -22.5 q-19 -8 -41 -8 l-200 0 l0 -849 q0 -484 -484 -484 q-45 0 -74.5 30 q-29.5 30 -29.5 75 q0 45 29.5 74.5 q29.5 29.5 74.5 29.5 q275 0 276 275 Z" /><glyph glyph-name="Aringacute" unicode="&#x1fa;" d="M903 757 l-175 453 l-176 -453 l351 0 ZM727 1750 q-30 0 -49.5 -20.5 q-19.5 -20.5 -19.5 -48.5 q0 -28 19.5 -48 q19.5 -20 49.5 -20 q28 0 47.5 20 q19.5 20 19.5 48 q0 28 -19.5 48.5 q-19.5 20.5 -47.5 20.5 ZM1369 150 q9 -24 9 -43 q0 -23 -8 -42.5 q-8 -19.5 -22.5 -34 q-14.5 -14.5 -34 -22.5 q-19.5 -8 -41.5 -8 q-32 0 -59 17.5 q-27 17.5 -41 47.5 l-186 479 l-516 0 l-188 -479 q-17 -33 -42.5 -49 q-25.5 -16 -55.5 -16 q-23 0 -42.5 8 q-19.5 8 -34 22.5 q-14.5 14.5 -22.5 34 q-8 19.5 -8 42.5 q0 22 9 43 l521 1341 q-53 31 -79.5 83.5 q-26.5 52.5 -26.5 106.5 q0 85 60 153 q-18 28 -18 60 q0 41 28 71 l81 82 q32 31 76 31 q22 0 41.5 -8.5 q19.5 -8.5 33.5 -23 q14 -14.5 22.5 -34 q8.5 -19.5 8.5 -41.5 q0 -41 -32 -77 q34 -12 62 -34.5 q28 -22.5 47 -50.5 q19 -28 29.5 -61 q10.5 -33 10.5 -67 q0 -56 -25.5 -106.5 q-25.5 -50.5 -76.5 -83.5 l520 -1341 Z" /><glyph glyph-name="dieresistonos" unicode="&#x385;" d="M293 1369 q0 -26 -10 -48 q-10 -22 -26.5 -39 q-16.5 -17 -39 -26.5 q-22.5 -9.5 -47.5 -9.5 q-26 0 -48 9.5 q-22 9.5 -39 26.5 q-17 17 -26.5 39 q-9.5 22 -9.5 48 q0 25 9.5 48 q9.5 23 26.5 39.5 q17 16.5 39 26.5 q22 10 48 10 q25 0 47.5 -10 q22.5 -10 39 -26.5 q16.5 -16.5 26.5 -39.5 q10 -23 10 -48 ZM921 1369 q0 -26 -10 -48 q-10 -22 -26.5 -39 q-16.5 -17 -39 -26.5 q-22.5 -9.5 -47.5 -9.5 q-26 0 -48.5 9.5 q-22.5 9.5 -39.5 26.5 q-17 17 -26.5 39 q-9.5 22 -9.5 48 q0 25 9.5 48 q9.5 23 26.5 39.5 q17 16.5 39.5 26.5 q22.5 10 48.5 10 q25 0 47.5 -10 q22.5 -10 39 -26.5 q16.5 -16.5 26.5 -39.5 q10 -23 10 -48 ZM423 1170 q-43 0 -73 30.5 q-30 30.5 -30 73.5 q0 31 13 53 l146 224 q33 49 88 49 q43 0 73.5 -30.5 q30.5 -30.5 30.5 -73.5 q0 -32 -16 -57 l-145 -225 q-32 -44 -87 -44 Z" /><glyph glyph-name="Alphatonos" unicode="&#x386;" d="M474 1421 l-200 -199 q-28 -28 -72 -28 q-45 0 -74.5 29.5 q-29.5 29.5 -29.5 74.5 q0 43 26 71 l200 199 q32 31 74 31 q45 0 74.5 -30.5 q29.5 -30.5 29.5 -74.5 q0 -45 -28 -73 ZM891 752 l-174 449 l-174 -449 l348 0 ZM82 154 l534 1374 q32 72 101 72 q71 0 101 -72 l536 -1379 q8 -20 8 -43 q0 -44 -31 -75 q-31 -31 -75 -31 q-44 0 -74 31 q-16 16 -24 34 l-185 475 l-512 0 l-186 -475 q-8 -18 -24 -34 q-31 -31 -75 -31 q-44 0 -74.5 31 q-30.5 31 -30.5 75 q0 24 11 48 Z" /><glyph glyph-name="Epsilontonos" unicode="&#x388;" d="M337 1421 l-200 -199 q-28 -28 -72 -28 q-45 0 -74.5 29.5 q-29.5 29.5 -29.5 74.5 q0 43 26 71 l200 199 q32 31 74 31 q45 0 74.5 -30.5 q29.5 -30.5 29.5 -74.5 q0 -45 -28 -73 ZM1450 212 q44 0 75 -31 q31 -31 31 -75 q0 -44 -31 -75 q-31 -31 -75 -31 l-925 0 q-23 0 -42 8 q-19 8 -33.5 22.5 q-14.5 14.5 -22.5 33.5 q-8 19 -8 42 l0 1388 q0 22 8 41.5 q8 19.5 22.5 34 q14.5 14.5 33.5 22.5 q19 8 42 8 l925 0 q44 0 75 -31 q31 -31 31 -75 q0 -44 -31 -75 q-31 -31 -75 -31 l-819 0 l0 -482 l588 0 q44 0 75 -31 q31 -31 31 -75 q0 -44 -31 -75 q-31 -31 -75 -31 l-588 0 l0 -482 l819 0 Z" /><glyph glyph-name="Etatonos" unicode="&#x389;" d="M335 1421 l-200 -199 q-28 -28 -72 -28 q-45 0 -74.5 29.5 q-29.5 29.5 -29.5 74.5 q0 43 26 71 l200 199 q32 31 74 31 q45 0 74.5 -30.5 q29.5 -30.5 29.5 -74.5 q0 -45 -28 -73 ZM1553 106 q0 -44 -31 -75 q-31 -31 -75 -31 q-44 0 -75 31 q-31 31 -31 75 l0 588 l-713 0 l0 -588 q0 -44 -31 -75 q-31 -31 -75 -31 q-44 0 -75 31 q-31 31 -31 75 l0 1388 q0 44 31 75 q31 31 75 31 q44 0 75 -31 q31 -31 31 -75 l0 -588 l713 0 l0 588 q0 44 31 75 q31 31 75 31 q44 0 75 -31 q31 -31 31 -75 l0 -1388 Z" /><glyph glyph-name="Iotatonos" unicode="&#x38a;" d="M335 1421 l-200 -199 q-28 -28 -72 -28 q-45 0 -74.5 29.5 q-29.5 29.5 -29.5 74.5 q0 43 26 71 l200 199 q32 31 74 31 q45 0 74.5 -30.5 q29.5 -30.5 29.5 -74.5 q0 -45 -28 -73 ZM639 106 q0 -44 -31 -75 q-31 -31 -75 -31 q-44 0 -75 31 q-31 31 -31 75 l0 1388 q0 44 31 75 q31 31 75 31 q44 0 75 -31 q31 -31 31 -75 l0 -1388 Z" /><glyph glyph-name="Omicrontonos" unicode="&#x38c;" d="M335 1421 l-200 -199 q-28 -28 -72 -28 q-45 0 -74.5 29.5 q-29.5 29.5 -29.5 74.5 q0 43 26 71 l200 199 q32 31 74 31 q45 0 74.5 -30.5 q29.5 -30.5 29.5 -74.5 q0 -45 -28 -73 ZM928 1388 q-124 0 -226.5 -43 q-102.5 -43 -189.5 -130 q-87 -87 -129.5 -189 q-42.5 -102 -42.5 -226 q0 -244 172 -416 q172 -172 416 -172 q244 0 416 172 q172 172 172 416 q0 243 -172 415 q-173 173 -416 173 ZM1728 800 q0 -331 -235 -566 q-234 -234 -565 -234 q-332 0 -566 234 q-234 234 -234 566 q0 331 234 565 q235 235 566 235 q330 0 565 -235 q118 -118 176.5 -258 q58.5 -140 58.5 -307 Z" /><glyph glyph-name="Upsilontonos" unicode="&#x38e;" d="M335 1421 l-200 -199 q-28 -28 -72 -28 q-45 0 -74.5 29.5 q-29.5 29.5 -29.5 74.5 q0 43 26 71 l200 199 q32 31 74 31 q45 0 74.5 -30.5 q29.5 -30.5 29.5 -74.5 q0 -45 -28 -73 ZM609 1556 l376 -563 l376 563 q31 44 87 44 q44 0 74.5 -31 q30.5 -31 30.5 -75 q0 -36 -16 -60 l-446 -666 l0 -662 q0 -44 -31 -75 q-31 -31 -75 -31 q-43 0 -74.5 31 q-31.5 31 -31.5 75 l0 662 l-445 666 q-17 26 -17 60 q0 44 31 75 q31 31 75 31 q56 0 86 -44 Z" /><glyph glyph-name="Omegatonos" unicode="&#x38f;" d="M334 1421 l-200 -199 q-28 -28 -72 -28 q-45 0 -74.5 29.5 q-29.5 29.5 -29.5 74.5 q0 43 26 71 l200 199 q32 31 74 31 q45 0 74.5 -30.5 q29.5 -30.5 29.5 -74.5 q0 -45 -28 -73 ZM696 212 q22 0 41.5 -8 q19.5 -8 34 -22.5 q14.5 -14.5 22.5 -34 q8 -19.5 8 -41.5 q0 -23 -8 -42 q-8 -19 -22.5 -33.5 q-14.5 -14.5 -34 -22.5 q-19.5 -8 -41.5 -8 l-463 0 q-23 0 -42 8 q-19 8 -33.5 22.5 q-14.5 14.5 -22.5 33.5 q-8 19 -8 42 q0 22 8 41.5 q8 19.5 22.5 34 q14.5 14.5 33.5 22.5 q19 8 42 8 l76 0 q-91 121 -136.5 266.5 q-45.5 145.5 -45.5 321.5 q0 331 234 565 q235 235 566 235 q330 0 565 -235 q118 -118 176.5 -257.5 q58.5 -139.5 58.5 -307.5 q0 -167 -41 -307.5 q-41 -140.5 -141 -280.5 l76 0 q22 0 41.5 -8 q19.5 -8 34 -22.5 q14.5 -14.5 22.5 -34 q8 -19.5 8 -41.5 q0 -23 -8 -42 q-8 -19 -22.5 -33.5 q-14.5 -14.5 -34 -22.5 q-19.5 -8 -41.5 -8 l-463 0 q-22 0 -41 8.5 q-19 8.5 -33.5 22.5 q-14.5 14 -23 33.5 q-8.5 19.5 -8.5 41.5 q0 22 8.5 41.5 q8.5 19.5 23 33.5 q14.5 14 33.5 22.5 q19 8.5 41 8.5 q74 0 139 47 q65 47 113.5 127.5 q48.5 80.5 76.5 187.5 q28 107 28 226 q0 243 -172 415 q-173 173 -416 173 q-124 0 -226.5 -43 q-102.5 -43 -189.5 -130 q-87 -87 -129.5 -189 q-42.5 -102 -42.5 -226 q0 -119 28 -226 q28 -107 76 -187.5 q48 -80.5 113 -127.5 q65 -47 140 -47 Z" /><glyph glyph-name="iotadieresistonos" unicode="&#x390;" d="M285 105 l0 910 q0 44 30.5 74.5 q30.5 30.5 73.5 30.5 q43 0 73.5 -30.5 q30.5 -30.5 31.5 -74.5 l0 -910 q-1 -44 -31.5 -74.5 q-30.5 -30.5 -73.5 -30.5 q-43 0 -73.5 30.5 q-30.5 30.5 -30.5 74.5 ZM199 1369 q0 -26 -10 -48 q-10 -22 -26.5 -39 q-16.5 -17 -39 -26.5 q-22.5 -9.5 -47.5 -9.5 q-26 0 -48 9.5 q-22 9.5 -39 26.5 q-17 17 -26.5 39 q-9.5 22 -9.5 48 q0 25 9.5 48 q9.5 23 26.5 39.5 q17 16.5 39 26.5 q22 10 48 10 q25 0 47.5 -10 q22.5 -10 39 -26.5 q16.5 -16.5 26.5 -39.5 q10 -23 10 -48 ZM827 1369 q0 -26 -10 -48 q-10 -22 -26.5 -39 q-16.5 -17 -39 -26.5 q-22.5 -9.5 -47.5 -9.5 q-26 0 -48.5 9.5 q-22.5 9.5 -39.5 26.5 q-17 17 -26.5 39 q-9.5 22 -9.5 48 q0 25 9.5 48 q9.5 23 26.5 39.5 q17 16.5 39.5 26.5 q22.5 10 48.5 10 q25 0 47.5 -10 q22.5 -10 39 -26.5 q16.5 -16.5 26.5 -39.5 q10 -23 10 -48 ZM329 1170 q-43 0 -73 30.5 q-30 30.5 -30 73.5 q0 31 13 53 l146 224 q33 49 88 49 q43 0 73.5 -30.5 q30.5 -30.5 30.5 -73.5 q0 -32 -16 -57 l-145 -225 q-32 -44 -87 -44 Z" /><glyph glyph-name="Gamma" unicode="&#x393;" d="M76 1494 q0 22 8.5 41 q8.5 19 23 33.5 q14.5 14.5 34 23 q19.5 8.5 41.5 8.5 l925 0 q22 0 41.5 -8 q19.5 -8 34 -22.5 q14.5 -14.5 22.5 -34 q8 -19.5 8 -41.5 q0 -23 -8 -42 q-8 -19 -22.5 -33.5 q-14.5 -14.5 -34 -22.5 q-19.5 -8 -41.5 -8 l-820 0 l0 -1282 q0 -23 -8 -42 q-8 -19 -22.5 -33.5 q-14.5 -14.5 -34 -22.5 q-19.5 -8 -41.5 -8 q-23 0 -42 8 q-19 8 -33.5 22.5 q-14.5 14.5 -22.5 33.5 q-8 19 -8 42 l0 1388 Z" /><glyph glyph-name="Lambda" unicode="&#x39b;" d="M281 65 q-31 -65 -98 -65 q-23 0 -42 8 q-19 8 -33.5 22.5 q-14.5 14.5 -22.5 33.5 q-8 19 -8 42 q0 21 9 43 l536 1377 q32 74 101 74 q69 0 101 -74 l536 -1377 q9 -21 9 -43 q0 -23 -8 -42 q-8 -19 -22.5 -33.5 q-14.5 -14.5 -34 -22.5 q-19.5 -8 -41.5 -8 q-70 0 -99 65 l-441 1136 l-442 -1136 Z" /><glyph glyph-name="Xi" unicode="&#x39e;" d="M1107 1600 q22 0 41.5 -8 q19.5 -8 34 -22.5 q14.5 -14.5 22.5 -34 q8 -19.5 8 -41.5 q0 -23 -8 -42 q-8 -19 -22.5 -33.5 q-14.5 -14.5 -34 -22.5 q-19.5 -8 -41.5 -8 l-925 0 q-23 0 -42 8 q-19 8 -33.5 22.5 q-14.5 14.5 -22.5 33.5 q-8 19 -8 42 q0 22 8 41.5 q8 19.5 22.5 34 q14.5 14.5 33.5 22.5 q19 8 42 8 l925 0 ZM1107 212 q22 0 41.5 -8 q19.5 -8 34 -22.5 q14.5 -14.5 22.5 -34 q8 -19.5 8 -41.5 q0 -23 -8 -42 q-8 -19 -22.5 -33.5 q-14.5 -14.5 -34 -22.5 q-19.5 -8 -41.5 -8 l-925 0 q-23 0 -42 8 q-19 8 -33.5 22.5 q-14.5 14.5 -22.5 33.5 q-8 19 -8 42 q0 22 8 41.5 q8 19.5 22.5 34 q14.5 14.5 33.5 22.5 q19 8 42 8 l925 0 ZM1030 906 q22 0 41.5 -8 q19.5 -8 34 -22.5 q14.5 -14.5 22.5 -34 q8 -19.5 8 -41.5 q0 -23 -8 -42 q-8 -19 -22.5 -33.5 q-14.5 -14.5 -34 -22.5 q-19.5 -8 -41.5 -8 l-772 0 q-37 1 -71 31 q-32 29 -32 75 q0 20 8 39 q8 19 22 33.5 q14 14.5 32.5 23.5 q18.5 9 40.5 10 l772 0 Z" /><glyph glyph-name="Pi" unicode="&#x3a0;" d="M1185 1600 q22 0 41.5 -8 q19.5 -8 34 -22.5 q14.5 -14.5 22.5 -34 q8 -19.5 8 -41.5 l0 -1388 q0 -23 -8 -42 q-8 -19 -22.5 -33.5 q-14.5 -14.5 -34 -22.5 q-19.5 -8 -41.5 -8 q-23 0 -42 8 q-19 8 -33.5 22.5 q-14.5 14.5 -22.5 33.5 q-8 19 -8 42 l0 1282 l-790 0 l0 -1282 q0 -22 -8.5 -41.5 q-8.5 -19.5 -23 -33.5 q-14.5 -14 -33.5 -22.5 q-19 -8.5 -41 -8.5 q-22 0 -41.5 8.5 q-19.5 8.5 -34 22.5 q-14.5 14 -23 33.5 q-8.5 19.5 -8.5 41.5 l0 1388 q0 22 8.5 41.5 q8.5 19.5 23 33.5 q14.5 14 34 22.5 q19.5 8.5 41.5 8.5 l1002 0 Z" /><glyph glyph-name="Sigma" unicode="&#x3a3;" d="M1107 1600 q22 0 41.5 -8 q19.5 -8 34 -22.5 q14.5 -14.5 22.5 -34 q8 -19.5 8 -41.5 q0 -23 -8 -42 q-8 -19 -22.5 -33.5 q-14.5 -14.5 -34 -22.5 q-19.5 -8 -41.5 -8 l-708 0 l408 -526 q21 -29 21 -62 q-1 -36 -21 -63 l-408 -525 l708 0 q22 0 41.5 -8 q19.5 -8 34 -22.5 q14.5 -14.5 22.5 -34 q8 -19.5 8 -41.5 q0 -23 -8 -42 q-8 -19 -22.5 -33.5 q-14.5 -14.5 -34 -22.5 q-19.5 -8 -41.5 -8 l-925 0 q-23 0 -42 8 q-19 8 -33.5 22.5 q-14.5 14.5 -22.5 33.5 q-8 19 -8 42 q0 36 17 59 l494 635 l-494 634 q-17 29 -17 60 q0 22 8 41.5 q8 19.5 22.5 34 q14.5 14.5 33.5 22.5 q19 8 42 8 l925 0 Z" /><glyph glyph-name="Phi" unicode="&#x3a6;" d="M774 1228 q-103 -13 -191.5 -53 q-88.5 -40 -153 -97.5 q-64.5 -57.5 -101 -129 q-36.5 -71.5 -36.5 -148.5 q0 -77 37 -148.5 q37 -71.5 101.5 -129.5 q64.5 -58 152.5 -97.5 q88 -39.5 191 -52.5 l0 856 ZM986 372 q103 13 191.5 52.5 q88.5 39.5 153 97 q64.5 57.5 101 129.5 q36.5 72 36.5 149 q0 78 -37 149.5 q-37 71.5 -102 129 q-65 57.5 -153 97 q-88 39.5 -190 52.5 l0 -856 ZM774 1494 q0 22 8 41.5 q8 19.5 22.5 34 q14.5 14.5 33.5 22.5 q19 8 42 8 q22 0 41.5 -8 q19.5 -8 34 -22.5 q14.5 -14.5 22.5 -34 q8 -19.5 8 -41.5 l0 -53 q136 -11 246.5 -56.5 q110.5 -45.5 211.5 -125.5 q236 -189 236 -459 q0 -81 -25.5 -157.5 q-25.5 -76.5 -71 -145 q-45.5 -68.5 -109.5 -127 q-64 -58.5 -141 -103 q-77 -44.5 -165 -72.5 q-88 -28 -182 -36 l0 -53 q0 -23 -8 -42 q-8 -19 -22.5 -33.5 q-14.5 -14.5 -34 -22.5 q-19.5 -8 -41.5 -8 q-23 0 -42 8 q-19 8 -33.5 22.5 q-14.5 14.5 -22.5 33.5 q-8 19 -8 42 l0 53 q-60 8 -122 24.5 q-62 16.5 -121 40 q-59 23.5 -113.5 53.5 q-54.5 30 -100.5 65 q-111 94 -174 210 q-63 116 -63 248 q0 121 55.5 231.5 q55.5 110.5 150.5 197.5 q95 87 221 143.5 q126 56.5 267 68.5 l0 53 Z" /><glyph glyph-name="Psi" unicode="&#x3a8;" d="M77 1494 q0 22 8 41.5 q8 19.5 22.5 34 q14.5 14.5 33.5 22.5 q19 8 42 8 q22 0 41.5 -8 q19.5 -8 34 -22.5 q14.5 -14.5 22.5 -34 q8 -19.5 8 -41.5 l0 -386 q0 -73 24.5 -141.5 q24.5 -68.5 68 -125 q43.5 -56.5 104 -97.5 q60.5 -41 131.5 -58 l0 808 q0 22 8 41.5 q8 19.5 22.5 34 q14.5 14.5 33.5 22.5 q19 8 42 8 q22 0 41.5 -8 q19.5 -8 34 -22.5 q14.5 -14.5 22.5 -34 q8 -19.5 8 -41.5 l0 -808 q70 16 130.5 57 q60.5 41 104 98 q43.5 57 68.5 126 q25 69 25 141 l0 386 q0 22 8 41.5 q8 19.5 22.5 34 q14.5 14.5 33.5 22.5 q19 8 42 8 q22 0 41.5 -8 q19.5 -8 34 -22.5 q14.5 -14.5 22.5 -34 q8 -19.5 8 -41.5 l0 -386 q0 -266 -189 -455 q-75 -75 -163 -120.5 q-88 -45.5 -188 -62.5 l0 -364 q0 -23 -8 -42 q-8 -19 -22.5 -33.5 q-14.5 -14.5 -34 -22.5 q-19.5 -8 -41.5 -8 q-23 0 -42 8 q-19 8 -33.5 22.5 q-14.5 14.5 -22.5 33.5 q-8 19 -8 42 l0 364 q-100 17 -187.5 62.5 q-87.5 45.5 -162.5 120.5 q-190 190 -190 455 l0 386 Z" /><glyph glyph-name="uni03A9" unicode="&#x3a9;" d="M649 212 q22 0 41.5 -8 q19.5 -8 34 -22.5 q14.5 -14.5 22.5 -34 q8 -19.5 8 -41.5 q0 -23 -8 -42 q-8 -19 -22.5 -33.5 q-14.5 -14.5 -34 -22.5 q-19.5 -8 -41.5 -8 l-463 0 q-23 0 -42 8 q-19 8 -33.5 22.5 q-14.5 14.5 -22.5 33.5 q-8 19 -8 42 q0 22 8 41.5 q8 19.5 22.5 34 q14.5 14.5 33.5 22.5 q19 8 42 8 l76 0 q-91 121 -136.5 266.5 q-45.5 145.5 -45.5 321.5 q0 331 234 565 q235 235 566 235 q330 0 565 -235 q118 -118 176.5 -257.5 q58.5 -139.5 58.5 -307.5 q0 -167 -41 -307.5 q-41 -140.5 -141 -280.5 l76 0 q22 0 41.5 -8 q19.5 -8 34 -22.5 q14.5 -14.5 22.5 -34 q8 -19.5 8 -41.5 q0 -23 -8 -42 q-8 -19 -22.5 -33.5 q-14.5 -14.5 -34 -22.5 q-19.5 -8 -41.5 -8 l-463 0 q-22 0 -41 8.5 q-19 8.5 -33.5 22.5 q-14.5 14 -23 33.5 q-8.5 19.5 -8.5 41.5 q0 22 8.5 41.5 q8.5 19.5 23 33.5 q14.5 14 33.5 22.5 q19 8.5 41 8.5 q74 0 139 47 q65 47 113.5 127.5 q48.5 80.5 76.5 187.5 q28 107 28 226 q0 243 -172 415 q-173 173 -416 173 q-124 0 -226.5 -43 q-102.5 -43 -189.5 -130 q-87 -87 -129.5 -189 q-42.5 -102 -42.5 -226 q0 -119 28 -226 q28 -107 76 -187.5 q48 -80.5 113 -127.5 q65 -47 140 -47 Z" /><glyph glyph-name="Iotadieresis" unicode="&#x3aa;" d="M359 106 q0 -44 -31 -75 q-31 -31 -75 -31 q-44 0 -75 31 q-31 31 -31 75 l0 1388 q0 44 31 75 q31 31 75 31 q44 0 75 -31 q31 -31 31 -75 l0 -1388 ZM148 1839 q0 -51 -36 -87 q-36 -36 -87 -36 q-51 0 -87 36 q-36 36 -36 87 q0 51 36 87 q36 36 87 36 q51 0 87 -36 q36 -36 36 -87 ZM603 1839 q0 -51 -36 -87 q-36 -36 -87 -36 q-51 0 -87 36 q-36 36 -36 87 q0 51 36 87 q36 36 87 36 q51 0 87 -36 q36 -36 36 -87 Z" /><glyph glyph-name="Upsilondieresis" unicode="&#x3ab;" d="M268 1556 l376 -563 l376 563 q31 44 87 44 q44 0 74.5 -31 q30.5 -31 30.5 -75 q0 -36 -16 -60 l-446 -666 l0 -662 q0 -44 -31 -75 q-31 -31 -75 -31 q-43 0 -74.5 31 q-31.5 31 -31.5 75 l0 662 l-445 666 q-17 26 -17 60 q0 44 31 75 q31 31 75 31 q56 0 86 -44 ZM540 1839 q0 -51 -36 -87 q-36 -36 -87 -36 q-51 0 -87 36 q-36 36 -36 87 q0 51 36 87 q36 36 87 36 q51 0 87 -36 q36 -36 36 -87 ZM995 1839 q0 -51 -36 -87 q-36 -36 -87 -36 q-51 0 -87 36 q-36 36 -36 87 q0 51 36 87 q36 36 87 36 q51 0 87 -36 q36 -36 36 -87 Z" /><glyph glyph-name="alphatonos" unicode="&#x3ac;" d="M1009 560 l-30 102 q-25 80 -89 146 q-53 52 -113.5 77.5 q-60.5 25.5 -134.5 25.5 q-74 0 -138 -28 q-64 -28 -111 -75.5 q-47 -47.5 -74.5 -111.5 q-27.5 -64 -27.5 -136 q0 -72 27.5 -136 q27.5 -64 74.5 -111.5 q47 -47.5 111 -75.5 q64 -28 138 -28 q57 0 110.5 17 q53.5 17 98.5 50.5 q45 33.5 79.5 82.5 q34.5 49 52.5 112 l26 89 ZM1102 240 q-182 -240 -460 -240 q-232 0 -396 164 q-164 164 -164 396 q0 232 164 396 q164 164 396 164 q138 0 252.5 -59 q114.5 -59 205.5 -178 l50 166 q10 32 38 51.5 q28 19.5 61 19.5 q22 0 41 -8 q19 -8 33 -22.5 q14 -14.5 23 -33.5 q9 -19 9 -40 q0 -11 -3 -22 l-127 -433 l127 -435 q3 -12 3 -22 q0 -21 -9 -40 q-9 -19 -23 -33.5 q-14 -14.5 -33 -22.5 q-19 -8 -41 -8 q-33 0 -60.5 19.5 q-27.5 19.5 -38.5 51.5 l-48 169 ZM853 1421 l-200 -199 q-28 -28 -72 -28 q-45 0 -74.5 29.5 q-29.5 29.5 -29.5 74.5 q0 43 26 71 l200 199 q32 31 74 31 q45 0 74.5 -30.5 q29.5 -30.5 29.5 -74.5 q0 -45 -28 -73 Z" /><glyph glyph-name="epsilontonos" unicode="&#x3ad;" d="M407 1120 q232 0 396 -164 q32 -32 32 -76 q0 -45 -29.5 -75 q-29.5 -30 -74.5 -30 q-45 0 -81 38 q-100 98 -243 98 q-26 0 -48 -10 q-22 -10 -39 -26.5 q-17 -16.5 -26.5 -39 q-9.5 -22.5 -9.5 -47.5 q0 -27 10 -49.5 q10 -22.5 27 -39 q17 -16.5 39.5 -26 q22.5 -9.5 46.5 -9.5 l76 0 q45 0 74.5 -29.5 q29.5 -29.5 29.5 -74.5 q0 -45 -29.5 -74.5 q-29.5 -29.5 -74.5 -29.5 l-76 0 q-24 0 -46.5 -9.5 q-22.5 -9.5 -39.5 -26 q-17 -16.5 -27 -39.5 q-10 -23 -10 -49 q0 -26 9.5 -48 q9.5 -22 26.5 -39 q17 -17 39 -26.5 q22 -9.5 48 -9.5 q143 0 243 97 q37 39 81 39 q45 0 74.5 -30.5 q29.5 -30.5 29.5 -74.5 q0 -44 -32 -76 q-164 -164 -396 -164 q-68 0 -128.5 26.5 q-60.5 26.5 -105.5 71.5 q-45 45 -71.5 105.5 q-26.5 60.5 -26.5 128.5 q0 133 90 228 q-90 96 -90 228 q0 69 26.5 129.5 q26.5 60.5 71.5 105.5 q45 45 105.5 71 q60.5 26 128.5 26 ZM719 1421 l-200 -199 q-28 -28 -72 -28 q-45 0 -74.5 29.5 q-29.5 29.5 -29.5 74.5 q0 43 26 71 l200 199 q32 31 74 31 q45 0 74.5 -30.5 q29.5 -30.5 29.5 -74.5 q0 -45 -28 -73 Z" /><glyph glyph-name="etatonos" unicode="&#x3ae;" d="M914 598 q0 64 -25 121 q-25 57 -67.5 99.5 q-42.5 42.5 -99.5 67.5 q-57 25 -121 25 q-65 0 -121.5 -24.5 q-56.5 -24.5 -99.5 -67.5 q-43 -43 -67.5 -100 q-24.5 -57 -24.5 -121 l0 -494 q0 -21 -8.5 -40 q-8.5 -19 -22.5 -33.5 q-14 -14.5 -33 -22.5 q-19 -8 -41 -8 q-22 0 -41 8 q-19 8 -33 22.5 q-14 14.5 -22 33.5 q-8 19 -8 40 l0 912 q0 21 8 40 q8 19 22 33.5 q14 14.5 33 22.5 q19 8 41 8 q21 0 40 -8 q19 -8 33.5 -22 q14.5 -14 23 -33 q8.5 -19 8.5 -40 q133 103 313 103 q105 0 199.5 -41 q94.5 -41 166.5 -111.5 q72 -70.5 114 -166 q42 -95.5 42 -203.5 l0 -972 q0 -22 -8.5 -41 q-8.5 -19 -22.5 -33.5 q-14 -14.5 -33 -22.5 q-19 -8 -41 -8 q-45 0 -74.5 30 q-29.5 30 -29.5 75 l0 972 ZM865 1421 l-200 -199 q-28 -28 -72 -28 q-45 0 -74.5 29.5 q-29.5 29.5 -29.5 74.5 q0 43 26 71 l200 199 q32 31 74 31 q45 0 74.5 -30.5 q29.5 -30.5 29.5 -74.5 q0 -45 -28 -73 Z" /><glyph glyph-name="iotatonos" unicode="&#x3af;" d="M112 105 l0 910 q0 44 30.5 74.5 q30.5 30.5 73.5 30.5 q43 0 73.5 -30.5 q30.5 -30.5 31.5 -74.5 l0 -910 q-1 -44 -31.5 -74.5 q-30.5 -30.5 -73.5 -30.5 q-43 0 -73.5 30.5 q-30.5 30.5 -30.5 74.5 ZM420 1421 l-200 -199 q-28 -28 -72 -28 q-45 0 -74.5 29.5 q-29.5 29.5 -29.5 74.5 q0 43 26 71 l200 199 q32 31 74 31 q45 0 74.5 -30.5 q29.5 -30.5 29.5 -74.5 q0 -45 -28 -73 Z" /><glyph glyph-name="alpha" unicode="&#x3b1;" d="M1009 560 l-30 102 q-25 80 -89 146 q-53 52 -113.5 77.5 q-60.5 25.5 -134.5 25.5 q-74 0 -138 -28 q-64 -28 -111 -75.5 q-47 -47.5 -74.5 -111.5 q-27.5 -64 -27.5 -136 q0 -72 27.5 -136 q27.5 -64 74.5 -111.5 q47 -47.5 111 -75.5 q64 -28 138 -28 q57 0 110.5 17 q53.5 17 98.5 50.5 q45 33.5 79.5 82.5 q34.5 49 52.5 112 l26 89 ZM1102 240 q-182 -240 -460 -240 q-232 0 -396 164 q-164 164 -164 396 q0 232 164 396 q164 164 396 164 q138 0 252.5 -59 q114.5 -59 205.5 -178 l50 166 q10 32 38 51.5 q28 19.5 61 19.5 q22 0 41 -8 q19 -8 33 -22.5 q14 -14.5 23 -33.5 q9 -19 9 -40 q0 -11 -3 -22 l-127 -433 l127 -435 q3 -12 3 -22 q0 -21 -9 -40 q-9 -19 -23 -33.5 q-14 -14.5 -33 -22.5 q-19 -8 -41 -8 q-33 0 -60.5 19.5 q-27.5 19.5 -38.5 51.5 l-48 169 Z" /><glyph glyph-name="beta" unicode="&#x3b2;" d="M290 494 q0 -57 21.5 -107.5 q21.5 -50.5 59 -88 q37.5 -37.5 88.5 -59 q51 -21.5 109 -21.5 q58 0 109 22 q51 22 88.5 60 q37.5 38 59.5 88.5 q22 50.5 22 107.5 q0 57 -22 107.5 q-22 50.5 -59.5 88.5 q-37.5 38 -88.5 60.5 q-51 22.5 -109 22.5 l-77 0 q-45 0 -75.5 30 q-30.5 30 -30.5 76 q0 46 30.5 75.5 q30.5 29.5 75.5 29.5 q41 0 78 16.5 q37 16.5 64 43.5 q27 27 43.5 63.5 q16.5 36.5 16.5 78.5 q0 41 -16.5 78 q-16.5 37 -44 64.5 q-27.5 27.5 -64 43.5 q-36.5 16 -77.5 16 q-41 0 -77.5 -15.5 q-36.5 -15.5 -64 -43 q-27.5 -27.5 -43.5 -64.5 q-16 -37 -16 -79 l0 -694 ZM914 844 q144 -145 144 -348 q0 -100 -38.5 -189 q-38.5 -89 -105 -156 q-66.5 -67 -156 -106 q-89.5 -39 -190.5 -39 q-158 0 -278 86 l0 -465 q0 -22 -9 -41 q-9 -19 -23 -34 q-14 -15 -33 -23 q-19 -8 -42 -8 q-45 0 -75 30.5 q-30 30.5 -30 75.5 l0 1561 q0 84 32.5 159.5 q32.5 75.5 88.5 132 q56 56.5 131.5 89.5 q75.5 33 160.5 33 q85 0 160 -33 q75 -33 131.5 -89.5 q56.5 -56.5 89 -131.5 q32.5 -75 32.5 -160 q0 -151 -94 -263 q62 -35 104 -81 Z" /><glyph glyph-name="gamma" unicode="&#x3b3;" d="M496 84 l-409 891 q-8 20 -8 41 q0 21 8 40 q8 19 22 33.5 q14 14.5 33 22.5 q19 8 41 8 q65 0 91 -52 l327 -713 l326 712 q29 53 91 53 q22 0 41 -8 q19 -8 33 -22.5 q14 -14.5 22.5 -33.5 q8.5 -19 8.5 -40 q0 -22 -9 -41 l-409 -891 l0 -458 q0 -45 -29.5 -75 q-29.5 -30 -74.5 -30 q-45 0 -75 30 q-30 30 -30 75 l0 458 Z" /><glyph glyph-name="delta" unicode="&#x3b4;" d="M640 911 q-74 0 -138 -28 q-64 -28 -111 -75.5 q-47 -47.5 -74.5 -111.5 q-27.5 -64 -27.5 -136 q0 -72 27.5 -136 q27.5 -64 74.5 -111.5 q47 -47.5 111 -75.5 q64 -28 138 -28 q73 0 137 28 q64 28 111.5 76 q47.5 48 75 111.5 q27.5 63.5 27.5 135.5 q0 72 -27.5 135.5 q-27.5 63.5 -75 111.5 q-47.5 48 -111.5 76 q-64 28 -137 28 ZM999 1600 q22 0 41 -8.5 q19 -8.5 33 -22.5 q14 -14 22.5 -33 q8.5 -19 8.5 -41 q0 -45 -30.5 -74.5 q-30.5 -29.5 -74.5 -29.5 l-471 0 l469 -400 q203 -182 203 -431 q0 -234 -164 -396 q-166 -164 -396 -164 q-232 0 -396 164 q-164 164 -164 396 q0 98 34.5 190 q34.5 92 94.5 166 q60 74 142 125.5 q82 51.5 178 69.5 l-362 310 q-31 30 -31 74 q0 44 29.5 74.5 q29.5 30.5 74.5 30.5 l759 0 Z" /><glyph glyph-name="epsilon" unicode="&#x3b5;" d="M407 1120 q232 0 396 -164 q32 -32 32 -76 q0 -45 -29.5 -75 q-29.5 -30 -74.5 -30 q-45 0 -81 38 q-100 98 -243 98 q-26 0 -48 -10 q-22 -10 -39 -26.5 q-17 -16.5 -26.5 -39 q-9.5 -22.5 -9.5 -47.5 q0 -27 10 -49.5 q10 -22.5 27 -39 q17 -16.5 39.5 -26 q22.5 -9.5 46.5 -9.5 l76 0 q45 0 74.5 -29.5 q29.5 -29.5 29.5 -74.5 q0 -45 -29.5 -74.5 q-29.5 -29.5 -74.5 -29.5 l-76 0 q-24 0 -46.5 -9.5 q-22.5 -9.5 -39.5 -26 q-17 -16.5 -27 -39.5 q-10 -23 -10 -49 q0 -26 9.5 -48 q9.5 -22 26.5 -39 q17 -17 39 -26.5 q22 -9.5 48 -9.5 q143 0 243 97 q37 39 81 39 q45 0 74.5 -30.5 q29.5 -30.5 29.5 -74.5 q0 -44 -32 -76 q-164 -164 -396 -164 q-68 0 -128.5 26.5 q-60.5 26.5 -105.5 71.5 q-45 45 -71.5 105.5 q-26.5 60.5 -26.5 128.5 q0 133 90 228 q-90 96 -90 228 q0 69 26.5 129.5 q26.5 60.5 71.5 105.5 q45 45 105.5 71 q60.5 26 128.5 26 Z" /><glyph glyph-name="zeta" unicode="&#x3b6;" d="M721 -480 q-46 0 -76.5 30.5 q-30.5 30.5 -30.5 76.5 q0 47 30.5 77 q30.5 30 76.5 30 q25 0 48 9.5 q23 9.5 40 26.5 q17 17 27.5 40 q10.5 23 10.5 51 q0 25 -10.5 48.5 q-10.5 23.5 -27 40 q-16.5 16.5 -39.5 27 q-23 10.5 -49 10.5 q-270 0 -461 190 q-190 189 -190 461 q0 321 255 518 l309 230 l-302 0 q-46 0 -76 30 q-30 30 -30 77 q0 45 30 76 q30 31 76 31 l621 0 q23 0 42.5 -8.5 q19.5 -8.5 33.5 -23 q14 -14.5 23 -34 q9 -19.5 9 -41.5 q0 -53 -52 -93 l-558 -417 l1 1 q-168 -137 -168 -346 q0 -91 34.5 -171 q34.5 -80 93 -139 q58.5 -59 138.5 -93 q80 -34 171 -34 q70 0 131.5 -27.5 q61.5 -27.5 108 -73.5 q46.5 -46 73.5 -108 q27 -62 27 -131 q0 -70 -27 -132 q-27 -62 -73.5 -108.5 q-46.5 -46.5 -108 -73.5 q-61.5 -27 -131.5 -27 Z" /><glyph glyph-name="eta" unicode="&#x3b7;" d="M914 598 q0 64 -25 121 q-25 57 -67.5 99.5 q-42.5 42.5 -99.5 67.5 q-57 25 -121 25 q-65 0 -121.5 -24.5 q-56.5 -24.5 -99.5 -67.5 q-43 -43 -67.5 -100 q-24.5 -57 -24.5 -121 l0 -494 q0 -21 -8.5 -40 q-8.5 -19 -22.5 -33.5 q-14 -14.5 -33 -22.5 q-19 -8 -41 -8 q-22 0 -41 8 q-19 8 -33 22.5 q-14 14.5 -22 33.5 q-8 19 -8 40 l0 912 q0 21 8 40 q8 19 22 33.5 q14 14.5 33 22.5 q19 8 41 8 q21 0 40 -8 q19 -8 33.5 -22 q14.5 -14 23 -33 q8.5 -19 8.5 -40 q133 103 313 103 q105 0 199.5 -41 q94.5 -41 166.5 -111.5 q72 -70.5 114 -166 q42 -95.5 42 -203.5 l0 -972 q0 -22 -8.5 -41 q-8.5 -19 -22.5 -33.5 q-14 -14.5 -33 -22.5 q-19 -8 -41 -8 q-45 0 -74.5 30 q-29.5 30 -29.5 75 l0 972 Z" /><glyph glyph-name="theta" unicode="&#x3b8;" d="M834 904 q-7 106 -26.5 194 q-19.5 88 -53.5 152 q-34 64 -82.5 100 q-48.5 36 -112.5 36 q-64 0 -113 -36 q-49 -36 -83.5 -100 q-34.5 -64 -54 -152 q-19.5 -88 -25.5 -194 l551 0 ZM283 693 q6 -106 25.5 -194 q19.5 -88 54 -152 q34.5 -64 83 -99.5 q48.5 -35.5 113.5 -35.5 q64 0 112.5 35.5 q48.5 35.5 82.5 99.5 q34 64 53.5 152 q19.5 88 26.5 194 l-551 0 ZM68 799 q0 189 33 337 q33 148 95.5 251 q62.5 103 153.5 157 q91 54 209 54 q117 0 208.5 -55.5 q91.5 -55.5 154.5 -158.5 q63 -103 95.5 -251 q32.5 -148 32.5 -334 q0 -186 -32.5 -334 q-32.5 -148 -95.5 -251 q-63 -103 -154.5 -158.5 q-91.5 -55.5 -208.5 -55.5 q-118 0 -209 54 q-91 54 -153.5 156.5 q-62.5 102.5 -95.5 251 q-33 148.5 -33 337.5 Z" /><glyph glyph-name="kappa" unicode="&#x3ba;" d="M287 715 l598 389 q25 16 56 16 q22 0 41 -8 q19 -8 33 -22.5 q14 -14.5 22.5 -33.5 q8.5 -19 8.5 -40 q0 -56 -43 -85 l-416 -270 l430 -484 q29 -33 29 -73 q0 -21 -8.5 -40 q-8.5 -19 -22.5 -33.5 q-14 -14.5 -33 -22.5 q-19 -8 -41 -8 q-42 0 -70 27 l-462 519 l-122 -80 l0 -362 q0 -21 -8.5 -40 q-8.5 -19 -22.5 -33.5 q-14 -14.5 -33 -22.5 q-19 -8 -41 -8 q-22 0 -41 8 q-19 8 -33 22.5 q-14 14.5 -22 33.5 q-8 19 -8 40 l0 911 q0 45 29.5 74.5 q29.5 29.5 74.5 29.5 q44 0 74.5 -29.5 q30.5 -29.5 30.5 -74.5 l0 -300 Z" /><glyph glyph-name="lambda" unicode="&#x3bb;" d="M267 1449 q-10 22 -10 46 q0 45 29.5 75 q29.5 30 74.5 30 q32 0 59 -19.5 q27 -19.5 40 -50.5 l575 -1379 q11 -25 11 -47 q0 -21 -8.5 -40 q-8.5 -19 -22.5 -33.5 q-14 -14.5 -33 -22.5 q-19 -8 -41 -8 q-41 0 -63.5 18.5 q-22.5 18.5 -34.5 48.5 l-281 673 l-281 -671 q-14 -34 -41 -51.5 q-27 -17.5 -58 -17.5 q-22 0 -41 8 q-19 8 -33 22.5 q-14 14.5 -22 33.5 q-8 19 -8 40 q0 24 10 47 l360 865 l-181 433 Z" /><glyph glyph-name="uni03BC" unicode="&#x3bc;" d="M288 522 q0 -65 24.5 -122 q24.5 -57 67 -99.5 q42.5 -42.5 99.5 -67 q57 -24.5 122 -24.5 q64 0 121 24.5 q57 24.5 100 67.5 q43 43 67.5 99.5 q24.5 56.5 24.5 121.5 l0 494 q0 21 8 40 q8 19 22 33.5 q14 14.5 33 22.5 q19 8 41 8 q22 0 41 -8 q19 -8 33 -22.5 q14 -14.5 22.5 -33.5 q8.5 -19 8.5 -40 l0 -912 q0 -21 -8.5 -40 q-8.5 -19 -22.5 -33.5 q-14 -14.5 -33 -22.5 q-19 -8 -41 -8 q-45 0 -74 30 q-29 30 -30 73 q-69 -54 -146 -78.5 q-77 -24.5 -167 -24.5 q-180 0 -313 103 l0 -477 q0 -22 -8.5 -41 q-8.5 -19 -22.5 -33.5 q-14 -14.5 -33 -22.5 q-19 -8 -41 -8 q-45 0 -74.5 30 q-29.5 30 -29.5 75 l0 1390 q0 21 8 40 q8 19 22 33.5 q14 14.5 33 22.5 q19 8 41 8 q22 0 41 -8 q19 -8 33 -22.5 q14 -14.5 22.5 -33.5 q8.5 -19 8.5 -40 l0 -494 Z" /><glyph glyph-name="xi" unicode="&#x3be;" d="M590 202 q70 0 132 -27 q62 -27 108 -73 q46 -46 73 -108 q27 -62 27 -132 q0 -71 -27 -133 q-27 -62 -73 -108 q-46 -46 -108 -73 q-62 -27 -132 -27 q-46 0 -76 30.5 q-30 30.5 -30 76.5 q0 47 30 77 q30 30 76 30 q26 0 49 10 q23 10 40.5 27 q17.5 17 27.5 40 q10 23 10 50 q0 24 -9.5 47 q-9.5 23 -26.5 40.5 q-17 17.5 -40.5 28 q-23.5 10.5 -50.5 10.5 q-109 0 -206.5 42.5 q-97.5 42.5 -170 115 q-72.5 72.5 -115 169.5 q-42.5 97 -42.5 207 q1 245 203 420 q-65 52 -95 126.5 q-30 74.5 -30 152.5 q0 78 30 147.5 q30 69.5 82.5 120.5 q52.5 51 121 81.5 q68.5 30.5 144.5 30.5 l195 0 q22 0 41.5 -9 q19.5 -9 34 -23 q14.5 -14 23 -33.5 q8.5 -19.5 8.5 -42.5 q0 -46 -31 -76 q-31 -30 -76 -30 l-195 0 q-33 0 -63.5 -13 q-30.5 -13 -52.5 -35.5 q-22 -22.5 -35 -52.5 q-13 -30 -13 -65 q0 -35 12.5 -65 q12.5 -30 34.5 -52 q22 -22 52.5 -35 q30.5 -13 64.5 -13 l195 0 q45 0 76 -30 q31 -30 31 -76 q0 -23 -8.5 -42.5 q-8.5 -19.5 -23 -34 q-14.5 -14.5 -34 -23 q-19.5 -8.5 -41.5 -8.5 l-117 0 q-66 0 -124 -25 q-58 -25 -102 -69 q-44 -44 -69 -102.5 q-25 -58.5 -25 -123.5 q0 -67 25 -125 q25 -58 68.5 -101.5 q43.5 -43.5 102 -68.5 q58.5 -25 124.5 -25 Z" /><glyph glyph-name="pi" unicode="&#x3c0;" d="M184 911 q-45 0 -74.5 30 q-29.5 30 -29.5 75 q0 21 8 40 q8 19 22 33.5 q14 14.5 33 22.5 q19 8 41 8 l911 0 q22 0 41 -8 q19 -8 33 -22.5 q14 -14.5 22.5 -33.5 q8.5 -19 8.5 -40 q0 -22 -8.5 -41 q-8.5 -19 -22.5 -33.5 q-14 -14.5 -33 -22.5 q-19 -8 -41 -8 l-47 0 l0 -807 q0 -21 -8.5 -40 q-8.5 -19 -22.5 -33.5 q-14 -14.5 -33 -22.5 q-19 -8 -41 -8 q-21 0 -40 8 q-19 8 -33.5 22.5 q-14.5 14.5 -22.5 33.5 q-8 19 -8 40 l0 807 l-399 0 l0 -807 q0 -21 -8 -40 q-8 -19 -22 -33.5 q-14 -14.5 -33 -22.5 q-19 -8 -41 -8 q-22 0 -41 8 q-19 8 -33 22.5 q-14 14.5 -22 33.5 q-8 19 -8 40 l0 807 l-48 0 Z" /><glyph glyph-name="sigma1" unicode="&#x3c2;" d="M643 -268 q25 0 47.5 10 q22.5 10 40 26.5 q17.5 16.5 27.5 39 q10 22.5 10 50.5 q0 25 -10 48 q-10 23 -27 39.5 q-17 16.5 -39.5 26.5 q-22.5 10 -48.5 10 q-234 0 -400 166 q-166 166 -166 401 q0 234 166 400 q166 166 400 166 q32 0 69 -4 q37 -4 74 -13 q37 -9 72 -22.5 q35 -13.5 62 -32 q27 -18.5 43 -42 q16 -23.5 16 -52.5 q0 -22 -8.5 -41.5 q-8.5 -19.5 -22.5 -34 q-14 -14.5 -33.5 -22.5 q-19.5 -8 -41.5 -8 q-28 0 -61 19 q-74 42 -169 42 q-73 0 -138 -28 q-65 -28 -113.5 -76 q-48.5 -48 -76.5 -113 q-28 -65 -28 -138 q0 -74 28 -139 q28 -65 76.5 -113 q48.5 -48 113.5 -75.5 q65 -27.5 138 -27.5 q69 0 130.5 -27 q61.5 -27 107 -72.5 q45.5 -45.5 72 -106.5 q26.5 -61 26.5 -130 q0 -69 -26.5 -130 q-26.5 -61 -72 -107 q-45.5 -46 -107 -73 q-61.5 -27 -130.5 -27 q-45 0 -75.5 30.5 q-30.5 30.5 -30.5 75.5 q0 46 30.5 75.5 q30.5 29.5 75.5 29.5 Z" /><glyph glyph-name="sigma" unicode="&#x3c3;" d="M993 560 q0 72 -27.5 135.5 q-27.5 63.5 -75 111.5 q-47.5 48 -111.5 76 q-64 28 -137 28 q-74 0 -138 -28 q-64 -28 -111 -75.5 q-47 -47.5 -74.5 -111.5 q-27.5 -64 -27.5 -136 q0 -72 27.5 -136 q27.5 -64 74.5 -111.5 q47 -47.5 111 -75.5 q64 -28 138 -28 q73 0 137 28 q64 28 111.5 76 q47.5 48 75 111.5 q27.5 63.5 27.5 135.5 ZM1078 911 q124 -149 124 -351 q0 -234 -164 -396 q-166 -164 -396 -164 q-232 0 -396 164 q-164 164 -164 396 q0 232 164 396 q164 164 396 164 l607 0 q22 0 41 -8 q19 -8 33 -22.5 q14 -14.5 22.5 -33.5 q8.5 -19 8.5 -40 q0 -22 -8.5 -41 q-8.5 -19 -22.5 -33.5 q-14 -14.5 -33 -22.5 q-19 -8 -41 -8 l-171 0 Z" /><glyph glyph-name="tau" unicode="&#x3c4;" d="M182 911 q-45 0 -74.5 30 q-29.5 30 -29.5 75 q0 21 8 40 q8 19 22 33.5 q14 14.5 33 22.5 q19 8 41 8 l759 0 q22 0 41 -8 q19 -8 33 -22.5 q14 -14.5 22.5 -33.5 q8.5 -19 8.5 -40 q0 -22 -8.5 -41 q-8.5 -19 -22.5 -33.5 q-14 -14.5 -33 -22.5 q-19 -8 -41 -8 l-275 0 l0 -807 q0 -21 -8 -40 q-8 -19 -22 -33.5 q-14 -14.5 -33 -22.5 q-19 -8 -41 -8 q-22 0 -41 8 q-19 8 -33.5 22.5 q-14.5 14.5 -22.5 33.5 q-8 19 -8 40 l0 807 l-275 0 Z" /><glyph glyph-name="upsilon" unicode="&#x3c5;" d="M601 0 q-107 0 -202 41.5 q-95 41.5 -166 112.5 q-71 71 -112.5 166 q-41.5 95 -41.5 202 l0 494 q0 21 8 40 q8 19 22 33.5 q14 14.5 33 22.5 q19 8 41 8 q22 0 41 -8 q19 -8 33 -22.5 q14 -14.5 22.5 -33.5 q8.5 -19 8.5 -40 l0 -494 q0 -65 24.5 -122 q24.5 -57 67 -99.5 q42.5 -42.5 99.5 -67 q57 -24.5 122 -24.5 q64 0 121 24.5 q57 24.5 100 67.5 q43 43 67.5 99.5 q24.5 56.5 24.5 121.5 l0 494 q0 21 8 40 q8 19 22 33.5 q14 14.5 33 22.5 q19 8 41 8 q22 0 41 -8 q19 -8 33 -22.5 q14 -14.5 22.5 -33.5 q8.5 -19 8.5 -40 l0 -494 q0 -107 -41.5 -202 q-41.5 -95 -112.5 -166 q-71 -71 -166 -112.5 q-95 -41.5 -202 -41.5 Z" /><glyph glyph-name="phi" unicode="&#x3c6;" d="M535 864 q0 53 21 100 q21 47 56.5 81.5 q35.5 34.5 82 54.5 q46.5 20 97.5 20 q72 0 131 -36 q59 -36 113 -90 q164 -164 164 -415 q0 -72 -15.5 -139.5 q-15.5 -67.5 -44.5 -127 q-29 -59.5 -70.5 -110.5 q-41.5 -51 -92 -90 q-50.5 -39 -109.5 -65.5 q-59 -26.5 -124 -37.5 l0 -383 q0 -45 -29.5 -75 q-29.5 -30 -74.5 -30 q-45 0 -75 30 q-30 30 -30 75 l0 383 q-96 17 -179.5 67 q-83.5 50 -144.5 125.5 q-61 75.5 -96 172 q-35 96.5 -35 205.5 q0 80 18 154.5 q18 74.5 53.5 139.5 q35.5 65 87.5 118.5 q52 53.5 120 92.5 q25 14 53 14 q45 0 74.5 -29.5 q29.5 -29.5 29.5 -74.5 q0 -29 -12.5 -49 q-12.5 -20 -31 -33.5 q-18.5 -13.5 -40.5 -30 q-22 -16.5 -41 -34.5 q-102 -104 -102 -268 q0 -65 18 -122.5 q18 -57.5 50 -104 q32 -46.5 77.5 -80 q45.5 -33.5 100.5 -49.5 l0 641 ZM792 911 q-20 0 -34 -13.5 q-14 -13.5 -14 -33.5 l0 -641 q56 18 101.5 51.5 q45.5 33.5 78 79.5 q32.5 46 50 103 q17.5 57 17.5 122 q0 109 -44.5 189.5 q-44.5 80.5 -133.5 137.5 q-9 5 -21 5 Z" /><glyph glyph-name="chi" unicode="&#x3c7;" d="M438 321 l-357 642 q-12 22 -12 51 q0 22 8 41 q8 19 22.5 34 q14.5 15 33.5 23 q19 8 42 8 q61 0 90 -50 l295 -528 l294 528 q28 50 91 50 q22 0 41 -8 q19 -8 33.5 -23 q14.5 -15 23 -34 q8.5 -19 8.5 -41 q0 -27 -13 -51 l-357 -642 l357 -644 q13 -23 13 -49 q0 -23 -8.5 -42 q-8.5 -19 -23 -34 q-14.5 -15 -33.5 -23 q-19 -8 -41 -8 q-59 0 -90 48 l-295 533 l-296 -533 q-31 -48 -89 -48 q-46 0 -76 30.5 q-30 30.5 -30 76.5 q0 26 12 49 l357 644 Z" /><glyph glyph-name="psi" unicode="&#x3c8;" d="M1145 1016 q0 21 8 40 q8 19 22 33.5 q14 14.5 33 22.5 q19 8 41 8 q22 0 41 -8 q19 -8 33 -22.5 q14 -14.5 22.5 -33.5 q8.5 -19 8.5 -40 l0 -380 q0 -263 -186 -449 q-75 -75 -162 -119 q-87 -44 -184 -60 l0 -382 q0 -45 -29.5 -75 q-29.5 -30 -74.5 -30 q-45 0 -75 30 q-30 30 -30 75 l0 382 q-97 16 -183 60 q-86 44 -161 119 q-187 186 -187 449 l0 380 q0 21 8 40 q8 19 22 33.5 q14 14.5 33 22.5 q19 8 41 8 q22 0 41 -8 q19 -8 33 -22.5 q14 -14.5 22.5 -33.5 q8.5 -19 8.5 -40 l0 -380 q0 -73 24.5 -141 q24.5 -68 68 -124 q43.5 -56 102 -96 q58.5 -40 127.5 -55 l0 796 q0 21 8 40 q8 19 22.5 33.5 q14.5 14.5 33.5 22.5 q19 8 41 8 q22 0 41 -8 q19 -8 33 -22.5 q14 -14.5 22 -33.5 q8 -19 8 -40 l0 -796 q69 15 128 55 q59 40 102.5 96 q43.5 56 68 124.5 q24.5 68.5 24.5 140.5 l0 380 Z" /><glyph glyph-name="omega" unicode="&#x3c9;" d="M613 788 q0 45 30 74.5 q30 29.5 75 29.5 q45 0 74.5 -29.5 q29.5 -29.5 29.5 -74.5 l0 -418 q0 -34 12.5 -63.5 q12.5 -29.5 34 -51 q21.5 -21.5 51 -34 q29.5 -12.5 63.5 -12.5 q34 0 63.5 13 q29.5 13 51.5 34.5 q22 21.5 34.5 51 q12.5 29.5 12.5 62.5 q0 165 -35.5 313.5 q-35.5 148.5 -106.5 285.5 q-10 24 -10 47 q0 21 8 40 q8 19 22 33.5 q14 14.5 33 22.5 q19 8 41 8 q63 0 97 -65 q160 -308 160 -685 q0 -75 -29.5 -142 q-29.5 -67 -79.5 -118 q-50 -51 -118 -80.5 q-68 -29.5 -144 -29.5 q-78 0 -144.5 29 q-66.5 29 -120.5 84 q-108 -113 -266 -113 q-75 0 -142.5 29 q-67.5 29 -118 79.5 q-50.5 50.5 -80 117.5 q-29.5 67 -29.5 144 q0 189 39 359.5 q39 170.5 119 324.5 q34 66 98 66 q22 0 41 -8 q19 -8 33 -22.5 q14 -14.5 22 -33.5 q8 -19 8 -40 q0 -27 -10 -47 q-141 -270 -141 -599 q0 -34 12 -63.5 q12 -29.5 34 -51 q22 -21.5 51 -34 q29 -12.5 64 -12.5 q34 0 63.5 13 q29.5 13 51.5 35 q22 22 34 51.5 q12 29.5 12 61.5 l0 418 Z" /><glyph glyph-name="iotadieresis" unicode="&#x3ca;" d="M195 105 l0 910 q0 44 30.5 74.5 q30.5 30.5 73.5 30.5 q43 0 73.5 -30.5 q30.5 -30.5 31.5 -74.5 l0 -910 q-1 -44 -31.5 -74.5 q-30.5 -30.5 -73.5 -30.5 q-43 0 -73.5 30.5 q-30.5 30.5 -30.5 74.5 ZM195 1359 q0 -51 -36 -87 q-36 -36 -87 -36 q-51 0 -87 36 q-36 36 -36 87 q0 51 36 87 q36 36 87 36 q51 0 87 -36 q36 -36 36 -87 ZM650 1359 q0 -51 -36 -87 q-36 -36 -87 -36 q-51 0 -87 36 q-36 36 -36 87 q0 51 36 87 q36 36 87 36 q51 0 87 -36 q36 -36 36 -87 Z" /><glyph glyph-name="omicrontonos" unicode="&#x3cc;" d="M1200 560 q0 -234 -164 -396 q-166 -164 -396 -164 q-232 0 -396 164 q-164 164 -164 396 q0 232 164 396 q164 164 396 164 q230 0 396 -164 q82 -82 122.5 -181 q40.5 -99 41.5 -215 ZM640 911 q-74 0 -138 -28 q-64 -28 -111 -75.5 q-47 -47.5 -74.5 -111.5 q-27.5 -64 -27.5 -136 q0 -72 27.5 -136 q27.5 -64 74.5 -111.5 q47 -47.5 111 -75.5 q64 -28 138 -28 q73 0 137 28 q64 28 111.5 76 q47.5 48 75 111.5 q27.5 63.5 27.5 135.5 q0 72 -27.5 135.5 q-27.5 63.5 -75 111.5 q-47.5 48 -111.5 76 q-64 28 -137 28 ZM854 1421 l-200 -199 q-28 -28 -72 -28 q-45 0 -74.5 29.5 q-29.5 29.5 -29.5 74.5 q0 43 26 71 l200 199 q32 31 74 31 q45 0 74.5 -30.5 q29.5 -30.5 29.5 -74.5 q0 -45 -28 -73 Z" /><glyph glyph-name="upsilontonos" unicode="&#x3cd;" d="M601 0 q-107 0 -202 41.5 q-95 41.5 -166 112.5 q-71 71 -112.5 166 q-41.5 95 -41.5 202 l0 494 q0 21 8 40 q8 19 22 33.5 q14 14.5 33 22.5 q19 8 41 8 q22 0 41 -8 q19 -8 33 -22.5 q14 -14.5 22.5 -33.5 q8.5 -19 8.5 -40 l0 -494 q0 -65 24.5 -122 q24.5 -57 67 -99.5 q42.5 -42.5 99.5 -67 q57 -24.5 122 -24.5 q64 0 121 24.5 q57 24.5 100 67.5 q43 43 67.5 99.5 q24.5 56.5 24.5 121.5 l0 494 q0 21 8 40 q8 19 22 33.5 q14 14.5 33 22.5 q19 8 41 8 q22 0 41 -8 q19 -8 33 -22.5 q14 -14.5 22.5 -33.5 q8.5 -19 8.5 -40 l0 -494 q0 -107 -41.5 -202 q-41.5 -95 -112.5 -166 q-71 -71 -166 -112.5 q-95 -41.5 -202 -41.5 ZM852 1422 l-200 -199 q-28 -28 -72 -28 q-45 0 -74.5 29.5 q-29.5 29.5 -29.5 74.5 q0 43 26 71 l200 199 q32 31 74 31 q45 0 74.5 -30.5 q29.5 -30.5 29.5 -74.5 q0 -45 -28 -73 Z" /><glyph glyph-name="omegatonos" unicode="&#x3ce;" d="M613 788 q0 45 30 74.5 q30 29.5 75 29.5 q45 0 74.5 -29.5 q29.5 -29.5 29.5 -74.5 l0 -418 q0 -34 12.5 -63.5 q12.5 -29.5 34 -51 q21.5 -21.5 51 -34 q29.5 -12.5 63.5 -12.5 q34 0 63.5 13 q29.5 13 51.5 34.5 q22 21.5 34.5 51 q12.5 29.5 12.5 62.5 q0 165 -35.5 313.5 q-35.5 148.5 -106.5 285.5 q-10 24 -10 47 q0 21 8 40 q8 19 22 33.5 q14 14.5 33 22.5 q19 8 41 8 q63 0 97 -65 q160 -308 160 -685 q0 -75 -29.5 -142 q-29.5 -67 -79.5 -118 q-50 -51 -118 -80.5 q-68 -29.5 -144 -29.5 q-78 0 -144.5 29 q-66.5 29 -120.5 84 q-108 -113 -266 -113 q-75 0 -142.5 29 q-67.5 29 -118 79.5 q-50.5 50.5 -80 117.5 q-29.5 67 -29.5 144 q0 189 39 359.5 q39 170.5 119 324.5 q34 66 98 66 q22 0 41 -8 q19 -8 33 -22.5 q14 -14.5 22 -33.5 q8 -19 8 -40 q0 -27 -10 -47 q-141 -270 -141 -599 q0 -34 12 -63.5 q12 -29.5 34 -51 q22 -21.5 51 -34 q29 -12.5 64 -12.5 q34 0 63.5 13 q29.5 13 51.5 35 q22 22 34 51.5 q12 29.5 12 61.5 l0 418 ZM976 1422 l-200 -199 q-28 -28 -72 -28 q-45 0 -74.5 29.5 q-29.5 29.5 -29.5 74.5 q0 43 26 71 l200 199 q32 31 74 31 q45 0 74.5 -30.5 q29.5 -30.5 29.5 -74.5 q0 -45 -28 -73 Z" /><glyph glyph-name="afii00208" unicode="&#x2015;" d="M1 456 q-45 0 -74.5 29.5 q-29.5 29.5 -29.5 74.5 q0 45 29.5 74.5 q29.5 29.5 74.5 29.5 l1440 0 q45 0 74.5 -29.5 q29.5 -29.5 29.5 -74.5 q0 -45 -29.5 -74.5 q-29.5 -29.5 -74.5 -29.5 l-1440 0 Z" /><glyph glyph-name="quotereversed" unicode="&#x201b;" d="M394 1426 q-41 -88 -41 -182 q0 -99 45 -209 q7 -18 7 -35 q0 -35 -25 -60 q-25 -25 -60 -25 q-34 0 -61 27 q-151 181 -151 358 q0 43 9.5 92.5 q9.5 49.5 30.5 96 q21 46.5 54 78.5 q33 32 79 32 q25 0 48 -9.5 q23 -9.5 39.5 -26.5 q16.5 -17 26.5 -39.5 q10 -22.5 10 -48.5 q0 -24 -11 -49 Z" /><glyph glyph-name="perthousand" unicode="&#x2030;" d="M872 1190 q0 -83 -32 -157 q-32 -74 -87.5 -130 q-55.5 -56 -130 -88.5 q-74.5 -32.5 -158.5 -32.5 q-84 0 -158.5 32.5 q-74.5 32.5 -130 88.5 q-55.5 56 -87.5 130 q-32 74 -32 157 q0 83 32 157.5 q32 74.5 87.5 130.5 q55.5 56 130 88.5 q74.5 32.5 158.5 32.5 q84 0 158.5 -32.5 q74.5 -32.5 130 -88.5 q55.5 -56 87.5 -130.5 q32 -74.5 32 -157.5 ZM889 408 q0 83 32 157.5 q32 74.5 87.5 130 q55.5 55.5 129.5 88 q74 32.5 159 32.5 q83 0 157 -32 q74 -32 130 -87 q56 -55 88.5 -129.5 q32.5 -74.5 32.5 -159.5 q0 -85 -32.5 -159 q-32.5 -74 -88 -129.5 q-55.5 -55.5 -130 -87.5 q-74.5 -32 -157.5 -32 q-84 0 -158 32.5 q-74 32.5 -129.5 88 q-55.5 55.5 -88 129.5 q-32.5 74 -32.5 158 ZM464 1390 q-42 0 -78 -16 q-36 -16 -63 -43.5 q-27 -27.5 -42.5 -64 q-15.5 -36.5 -15.5 -76.5 q0 -41 15.5 -77 q15.5 -36 42 -63 q26.5 -27 63 -43 q36.5 -16 78.5 -16 q41 0 77.5 16 q36.5 16 63.5 43 q27 27 42.5 63 q15.5 36 15.5 77 q0 40 -16 76.5 q-16 36.5 -43 64 q-27 27.5 -63 43.5 q-36 16 -77 16 ZM1297 607 q-41 0 -77.5 -15.5 q-36.5 -15.5 -63.5 -42.5 q-27 -27 -42.5 -63.5 q-15.5 -36.5 -15.5 -77.5 q0 -41 15.5 -77.5 q15.5 -36.5 42.5 -63.5 q27 -27 63.5 -42.5 q36.5 -15.5 77.5 -15.5 q41 0 77.5 16 q36.5 16 63.5 43 q27 27 43 63 q16 36 16 77 q0 41 -16 77 q-16 36 -43 63 q-27 27 -63.5 43 q-36.5 16 -77.5 16 ZM342 0 q-22 0 -41 8 q-19 8 -33 22.5 q-14 14.5 -22 33.5 q-8 19 -8 40 q0 43 25 71 l1077 1383 q36 42 84 42 q22 0 41 -8.5 q19 -8.5 33 -22.5 q14 -14 22.5 -33 q8.5 -19 8.5 -41 q0 -36 -21 -63 l-1088 -1399 q-30 -33 -78 -33 ZM1780 408 q0 83 32 157.5 q32 74.5 87.5 130 q55.5 55.5 129.5 88 q74 32.5 159 32.5 q83 0 157 -32 q74 -32 130 -87 q56 -55 88.5 -129.5 q32.5 -74.5 32.5 -159.5 q0 -85 -32.5 -159 q-32.5 -74 -88 -129.5 q-55.5 -55.5 -130 -87.5 q-74.5 -32 -157.5 -32 q-84 0 -158 32.5 q-74 32.5 -129.5 88 q-55.5 55.5 -88 129.5 q-32.5 74 -32.5 158 ZM2188 607 q-41 0 -77.5 -15.5 q-36.5 -15.5 -63.5 -42.5 q-27 -27 -42.5 -63.5 q-15.5 -36.5 -15.5 -77.5 q0 -41 15.5 -77.5 q15.5 -36.5 42.5 -63.5 q27 -27 63.5 -42.5 q36.5 -15.5 77.5 -15.5 q41 0 77.5 16 q36.5 16 63.5 43 q27 27 43 63 q16 36 16 77 q0 41 -16 77 q-16 36 -43 63 q-27 27 -63.5 43 q-36.5 16 -77.5 16 Z" /><glyph glyph-name="minute" unicode="&#x2032;" d="M224 1214 q-25 -52 -79 -52 q-15 0 -30 5.5 q-15 5.5 -27 16 q-12 10.5 -20 26.5 q-8 16 -8 37 q0 14 5 32 l79 254 q9 28 37 47.5 q28 19.5 60 19.5 q22 0 41.5 -8.5 q19.5 -8.5 34 -23 q14.5 -14.5 22.5 -33.5 q8 -19 8 -40 q0 -17 -9 -39 l-114 -242 Z" /><glyph glyph-name="second" unicode="&#x2033;" d="M234 1214 q-25 -52 -79 -52 q-15 0 -30 5.5 q-15 5.5 -27 16 q-12 10.5 -20 26.5 q-8 16 -8 37 q0 14 5 32 l79 254 q9 28 37 47.5 q28 19.5 60 19.5 q22 0 41.5 -8.5 q19.5 -8.5 34 -23 q14.5 -14.5 22.5 -33.5 q8 -19 8 -40 q0 -17 -9 -39 l-114 -242 ZM528 1214 q-25 -52 -79 -52 q-15 0 -30 5.5 q-15 5.5 -27 16 q-12 10.5 -20 26.5 q-8 16 -8 37 q0 14 5 32 l79 254 q9 28 37 47.5 q28 19.5 60 19.5 q22 0 41.5 -8.5 q19.5 -8.5 34 -23 q14.5 -14.5 22.5 -33.5 q8 -19 8 -40 q0 -17 -9 -39 l-114 -242 Z" /><glyph glyph-name="afii61248" unicode="&#x2105;" d="M1425 1598 q23 0 42 -8.5 q19 -8.5 33.5 -23 q14.5 -14.5 23 -33.5 q8.5 -19 8.5 -41 q0 -32 -17 -58 l-922 -1382 q-38 -52 -91 -52 q-23 0 -42 8 q-19 8 -33.5 23 q-14.5 15 -22.5 34 q-8 19 -8 40 q0 35 15 57 l929 1393 q29 43 85 43 ZM705 1016 q17 0 32 -6.5 q15 -6.5 27 -18.5 q12 -12 18.5 -27 q6.5 -15 6.5 -31 q0 -27 -14.5 -48.5 q-14.5 -21.5 -38.5 -40 q-24 -18.5 -54.5 -32.5 q-30.5 -14 -64 -23 q-33.5 -9 -66 -14 q-32.5 -5 -59.5 -5 q-85 0 -161 33 q-76 33 -132 89.5 q-56 56.5 -88.5 131.5 q-32.5 75 -32.5 159 q0 84 32.5 160 q32.5 76 88.5 132.5 q56 56.5 132 89.5 q76 33 161 33 q153 0 270 -100 q29 -26 29 -65 q0 -18 -6.5 -32.5 q-6.5 -14.5 -18.5 -26 q-12 -11.5 -27 -18 q-15 -6.5 -31 -6.5 q-33 0 -55 19 q-70 61 -161 61 q-52 0 -96.5 -19.5 q-44.5 -19.5 -78 -53 q-33.5 -33.5 -53 -78 q-19.5 -44.5 -19.5 -96.5 q0 -51 20 -96 q20 -45 53.5 -78.5 q33.5 -33.5 78 -52.5 q44.5 -19 95.5 -19 q92 0 160 60 q22 19 53 19 ZM1849 415 q0 -85 -33 -161 q-33 -76 -89 -132 q-56 -56 -131.5 -89 q-75.5 -33 -161.5 -33 q-85 0 -160 33 q-75 33 -131.5 89.5 q-56.5 56.5 -89.5 132 q-33 75.5 -33 160.5 q0 85 33 160.5 q33 75.5 89 132 q56 56.5 131.5 89 q75.5 32.5 160.5 32.5 q86 0 161.5 -32.5 q75.5 -32.5 131.5 -89 q56 -56.5 89 -132 q33 -75.5 33 -160.5 ZM1434 661 q-50 0 -95 -19 q-45 -19 -78.5 -52 q-33.5 -33 -53.5 -78.5 q-20 -45.5 -20 -96.5 q0 -51 20 -96 q20 -45 53 -78.5 q33 -33.5 78.5 -53 q45.5 -19.5 95.5 -19.5 q52 0 97 20 q45 20 78.5 54 q33.5 34 52.5 78.5 q19 44.5 19 94.5 q0 49 -19 94 q-19 45 -52.5 79 q-33.5 34 -78.5 53.5 q-45 19.5 -97 19.5 Z" /><glyph glyph-name="afii61289" unicode="&#x2113;" d="M225 1319 q0 53 21 99.5 q21 46.5 56 81.5 q35 35 82 55.5 q47 20.5 98 20.5 q51 0 97.5 -20.5 q46.5 -20.5 81.5 -55.5 q35 -35 56 -81.5 q21 -46.5 21 -99.5 q0 -60 -25 -111 l-279 -488 l0 -464 q0 -20 14 -33.5 q14 -13.5 34 -13.5 q17 0 34 15 q30 27 70 27 q22 0 41 -8.5 q19 -8.5 33 -22.5 q14 -14 22.5 -33 q8.5 -19 8.5 -41 q0 -36 -21.5 -63.5 q-21.5 -27.5 -53.5 -46 q-32 -18.5 -68.5 -27.5 q-36.5 -9 -65.5 -9 q-53 0 -99.5 20 q-46.5 20 -81.5 54.5 q-35 34.5 -55.5 81.5 q-20.5 47 -20.5 100 l0 133 q-21 -9 -47 -9 q-45 0 -74.5 29.5 q-29.5 29.5 -29.5 74.5 q0 27 14 53 l137 240 l0 542 ZM526 1301 q3 7 3 18 q0 20 -13.5 34 q-13.5 14 -33.5 14 q-20 0 -34 -14 q-14 -14 -14 -34 l0 -178 l92 160 Z" /><glyph glyph-name="estimated" unicode="&#x212e;" d="M402 300 q97 -91 238 -91 q66 0 121 20 q55 20 102 60 q32 26 69 26 q45 0 74.5 -29.5 q29.5 -29.5 29.5 -74.5 q0 -44 -30 -75 q-155 -136 -366 -136 q-232 0 -396 164 q-164 164 -164 396 q0 232 164 396 q164 164 396 164 q230 0 396 -164 q82 -81 123 -180.5 q41 -99.5 41 -215.5 q0 -45 -30.5 -74.5 q-30.5 -29.5 -74.5 -29.5 l-693 0 l0 -156 ZM877 664 l0 156 q-97 91 -237 91 q-141 0 -238 -91 l0 -156 l475 0 Z" /><glyph glyph-name="oneeighth" unicode="&#x215b;" d="M1216 820 q-45 0 -77 -32 l0 1 q-32 -32 -32 -77 q0 -23 9 -42.5 q9 -19.5 24 -34 q15 -14.5 35 -23 q20 -8.5 41 -8.5 q23 0 43 9 q20 9 34.5 24 q14.5 15 22.5 34.5 q8 19.5 8 40.5 q0 22 -8.5 41.5 q-8.5 19.5 -23.5 34.5 q-15 15 -34.5 23.5 q-19.5 8.5 -41.5 8.5 ZM1216 456 q-32 0 -60 -12 q-28 -12 -49 -33 q-21 -21 -33 -49 q-12 -28 -12 -60 q0 -32 12 -60 q12 -28 32.5 -49 q20.5 -21 48.5 -33 q28 -12 61 -12 q32 0 60 12 q28 12 48.5 33 q20.5 21 32.5 49 q12 28 12 60 q0 33 -12.5 61.5 q-12.5 28.5 -34 49 q-21.5 20.5 -49 32 q-27.5 11.5 -57.5 11.5 ZM1028 538 q-35 38 -52 80.5 q-17 42.5 -17 93.5 q0 53 20.5 99.5 q20.5 46.5 55.5 81.5 q35 35 81.5 55 q46.5 20 99.5 20 q52 0 99 -20.5 q47 -20.5 81.5 -55 q34.5 -34.5 55 -81.5 q20.5 -47 20.5 -99 q0 -51 -17 -93.5 q-17 -42.5 -51 -80.5 q57 -50 85.5 -106.5 q28.5 -56.5 28.5 -129.5 q0 -61 -24 -116 q-24 -55 -65 -96 q-41 -41 -96 -65.5 q-55 -24.5 -117 -24.5 q-62 0 -117 24 q-55 24 -96 65 q-41 41 -65 96 q-24 55 -24 117 q0 138 114 236 ZM1189 1600 q22 0 41 -8.5 q19 -8.5 33 -22.5 q14 -14 22.5 -33 q8.5 -19 8.5 -41 q0 -30 -16 -57 l-926 -1387 q-36 -51 -90 -51 q-22 0 -41 8 q-19 8 -33 22.5 q-14 14.5 -22 33.5 q-8 19 -8 40 q0 34 15 56 l932 1398 q28 42 84 42 ZM367 704 q0 -31 -21.5 -52.5 q-21.5 -21.5 -53.5 -21.5 q-31 0 -52.5 21.5 q-21.5 21.5 -21.5 52.5 l0 717 l-36 -10 q-14 -5 -26 -5 q-32 0 -53 21 q-21 21 -21 53 q0 22 12 40.5 q12 18.5 31 26.5 l141 48 q13 5 26 5 q32 0 53.5 -21.5 q21.5 -21.5 21.5 -52.5 l0 -822 Z" /><glyph glyph-name="threeeighths" unicode="&#x215c;" d="M1350 1600 q22 0 41 -8.5 q19 -8.5 33 -22.5 q14 -14 22.5 -33 q8.5 -19 8.5 -41 q0 -30 -16 -57 l-926 -1387 q-36 -51 -90 -51 q-22 0 -41 8 q-19 8 -33 22.5 q-14 14.5 -22 33.5 q-8 19 -8 40 q0 34 15 56 l932 1398 q28 42 84 42 ZM1377 820 q-45 0 -77 -32 l0 1 q-32 -32 -32 -77 q0 -23 9 -42.5 q9 -19.5 24 -34 q15 -14.5 35 -23 q20 -8.5 41 -8.5 q23 0 43 9 q20 9 34.5 24 q14.5 15 22.5 34.5 q8 19.5 8 40.5 q0 22 -8.5 41.5 q-8.5 19.5 -23.5 34.5 q-15 15 -34.5 23.5 q-19.5 8.5 -41.5 8.5 ZM1377 456 q-32 0 -60 -12 q-28 -12 -49 -33 q-21 -21 -33 -49 q-12 -28 -12 -60 q0 -32 12 -60 q12 -28 32.5 -49 q20.5 -21 48.5 -33 q28 -12 61 -12 q32 0 60 12 q28 12 48.5 33 q20.5 21 32.5 49 q12 28 12 60 q0 33 -12.5 61.5 q-12.5 28.5 -34 49 q-21.5 20.5 -49 32 q-27.5 11.5 -57.5 11.5 ZM1189 538 q-35 38 -52 80.5 q-17 42.5 -17 93.5 q0 53 20.5 99.5 q20.5 46.5 55.5 81.5 q35 35 81.5 55 q46.5 20 99.5 20 q52 0 99 -20.5 q47 -20.5 81.5 -55 q34.5 -34.5 55 -81.5 q20.5 -47 20.5 -99 q0 -51 -17 -93.5 q-17 -42.5 -51 -80.5 q57 -50 85.5 -106.5 q28.5 -56.5 28.5 -129.5 q0 -61 -24 -116 q-24 -55 -65 -96 q-41 -41 -96 -65.5 q-55 -24.5 -117 -24.5 q-62 0 -117 24 q-55 24 -96 65 q-41 41 -65 96 q-24 55 -24 117 q0 138 114 236 ZM385 1089 q-32 0 -53 21 q-21 21 -21 53 q0 29 21 51 q21 22 53 22 q22 0 41.5 8.5 q19.5 8.5 34.5 23.5 q15 15 23.5 34.5 q8.5 19.5 8.5 41.5 q0 23 -9.5 42.5 q-9.5 19.5 -24.5 34 q-15 14.5 -34.5 23 q-19.5 8.5 -39.5 8.5 q-22 0 -41.5 -8.5 q-19.5 -8.5 -34.5 -23.5 q-15 -15 -23.5 -34.5 q-8.5 -19.5 -8.5 -41.5 q0 -15 -6 -28.5 q-6 -13.5 -16.5 -23.5 q-10.5 -10 -23.5 -16 q-13 -6 -28 -6 q-31 0 -52.5 21.5 q-21.5 21.5 -21.5 52.5 q0 52 20.5 98.5 q20.5 46.5 55 81.5 q34.5 35 81 55.5 q46.5 20.5 99.5 20.5 q53 0 99.5 -20.5 q46.5 -20.5 81 -56 q34.5 -35.5 54.5 -82 q20 -46.5 20 -97.5 q0 -99 -67 -172 q27 -28 48.5 -54.5 q21.5 -26.5 35.5 -55 q14 -28.5 21.5 -60 q7.5 -31.5 7.5 -67.5 q0 -61 -24 -115.5 q-24 -54.5 -65.5 -96 q-41.5 -41.5 -96 -65.5 q-54.5 -24 -115.5 -24 q-62 0 -116.5 24 q-54.5 24 -95.5 65 q-41 41 -65 95.5 q-24 54.5 -24 116.5 q0 32 21 53 q21 21 53 21 q32 0 53 -21 q21 -21 21 -53 q0 -32 12 -60 q12 -28 32.5 -48.5 q20.5 -20.5 48.5 -32 q28 -11.5 60 -11.5 q31 0 58.5 12 q27.5 12 48.5 33 q21 21 33 48.5 q12 27.5 12 58.5 q0 33 -12 61 q-12 28 -33 48.5 q-21 20.5 -48.5 32.5 q-27.5 12 -58.5 12 Z" /><glyph glyph-name="fiveeighths" unicode="&#x215d;" d="M615 1599 q32 0 53 -21.5 q21 -21.5 21 -52.5 q0 -32 -21 -53 q-21 -21 -53 -21 l-334 0 l0 -170 l130 0 q66 0 125 -25.5 q59 -25.5 103 -70 q44 -44.5 69.5 -103.5 q25.5 -59 25.5 -125 q0 -66 -25.5 -125 q-25.5 -59 -69.5 -103.5 q-44 -44.5 -103 -70 q-59 -25.5 -125 -25.5 q-66 0 -125 25.5 q-59 25.5 -103.5 69.5 q-44.5 44 -70 103 q-25.5 59 -25.5 126 q0 32 21 53 q21 21 53 21 q32 0 53 -21 q21 -21 21 -53 q0 -37 14 -69 q14 -32 38 -55.5 q24 -23.5 56 -37 q32 -13.5 68 -13.5 q36 0 68 13.5 q32 13.5 56 37.5 q24 24 37.5 56 q13.5 32 13.5 68 q0 36 -14 68 q-14 32 -37.5 56 q-23.5 24 -55.5 38 q-32 14 -68 14 l-204 0 q-32 0 -53 21 q-21 21 -21 53 l0 318 q0 31 21 52.5 q21 21.5 53 21.5 l408 0 ZM1415 1600 q22 0 41 -8.5 q19 -8.5 33 -22.5 q14 -14 22.5 -33 q8.5 -19 8.5 -41 q0 -30 -16 -57 l-926 -1387 q-36 -51 -90 -51 q-22 0 -41 8 q-19 8 -33 22.5 q-14 14.5 -22 33.5 q-8 19 -8 40 q0 34 15 56 l932 1398 q28 42 84 42 ZM1459 820 q-45 0 -77 -32 l0 1 q-32 -32 -32 -77 q0 -23 9 -42.5 q9 -19.5 24 -34 q15 -14.5 35 -23 q20 -8.5 41 -8.5 q23 0 43 9 q20 9 34.5 24 q14.5 15 22.5 34.5 q8 19.5 8 40.5 q0 22 -8.5 41.5 q-8.5 19.5 -23.5 34.5 q-15 15 -34.5 23.5 q-19.5 8.5 -41.5 8.5 ZM1459 456 q-32 0 -60 -12 q-28 -12 -49 -33 q-21 -21 -33 -49 q-12 -28 -12 -60 q0 -32 12 -60 q12 -28 32.5 -49 q20.5 -21 48.5 -33 q28 -12 61 -12 q32 0 60 12 q28 12 48.5 33 q20.5 21 32.5 49 q12 28 12 60 q0 33 -12.5 61.5 q-12.5 28.5 -34 49 q-21.5 20.5 -49 32 q-27.5 11.5 -57.5 11.5 ZM1271 538 q-35 38 -52 80.5 q-17 42.5 -17 93.5 q0 53 20.5 99.5 q20.5 46.5 55.5 81.5 q35 35 81.5 55 q46.5 20 99.5 20 q52 0 99 -20.5 q47 -20.5 81.5 -55 q34.5 -34.5 55 -81.5 q20.5 -47 20.5 -99 q0 -51 -17 -93.5 q-17 -42.5 -51 -80.5 q57 -50 85.5 -106.5 q28.5 -56.5 28.5 -129.5 q0 -61 -24 -116 q-24 -55 -65 -96 q-41 -41 -96 -65.5 q-55 -24.5 -117 -24.5 q-62 0 -117 24 q-55 24 -96 65 q-41 41 -65 96 q-24 55 -24 117 q0 138 114 236 Z" /><glyph glyph-name="seveneighths" unicode="&#x215e;" d="M223 673 q-25 -40 -65 -40 q-32 0 -53 21.5 q-21 21.5 -21 52.5 q0 19 14 43 l388 701 l-328 0 q-32 0 -53 21 q-21 21 -21 53 q0 31 21 52.5 q21 21.5 53 21.5 l454 0 q31 0 52.5 -21.5 q21.5 -21.5 21.5 -52.5 q0 -19 -12 -40 l-451 -812 ZM1189 1600 q22 0 41 -8.5 q19 -8.5 33 -22.5 q14 -14 22.5 -33 q8.5 -19 8.5 -41 q0 -30 -16 -57 l-926 -1387 q-36 -51 -90 -51 q-22 0 -41 8 q-19 8 -33 22.5 q-14 14.5 -22 33.5 q-8 19 -8 40 q0 34 15 56 l932 1398 q28 42 84 42 ZM1216 820 q-45 0 -77 -32 l0 1 q-32 -32 -32 -77 q0 -23 9 -42.5 q9 -19.5 24 -34 q15 -14.5 35 -23 q20 -8.5 41 -8.5 q23 0 43 9 q20 9 34.5 24 q14.5 15 22.5 34.5 q8 19.5 8 40.5 q0 22 -8.5 41.5 q-8.5 19.5 -23.5 34.5 q-15 15 -34.5 23.5 q-19.5 8.5 -41.5 8.5 ZM1216 456 q-32 0 -60 -12 q-28 -12 -49 -33 q-21 -21 -33 -49 q-12 -28 -12 -60 q0 -32 12 -60 q12 -28 32.5 -49 q20.5 -21 48.5 -33 q28 -12 61 -12 q32 0 60 12 q28 12 48.5 33 q20.5 21 32.5 49 q12 28 12 60 q0 33 -12.5 61.5 q-12.5 28.5 -34 49 q-21.5 20.5 -49 32 q-27.5 11.5 -57.5 11.5 ZM1028 538 q-35 38 -52 80.5 q-17 42.5 -17 93.5 q0 53 20.5 99.5 q20.5 46.5 55.5 81.5 q35 35 81.5 55 q46.5 20 99.5 20 q52 0 99 -20.5 q47 -20.5 81.5 -55 q34.5 -34.5 55 -81.5 q20.5 -47 20.5 -99 q0 -51 -17 -93.5 q-17 -42.5 -51 -80.5 q57 -50 85.5 -106.5 q28.5 -56.5 28.5 -129.5 q0 -61 -24 -116 q-24 -55 -65 -96 q-41 -41 -96 -65.5 q-55 -24.5 -117 -24.5 q-62 0 -117 24 q-55 24 -96 65 q-41 41 -65 96 q-24 55 -24 117 q0 138 114 236 Z" /><glyph glyph-name="arrowleft" unicode="&#x2190;" d="M1730 662 q46 0 76 -30 q30 -30 30 -75 q0 -46 -30 -76 q-30 -30 -76 -30 l-1287 0 l128 -128 q30 -33 30 -75 q0 -46 -30 -76 q-30 -30 -75 -30 q-43 0 -74 30 l-312 312 q-29 30 -29 73 q0 42 29 72 l312 312 q31 30 74 30 q45 0 75 -30 q30 -30 30 -76 q-1 -43 -30 -75 l-128 -128 l1287 0 Z" /><glyph glyph-name="arrowup" unicode="&#x2191;" d="M590 -215 q0 -46 -30 -76 q-30 -30 -75 -30 q-46 0 -76 30 q-30 30 -30 76 l0 1287 l-128 -128 q-33 -30 -75 -30 q-46 0 -76 30 q-30 30 -30 75 q0 43 30 73 l312 312 q30 30 73 30 q42 0 72 -30 l312 -312 q30 -30 30 -73 q0 -45 -30 -75 q-30 -30 -76 -30 q-43 1 -75 30 l-128 128 l0 -1287 Z" /><glyph glyph-name="arrowright" unicode="&#x2192;" d="M1474 662 l-128 128 q-30 32 -31 75 q0 46 30 76 q30 30 76 30 q43 0 73 -30 l312 -312 q30 -30 30 -72 q0 -43 -30 -73 l-312 -312 q-30 -30 -73 -30 q-46 0 -76 30 q-30 30 -30 76 q0 42 31 75 l128 128 l-1287 0 q-46 0 -76 30 q-30 30 -30 76 q0 45 30 75 q30 30 76 30 l1287 0 Z" /><glyph glyph-name="arrowdown" unicode="&#x2193;" d="M590 41 l128 128 q32 29 75 30 q46 0 76 -30 q30 -30 30 -75 q0 -43 -30 -73 l-312 -312 q-30 -30 -72 -30 q-43 0 -73 30 l-312 312 q-30 30 -30 73 q0 45 30 75 q30 30 76 30 q42 0 75 -30 l128 -128 l0 1287 q0 46 30 76 q30 30 76 30 q45 0 75 -30 q30 -30 30 -76 l0 -1287 Z" /><glyph glyph-name="arrowboth" unicode="&#x2194;" d="M1478 662 l-128 128 q-30 32 -31 75 q0 46 30 76 q30 30 76 30 q43 0 73 -30 l312 -312 q30 -30 30 -72 q0 -43 -30 -73 l-312 -312 q-30 -30 -73 -30 q-46 0 -76 30 q-30 30 -30 76 q0 42 31 75 l128 128 l-1037 0 l128 -128 q31 -33 31 -75 q0 -46 -30 -76 q-30 -30 -76 -30 q-43 0 -73 30 l-312 312 q-29 30 -29 73 q0 42 29 72 l312 312 q30 30 73 30 q46 0 76 -30 q30 -30 30 -76 q-1 -43 -31 -75 l-128 -128 l1037 0 Z" /><glyph glyph-name="arrowupdn" unicode="&#x2195;" d="M589 39 l128 128 q32 30 75 31 q46 0 76 -30 q30 -30 30 -76 q0 -43 -30 -73 l-312 -312 q-30 -30 -72 -30 q-43 0 -73 30 l-312 312 q-30 30 -30 73 q0 46 30 76 q30 30 76 30 q42 0 75 -31 l128 -128 l0 1037 l-128 -128 q-33 -31 -75 -31 q-46 0 -76 30 q-30 30 -30 76 q0 43 30 73 l312 312 q30 29 73 29 q42 0 72 -29 l312 -312 q30 -30 30 -73 q0 -46 -30 -76 q-30 -30 -76 -30 q-43 1 -75 31 l-128 128 l0 -1037 Z" /><glyph glyph-name="arrowupdnbse" unicode="&#x21a8;" d="M174 -320 q-45 0 -74.5 30 q-29.5 30 -29.5 75 q0 45 29.5 74.5 q29.5 29.5 74.5 29.5 l608 0 q21 0 40 -8 q19 -8 33.5 -22 q14.5 -14 22.5 -33 q8 -19 8 -41 q0 -22 -8 -41 q-8 -19 -22.5 -33.5 q-14.5 -14.5 -33.5 -22.5 q-19 -8 -40 -8 l-608 0 ZM589 313 l128 128 q32 30 75 31 q46 0 76 -30 q30 -30 30 -76 q0 -43 -30 -73 l-312 -312 q-30 -30 -72 -30 q-43 0 -73 30 l-312 312 q-30 30 -30 73 q0 46 30 76 q30 30 76 30 q42 0 75 -31 l128 -128 l0 763 l-128 -128 q-33 -31 -75 -31 q-46 0 -76 30 q-30 30 -30 76 q0 43 30 73 l312 312 q30 29 73 29 q42 0 72 -29 l312 -312 q30 -30 30 -73 q0 -46 -30 -76 q-30 -30 -76 -30 q-43 1 -75 31 l-128 128 l0 -763 Z" /><glyph glyph-name="orthogonal" unicode="&#x221f;" d="M186 0 q-22 0 -41 8 q-19 8 -33 22.5 q-14 14.5 -22 33.5 q-8 19 -8 40 l0 1063 q0 44 29.5 74.5 q29.5 30.5 74.5 30.5 q22 0 41 -8.5 q19 -8.5 33 -22.5 q14 -14 22.5 -33 q8.5 -19 8.5 -41 l0 -958 l958 0 q22 0 41 -8.5 q19 -8.5 33 -22.5 q14 -14 22.5 -33 q8.5 -19 8.5 -41 q0 -21 -8.5 -40 q-8.5 -19 -22.5 -33.5 q-14 -14.5 -33 -22.5 q-19 -8 -41 -8 l-1063 0 Z" /><glyph glyph-name="notequal" unicode="&#x2260;" d="M452 835 l-271 0 q-45 0 -74.5 30 q-29.5 30 -29.5 75 q0 45 29.5 74.5 q29.5 29.5 74.5 29.5 l335 0 l95 299 q12 38 37.5 59.5 q25.5 21.5 64.5 21.5 q45 0 74.5 -30.5 q29.5 -30.5 29.5 -74.5 q0 -13 -7 -36 l-74 -239 l128 0 q44 0 74.5 -29.5 q30.5 -29.5 30.5 -74.5 q0 -22 -8.5 -41 q-8.5 -19 -22.5 -33.5 q-14 -14.5 -33 -22.5 q-19 -8 -41 -8 l-192 0 l-79 -247 l271 0 q44 0 74.5 -29.5 q30.5 -29.5 30.5 -74.5 q0 -22 -8.5 -41 q-8.5 -19 -22.5 -33.5 q-14 -14.5 -33.5 -22.5 q-19.5 -8 -40.5 -8 l-336 0 l-91 -295 q-6 -20 -15.5 -35 q-9.5 -15 -23.5 -26 q-14 -11 -30.5 -17 q-16.5 -6 -34.5 -6 q-22 0 -41 8 q-19 8 -33 22.5 q-14 14.5 -22 33.5 q-8 19 -8 40 q0 22 6 39 l73 236 l-128 0 q-21 0 -40 8 q-19 8 -33 22.5 q-14 14.5 -22 33.5 q-8 19 -8 41 q0 45 29.5 74.5 q29.5 29.5 74.5 29.5 l193 0 l78 247 Z" /><glyph glyph-name="equivalence" unicode="&#x2261;" d="M181 987 q-45 0 -74.5 30 q-29.5 30 -29.5 75 q0 21 8 40 q8 19 22 33.5 q14 14.5 33 22.5 q19 8 41 8 l683 0 q22 0 41 -8 q19 -8 33 -22.5 q14 -14.5 22.5 -33.5 q8.5 -19 8.5 -40 q0 -22 -8.5 -41 q-8.5 -19 -22.5 -33.5 q-14 -14.5 -33 -22.5 q-19 -8 -41 -8 l-683 0 ZM181 607 q-45 0 -74.5 30 q-29.5 30 -29.5 75 q0 45 29.5 74.5 q29.5 29.5 74.5 29.5 l683 0 q44 0 74.5 -29.5 q30.5 -29.5 30.5 -74.5 q0 -22 -8.5 -41 q-8.5 -19 -22.5 -33.5 q-14 -14.5 -33 -22.5 q-19 -8 -41 -8 l-683 0 ZM181 227 q-45 0 -74.5 29.5 q-29.5 29.5 -29.5 74.5 q0 44 29.5 74.5 q29.5 30.5 74.5 30.5 l683 0 q22 0 41 -8.5 q19 -8.5 33 -22.5 q14 -14 22.5 -33 q8.5 -19 8.5 -41 q0 -45 -30.5 -74.5 q-30.5 -29.5 -74.5 -29.5 l-683 0 Z" /><glyph glyph-name="afii10051" unicode="&#x402;" d="M580 1388 l-395 0 q-23 0 -42 8 q-19 8 -33.5 22.5 q-14.5 14.5 -22.5 33.5 q-8 19 -8 42 q0 22 8 41.5 q8 19.5 22.5 34 q14.5 14.5 33.5 22.5 q19 8 42 8 l1002 0 q22 0 41.5 -8 q19.5 -8 34 -22.5 q14.5 -14.5 22.5 -34 q8 -19.5 8 -41.5 q0 -23 -8 -42 q-8 -19 -22.5 -33.5 q-14.5 -14.5 -34 -22.5 q-19.5 -8 -41.5 -8 l-395 0 l0 -492 q121 87 280 87 q102 0 191 -39 q89 -39 156 -106 q67 -67 105.5 -156.5 q38.5 -89.5 38.5 -189.5 q0 -101 -39 -190.5 q-39 -89.5 -105.5 -156.5 q-66.5 -67 -156 -106 q-89.5 -39 -190.5 -39 q-23 0 -42 8 q-19 8 -33.5 22.5 q-14.5 14.5 -22.5 33.5 q-8 19 -8 42 q0 22 8 41.5 q8 19.5 22.5 34 q14.5 14.5 33.5 22.5 q19 8 42 8 q58 0 109 22 q51 22 88.5 60 q37.5 38 59.5 89 q22 51 22 109 q0 57 -22 108 q-22 51 -60 89 q-38 38 -89 60 q-51 22 -108 22 q-59 0 -110 -22 q-51 -22 -89 -60 q-38 -38 -59.5 -88.5 q-21.5 -50.5 -21.5 -107.5 l0 -387 q0 -23 -8 -42 q-8 -19 -22.5 -33.5 q-14.5 -14.5 -34 -22.5 q-19.5 -8 -41.5 -8 q-23 0 -42 8 q-19 8 -33.5 22.5 q-14.5 14.5 -22.5 33.5 q-8 19 -8 42 l0 1282 Z" /><glyph glyph-name="afii10053" unicode="&#x404;" d="M298 694 q18 -103 72 -191.5 q54 -88.5 132 -153 q78 -64.5 174.5 -101 q96.5 -36.5 201.5 -36.5 q209 0 368 129 q27 19 62 19 q22 0 41 -8.5 q19 -8.5 33.5 -22.5 q14.5 -14 23 -33.5 q8.5 -19.5 8.5 -41.5 q0 -47 -33 -76 q-223 -178 -503 -178 q-332 0 -566 234 q-234 234 -234 566 q0 331 234 565 q235 235 566 235 q284 0 513 -187 q28 -26 28 -73 q0 -23 -8 -42 q-8 -19 -22.5 -33.5 q-14.5 -14.5 -34 -22.5 q-19.5 -8 -41.5 -8 q-37 0 -73 30 q-76 60 -167.5 92 q-91.5 32 -194.5 32 q-105 0 -202 -36.5 q-97 -36.5 -175 -101 q-78 -64.5 -131.5 -152.5 q-53.5 -88 -71.5 -192 l657 0 q45 0 75.5 -30.5 q30.5 -30.5 30.5 -75.5 q0 -23 -8 -42 q-8 -19 -22.5 -33.5 q-14.5 -14.5 -34 -22.5 q-19.5 -8 -41.5 -8 l-657 0 Z" /><glyph glyph-name="afii10058" unicode="&#x409;" d="M1154 694 l188 -482 l196 0 q50 0 94 19 q44 19 76.5 51.5 q32.5 32.5 51.5 76.5 q19 44 19 94 q0 50 -19 94 q-19 44 -51.5 76.5 q-32.5 32.5 -76.5 51.5 q-44 19 -94 19 l-384 0 ZM1269 0 q-32 0 -57 15 q-25 15 -42 50 l-441 1136 l-443 -1136 q-12 -31 -39.5 -48 q-27.5 -17 -57.5 -17 q-23 0 -42 8 q-19 8 -33.5 22.5 q-14.5 14.5 -22.5 33.5 q-8 19 -8 42 q0 22 9 43 l536 1377 q10 34 39.5 54 q29.5 20 61.5 20 q39 0 63.5 -20 q24.5 -20 37.5 -54 l242 -620 l466 0 q93 0 175.5 -36 q82.5 -36 144 -98 q61.5 -62 97.5 -144 q36 -82 36 -175 q0 -93 -36 -175 q-36 -82 -97.5 -144 q-61.5 -62 -144 -98 q-82.5 -36 -175.5 -36 l-269 0 Z" /><glyph glyph-name="afii10059" unicode="&#x40a;" d="M1383 212 q49 0 93 19 q44 19 77 51.5 q33 32.5 52 76.5 q19 44 19 94 q0 49 -19 93 q-19 44 -52 77 q-33 33 -77 52 q-44 19 -93 19 l-318 0 l0 -482 l318 0 ZM1383 906 q93 0 175.5 -36.5 q82.5 -36.5 144 -98.5 q61.5 -62 97.5 -144.5 q36 -82.5 36 -173.5 q0 -92 -36 -174 q-36 -82 -97.5 -144 q-61.5 -62 -144 -98.5 q-82.5 -36.5 -175.5 -36.5 l-424 0 q-23 0 -42 8 q-19 8 -33.5 22.5 q-14.5 14.5 -22.5 33.5 q-8 19 -8 42 l0 588 l-559 0 l0 -588 q0 -22 -8.5 -41.5 q-8.5 -19.5 -23 -33.5 q-14.5 -14 -33.5 -22.5 q-19 -8.5 -41 -8.5 q-23 0 -42 8 q-19 8 -33.5 22.5 q-14.5 14.5 -22.5 33.5 q-8 19 -8 42 l0 1388 q0 22 8 41.5 q8 19.5 22.5 34 q14.5 14.5 33.5 22.5 q19 8 42 8 q22 0 41 -8.5 q19 -8.5 33.5 -22.5 q14.5 -14 23 -33.5 q8.5 -19.5 8.5 -41.5 l0 -588 l559 0 l0 588 q0 22 8 41.5 q8 19.5 22.5 34 q14.5 14.5 33.5 22.5 q19 8 42 8 q22 0 41 -8.5 q19 -8.5 33.5 -22.5 q14.5 -14 23 -33.5 q8.5 -19.5 8.5 -41.5 l0 -588 l318 0 Z" /><glyph glyph-name="afii10060" unicode="&#x40b;" d="M1351 492 q0 57 -22 108 q-22 51 -60 89 q-38 38 -89 60 q-51 22 -108 22 q-59 0 -110 -22 q-51 -22 -89 -60 q-38 -38 -59.5 -88.5 q-21.5 -50.5 -21.5 -107.5 l0 -387 q0 -23 -8 -42 q-8 -19 -22.5 -33.5 q-14.5 -14.5 -34 -22.5 q-19.5 -8 -41.5 -8 q-23 0 -42 8 q-19 8 -33.5 22.5 q-14.5 14.5 -22.5 33.5 q-8 19 -8 42 l0 1282 l-395 0 q-23 0 -42 8 q-19 8 -33.5 22.5 q-14.5 14.5 -22.5 33.5 q-8 19 -8 42 q0 22 8 41.5 q8 19.5 22.5 34 q14.5 14.5 33.5 22.5 q19 8 42 8 l1002 0 q22 0 41.5 -8 q19.5 -8 34 -22.5 q14.5 -14.5 22.5 -34 q8 -19.5 8 -41.5 q0 -23 -8 -42 q-8 -19 -22.5 -33.5 q-14.5 -14.5 -34 -22.5 q-19.5 -8 -41.5 -8 l-395 0 l0 -492 q121 87 280 87 q102 0 191 -39 q89 -39 156 -106 q67 -67 105.5 -156.5 q38.5 -89.5 38.5 -189.5 l0 -386 q0 -23 -8 -42 q-8 -19 -22.5 -33.5 q-14.5 -14.5 -34 -22.5 q-19.5 -8 -41.5 -8 q-22 0 -41 8.5 q-19 8.5 -33.5 22.5 q-14.5 14 -23 33.5 q-8.5 19.5 -8.5 41.5 l0 386 Z" /><glyph glyph-name="afii10061" unicode="&#x40c;" d="M75 1494 q0 22 8 41.5 q8 19.5 22.5 34 q14.5 14.5 33.5 22.5 q19 8 42 8 q22 0 41.5 -8 q19.5 -8 34 -22.5 q14.5 -14.5 22.5 -34 q8 -19.5 8 -41.5 l0 -592 l665 665 q33 33 77 33 q22 0 41.5 -8 q19.5 -8 34 -22.5 q14.5 -14.5 22.5 -34 q8 -19.5 8 -41.5 q0 -44 -31 -75 l-524 -525 q135 -183 267.5 -362.5 q132.5 -179.5 267.5 -362.5 q20 -28 20 -60 q0 -21 -8 -41 q-8 -20 -22 -35 q-14 -15 -33 -24 q-19 -9 -41 -9 q-59 0 -89 45 l1 -1 q-67 90 -131 176.5 q-64 86.5 -127.5 172.5 q-63.5 86 -127 172.5 q-63.5 86.5 -129.5 176.5 l-141 -141 l0 -495 q0 -23 -8 -42 q-8 -19 -22.5 -33.5 q-14.5 -14.5 -34 -22.5 q-19.5 -8 -41.5 -8 q-23 0 -42 8 q-19 8 -33.5 22.5 q-14.5 14.5 -22.5 33.5 q-8 19 -8 42 l0 1388 ZM568 1647 q-31 -28 -73 -28 q-22 0 -41.5 8.5 q-19.5 8.5 -33.5 23 q-14 14.5 -22.5 33.5 q-8.5 19 -8.5 41 q0 39 27 72 l235 235 q34 31 76 31 q22 0 41 -8.5 q19 -8.5 33.5 -23 q14.5 -14.5 23 -33.5 q8.5 -19 8.5 -41 q0 -41 -30 -75 l-235 -235 Z" /><glyph glyph-name="afii10145" unicode="&#x40f;" d="M750 -202 q0 -23 -8 -42 q-8 -19 -22.5 -33.5 q-14.5 -14.5 -34 -22.5 q-19.5 -8 -41.5 -8 q-22 0 -41 8.5 q-19 8.5 -33.5 22.5 q-14.5 14 -23 33.5 q-8.5 19.5 -8.5 41.5 l0 202 l-356 0 q-23 0 -42 8 q-19 8 -33.5 22.5 q-14.5 14.5 -22.5 33.5 q-8 19 -8 42 l0 1388 q0 22 8 41.5 q8 19.5 22.5 34 q14.5 14.5 33.5 22.5 q19 8 42 8 q22 0 41.5 -8 q19.5 -8 34 -22.5 q14.5 -14.5 22.5 -34 q8 -19.5 8 -41.5 l0 -1282 l713 0 l0 1282 q0 22 8 41.5 q8 19.5 22.5 34 q14.5 14.5 33.5 22.5 q19 8 42 8 q22 0 41.5 -8 q19.5 -8 34 -22.5 q14.5 -14.5 22.5 -34 q8 -19.5 8 -41.5 l0 -1388 q0 -23 -8 -42 q-8 -19 -22.5 -33.5 q-14.5 -14.5 -34 -22.5 q-19.5 -8 -41.5 -8 l-357 0 l0 -202 Z" /><glyph glyph-name="afii10018" unicode="&#x411;" d="M566 212 q58 0 109 22 q51 22 88.5 60 q37.5 38 59.5 89 q22 51 22 109 q0 57 -22 108 q-22 51 -60 89 q-38 38 -89 60 q-51 22 -108 22 l-280 0 l0 -559 l280 0 ZM566 983 q102 0 191 -39 q89 -39 156 -106 q67 -67 105.5 -156.5 q38.5 -89.5 38.5 -189.5 q0 -101 -39 -190.5 q-39 -89.5 -105.5 -156.5 q-66.5 -67 -156 -106 q-89.5 -39 -190.5 -39 l-386 0 q-22 0 -41 8.5 q-19 8.5 -33.5 22.5 q-14.5 14 -23 33.5 q-8.5 19.5 -8.5 41.5 l0 1388 q0 22 8.5 41.5 q8.5 19.5 23 33.5 q14.5 14 33.5 22.5 q19 8.5 41 8.5 l617 0 q22 0 41.5 -8 q19.5 -8 34 -22.5 q14.5 -14.5 22.5 -34 q8 -19.5 8 -41.5 q0 -23 -8 -42 q-8 -19 -22.5 -33.5 q-14.5 -14.5 -34 -22.5 q-19.5 -8 -41.5 -8 l-511 0 l0 -405 l280 0 Z" /><glyph glyph-name="afii10020" unicode="&#x413;" d="M76 1494 q0 22 8 41.5 q8 19.5 22.5 34 q14.5 14.5 33.5 22.5 q19 8 42 8 l847 0 q22 0 41.5 -8 q19.5 -8 34 -22.5 q14.5 -14.5 22.5 -34 q8 -19.5 8 -41.5 q0 -23 -8 -42 q-8 -19 -22.5 -33.5 q-14.5 -14.5 -34 -22.5 q-19.5 -8 -41.5 -8 l-742 0 l0 -1283 q0 -21 -8.5 -40 q-8.5 -19 -23 -33.5 q-14.5 -14.5 -34 -23 q-19.5 -8.5 -40.5 -8.5 q-50 0 -78.5 33.5 q-28.5 33.5 -28.5 81.5 q0 1 2 7 l0 1372 Z" /><glyph glyph-name="afii10021" unicode="&#x414;" d="M417 212 l769 0 l-384 988 l-385 -988 ZM1524 106 l0 -308 q0 -23 -8 -42 q-8 -19 -22.5 -33.5 q-14.5 -14.5 -34 -22.5 q-19.5 -8 -41.5 -8 q-22 0 -41 8.5 q-19 8.5 -33.5 22.5 q-14.5 14 -23 33.5 q-8.5 19.5 -8.5 41.5 l0 202 l-1021 0 l0 -202 q0 -22 -8.5 -41.5 q-8.5 -19.5 -23 -33.5 q-14.5 -14 -33.5 -22.5 q-19 -8.5 -41 -8.5 q-23 0 -42 8 q-19 8 -33.5 22.5 q-14.5 14.5 -22.5 33.5 q-8 19 -8 42 l0 308 q0 22 8 41.5 q8 19.5 22.5 34 q14.5 14.5 33.5 22.5 q19 8 46 8 l511 1314 q16 39 43 56.5 q27 17.5 59 17.5 q42 0 66 -22.5 q24 -22.5 35 -51.5 l512 -1314 q25 0 44.5 -8 q19.5 -8 34 -22.5 q14.5 -14.5 22.5 -34 q8 -19.5 8 -41.5 Z" /><glyph glyph-name="afii10024" unicode="&#x416;" d="M1143 902 l665 665 q33 33 77 33 q22 0 41.5 -8 q19.5 -8 34 -22.5 q14.5 -14.5 22.5 -34 q8 -19.5 8 -41.5 q-1 -44 -30 -75 l-525 -525 l535 -725 q20 -32 20 -68 q0 -42 -31 -71.5 q-31 -29.5 -78 -29.5 q-51 0 -83 43 l-515 699 l-141 -141 l0 -495 q0 -23 -8 -42 q-8 -19 -22.5 -33.5 q-14.5 -14.5 -34 -22.5 q-19.5 -8 -41.5 -8 q-23 0 -42 8 q-19 8 -33.5 22.5 q-14.5 14.5 -22.5 33.5 q-8 19 -8 42 l0 495 l-141 142 l-514 -700 q-32 -43 -84 -43 q-37 0 -67 21 q-41 28 -42 80 q0 38 20 68 l535 725 l-525 525 q-30 30 -30 75 q0 22 8 41.5 q8 19.5 22.5 34 q14.5 14.5 33.5 22.5 q19 8 42 8 q44 0 77 -33 l665 -665 l0 592 q0 22 8 41.5 q8 19.5 22.5 34 q14.5 14.5 33.5 22.5 q19 8 42 8 q22 0 41.5 -8 q19.5 -8 34 -22.5 q14.5 -14.5 22.5 -34 q8 -19.5 8 -41.5 l0 -592 Z" /><glyph glyph-name="afii10025" unicode="&#x417;" d="M546 733 q-23 0 -42 8 q-19 8 -33.5 22.5 q-14.5 14.5 -22.5 33.5 q-8 19 -8 42 q0 22 8.5 41 q8.5 19 22.5 33.5 q14 14.5 33.5 23 q19.5 8.5 41.5 8.5 q46 0 86.5 17.5 q40.5 17.5 70.5 47.5 q30 30 47.5 70 q17.5 40 17.5 86 q0 46 -17.5 86.5 q-17.5 40.5 -47.5 70.5 q-30 30 -70.5 47.5 q-40.5 17.5 -86.5 17.5 q-46 0 -86 -17.5 q-40 -17.5 -70 -47.5 q-30 -30 -47.5 -70.5 q-17.5 -40.5 -17.5 -86.5 q0 -22 -8.5 -41.5 q-8.5 -19.5 -23 -33.5 q-14.5 -14 -33.5 -22.5 q-19 -8.5 -41 -8.5 q-23 0 -42 8 q-19 8 -33.5 22.5 q-14.5 14.5 -22.5 33.5 q-8 19 -8 42 q0 89 34.5 168 q34.5 79 93.5 138 q59 59 137.5 93.5 q78.5 34.5 167.5 34.5 q89 0 168 -34.5 q79 -34.5 138 -93.5 q59 -59 93.5 -138 q34.5 -79 34.5 -168 q0 -186 -142 -321 q46 -33 80 -76 q34 -43 56.5 -91 q22.5 -48 33.5 -100.5 q11 -52.5 11 -105.5 q0 -96 -37 -182 q-37 -86 -101.5 -150.5 q-64.5 -64.5 -150.5 -102 q-86 -37.5 -184 -37.5 q-98 0 -183.5 37 q-85.5 37 -150 101.5 q-64.5 64.5 -101.5 150 q-37 85.5 -37 183.5 q0 22 8 41.5 q8 19.5 22.5 34 q14.5 14.5 33.5 22.5 q19 8 42 8 q22 0 41.5 -8 q19.5 -8 34 -22.5 q14.5 -14.5 22.5 -34 q8 -19.5 8 -41.5 q0 -54 20.5 -101 q20.5 -47 56 -82.5 q35.5 -35.5 82.5 -56 q47 -20.5 101 -20.5 q54 0 101 20.5 q47 20.5 82.5 56 q35.5 35.5 56 82.5 q20.5 47 20.5 101 q0 54 -21 101.5 q-21 47.5 -56.5 83 q-35.5 35.5 -82.5 56 q-47 20.5 -100 20.5 Z" /><glyph glyph-name="afii10027" unicode="&#x419;" d="M1257 0 q-44 0 -75 31 q-31 31 -31 75 l0 1078 l-893 -1147 q-34 -37 -81 -37 q-22 0 -41.5 8 q-19.5 8 -34 22.5 q-14.5 14.5 -22.5 33.5 q-8 19 -8 42 l0 1388 q0 44 31 75 q31 31 75 31 q44 0 75 -31 q31 -31 31 -75 l0 -1080 l892 1147 q35 39 82 39 q23 0 42 -8 q19 -8 33.5 -22.5 q14.5 -14.5 22.5 -34 q8 -19.5 8 -41.5 l0 -1388 q0 -44 -31 -75 q-31 -31 -75 -31 ZM717 1719 q-69 0 -129.5 19.5 q-60.5 19.5 -105.5 54 q-45 34.5 -71.5 81.5 q-26.5 47 -26.5 101 q0 44 29.5 74.5 q29.5 30.5 74.5 30.5 q45 0 75 -30 q22 -23 27 -54 q3 -28 38 -47 q37 -21 89 -21 q52 0 89 21 q35 19 37 47 q6 31 28 54 q30 30 75 30 q45 0 74.5 -30.5 q29.5 -30.5 29.5 -74.5 q0 -54 -26.5 -101 q-26.5 -47 -71.5 -81.5 q-45 -34.5 -105.5 -54 q-60.5 -19.5 -129.5 -19.5 Z" /><glyph glyph-name="afii10033" unicode="&#x41f;" d="M1107 1600 q22 0 41.5 -8 q19.5 -8 34 -22.5 q14.5 -14.5 22.5 -34 q8 -19.5 8 -41.5 l0 -1388 q0 -23 -8 -42 q-8 -19 -22.5 -33.5 q-14.5 -14.5 -34 -22.5 q-19.5 -8 -41.5 -8 q-23 0 -42 8 q-19 8 -33.5 22.5 q-14.5 14.5 -22.5 33.5 q-8 19 -8 42 l0 1282 l-713 0 l0 -1282 q0 -23 -8 -42 q-8 -19 -22.5 -33.5 q-14.5 -14.5 -34 -22.5 q-19.5 -8 -41.5 -8 q-23 0 -42 8 q-19 8 -33.5 22.5 q-14.5 14.5 -22.5 33.5 q-8 19 -8 42 l0 1388 q0 22 8 41.5 q8 19.5 22.5 34 q14.5 14.5 33.5 22.5 q19 8 42 8 l925 0 Z" /><glyph glyph-name="afii10037" unicode="&#x423;" d="M723 715 l448 833 q28 52 92 52 q22 0 41.5 -8 q19.5 -8 34 -22.5 q14.5 -14.5 22.5 -34 q8 -19.5 8 -41.5 q0 -27 -15 -54 l-681 -1266 q-53 -88 -129 -131 q-76 -43 -168 -43 q-41 0 -84.5 10 q-43.5 10 -79 29.5 q-35.5 19.5 -58 47.5 q-22.5 28 -22.5 63 q0 22 8 41.5 q8 19.5 22.5 34 q14.5 14.5 33.5 22.5 q19 8 42 8 q19 0 35.5 -7 q16.5 -7 32.5 -15 q16 -8 33 -15 q17 -7 37 -7 q35 0 63.5 16.5 q28.5 16.5 48.5 51.5 l115 213 l-511 947 q-15 28 -15 54 q0 22 8 41.5 q8 19.5 22.5 34 q14.5 14.5 33.5 22.5 q19 8 42 8 q60 0 91 -52 l449 -833 Z" /><glyph glyph-name="afii10040" unicode="&#x426;" d="M183 0 q-23 0 -42 8 q-19 8 -33.5 22.5 q-14.5 14.5 -22.5 33.5 q-8 19 -8 42 l0 1388 q0 22 8 41.5 q8 19.5 22.5 34 q14.5 14.5 33.5 22.5 q19 8 42 8 q22 0 41.5 -8 q19.5 -8 34 -22.5 q14.5 -14.5 22.5 -34 q8 -19.5 8 -41.5 l0 -1282 l714 0 l0 1282 q0 22 8 41.5 q8 19.5 22.5 34 q14.5 14.5 33.5 22.5 q19 8 42 8 q22 0 41 -8.5 q19 -8.5 33.5 -22.5 q14.5 -14 23 -33.5 q8.5 -19.5 8.5 -41.5 l0 -1282 l48 0 q22 0 41.5 -8 q19.5 -8 34 -22.5 q14.5 -14.5 22.5 -34 q8 -19.5 8 -41.5 q0 -190 -76 -346 q-13 -31 -40.5 -49.5 q-27.5 -18.5 -59.5 -18.5 q-22 0 -41 8.5 q-19 8.5 -33.5 22.5 q-14.5 14 -23 33.5 q-8.5 19.5 -8.5 41.5 q0 26 13 50 q37 72 44 152 l-961 0 Z" /><glyph glyph-name="afii10041" unicode="&#x427;" d="M1213 106 q0 -23 -8 -42 q-8 -19 -22.5 -33.5 q-14.5 -14.5 -34 -22.5 q-19.5 -8 -41.5 -8 q-23 0 -42 8 q-19 8 -33.5 22.5 q-14.5 14.5 -22.5 33.5 q-8 19 -8 42 l0 559 q-150 -125 -357 -125 q-117 0 -220 45 q-103 45 -180.5 122.5 q-77.5 77.5 -122.5 180.5 q-45 103 -45 220 l0 386 q0 22 8 41.5 q8 19.5 22.5 34 q14.5 14.5 33.5 22.5 q19 8 42 8 q22 0 41.5 -8 q19.5 -8 34 -22.5 q14.5 -14.5 22.5 -34 q8 -19.5 8 -41.5 l0 -386 q0 -74 28 -138.5 q28 -64.5 76.5 -113 q48.5 -48.5 113 -76.5 q64.5 -28 138.5 -28 q73 0 138 28 q65 28 114 76 q49 48 77 113 q28 65 28 139 l0 386 q0 22 8 41.5 q8 19.5 22.5 34 q14.5 14.5 33.5 22.5 q19 8 42 8 q22 0 41.5 -8 q19.5 -8 34 -22.5 q14.5 -14.5 22.5 -34 q8 -19.5 8 -41.5 l0 -1388 Z" /><glyph glyph-name="afii10042" unicode="&#x428;" d="M79 1494 q0 22 8 41.5 q8 19.5 22.5 34 q14.5 14.5 33.5 22.5 q19 8 42 8 q22 0 41 -8.5 q19 -8.5 33.5 -22.5 q14.5 -14 23 -33.5 q8.5 -19.5 8.5 -41.5 l0 -1282 l405 0 l0 1282 q0 22 8 41.5 q8 19.5 22.5 34 q14.5 14.5 33.5 22.5 q19 8 42 8 q22 0 41 -8.5 q19 -8.5 33.5 -22.5 q14.5 -14 23 -33.5 q8.5 -19.5 8.5 -41.5 l0 -1282 l404 0 l0 1282 q0 22 8.5 41.5 q8.5 19.5 23 33.5 q14.5 14 33.5 22.5 q19 8.5 41 8.5 q22 0 41.5 -8 q19.5 -8 34 -22.5 q14.5 -14.5 22.5 -34 q8 -19.5 8 -41.5 l0 -1388 q0 -23 -8 -42 q-8 -19 -22.5 -33.5 q-14.5 -14.5 -34 -22.5 q-19.5 -8 -41.5 -8 l-1233 0 q-23 0 -42 8 q-19 8 -33.5 22.5 q-14.5 14.5 -22.5 33.5 q-8 19 -8 42 l0 1388 Z" /><glyph glyph-name="afii10043" unicode="&#x429;" d="M1455 0 l-1269 0 q-23 0 -42 8 q-19 8 -33.5 22.5 q-14.5 14.5 -22.5 33.5 q-8 19 -8 42 l0 1388 q0 22 8 41.5 q8 19.5 22.5 34 q14.5 14.5 33.5 22.5 q19 8 42 8 q22 0 41.5 -8 q19.5 -8 34 -22.5 q14.5 -14.5 22.5 -34 q8 -19.5 8 -41.5 l0 -1282 l405 0 l0 1282 q0 22 8 41.5 q8 19.5 22.5 34 q14.5 14.5 33.5 22.5 q19 8 42 8 q22 0 41.5 -8 q19.5 -8 34 -22.5 q14.5 -14.5 22.5 -34 q8 -19.5 8 -41.5 l0 -1282 l405 0 l0 1282 q0 22 8 41.5 q8 19.5 22.5 34 q14.5 14.5 33.5 22.5 q19 8 42 8 q22 0 41.5 -8 q19.5 -8 34 -22.5 q14.5 -14.5 22.5 -34 q8 -19.5 8 -41.5 l0 -1282 l48 0 q22 0 41.5 -8 q19.5 -8 34 -22.5 q14.5 -14.5 22.5 -34 q8 -19.5 8 -41.5 q0 -190 -76 -346 q-13 -31 -40.5 -49.5 q-27.5 -18.5 -59.5 -18.5 q-22 0 -41 8.5 q-19 8.5 -33.5 22.5 q-14.5 14 -23 33.5 q-8.5 19.5 -8.5 41.5 q0 26 13 50 q37 72 44 152 Z" /><glyph glyph-name="afii10044" unicode="&#x42a;" d="M837 212 q50 0 94 19 q44 19 76.5 51.5 q32.5 32.5 51.5 76.5 q19 44 19 94 q0 50 -19 94 q-19 44 -51.5 76.5 q-32.5 32.5 -76.5 51.5 q-44 19 -94 19 l-318 0 l0 -482 l318 0 ZM413 1600 q22 0 41.5 -8 q19.5 -8 34 -22.5 q14.5 -14.5 22.5 -34 q8 -19.5 8 -41.5 l0 -588 l318 0 q93 0 175.5 -36 q82.5 -36 144 -98 q61.5 -62 97.5 -144 q36 -82 36 -175 q0 -93 -36 -175 q-36 -82 -97.5 -144 q-61.5 -62 -144 -98 q-82.5 -36 -175.5 -36 l-424 0 q-23 0 -42 8 q-19 8 -33.5 22.5 q-14.5 14.5 -22.5 33.5 q-8 19 -8 42 l0 1282 l-202 0 q-23 0 -42 8 q-19 8 -33.5 22.5 q-14.5 14.5 -22.5 33.5 q-8 19 -8 42 q0 22 8 41.5 q8 19.5 22.5 34 q14.5 14.5 33.5 22.5 q19 8 42 8 l308 0 Z" /><glyph glyph-name="afii10045" unicode="&#x42b;" d="M607 212 q50 0 94 19 q44 19 76.5 51.5 q32.5 32.5 51.5 76.5 q19 44 19 94 q0 50 -19 94 q-19 44 -51.5 76.5 q-32.5 32.5 -76.5 51.5 q-44 19 -94 19 l-318 0 l0 -482 l318 0 ZM289 906 l318 0 q93 0 175.5 -36 q82.5 -36 144 -98 q61.5 -62 97.5 -144 q36 -82 36 -175 q0 -93 -36 -175 q-36 -82 -97.5 -144 q-61.5 -62 -144 -98 q-82.5 -36 -175.5 -36 l-424 0 q-23 0 -42 8 q-19 8 -33.5 22.5 q-14.5 14.5 -22.5 33.5 q-8 19 -8 42 l0 1388 q0 22 8 41.5 q8 19.5 22.5 34 q14.5 14.5 33.5 22.5 q19 8 42 8 q22 0 41.5 -8 q19.5 -8 34 -22.5 q14.5 -14.5 22.5 -34 q8 -19.5 8 -41.5 l0 -588 ZM1157 1494 q0 22 8 41.5 q8 19.5 22.5 34 q14.5 14.5 33.5 22.5 q19 8 42 8 q22 0 41.5 -8 q19.5 -8 34 -22.5 q14.5 -14.5 22.5 -34 q8 -19.5 8 -41.5 l0 -1388 q0 -23 -8 -42 q-8 -19 -22.5 -33.5 q-14.5 -14.5 -34 -22.5 q-19.5 -8 -41.5 -8 q-23 0 -42 8 q-19 8 -33.5 22.5 q-14.5 14.5 -22.5 33.5 q-8 19 -8 42 l0 1388 Z" /><glyph glyph-name="afii10046" unicode="&#x42c;" d="M604 212 q50 0 94 19 q44 19 76.5 51.5 q32.5 32.5 51.5 76.5 q19 44 19 94 q0 50 -19 94 q-19 44 -51.5 76.5 q-32.5 32.5 -76.5 51.5 q-44 19 -94 19 l-318 0 l0 -482 l318 0 ZM286 906 l318 0 q93 0 175.5 -36 q82.5 -36 144 -98 q61.5 -62 97.5 -144 q36 -82 36 -175 q0 -93 -36 -175 q-36 -82 -97.5 -144 q-61.5 -62 -144 -98 q-82.5 -36 -175.5 -36 l-424 0 q-22 0 -41 8.5 q-19 8.5 -33.5 22.5 q-14.5 14 -23 33.5 q-8.5 19.5 -8.5 41.5 l0 1388 q0 22 8.5 41.5 q8.5 19.5 23 33.5 q14.5 14 33.5 22.5 q19 8.5 41 8.5 q22 0 41.5 -8 q19.5 -8 34 -22.5 q14.5 -14.5 22.5 -34 q8 -19.5 8 -41.5 l0 -588 Z" /><glyph glyph-name="afii10048" unicode="&#x42e;" d="M1191 1388 q-243 0 -416 -173 q-172 -171 -172 -415 q0 -245 172 -416 q172 -172 416 -172 q244 0 416 172 q172 171 172 416 q0 244 -172 415 q-173 173 -416 173 ZM398 906 q31 262 229 460 q234 234 564 234 q330 0 565 -235 q118 -118 176.5 -257.5 q58.5 -139.5 58.5 -307.5 q0 -331 -235 -566 q-234 -234 -565 -234 q-330 0 -564 235 q-198 198 -229 459 l-103 0 l0 -588 q0 -23 -8 -42 q-8 -19 -22.5 -33.5 q-14.5 -14.5 -34 -22.5 q-19.5 -8 -41.5 -8 q-23 0 -42 8 q-19 8 -33.5 22.5 q-14.5 14.5 -22.5 33.5 q-8 19 -8 42 l0 1388 q0 22 8 41.5 q8 19.5 22.5 34 q14.5 14.5 33.5 22.5 q19 8 42 8 q22 0 41.5 -8 q19.5 -8 34 -22.5 q14.5 -14.5 22.5 -34 q8 -19.5 8 -41.5 l0 -588 l103 0 Z" /><glyph glyph-name="afii10066" unicode="&#x431;" d="M991 560 q0 72 -27.5 135.5 q-27.5 63.5 -75 111.5 q-47.5 48 -111.5 76 q-64 28 -137 28 q-74 0 -138 -28 q-64 -28 -111 -75.5 q-47 -47.5 -74.5 -111.5 q-27.5 -64 -27.5 -136 q0 -72 27.5 -136 q27.5 -64 74.5 -111.5 q47 -47.5 111 -75.5 q64 -28 138 -28 q73 0 137 28 q64 28 111.5 76 q47.5 48 75 111.5 q27.5 63.5 27.5 135.5 ZM391 1188 q-80 -80 -98 -188 q148 120 347 120 q230 0 396 -164 q82 -81 123 -180.5 q41 -99.5 41 -215.5 q0 -234 -164 -396 q-166 -164 -396 -164 q-232 0 -396 164 q-164 164 -164 396 l0 380 q0 115 44.5 216.5 q44.5 101.5 121 178 q76.5 76.5 178 121 q101.5 44.5 216.5 44.5 l43 0 q160 0 290 65 q22 11 46 11 q22 0 41 -8.5 q19 -8.5 33 -22.5 q14 -14 22.5 -33 q8.5 -19 8.5 -41 q0 -33 -21 -58.5 q-21 -25.5 -56.5 -45.5 q-35.5 -20 -81 -34.5 q-45.5 -14.5 -94.5 -23.5 q-49 -9 -97.5 -13.5 q-48.5 -4.5 -90.5 -4.5 l-43 0 q-147 0 -249 -103 Z" /><glyph glyph-name="afii10067" unicode="&#x432;" d="M561 664 q24 0 46.5 9.5 q22.5 9.5 39.5 26 q17 16.5 27 39 q10 22.5 10 49.5 q0 25 -10 47.5 q-10 22.5 -26.5 39 q-16.5 16.5 -39 26.5 q-22.5 10 -47.5 10 l-276 0 l0 -247 l276 0 ZM637 209 q25 0 47.5 9.5 q22.5 9.5 39 26.5 q16.5 17 26.5 39 q10 22 10 48 q0 26 -10 49 q-10 23 -27 39.5 q-17 16.5 -39.5 26 q-22.5 9.5 -46.5 9.5 l-352 0 l0 -247 l352 0 ZM561 1120 q68 0 128.5 -26.5 q60.5 -26.5 105.5 -71.5 q45 -45 71.5 -105.5 q26.5 -60.5 26.5 -128.5 q0 -107 -57 -188 q33 -30 58 -60 q25 -30 41.5 -62 q16.5 -32 25 -67.5 q8.5 -35.5 8.5 -78.5 q0 -68 -26 -128.5 q-26 -60.5 -71 -105.5 q-45 -45 -105.5 -71.5 q-60.5 -26.5 -129.5 -26.5 l-456 0 q-22 0 -41 8 q-19 8 -33 22.5 q-14 14.5 -22 33.5 q-8 19 -8 40 l0 912 q0 21 8 40 q8 19 22 33.5 q14 14.5 33 22.5 q19 8 41 8 l380 0 Z" /><glyph glyph-name="afii10068" unicode="&#x433;" d="M283 104 q0 -21 -8 -40 q-8 -19 -22 -33.5 q-14 -14.5 -33 -22.5 q-19 -8 -41 -8 q-22 0 -41 8 q-19 8 -33 22.5 q-14 14.5 -22 33.5 q-8 19 -8 40 l0 684 q0 69 26.5 129.5 q26.5 60.5 71.5 105.5 q45 45 105.5 71 q60.5 26 128.5 26 l304 0 q21 0 40 -8 q19 -8 33.5 -22.5 q14.5 -14.5 22.5 -33.5 q8 -19 8 -40 q0 -22 -8 -41 q-8 -19 -22.5 -33.5 q-14.5 -14.5 -33.5 -22.5 q-19 -8 -40 -8 l-304 0 q-27 0 -50 -10.5 q-23 -10.5 -39.5 -28 q-16.5 -17.5 -25.5 -39.5 q-9 -22 -9 -45 l0 -684 Z" /><glyph glyph-name="afii10072" unicode="&#x436;" d="M769 662 l0 354 q0 21 8 40 q8 19 22.5 33.5 q14.5 14.5 33.5 22.5 q19 8 41 8 q22 0 41 -8 q19 -8 33 -22.5 q14 -14.5 22 -33.5 q8 -19 8 -40 l0 -354 l510 432 q29 26 69 26 q22 0 41 -8 q19 -8 33 -22.5 q14 -14.5 22 -33.5 q8 -19 8 -40 q0 -45 -31 -74 l-447 -379 l448 -384 q30 -30 30 -75 q0 -21 -8 -40 q-8 -19 -22 -33.5 q-14 -14.5 -33 -22.5 q-19 -8 -41 -8 q-39 0 -68 25 l-468 400 l-43 -37 l0 -284 q0 -21 -8 -40 q-8 -19 -22 -33.5 q-14 -14.5 -33 -22.5 q-19 -8 -41 -8 q-22 0 -41 8 q-19 8 -33.5 22.5 q-14.5 14.5 -22.5 33.5 q-8 19 -8 40 l0 284 l-42 37 l-468 -400 q-29 -25 -69 -25 q-22 0 -41 8 q-19 8 -33 22.5 q-14 14.5 -22 33.5 q-8 19 -8 40 q0 47 30 75 l448 384 l-446 378 q-32 28 -32 75 q0 21 8 40 q8 19 22 33.5 q14 14.5 33 22.5 q19 8 41 8 q41 0 70 -26 l509 -432 Z" /><glyph glyph-name="afii10073" unicode="&#x437;" d="M282 294 q28 -34 46 -45 q59 -40 144 -40 q85 0 142 42 q57 42 57 90 q0 59 -57.5 105.5 q-57.5 46.5 -141.5 46.5 q-43 0 -73.5 30.5 q-30.5 30.5 -30.5 73.5 q0 44 30.5 74.5 q30.5 30.5 73.5 30.5 q87 0 143 29.5 q56 29.5 56 65.5 q0 46 -56.5 79.5 q-56.5 33.5 -142.5 33.5 q-85 0 -144 -39 q-24 -17 -42 -43 q-7 -9 -16 -18 q-31 -31 -74 -31 q-43 0 -73.5 30.5 q-30.5 30.5 -30.5 73.5 q0 31 16 56 q29 46 78 86 q119 94 286 94 q167 0 287.5 -91 q120.5 -91 120.5 -231 q0 -143 -107 -204 q107 -94 107 -252 q0 -139 -120 -240 q-120 -101 -288 -101 q-167 0 -286 95 q-44 35 -72 75 q-20 27 -20 62 q0 43 30.5 74 q30.5 31 73.5 31 q54 0 84 -43 Z" /><glyph glyph-name="afii10075" unicode="&#x439;" d="M1018 0 q-45 0 -74 30 q-29 30 -30 73 q-69 -54 -146 -78.5 q-77 -24.5 -167 -24.5 q-107 0 -202 41.5 q-95 41.5 -166 112.5 q-71 71 -112.5 166 q-41.5 95 -41.5 202 l0 494 q0 43 30.5 73.5 q30.5 30.5 74.5 30.5 q43 0 73.5 -30.5 q30.5 -30.5 30.5 -73.5 l0 -494 q0 -65 24.5 -122 q24.5 -57 67 -99.5 q42.5 -42.5 99.5 -67 q57 -24.5 122 -24.5 q64 0 121 24.5 q57 24.5 100 67.5 q43 43 67.5 99.5 q24.5 56.5 24.5 121.5 l0 494 q0 43 30.5 73.5 q30.5 30.5 74.5 30.5 q43 0 73.5 -30.5 q30.5 -30.5 30.5 -73.5 l0 -912 q0 -43 -30.5 -73.5 q-30.5 -30.5 -74.5 -30.5 ZM601 1239 q-69 0 -129.5 19.5 q-60.5 19.5 -105.5 54 q-45 34.5 -71.5 81.5 q-26.5 47 -26.5 101 q0 44 29.5 74.5 q29.5 30.5 74.5 30.5 q45 0 75 -30 q22 -23 27 -54 q3 -28 38 -47 q37 -21 89 -21 q52 0 89 21 q35 19 37 47 q6 31 28 54 q30 30 75 30 q45 0 74.5 -30.5 q29.5 -30.5 29.5 -74.5 q0 -54 -26.5 -101 q-26.5 -47 -71.5 -81.5 q-45 -34.5 -105.5 -54 q-60.5 -19.5 -129.5 -19.5 Z" /><glyph glyph-name="afii10076" unicode="&#x43a;" d="M77 1016 q0 21 8 40 q8 19 22 33.5 q14 14.5 33 22.5 q19 8 41 8 q22 0 41 -8 q19 -8 33 -22.5 q14 -14.5 22 -33.5 q8 -19 8 -40 l0 -354 l510 432 q29 26 69 26 q22 0 41 -8 q19 -8 33 -22.5 q14 -14.5 22.5 -33.5 q8.5 -19 8.5 -40 q0 -43 -31 -74 l-447 -379 l448 -384 q30 -30 30 -75 q0 -21 -8.5 -40 q-8.5 -19 -22.5 -33.5 q-14 -14.5 -33 -22.5 q-19 -8 -41 -8 q-39 0 -68 25 l-468 400 l-43 -37 l0 -284 q0 -21 -8 -40 q-8 -19 -22 -33.5 q-14 -14.5 -33 -22.5 q-19 -8 -41 -8 q-22 0 -41 8 q-19 8 -33 22.5 q-14 14.5 -22 33.5 q-8 19 -8 40 l0 912 Z" /><glyph glyph-name="afii10079" unicode="&#x43d;" d="M286 456 l0 -352 q0 -21 -8 -40 q-8 -19 -22.5 -33.5 q-14.5 -14.5 -33.5 -22.5 q-19 -8 -40 -8 q-22 0 -41 8 q-19 8 -33.5 22.5 q-14.5 14.5 -22.5 33.5 q-8 19 -8 40 l0 912 q0 21 8 40 q8 19 22.5 33.5 q14.5 14.5 33.5 22.5 q19 8 41 8 q21 0 40 -8 q19 -8 33.5 -22.5 q14.5 -14.5 22.5 -33.5 q8 -19 8 -40 l0 -352 l513 0 l0 352 q0 21 8 40 q8 19 22 33.5 q14 14.5 33 22.5 q19 8 41 8 q22 0 41 -8 q19 -8 33 -22.5 q14 -14.5 22 -33.5 q8 -19 8 -40 l0 -912 q0 -21 -8 -40 q-8 -19 -22 -33.5 q-14 -14.5 -33 -22.5 q-19 -8 -41 -8 q-22 0 -41 8 q-19 8 -33 22.5 q-14 14.5 -22 33.5 q-8 19 -8 40 l0 352 l-513 0 Z" /><glyph glyph-name="afii10086" unicode="&#x444;" d="M572 911 q-58 0 -108 -28 q-50 -28 -87 -75.5 q-37 -47.5 -58.5 -111.5 q-21.5 -64 -21.5 -136 q0 -73 21.5 -137 q21.5 -64 58.5 -111.5 q37 -47.5 87.5 -75 q50.5 -27.5 107.5 -27.5 q57 0 107.5 28 q50.5 28 87.5 76 q37 48 58.5 111.5 q21.5 63.5 21.5 135.5 q0 72 -21.5 135.5 q-21.5 63.5 -58.5 111.5 q-37 48 -87.5 76 q-50.5 28 -107.5 28 ZM1331 911 q-58 0 -108.5 -28.5 q-50.5 -28.5 -87.5 -77 q-37 -48.5 -58 -112 q-21 -63.5 -21 -133.5 q0 -71 21 -134.5 q21 -63.5 58 -111.5 q37 -48 87.5 -76.5 q50.5 -28.5 108.5 -28.5 q58 0 108.5 28.5 q50.5 28.5 88 77 q37.5 48.5 58.5 112 q21 63.5 21 133.5 q0 70 -21 133.5 q-21 63.5 -58.5 112 q-37.5 48.5 -88 77 q-50.5 28.5 -108.5 28.5 ZM847 1494 q0 22 8 41 q8 19 22.5 33 q14.5 14 33.5 22.5 q19 8.5 41 8.5 q21 0 40 -8.5 q19 -8.5 33.5 -22.5 q14.5 -14 22.5 -33 q8 -19 8 -41 l0 -472 q61 51 128.5 74.5 q67.5 23.5 146.5 23.5 q202 0 344 -166 l0 1 q140 -164 140 -395 q0 -232 -140 -395 l0 1 q-142 -166 -344 -166 q-153 0 -275 98 l0 -472 q0 -22 -8 -41 q-8 -19 -22.5 -33.5 q-14.5 -14.5 -33.5 -22.5 q-19 -8 -40 -8 q-45 0 -75 30 q-30 30 -30 75 l0 472 q-60 -51 -128 -74.5 q-68 -23.5 -147 -23.5 q-99 0 -187 43.5 q-88 43.5 -154 119 q-66 75.5 -104.5 177.5 q-38.5 102 -38.5 220 q0 117 38.5 219.5 q38.5 102.5 104.5 178 q66 75.5 154 119 q88 43.5 187 43.5 q76 0 145.5 -25 q69.5 -25 129.5 -73 l0 472 Z" /><glyph glyph-name="afii10088" unicode="&#x446;" d="M1055 0 l-35 0 q-21 0 -40 8 q-19 8 -33 22 q-14 14 -22.5 33 q-8.5 19 -8.5 40 q-69 -54 -146 -78.5 q-77 -24.5 -167 -24.5 q-107 0 -202 41.5 q-95 41.5 -166 112.5 q-71 71 -112.5 166 q-41.5 95 -41.5 202 l0 494 q0 21 8 40 q8 19 22 33.5 q14 14.5 33 22.5 q19 8 41 8 q22 0 41 -8 q19 -8 33 -22.5 q14 -14.5 22.5 -33.5 q8.5 -19 8.5 -40 l0 -494 q0 -65 24.5 -122 q24.5 -57 67 -99.5 q42.5 -42.5 99.5 -67 q57 -24.5 122 -24.5 q64 0 121 24.5 q57 24.5 100 67.5 q43 43 67.5 99.5 q24.5 56.5 24.5 121.5 l0 494 q0 21 8 40 q8 19 22.5 33.5 q14.5 14.5 33.5 22.5 q19 8 40 8 q22 0 41 -8 q19 -8 33 -22.5 q14 -14.5 22.5 -33.5 q8.5 -19 8.5 -40 l0 -807 l49 0 q22 0 41.5 -8 q19.5 -8 34 -22.5 q14.5 -14.5 22.5 -34 q8 -19.5 8 -41.5 q0 -190 -76 -346 q-13 -31 -40.5 -49.5 q-27.5 -18.5 -59.5 -18.5 q-22 0 -41 8.5 q-19 8.5 -33.5 22.5 q-14.5 14 -23 33.5 q-8.5 19.5 -8.5 41.5 q0 26 13 50 q37 75 44 155 Z" /><glyph glyph-name="afii10089" unicode="&#x447;" d="M77 1016 q0 21 8 40 q8 19 22 33.5 q14 14.5 33 22.5 q19 8 41 8 q22 0 41 -8 q19 -8 33 -22.5 q14 -14.5 22 -33.5 q8 -19 8 -40 l0 -228 q0 -48 18.5 -91.5 q18.5 -43.5 50.5 -75.5 q32 -32 75.5 -51 q43.5 -19 93.5 -19 q49 0 92 18.5 q43 18.5 75.5 50.5 q32.5 32 51 75 q18.5 43 18.5 92 l0 229 q0 21 8 40 q8 19 22.5 33.5 q14.5 14.5 33.5 22.5 q19 8 40 8 q22 0 41 -8 q19 -8 33 -22.5 q14 -14.5 22.5 -33.5 q8.5 -19 8.5 -40 l0 -912 q0 -21 -8.5 -40 q-8.5 -19 -22.5 -33.5 q-14 -14.5 -33 -22.5 q-19 -8 -41 -8 q-21 0 -40 8 q-19 8 -33.5 22.5 q-14.5 14.5 -22.5 33.5 q-8 19 -8 40 l0 305 q-103 -67 -237 -67 q-92 0 -173 35.5 q-81 35.5 -141.5 96 q-60.5 60.5 -96 141.5 q-35.5 81 -35.5 173 l0 228 Z" /><glyph glyph-name="afii10091" unicode="&#x449;" d="M1591 0 l-32 0 q-35 0 -62 19.5 q-27 19.5 -38 51.5 q-107 -71 -242 -71 q-181 0 -315 131 q-8 8 -14 14 q-6 6 -12 14 q-39 -39 -77 -68.5 q-38 -29.5 -79 -49.5 q-41 -20 -86.5 -30.5 q-45.5 -10.5 -99.5 -10.5 q-92 0 -173 35.5 q-81 35.5 -141.5 96 q-60.5 60.5 -96 141.5 q-35.5 81 -35.5 173 l0 570 q0 21 8 40 q8 19 22 33.5 q14 14.5 33 22.5 q19 8 41 8 q22 0 41 -8 q19 -8 33 -22.5 q14 -14.5 22.5 -33.5 q8.5 -19 8.5 -40 l0 -570 q0 -49 18.5 -92 q18.5 -43 51 -75.5 q32.5 -32.5 75.5 -51 q43 -18.5 92 -18.5 q49 0 92 18.5 q43 18.5 75 51 q32 32.5 51 75.5 q19 43 19 92 l0 570 q0 21 8 40 q8 19 22.5 33.5 q14.5 14.5 33.5 22.5 q19 8 41 8 q22 0 41 -8 q19 -8 33 -22.5 q14 -14.5 22 -33.5 q8 -19 8 -40 l0 -570 q0 -49 18.5 -92 q18.5 -43 51 -75.5 q32.5 -32.5 75.5 -51 q43 -18.5 92 -18.5 q50 0 93.5 19 q43.5 19 75.5 51.5 q32 32.5 50.5 75.5 q18.5 43 18.5 91 l0 570 q0 21 8 40 q8 19 22 33.5 q14 14.5 33 22.5 q19 8 41 8 q22 0 41 -8 q19 -8 33 -22.5 q14 -14.5 22 -33.5 q8 -19 8 -40 l0 -807 l47 0 q22 0 41.5 -8 q19.5 -8 34 -22.5 q14.5 -14.5 22.5 -34 q8 -19.5 8 -41.5 q0 -190 -76 -346 q-13 -31 -40.5 -49.5 q-27.5 -18.5 -59.5 -18.5 q-22 0 -41 8.5 q-19 8.5 -33.5 22.5 q-14.5 14 -23 33.5 q-8.5 19.5 -8.5 41.5 q0 26 13 50 q36 75 44 155 Z" /><glyph glyph-name="afii10092" unicode="&#x44a;" d="M867 209 q26 0 48.5 10 q22.5 10 39 27 q16.5 17 26 39 q9.5 22 9.5 47 q0 26 -9.5 48.5 q-9.5 22.5 -26.5 39.5 q-17 17 -39.5 26.5 q-22.5 9.5 -47.5 9.5 l-313 0 l0 -247 l313 0 ZM867 664 q69 0 129.5 -26.5 q60.5 -26.5 105.5 -71.5 q45 -45 71 -105.5 q26 -60.5 26 -128.5 q0 -68 -26 -128.5 q-26 -60.5 -71 -105.5 q-45 -45 -105.5 -71.5 q-60.5 -26.5 -129.5 -26.5 l-418 0 q-22 0 -41 8 q-19 8 -33 22.5 q-14 14.5 -22 33.5 q-8 19 -8 40 l0 807 l-199 0 q-45 0 -75 30 q-30 30 -30 75 q0 21 8 40 q8 19 22.5 33.5 q14.5 14.5 33.5 22.5 q19 8 41 8 l303 0 q22 0 41 -8 q19 -8 33 -22.5 q14 -14.5 22.5 -33.5 q8.5 -19 8.5 -40 l0 -352 l313 0 Z" /><glyph glyph-name="afii10094" unicode="&#x44c;" d="M598 209 q26 0 49 10 q23 10 39.5 27 q16.5 17 26 39.5 q9.5 22.5 9.5 46.5 q0 25 -10 47.5 q-10 22.5 -27 39.5 q-17 17 -39.5 27 q-22.5 10 -47.5 10 l-313 0 l0 -247 l313 0 ZM285 664 l313 0 q68 0 128.5 -26.5 q60.5 -26.5 105.5 -71.5 q45 -45 71.5 -105.5 q26.5 -60.5 26.5 -128.5 q0 -69 -26.5 -129.5 q-26.5 -60.5 -71.5 -105.5 q-45 -45 -105.5 -71 q-60.5 -26 -128.5 -26 l-417 0 q-22 0 -41 8 q-19 8 -33.5 22.5 q-14.5 14.5 -22.5 33.5 q-8 19 -8 40 l0 913 q1 21 9 39.5 q8 18.5 22 32.5 q14 14 32.5 22.5 q18.5 8.5 41.5 8.5 q21 0 40 -8 q19 -8 33.5 -22.5 q14.5 -14.5 22.5 -33.5 q8 -19 8 -40 l0 -352 Z" /><glyph glyph-name="afii10095" unicode="&#x44d;" d="M816 664 q-17 55 -50.5 101 q-33.5 46 -78.5 78 q-45 32 -98 50 q-53 18 -110 18 q-131 0 -231 -87 q-29 -24 -66 -24 q-45 0 -74.5 30 q-29.5 30 -29.5 75 q0 47 36 79 q154 136 365 136 q232 0 396 -164 q164 -164 164 -396 q0 -232 -164 -396 q-164 -164 -396 -164 q-212 0 -366 136 q-33 33 -33 77 q0 45 30 74.5 q30 29.5 75 29.5 q38 0 64 -22 q51 -43 107.5 -64.5 q56.5 -21.5 122.5 -21.5 q56 0 110 18 q54 18 99 50.5 q45 32.5 78.5 78 q33.5 45.5 49.5 100.5 l-406 0 q-45 0 -75 29.5 q-30 29.5 -30 74.5 q0 45 30 74.5 q30 29.5 75 29.5 l406 0 Z" /><glyph glyph-name="afii10096" unicode="&#x44e;" d="M948 911 q-73 0 -137 -27.5 q-64 -27.5 -112 -75 q-48 -47.5 -75.5 -111.5 q-27.5 -64 -27.5 -137 q0 -73 27.5 -137 q27.5 -64 75.5 -111.5 q48 -47.5 112 -75 q64 -27.5 137 -27.5 q73 0 137 28 q64 28 111.5 76 q47.5 48 75 111.5 q27.5 63.5 27.5 135.5 q0 72 -27.5 135.5 q-27.5 63.5 -75 111.5 q-47.5 48 -111.5 76 q-64 28 -137 28 ZM396 664 q18 98 69 181.5 q51 83.5 125 144.5 q74 61 166.5 95.5 q92.5 34.5 191.5 34.5 q231 0 395 -164 q165 -165 165 -396 q0 -231 -165 -396 q-164 -164 -395 -164 q-99 0 -191.5 34.5 q-92.5 34.5 -166.5 95.5 q-74 61 -125 144.5 q-51 83.5 -69 181.5 l-103 0 l0 -352 q0 -21 -8.5 -40 q-8.5 -19 -22.5 -33.5 q-14 -14.5 -33 -22.5 q-19 -8 -41 -8 q-22 0 -41 8 q-19 8 -33 22.5 q-14 14.5 -22 33.5 q-8 19 -8 40 l0 912 q0 21 8 40 q8 19 22 33.5 q14 14.5 33 22.5 q19 8 41 8 q22 0 41 -8 q19 -8 33 -22.5 q14 -14.5 22.5 -33.5 q8.5 -19 8.5 -40 l0 -352 l103 0 Z" /><glyph glyph-name="afii10097" unicode="&#x44f;" d="M721 664 l0 247 l-275 0 q-27 0 -50 -10.5 q-23 -10.5 -39.5 -28 q-16.5 -17.5 -25.5 -39.5 q-9 -22 -9 -45 q0 -25 9.5 -47.5 q9.5 -22.5 26.5 -39.5 q17 -17 39.5 -27 q22.5 -10 48.5 -10 l275 0 ZM825 1120 q22 0 41 -8 q19 -8 33 -22.5 q14 -14.5 22.5 -33.5 q8.5 -19 8.5 -40 l0 -912 q0 -21 -8.5 -40 q-8.5 -19 -22.5 -33.5 q-14 -14.5 -33 -22.5 q-19 -8 -41 -8 q-21 0 -40 8 q-19 8 -33.5 22.5 q-14.5 14.5 -22.5 33.5 q-8 19 -8 40 l0 352 l-199 0 q-71 0 -111 -69 l-174 -324 q-33 -63 -95 -63 q-22 0 -41 8 q-19 8 -33 22.5 q-14 14.5 -22 33.5 q-8 19 -8 40 q0 31 15 55 l173 327 q9 18 21 34 q-33 30 -58 60 q-25 30 -41.5 62 q-16.5 32 -25 68 q-8.5 36 -8.5 78 q0 69 26.5 129.5 q26.5 60.5 71.5 105.5 q45 45 105.5 71 q60.5 26 128.5 26 l379 0 Z" /><glyph glyph-name="afii10099" unicode="&#x452;" d="M1029 598 q0 64 -25 121 q-25 57 -67.5 99.5 q-42.5 42.5 -99.5 67.5 q-57 25 -121 25 q-65 0 -122 -25 q-57 -25 -99.5 -67.5 q-42.5 -42.5 -67.5 -99.5 q-25 -57 -25 -121 l0 -494 q0 -21 -8 -40 q-8 -19 -22 -33.5 q-14 -14.5 -33 -22.5 q-19 -8 -41 -8 q-22 0 -41 8 q-19 8 -33 22.5 q-14 14.5 -22 33.5 q-8 19 -8 40 l0 1134 l-48 0 q-45 0 -74.5 29.5 q-29.5 29.5 -29.5 74.5 q0 44 29.5 74.5 q29.5 30.5 74.5 30.5 l48 0 l0 47 q0 44 29.5 74.5 q29.5 30.5 74.5 30.5 q45 0 74.5 -30.5 q29.5 -30.5 29.5 -74.5 l0 -47 l276 0 q45 0 74.5 -30.5 q29.5 -30.5 29.5 -74.5 q0 -45 -29.5 -74.5 q-29.5 -29.5 -74.5 -29.5 l-276 0 l0 -221 q136 103 314 103 q106 0 200.5 -41 q94.5 -41 166 -112 q71.5 -71 113.5 -166 q42 -95 42 -203 l0 -744 q0 -67 -26 -127.5 q-26 -60.5 -71 -106 q-45 -45.5 -106 -72.5 q-61 -27 -130 -27 q-40 0 -73 7.5 q-33 7.5 -57 22 q-24 14.5 -37 36.5 q-13 22 -13 51 q0 22 8 41 q8 19 22.5 33 q14.5 14 33.5 22.5 q19 8.5 41 8.5 q18 0 36.5 -6.5 q18.5 -6.5 38.5 -6.5 q24 0 46.5 9.5 q22.5 9.5 40 26 q17.5 16.5 27.5 39 q10 22.5 10 49.5 l0 744 Z" /><glyph glyph-name="afii10104" unicode="&#x457;" d="M196 105 l0 910 q0 44 30.5 74.5 q30.5 30.5 73.5 30.5 q43 0 73.5 -30.5 q30.5 -30.5 31.5 -74.5 l0 -910 q-1 -44 -31.5 -74.5 q-30.5 -30.5 -73.5 -30.5 q-43 0 -73.5 30.5 q-30.5 30.5 -30.5 74.5 ZM202 1359 q0 -51 -36 -87 q-36 -36 -87 -36 q-51 0 -87 36 q-36 36 -36 87 q0 51 36 87 q36 36 87 36 q51 0 87 -36 q36 -36 36 -87 ZM657 1359 q0 -51 -36 -87 q-36 -36 -87 -36 q-51 0 -87 36 q-36 36 -36 87 q0 51 36 87 q36 36 87 36 q51 0 87 -36 q36 -36 36 -87 Z" /></font>
</defs>
</svg>
